<?xml version="1.0" standalone="no"?>
<!DOCTYPE svg PUBLIC "-//W3C//DTD SVG 20010904//EN"
 "http://www.w3.org/TR/2001/REC-SVG-20010904/DTD/svg10.dtd">
<svg version="1.0" xmlns="http://www.w3.org/2000/svg"
 width="597.000000pt" height="512.000000pt" viewBox="0 0 597.000000 512.000000"
 preserveAspectRatio="xMidYMid meet">

<g transform="translate(0.000000,512.000000) scale(0.100000,-0.100000)"
fill="#000000" stroke="none">
<path d="M978 4513 c6 -2 18 -2 25 0 6 3 1 5 -13 5 -14 0 -19 -2 -12 -5z"/>
<path d="M928 4503 c6 -2 18 -2 25 0 6 3 1 5 -13 5 -14 0 -19 -2 -12 -5z"/>
<path d="M1258 4503 c7 -3 16 -2 19 1 4 3 -2 6 -13 5 -11 0 -14 -3 -6 -6z"/>
<path d="M878 4493 c7 -3 16 -2 19 1 4 3 -2 6 -13 5 -11 0 -14 -3 -6 -6z"/>
<path d="M1300 4490 c8 -5 20 -10 25 -10 6 0 3 5 -5 10 -8 5 -19 10 -25 10 -5
0 -3 -5 5 -10z"/>
<path d="M828 4483 c6 -2 18 -2 25 0 6 3 1 5 -13 5 -14 0 -19 -2 -12 -5z"/>
<path d="M1340 4477 c0 -2 15 -14 33 -27 20 -15 27 -17 18 -6 -13 16 -51 41
-51 33z"/>
<path d="M2270 4457 c3 -3 29 -10 58 -15 30 -5 50 -6 45 -2 -9 9 -111 26 -103
17z"/>
<path d="M2190 4437 c-19 -6 -37 -13 -40 -16 -7 -9 -50 -28 -92 -42 -20 -7
-34 -17 -31 -22 4 -6 -3 -8 -15 -5 -14 4 -22 1 -22 -6 0 -6 -14 -20 -32 -30
-31 -19 -31 -19 -25 0 5 14 3 13 -11 -5 -9 -12 -34 -42 -54 -66 -21 -23 -38
-46 -38 -50 0 -5 -11 -23 -25 -41 -14 -18 -25 -35 -25 -38 0 -2 -20 -34 -45
-70 -24 -36 -58 -92 -74 -125 -28 -55 -40 -66 -149 -140 -85 -58 -143 -108
-205 -175 -48 -52 -110 -109 -137 -127 -59 -38 -66 -50 -12 -19 48 28 117 90
179 163 56 66 196 170 290 217 56 28 66 38 95 93 72 135 238 278 565 484 13 8
14 11 3 10 -8 0 -28 1 -45 2 -30 3 -30 3 -5 11 20 6 21 8 5 8 -11 0 -36 -5
-55 -11z m64 -19 c15 1 11 -4 -12 -18 -18 -11 -35 -20 -39 -20 -4 0 -16 -9
-27 -19 -12 -11 -28 -21 -36 -23 -8 -2 -17 -5 -20 -8 -21 -22 -107 -76 -117
-73 -6 2 -14 -5 -17 -15 -7 -21 -36 -34 -76 -35 -14 -1 -30 -8 -37 -16 -22
-28 -14 -35 12 -11 14 13 27 21 30 18 11 -11 -8 -36 -51 -68 -24 -19 -44 -38
-44 -42 0 -5 -4 -6 -10 -3 -5 3 -10 -1 -10 -9 0 -8 -9 -18 -20 -21 -18 -6 -25
-17 -21 -38 1 -5 -3 -6 -9 -2 -6 3 -10 -3 -10 -15 0 -11 -6 -23 -13 -26 -8 -3
-14 -10 -14 -17 0 -21 -34 -85 -49 -91 -8 -3 -14 -1 -14 4 0 6 5 10 11 10 5 0
8 4 4 9 -9 15 72 142 131 208 30 32 54 63 54 68 0 6 -5 3 -10 -5 -6 -9 -10
-10 -10 -3 0 13 74 93 86 93 3 0 4 -6 1 -14 -12 -32 29 -7 46 27 11 24 24 37
36 37 11 0 23 5 26 10 4 6 11 8 16 4 6 -3 23 8 40 25 16 17 34 31 39 31 6 0 9
6 8 12 -2 7 7 14 20 16 12 2 20 7 17 12 -3 5 6 7 21 4 18 -3 23 -1 18 7 -5 9
-2 10 12 4 10 -4 28 -7 38 -7z m-184 -73 c-7 -8 -21 -15 -31 -15 -11 0 -19 -4
-19 -10 0 -5 -8 -10 -18 -10 -10 0 -29 -11 -42 -25 -13 -14 -28 -25 -34 -25
-19 0 28 38 89 73 62 35 77 38 55 12z"/>
<path d="M662 4403 c-24 -24 -24 -25 -2 -8 42 33 44 35 37 35 -4 0 -19 -12
-35 -27z"/>
<path d="M810 4426 c0 -4 11 -27 25 -51 34 -57 69 -232 60 -300 -8 -58 -7
-355 1 -435 9 -91 55 -176 109 -201 11 -6 7 0 -8 12 -48 37 -78 110 -87 218
-14 150 -18 351 -7 351 6 0 7 41 2 113 -4 61 -9 126 -10 142 -3 52 -5 56 -15
50 -5 -3 -10 0 -10 7 0 7 -14 33 -30 57 -17 24 -30 41 -30 37z"/>
<path d="M1465 4370 c33 -33 62 -60 64 -60 3 0 -21 27 -54 60 -33 33 -62 60
-64 60 -3 0 21 -27 54 -60z"/>
<path d="M2460 4406 c0 -2 8 -10 18 -17 15 -13 16 -12 3 4 -13 16 -21 21 -21
13z"/>
<path d="M2520 4357 c14 -16 34 -33 45 -39 21 -11 20 -10 -35 37 l-35 30 25
-28z"/>
<path d="M587 4283 c-16 -30 -26 -57 -24 -59 2 -3 17 21 32 51 35 73 29 80 -8
8z"/>
<path d="M2401 4324 c0 -11 3 -14 6 -6 3 7 2 16 -1 19 -3 4 -6 -2 -5 -13z"/>
<path d="M2518 4304 c45 -31 67 -91 68 -189 l2 -90 -37 -38 c-20 -21 -29 -35
-21 -31 8 4 44 39 80 78 36 39 46 54 23 32 l-41 -38 5 60 c7 79 -12 155 -49
198 -17 19 -35 34 -41 34 -6 0 -1 -7 11 -16z"/>
<path d="M1540 4307 c0 -3 33 -31 73 -62 39 -32 65 -51 57 -41 -16 20 -130
110 -130 103z"/>
<path d="M2614 4304 c-7 -3 -1 -16 15 -33 14 -16 43 -49 63 -73 l37 -45 -27
-28 -27 -29 37 30 c20 16 37 32 37 35 2 12 -81 109 -92 109 -7 0 -6 4 3 10 12
8 9 10 -13 10 -16 0 -26 4 -22 10 7 11 6 11 -11 4z"/>
<path d="M2648 4303 c6 -2 18 -2 25 0 6 3 1 5 -13 5 -14 0 -19 -2 -12 -5z"/>
<path d="M1864 4278 l-19 -23 23 19 c21 18 27 26 19 26 -2 0 -12 -10 -23 -22z"/>
<path d="M2710 4281 c41 -35 114 -85 106 -72 -7 11 -30 27 -106 77 l-25 16 25
-21z"/>
<path d="M2420 4270 c0 -5 5 -10 11 -10 5 0 7 5 4 10 -3 6 -8 10 -11 10 -2 0
-4 -4 -4 -10z"/>
<path d="M2460 4266 c0 -2 8 -10 18 -17 15 -13 16 -12 3 4 -13 16 -21 21 -21
13z"/>
<path d="M2348 4255 c-3 -4 5 -17 19 -31 25 -25 39 -32 27 -13 -3 6 0 16 7 21
10 7 8 8 -8 3 -14 -4 -25 0 -30 10 -5 8 -12 13 -15 10z"/>
<path d="M2500 4223 c0 -6 10 -19 22 -27 35 -25 14 -29 -30 -7 -55 28 -63 10
-18 -39 20 -22 36 -37 36 -32 0 4 -11 19 -25 34 -14 15 -25 30 -25 32 0 3 23
-3 51 -15 29 -11 53 -18 55 -16 2 2 -12 21 -31 43 -19 21 -34 34 -35 27z"/>
<path d="M532 4133 c-11 -43 -28 -112 -37 -153 -10 -41 -24 -88 -32 -105 -13
-28 -13 -29 2 -10 17 22 30 63 69 229 29 126 28 155 -2 39z"/>
<path d="M2323 4202 c-14 -9 29 -76 69 -105 23 -17 32 -19 53 -9 33 15 32 25
-11 70 l-37 37 27 -37 c14 -20 26 -41 26 -46 0 -18 -33 -23 -55 -8 -29 19 -68
82 -60 96 7 12 4 12 -12 2z"/>
<path d="M2273 4194 c8 -14 -16 -37 -29 -26 -4 4 -2 -2 6 -13 22 -30 24 -32
17 -12 -5 12 0 20 14 25 20 8 20 9 3 23 -10 7 -15 9 -11 3z"/>
<path d="M1690 4186 c0 -2 14 -14 30 -26 17 -12 30 -19 30 -16 0 2 -13 14 -30
26 -16 12 -30 19 -30 16z"/>
<path d="M2166 4141 c-4 -7 -5 -15 -2 -18 9 -9 19 4 14 18 -4 11 -6 11 -12 0z"/>
<path d="M2267 4102 l-39 -26 26 -19 c32 -23 33 -43 4 -76 -19 -21 -19 -23 -3
-11 45 34 57 49 51 67 -4 12 1 23 16 32 19 12 23 11 33 -3 7 -9 17 -16 23 -16
6 0 -8 18 -30 40 -23 22 -42 40 -42 39 -1 0 -18 -12 -39 -27z m60 -8 c5 -14
-42 -38 -56 -30 -17 11 -13 22 12 34 25 12 39 11 44 -4z"/>
<path d="M2947 4085 c-4 -9 -1 -15 8 -15 8 0 15 -5 15 -11 0 -5 -3 -8 -8 -5
-4 2 -16 -3 -27 -11 -19 -14 -19 -15 5 -7 14 4 33 7 44 6 17 -1 16 2 -5 26
-13 15 -25 28 -25 30 -1 2 -4 -4 -7 -13z"/>
<path d="M2090 4082 c0 -5 7 -15 15 -22 8 -7 15 -9 15 -6 0 4 -7 14 -15 22 -8
9 -15 11 -15 6z"/>
<path d="M2184 4048 c-17 -13 -63 -54 -102 -92 -67 -65 -87 -96 -62 -96 6 0
24 -10 40 -22 l30 -22 72 75 c40 41 65 68 56 61 -12 -10 -21 -10 -41 -1 -44
20 -43 40 5 81 48 42 49 51 2 16z m-14 -122 c0 -6 -18 -30 -41 -53 -39 -41
-41 -42 -64 -27 -43 28 -41 45 11 91 l48 43 23 -22 c13 -12 23 -26 23 -32z"/>
<path d="M2085 3920 c-10 -11 -16 -22 -13 -25 3 -3 13 4 23 15 10 11 16 22 13
25 -3 3 -13 -4 -23 -15z"/>
<path d="M2100 3900 c-8 -5 -11 -12 -7 -16 4 -4 13 -2 19 4 15 15 7 24 -12 12z"/>
<path d="M2881 4035 c-24 -19 -39 -35 -33 -35 6 0 17 6 24 13 7 8 20 12 28 9
8 -3 12 -1 7 3 -4 5 0 17 10 27 24 27 13 22 -36 -17z"/>
<path d="M2140 4049 c0 -5 5 -7 10 -4 6 3 10 8 10 11 0 2 -4 4 -10 4 -5 0 -10
-5 -10 -11z"/>
<path d="M2190 4006 c0 -8 5 -18 10 -21 13 -8 42 14 34 26 -9 15 -44 10 -44
-5z"/>
<path d="M3080 4006 c0 -2 7 -7 16 -10 8 -3 12 -2 9 4 -6 10 -25 14 -25 6z"/>
<path d="M1945 3972 c-5 -4 -17 -16 -25 -27 -11 -15 -7 -14 13 4 24 22 32 31
25 31 -2 0 -7 -4 -13 -8z"/>
<path d="M1952 3940 c6 -18 30 -20 34 -2 1 7 0 8 -3 2 -3 -7 -10 -7 -21 2 -13
11 -14 11 -10 -2z"/>
<path d="M2450 3930 c-18 -12 -2 -12 25 0 13 6 15 9 5 9 -8 0 -22 -4 -30 -9z"/>
<path d="M2367 3905 c-27 -7 -52 -17 -55 -20 -4 -4 2 -5 13 -2 11 3 39 11 63
17 23 6 42 13 42 15 0 7 -7 5 -63 -10z"/>
<path d="M2995 3884 c-33 -8 -82 -18 -110 -24 -89 -17 -99 -19 -145 -31 -25
-6 -53 -12 -63 -13 -9 0 -16 -5 -15 -11 2 -5 8 -8 13 -6 20 8 157 42 159 39
73 -146 101 -198 107 -198 12 0 23 25 54 120 16 47 33 90 38 95 7 7 8 6 4 -1
-4 -6 2 -19 12 -28 11 -10 22 -29 26 -43 3 -13 17 -37 31 -51 21 -23 24 -24
19 -7 -3 11 1 6 9 -11 14 -30 12 -60 -9 -119 -6 -18 -5 -18 13 3 24 26 38 28
46 5 9 -23 -8 -37 -46 -38 -22 -1 -33 -7 -39 -23 -7 -19 -6 -20 9 -12 9 5 37
18 62 28 79 32 95 41 83 41 -6 1 -9 9 -6 19 2 10 -10 36 -29 61 -18 24 -38 51
-43 61 -6 9 -18 24 -28 34 -9 10 -14 23 -10 29 4 8 1 7 -9 -1 -14 -11 -17 -10
-23 7 -3 10 -17 26 -30 35 -41 27 -32 46 22 46 34 0 54 -6 72 -22 l26 -23 -24
28 c-20 22 -32 27 -70 26 -25 -1 -73 -7 -106 -15z m42 -10 c-3 -3 -12 -4 -19
-1 -8 3 -5 6 6 6 11 1 17 -2 13 -5z m-31 -26 c1 -10 -5 -22 -14 -28 -14 -8
-14 -11 -4 -18 11 -8 11 -10 -1 -15 -8 -3 -19 -1 -24 4 -5 5 -9 1 -9 -11 0
-11 6 -20 13 -20 16 0 17 -15 1 -43 -20 -37 -35 -49 -42 -31 -3 8 -2 12 4 9 6
-3 10 -1 10 4 0 6 -6 11 -14 11 -8 0 -18 4 -21 10 -3 6 1 7 9 4 20 -8 21 10 1
26 -12 10 -15 10 -15 -1 0 -8 -6 -5 -15 7 -18 24 -19 37 -2 29 6 -4 5 -1 -4 7
-30 25 -31 47 -1 54 15 3 41 10 57 14 43 12 68 8 71 -12z m194 -201 c0 -5 -4
-5 -10 -2 -5 3 -10 14 -10 23 0 15 2 15 10 2 5 -8 10 -19 10 -23z"/>
<path d="M2976 3845 c4 -8 8 -15 10 -15 2 0 4 7 4 15 0 8 -4 15 -10 15 -5 0
-7 -7 -4 -15z"/>
<path d="M2955 3740 c3 -5 8 -10 11 -10 2 0 4 5 4 10 0 6 -5 10 -11 10 -5 0
-7 -4 -4 -10z"/>
<path d="M3100 3877 c0 -1 21 -20 48 -42 43 -35 45 -36 17 -6 -26 29 -65 58
-65 48z"/>
<path d="M631 3822 c-1 -46 -4 -55 -23 -60 l-22 -5 23 -9 c12 -4 19 -12 16
-18 -3 -5 -2 -10 4 -10 6 0 19 -29 30 -65 35 -111 148 -262 225 -299 32 -15
206 -29 206 -16 0 8 103 55 113 52 5 -1 6 2 2 8 -6 10 5 13 35 11 11 0 12 1 2
5 -9 4 -3 13 20 27 18 12 35 21 38 22 3 0 11 4 18 8 11 8 14 4 16 -25 1 -7 5
-16 9 -19 4 -3 -6 -6 -24 -6 -29 0 -30 2 -13 14 10 7 13 13 8 13 -6 0 -20 -10
-31 -22 -11 -13 -29 -29 -39 -36 -10 -7 -14 -10 -7 -7 7 3 18 -3 25 -15 15
-23 33 -27 25 -6 -8 21 20 28 38 9 9 -8 18 -13 21 -11 2 3 -5 13 -15 22 -15
14 -24 15 -40 7 -24 -13 -31 -14 -31 -3 0 5 15 13 34 19 28 9 37 8 51 -6 17
-15 17 -15 12 2 -4 10 -1 17 6 17 9 0 9 2 0 8 -16 10 -22 52 -12 80 10 25 29
21 28 -6 0 -14 -2 -13 -9 3 -8 19 -9 19 -9 -3 -1 -16 4 -22 16 -20 11 2 19 -6
24 -22 l7 -25 1 25 c1 15 -3 30 -8 35 -14 16 -22 63 -11 70 5 3 15 16 21 28 5
12 -16 -6 -48 -40 -72 -76 -149 -136 -225 -174 -49 -25 -69 -29 -139 -29 -101
0 -145 22 -214 107 -88 108 -132 213 -145 348 -7 69 -7 69 -9 17z"/>
<path d="M2220 3860 c-21 -7 -21 -8 -5 -9 11 0 27 4 35 9 18 11 5 11 -30 0z"/>
<path d="M426 3794 c-9 -26 -15 -73 -15 -103 l2 -56 7 70 c5 39 13 83 19 99 6
16 10 31 7 33 -2 2 -11 -17 -20 -43z"/>
<path d="M1858 3833 c12 -2 30 -2 40 0 9 3 -1 5 -23 4 -22 0 -30 -2 -17 -4z"/>
<path d="M1755 3815 c-39 -18 -31 -18 25 -1 25 8 36 15 25 15 -11 0 -33 -6
-50 -14z"/>
<path d="M1935 3820 c27 -12 43 -12 25 0 -8 5 -22 9 -30 9 -10 0 -8 -3 5 -9z"/>
<path d="M541 3794 c0 -11 3 -14 6 -6 3 7 2 16 -1 19 -3 4 -6 -2 -5 -13z"/>
<path d="M2385 3799 c-4 -6 -5 -12 -2 -15 2 -3 7 2 10 11 7 17 1 20 -8 4z"/>
<path d="M3200 3805 c0 -2 10 -10 23 -16 20 -11 21 -11 8 4 -13 16 -31 23 -31
12z"/>
<path d="M1652 3769 c-61 -34 -222 -147 -222 -155 0 -3 46 26 103 65 56 38
122 81 147 95 25 14 41 26 35 26 -5 0 -34 -14 -63 -31z"/>
<path d="M3196 3760 c10 -16 19 -28 21 -26 6 6 -20 56 -29 56 -5 0 -1 -13 8
-30z"/>
<path d="M1895 3745 c-35 -22 -64 -69 -50 -83 2 -2 7 8 11 23 4 17 23 37 53
56 25 16 42 29 36 28 -5 0 -28 -11 -50 -24z"/>
<path d="M2340 3745 c-12 -13 -39 -30 -59 -36 -54 -17 -282 -121 -277 -126 2
-3 19 3 37 13 43 22 91 36 84 23 -4 -5 1 -12 9 -15 9 -3 16 -11 16 -16 0 -6 8
-16 17 -23 16 -12 15 -16 -10 -52 -15 -21 -27 -48 -26 -59 1 -18 1 -18 8 1 16
47 152 239 188 267 20 14 48 48 41 48 -2 0 -15 -11 -28 -25z m-57 -57 c-6 -7
-28 -36 -51 -65 l-40 -52 -26 20 c-34 27 -35 52 -1 43 20 -5 24 -3 19 9 -4 12
5 20 31 31 21 9 41 14 45 11 5 -3 11 -1 15 5 3 5 9 10 12 10 3 0 1 -6 -4 -12z"/>
<path d="M2190 3610 c0 -5 5 -10 11 -10 5 0 7 5 4 10 -3 6 -8 10 -11 10 -2 0
-4 -4 -4 -10z"/>
<path d="M526 3752 c-2 -4 -1 -14 5 -22 14 -23 11 -36 -4 -16 -12 17 -14 17
-27 1 -24 -29 -25 -132 -1 -210 12 -39 29 -86 39 -106 16 -35 167 -179 187
-179 5 0 -8 15 -30 33 -108 88 -162 154 -151 183 3 8 2 12 -4 9 -13 -8 -40 87
-47 163 -4 44 -2 62 6 62 7 0 9 5 6 10 -3 6 -3 15 1 22 5 8 12 3 20 -17 l12
-29 7 42 c4 23 11 42 16 42 6 0 7 5 4 10 -7 12 -32 13 -39 2z"/>
<path d="M2576 3744 c-3 -8 -2 -13 3 -9 5 3 17 -2 25 -11 18 -18 21 -11 6 17
-13 23 -26 24 -34 3z"/>
<path d="M3280 3693 c23 -29 46 -55 51 -59 16 -9 10 -22 -13 -27 -19 -4 -18
-4 5 -6 16 0 37 -6 49 -12 18 -10 -3 16 -97 116 -35 37 -34 36 5 -12z"/>
<path d="M1649 3713 c-13 -17 -13 -17 6 -3 11 8 22 16 24 17 2 2 0 3 -6 3 -6
0 -17 -8 -24 -17z"/>
<path d="M2720 3721 c0 -5 5 -13 10 -16 6 -3 10 -2 10 4 0 5 -4 13 -10 16 -5
3 -10 2 -10 -4z"/>
<path d="M2470 3624 c-47 -52 -98 -114 -114 -137 -34 -50 -76 -141 -76 -164 0
-9 -12 -31 -27 -47 l-28 -31 32 28 c18 17 34 43 37 63 7 34 26 57 26 30 0 -8
4 -17 9 -21 6 -3 6 7 0 27 -12 42 -11 57 1 38 5 -8 10 -11 10 -5 0 22 79 -112
80 -136 0 -23 -7 -28 -67 -47 -38 -11 -61 -21 -52 -21 9 -1 36 6 60 14 24 9
49 13 56 11 25 -10 15 64 -15 113 -24 38 -28 56 -27 105 1 33 6 61 12 63 6 2
29 -21 53 -52 37 -47 47 -55 76 -55 19 0 34 3 34 7 0 4 -29 36 -65 70 -62 59
-78 83 -55 83 6 0 10 5 10 12 0 16 94 113 110 113 7 0 14 8 16 18 1 9 -1 17
-5 17 -4 0 -45 -43 -91 -96z m24 -200 c5 -14 4 -15 -9 -4 -17 14 -19 20 -6 20
5 0 12 -7 15 -16z"/>
<path d="M3224 3710 c3 -8 9 -23 12 -32 4 -10 10 -18 15 -18 14 0 10 13 -12
40 -11 14 -18 18 -15 10z"/>
<path d="M2630 3665 c0 -16 16 -20 24 -6 3 5 -1 11 -9 15 -9 3 -15 0 -15 -9z"/>
<path d="M1535 3645 c-14 -13 -25 -30 -25 -36 0 -7 1 -10 3 -8 1 2 15 19 31
37 35 37 27 44 -9 7z"/>
<path d="M1841 3621 c14 -39 32 -54 61 -48 20 4 19 4 -5 6 -22 1 -31 9 -43 36
-17 42 -27 47 -13 6z"/>
<path d="M606 3617 c3 -10 9 -15 12 -12 3 3 0 11 -7 18 -10 9 -11 8 -5 -6z"/>
<path d="M2537 3606 c-7 -19 4 -27 21 -17 10 6 10 10 -1 20 -12 9 -16 8 -20
-3z"/>
<path d="M1511 3574 c0 -11 3 -14 6 -6 3 7 2 16 -1 19 -3 4 -6 -2 -5 -13z"/>
<path d="M2710 3581 c0 -6 5 -13 10 -16 6 -3 10 1 10 9 0 9 -4 16 -10 16 -5 0
-10 -4 -10 -9z"/>
<path d="M1965 3570 c-3 -6 1 -7 9 -4 18 7 21 14 7 14 -6 0 -13 -4 -16 -10z"/>
<path d="M2906 3555 c-9 -14 -39 -39 -66 -56 -49 -30 -65 -47 -34 -35 9 3 12
2 9 -5 -4 -6 -14 -8 -22 -5 -15 6 -83 -29 -83 -43 0 -4 18 -18 41 -30 22 -13
43 -30 46 -38 3 -8 12 -12 20 -9 8 3 11 1 8 -4 -4 -6 3 -27 14 -46 29 -49 27
-62 -24 -119 -25 -27 -66 -84 -90 -125 -26 -44 -61 -88 -86 -107 -24 -18 -37
-33 -31 -33 22 0 93 74 118 121 13 26 28 50 33 53 5 4 21 -8 34 -25 25 -32 25
-32 71 -19 39 11 43 14 31 27 -8 8 -21 11 -27 7 -7 -4 -10 -4 -6 0 4 5 -4 26
-18 47 -25 41 -30 54 -15 45 5 -3 23 -1 41 5 33 12 197 111 215 131 6 6 -10
-2 -33 -17 -24 -14 -50 -24 -57 -21 -7 2 -15 -4 -19 -17 -3 -12 -8 -18 -12
-14 -4 4 -13 -1 -20 -11 -9 -11 -13 -13 -14 -4 0 7 -5 10 -10 7 -6 -4 -8 -10
-5 -14 2 -5 -7 -13 -21 -20 -31 -14 -44 -14 -44 -1 0 5 6 7 13 4 25 -9 38 19
22 50 -8 16 -15 37 -15 47 0 10 -9 23 -21 30 -20 10 -17 13 31 35 49 23 61 43
29 52 -12 3 -12 2 0 -6 12 -8 7 -14 -20 -31 -35 -22 -64 -28 -54 -12 3 5 0 13
-6 17 -8 4 -9 3 -5 -4 4 -7 2 -12 -3 -12 -6 0 -11 5 -11 10 0 5 -5 9 -12 8 -7
-2 -12 2 -13 9 0 6 -4 15 -9 20 -5 5 -6 3 -2 -4 10 -18 -10 -16 -28 3 -18 18
-11 38 11 30 8 -3 11 -1 8 4 -4 6 7 10 24 10 21 0 32 6 36 20 4 11 11 17 17
14 7 -5 8 -2 3 6 -6 10 -4 12 9 7 10 -4 15 -3 11 3 -3 5 3 14 14 19 31 17 81
-24 119 -99 35 -69 64 -101 91 -99 9 0 5 5 -10 10 -18 7 -37 30 -59 72 -17 34
-50 81 -72 103 -35 36 -38 44 -29 63 16 29 7 26 -13 -4z m-92 -495 l17 -35
-20 25 c-11 14 -21 31 -21 39 0 18 4 14 24 -29z m51 -18 c-3 -3 -11 0 -18 7
-9 10 -8 11 6 5 10 -3 15 -9 12 -12z"/>
<path d="M2080 3556 c0 -2 7 -7 16 -10 8 -3 12 -2 9 4 -6 10 -25 14 -25 6z"/>
<path d="M2610 3521 c0 -5 5 -13 10 -16 6 -3 10 -2 10 4 0 5 -4 13 -10 16 -5
3 -10 2 -10 -4z"/>
<path d="M1445 3490 c3 -5 8 -10 11 -10 2 0 4 5 4 10 0 6 -5 10 -11 10 -5 0
-7 -4 -4 -10z"/>
<path d="M2540 3496 c0 -2 8 -10 18 -17 15 -13 16 -12 3 4 -13 16 -21 21 -21
13z"/>
<path d="M1360 3461 c0 -5 6 -14 13 -20 10 -8 14 -7 14 4 0 8 -6 16 -14 19 -7
3 -13 2 -13 -3z"/>
<path d="M2575 3450 c3 -5 8 -10 11 -10 2 0 4 5 4 10 0 6 -5 10 -11 10 -5 0
-7 -4 -4 -10z"/>
<path d="M2856 3445 c-11 -8 -15 -15 -9 -15 7 0 15 5 18 10 4 6 10 8 15 5 5
-3 11 -1 15 5 9 15 -17 12 -39 -5z"/>
<path d="M3305 3434 c-38 -14 -97 -34 -130 -45 -72 -24 -85 -34 -42 -34 25 0
34 -6 45 -28 16 -34 3 -57 -18 -32 -7 8 -17 15 -23 15 -6 0 -1 -7 11 -16 19
-13 21 -18 10 -32 -7 -10 2 -4 18 11 21 19 31 38 32 58 1 24 -2 28 -13 19 -9
-8 -15 -8 -20 0 -3 5 -1 10 5 10 6 0 9 4 6 8 -3 5 11 14 31 20 38 12 58 7 35
-7 -17 -10 -43 -61 -32 -61 5 0 16 10 25 23 8 12 32 34 52 50 20 15 30 27 22
28 -8 0 -6 4 6 9 28 12 47 12 40 0 -3 -6 1 -7 9 -4 16 6 23 34 9 34 -5 -1 -39
-12 -78 -26z m-17 -28 c-7 -8 -16 -12 -21 -9 -11 7 2 23 19 23 12 0 12 -2 2
-14z"/>
<path d="M3458 3453 c7 -3 16 -2 19 1 4 3 -2 6 -13 5 -11 0 -14 -3 -6 -6z"/>
<path d="M2618 3443 c6 -2 18 -2 25 0 6 3 1 5 -13 5 -14 0 -19 -2 -12 -5z"/>
<path d="M3565 3410 c21 -22 41 -40 44 -40 3 0 -13 18 -34 40 -21 22 -41 40
-44 40 -3 0 13 -18 34 -40z"/>
<path d="M431 3424 c0 -11 3 -14 6 -6 3 7 2 16 -1 19 -3 4 -6 -2 -5 -13z"/>
<path d="M700 3436 c0 -2 8 -10 18 -17 15 -13 16 -12 3 4 -13 16 -21 21 -21
13z"/>
<path d="M1060 3430 c-35 -7 -35 -7 -5 -9 17 0 37 4 45 9 17 11 11 11 -40 0z"/>
<path d="M2890 3430 c-8 -5 -10 -10 -5 -10 6 0 17 5 25 10 8 5 11 10 5 10 -5
0 -17 -5 -25 -10z"/>
<path d="M1412 3400 c0 -19 2 -27 5 -17 2 9 2 25 0 35 -3 9 -5 1 -5 -18z"/>
<path d="M2131 3407 c-1 -25 52 -147 64 -147 3 0 -7 24 -22 53 -14 28 -30 68
-34 87 -6 31 -7 32 -8 7z"/>
<path d="M3390 3420 c-15 -9 -11 -16 42 -67 15 -15 15 -20 2 -52 -8 -20 -22
-43 -32 -51 -49 -43 -46 -53 8 -22 31 17 76 39 100 50 l45 19 -43 24 c-23 13
-40 29 -38 35 4 10 -52 74 -64 74 -3 0 -12 -5 -20 -10z m75 -50 c3 -5 1 -10
-4 -10 -6 0 -11 5 -11 10 0 6 2 10 4 10 3 0 8 -4 11 -10z m5 -95 c0 -12 -19
-12 -23 0 -4 9 -1 12 9 8 7 -3 14 -7 14 -8z"/>
<path d="M1505 3410 c-4 -6 -4 -14 -1 -17 3 -4 6 -1 6 7 0 10 3 10 17 -1 14
-12 16 -12 12 0 -7 19 -25 25 -34 11z"/>
<path d="M2678 3413 c7 -3 16 -2 19 1 4 3 -2 6 -13 5 -11 0 -14 -3 -6 -6z"/>
<path d="M2802 3411 c-10 -6 -9 -11 4 -22 14 -11 16 -11 10 0 -5 8 -3 17 5 22
8 5 10 9 4 9 -5 0 -16 -4 -23 -9z"/>
<path d="M1570 3400 c0 -5 5 -10 11 -10 5 0 7 5 4 10 -3 6 -8 10 -11 10 -2 0
-4 -4 -4 -10z"/>
<path d="M2950 3400 c-9 -6 -10 -10 -3 -10 6 0 15 5 18 10 8 12 4 12 -15 0z"/>
<path d="M3358 3395 c12 -22 60 -75 68 -75 8 0 -31 53 -56 75 l-23 20 11 -20z"/>
<path d="M442 3365 c0 -16 2 -22 5 -12 2 9 2 23 0 30 -3 6 -5 -1 -5 -18z"/>
<path d="M690 3370 c0 -5 5 -10 11 -10 5 0 7 5 4 10 -3 6 -8 10 -11 10 -2 0
-4 -4 -4 -10z"/>
<path d="M1617 3366 c-4 -10 13 -22 55 -40 33 -15 63 -24 66 -21 3 3 -1 5 -8
5 -14 0 18 29 33 30 12 0 8 -38 -5 -43 -7 -3 -8 -6 -3 -6 6 0 17 4 25 9 12 7
13 13 4 27 -14 22 -45 24 -60 4 -9 -11 -16 -11 -50 4 -50 24 -51 24 -34 35 13
8 13 10 -1 10 -9 0 -19 -6 -22 -14z"/>
<path d="M2452 3360 c7 -11 17 -20 22 -20 5 0 1 9 -9 20 -10 11 -20 20 -22 20
-2 0 2 -9 9 -20z"/>
<path d="M2970 3370 c0 -5 5 -10 11 -10 8 0 8 -4 0 -14 -9 -11 -6 -16 19 -24
33 -12 37 -21 18 -41 -11 -11 -9 -11 10 -2 18 10 20 15 12 31 -6 11 -21 20
-33 21 -12 0 -16 3 -9 6 17 7 15 16 -8 31 -12 7 -20 8 -20 2z"/>
<path d="M1240 3350 c11 -11 23 -20 27 -20 3 0 -2 9 -12 20 -10 11 -22 20 -27
20 -4 0 1 -9 12 -20z"/>
<path d="M1578 3363 c7 -3 16 -2 19 1 4 3 -2 6 -13 5 -11 0 -14 -3 -6 -6z"/>
<path d="M1675 3360 c-3 -5 -1 -10 4 -10 6 0 11 5 11 10 0 6 -2 10 -4 10 -3 0
-8 -4 -11 -10z"/>
<path d="M2508 3358 c19 -19 14 -38 -18 -68 -16 -15 -30 -37 -30 -48 0 -17 8
-22 43 -26 23 -4 59 -4 79 -2 21 2 35 -1 32 -5 -3 -5 -1 -9 5 -9 6 0 15 9 21
20 10 19 9 20 -32 13 -59 -11 -106 -9 -120 5 -8 8 -2 21 21 49 17 20 31 41 31
46 0 11 -26 37 -36 37 -5 0 -3 -5 4 -12z"/>
<path d="M2940 3360 c0 -5 5 -10 10 -10 6 0 10 5 10 10 0 6 -4 10 -10 10 -5 0
-10 -4 -10 -10z"/>
<path d="M1375 3334 c-16 -14 -21 -21 -10 -16 30 16 61 41 50 41 -5 0 -23 -11
-40 -25z"/>
<path d="M3523 3339 c20 -11 37 -24 37 -29 0 -6 4 -10 10 -10 20 0 -2 27 -36
43 -48 23 -57 20 -11 -4z"/>
<path d="M3586 3351 c-4 -5 -2 -12 3 -15 5 -4 12 -2 15 3 4 5 2 12 -3 15 -5 4
-12 2 -15 -3z"/>
<path d="M3640 3356 c0 -2 8 -10 18 -17 15 -13 16 -12 3 4 -13 16 -21 21 -21
13z"/>
<path d="M2898 3338 c-16 -5 -28 -14 -28 -19 0 -16 26 -10 45 11 10 11 16 20
14 19 -2 0 -16 -5 -31 -11z"/>
<path d="M1153 3322 c10 -10 17 -26 17 -35 0 -14 5 -14 32 -5 29 10 30 12 13
25 -18 13 -18 13 0 13 10 0 16 3 12 6 -3 4 -14 4 -23 0 -13 -5 -14 -9 -4 -21
10 -12 10 -15 -2 -15 -8 0 -20 11 -26 25 -6 14 -17 25 -23 25 -8 0 -6 -7 4
-18z"/>
<path d="M451 3314 c0 -11 3 -14 6 -6 3 7 2 16 -1 19 -3 4 -6 -2 -5 -13z"/>
<path d="M2945 3321 c-3 -5 -19 -12 -35 -16 -17 -4 -30 -13 -30 -21 0 -23 19
-54 32 -54 9 0 9 3 0 12 -15 15 -16 38 -1 38 5 0 7 -5 4 -10 -3 -6 1 -17 10
-26 15 -15 15 -14 9 12 l-7 29 23 -20 c23 -19 23 -19 16 -1 -4 12 -2 23 6 28
8 5 -3 7 -27 3 -37 -5 -38 -4 -12 6 15 6 27 15 27 20 0 12 -7 12 -15 0z"/>
<path d="M3696 3315 c10 -8 23 -15 28 -15 6 0 1 7 -10 15 -10 8 -23 15 -28 15
-6 0 -1 -7 10 -15z"/>
<path d="M1278 3304 c-6 -22 12 -28 29 -9 4 4 3 5 -4 1 -7 -3 -13 1 -15 11 -3
15 -5 15 -10 -3z"/>
<path d="M695 3290 c3 -5 8 -10 11 -10 2 0 4 5 4 10 0 6 -5 10 -11 10 -5 0 -7
-4 -4 -10z"/>
<path d="M730 3290 c0 -5 5 -10 11 -10 5 0 7 5 4 10 -3 6 -8 10 -11 10 -2 0
-4 -4 -4 -10z"/>
<path d="M1825 3290 c-3 -5 1 -10 9 -10 8 0 18 5 21 10 3 6 -1 10 -9 10 -8 0
-18 -4 -21 -10z"/>
<path d="M441 3272 c-1 -13 -5 -31 -10 -40 -5 -9 -10 -57 -12 -107 -2 -49 -7
-92 -11 -95 -4 -3 -4 -25 -1 -48 3 -23 8 -41 10 -38 3 3 7 62 10 133 2 70 8
134 13 143 8 13 9 13 10 -2 0 -15 8 -34 46 -110 9 -18 41 -82 71 -142 30 -60
56 -107 58 -105 2 3 -33 78 -77 168 -44 90 -86 187 -93 215 -7 28 -13 41 -14
28z"/>
<path d="M1111 3273 c7 -10 15 -20 16 -22 2 -2 3 5 3 17 0 14 -6 22 -16 22
-14 0 -15 -3 -3 -17z"/>
<path d="M980 3276 c0 -2 7 -9 15 -16 13 -11 14 -10 9 4 -5 14 -24 23 -24 12z"/>
<path d="M1190 3263 c-25 -9 -40 -18 -34 -20 6 -2 31 5 55 16 53 24 41 26 -21
4z"/>
<path d="M1885 3270 c-3 -5 -1 -10 4 -10 6 0 11 5 11 10 0 6 -2 10 -4 10 -3 0
-8 -4 -11 -10z"/>
<path d="M1942 3240 c0 -14 2 -19 5 -12 2 6 2 18 0 25 -3 6 -5 1 -5 -13z"/>
<path d="M907 3224 c-17 -22 -17 -24 -1 -24 10 0 14 3 11 7 -4 3 -2 12 5 20 6
7 9 15 7 17 -2 2 -12 -7 -22 -20z"/>
<path d="M1095 3233 c-11 -3 -24 -9 -29 -14 -5 -5 5 -4 24 1 51 15 55 25 5 13z"/>
<path d="M3113 3203 c-15 -20 -37 -46 -48 -58 -21 -24 -48 -65 -41 -65 2 0 31
36 65 80 33 44 59 80 56 80 -2 0 -17 -16 -32 -37z"/>
<path d="M751 3221 c-21 -13 88 -43 136 -38 l38 4 -42 1 c-37 2 -43 5 -43 24
0 20 -1 21 -13 4 -9 -13 -20 -16 -40 -11 -15 4 -24 11 -21 16 7 11 3 11 -15 0z"/>
<path d="M1970 3216 c0 -11 -4 -15 -12 -10 -9 5 -9 2 1 -9 14 -18 26 -23 17
-8 -4 5 0 11 6 14 10 4 11 7 1 18 -11 11 -13 10 -13 -5z"/>
<path d="M1010 3210 c-21 -7 -21 -8 -5 -9 11 0 27 4 35 9 18 11 5 11 -30 0z"/>
<path d="M2128 3203 c7 -3 16 -2 19 1 4 3 -2 6 -13 5 -11 0 -14 -3 -6 -6z"/>
<path d="M948 3193 c6 -2 18 -2 25 0 6 3 1 5 -13 5 -14 0 -19 -2 -12 -5z"/>
<path d="M2451 3184 c0 -11 3 -14 6 -6 3 7 2 16 -1 19 -3 4 -6 -2 -5 -13z"/>
<path d="M3700 3191 c-20 -11 -93 -41 -210 -87 -52 -20 -113 -45 -135 -54 -22
-10 -65 -28 -95 -40 -84 -34 -96 -44 -155 -135 -68 -106 -78 -126 -104 -203
-28 -88 -55 -122 -94 -122 -18 0 -40 9 -54 22 -13 12 -23 17 -23 12 0 -11 37
-37 68 -46 35 -10 89 42 104 99 8 32 13 41 20 31 7 -9 8 -6 5 10 -5 19 -3 21
9 11 11 -9 14 -8 14 4 0 8 -5 17 -11 19 -7 2 -6 13 2 33 9 21 13 25 16 14 2
-9 22 -36 44 -60 32 -34 40 -50 37 -71 -3 -16 -1 -28 4 -28 4 0 8 6 8 14 0 7
17 20 38 29 l37 16 -39 -6 -39 -6 6 39 c4 21 3 35 -1 29 -18 -25 -67 0 -83 43
-7 19 -3 35 25 80 60 99 102 136 196 172 47 18 101 41 120 50 19 10 49 20 65
24 l30 8 -24 -26 c-15 -16 -32 -24 -45 -22 -12 2 -15 1 -8 -1 7 -3 9 -9 6 -15
-4 -6 -3 -9 2 -7 5 3 21 11 36 18 15 8 25 18 22 23 -3 4 0 8 6 8 7 0 10 6 7
14 -4 10 15 21 65 40 39 14 73 24 75 22 2 -2 -2 -15 -8 -29 -10 -22 -15 -25
-33 -16 -21 10 -21 10 -1 -6 20 -16 20 -16 -4 -36 -20 -17 -22 -22 -11 -29 11
-7 8 -15 -18 -39 -18 -17 -31 -37 -29 -43 1 -7 -3 -12 -10 -13 -6 0 -14 -3
-18 -7 -4 -3 1 -5 10 -4 8 1 54 42 101 91 72 76 84 93 79 114 -6 22 -5 23 12
10 16 -13 17 -12 4 3 -15 20 -35 14 -27 -8 7 -19 -9 -18 -29 3 -16 15 -14 17
17 32 18 8 53 18 78 22 l45 6 -45 1 c-25 0 -52 -3 -60 -7z m-38 -102 c-9 -11
-25 -30 -35 -41 -9 -12 -20 -19 -23 -15 -3 3 5 18 19 33 14 15 24 31 21 36 -3
4 4 8 15 8 20 0 20 -1 3 -21z"/>
<path d="M654 3156 c14 -21 26 -43 26 -47 0 -5 20 -41 45 -81 25 -40 45 -69
45 -64 0 5 -17 36 -38 70 -21 34 -44 75 -51 93 -7 17 -22 40 -33 50 -16 14
-14 9 6 -21z"/>
<path d="M2010 3182 c0 -12 19 -26 26 -19 2 2 -2 10 -11 17 -9 8 -15 8 -15 2z"/>
<path d="M2600 3182 c0 -6 -6 -10 -12 -8 -7 1 -10 1 -6 -1 3 -2 -9 -38 -29
-79 -19 -42 -32 -81 -30 -87 2 -7 9 6 16 28 7 22 26 64 43 94 16 29 27 56 24
59 -3 3 -6 0 -6 -6z"/>
<path d="M2005 3150 c10 -11 20 -20 23 -20 3 0 -3 9 -13 20 -10 11 -20 20 -23
20 -3 0 3 -9 13 -20z"/>
<path d="M3885 3153 c26 -24 88 -65 73 -47 -9 10 -32 28 -50 38 -18 10 -28 15
-23 9z"/>
<path d="M2040 3136 c0 -2 8 -10 18 -17 15 -13 16 -12 3 4 -13 16 -21 21 -21
13z"/>
<path d="M451 3114 c0 -11 3 -14 6 -6 3 7 2 16 -1 19 -3 4 -6 -2 -5 -13z"/>
<path d="M3744 3118 c3 -20 16 -38 28 -38 6 0 5 7 -3 17 -8 9 -13 19 -11 22 2
3 -1 7 -6 9 -6 2 -10 -3 -8 -10z"/>
<path d="M3777 3116 c-4 -10 0 -12 14 -9 10 3 16 9 13 14 -8 13 -21 11 -27 -5z"/>
<path d="M2078 3073 c5 -21 7 -23 10 -9 2 10 0 22 -6 28 -6 6 -7 0 -4 -19z"/>
<path d="M3520 3089 c0 -5 5 -7 10 -4 6 3 10 1 10 -4 0 -6 -3 -11 -8 -11 -4 0
-13 -10 -21 -22 -14 -23 -14 -23 7 -5 20 18 21 18 31 0 13 -23 14 -3 1 31 -9
26 -30 36 -30 15z"/>
<path d="M3570 3092 c0 -12 19 -26 26 -19 2 2 -2 10 -11 17 -9 8 -15 8 -15 2z"/>
<path d="M1725 3080 l-20 -9 20 0 c11 0 29 4 40 9 l20 9 -20 0 c-11 0 -29 -4
-40 -9z"/>
<path d="M1790 3079 c0 -5 5 -7 10 -4 6 3 10 8 10 11 0 2 -4 4 -10 4 -5 0 -10
-5 -10 -11z"/>
<path d="M1890 3070 c36 -10 66 -17 68 -15 5 5 -98 35 -117 34 -9 0 13 -9 49
-19z"/>
<path d="M2985 3080 c-3 -5 -2 -10 4 -10 5 0 13 5 16 10 3 6 2 10 -4 10 -5 0
-13 -4 -16 -10z"/>
<path d="M3817 3055 c4 -41 -25 -111 -67 -158 -18 -21 -28 -41 -24 -48 4 -7 3
-9 -3 -6 -5 3 -25 -10 -44 -30 -19 -21 -27 -33 -19 -27 8 5 49 20 90 33 41 13
82 27 90 32 8 5 42 23 75 40 75 39 71 35 51 58 -10 11 -15 24 -12 30 4 6 -6
31 -22 57 l-30 46 -4 -36 c-2 -20 0 -40 5 -45 6 -6 2 -8 -11 -5 -11 3 -22 15
-25 25 -5 17 -3 18 10 7 13 -10 15 -10 12 5 -2 10 -7 17 -11 15 -4 -2 -13 4
-20 13 -7 9 -20 19 -29 22 -13 4 -15 -1 -12 -28z m120 -87 c-3 -7 -5 -2 -5 12
0 14 2 19 5 13 2 -7 2 -19 0 -25z m-88 -9 c1 11 5 10 16 -5 8 -10 15 -15 15
-11 0 5 7 1 16 -7 20 -20 34 -20 34 -1 0 8 4 15 9 15 5 0 8 -7 7 -15 -2 -17
-56 -50 -56 -35 0 5 -13 -5 -29 -21 -16 -16 -40 -29 -53 -29 -13 0 -36 -7 -52
-15 -46 -24 -48 -17 -5 25 45 45 49 46 49 25 0 -8 -5 -15 -12 -15 -6 0 -8 -3
-5 -6 4 -4 17 3 29 15 13 11 32 28 43 37 11 8 14 13 8 9 -7 -3 -13 0 -13 7 0
10 -2 10 -9 -1 -5 -7 -11 -9 -13 -5 -3 5 -3 4 -2 -3 2 -7 -1 -15 -7 -19 -20
-12 -21 4 -3 42 15 32 19 34 25 18 5 -12 8 -14 8 -5z"/>
<path d="M3984 3081 c7 -11 46 -35 46 -28 0 3 -12 12 -26 22 -15 9 -23 12 -20
6z"/>
<path d="M1668 3075 c-2 -3 -27 -10 -54 -15 -27 -6 -76 -17 -109 -24 l-60 -13
42 -4 c23 -2 39 -1 37 2 -5 9 64 22 75 14 5 -3 11 0 13 7 2 6 21 12 41 12 35
1 47 9 28 20 -4 3 -10 3 -13 1z"/>
<path d="M1710 3050 c-9 -6 -10 -10 -3 -10 6 0 15 5 18 10 8 12 4 12 -15 0z"/>
<path d="M1908 3043 c7 -3 16 -2 19 1 4 3 -2 6 -13 5 -11 0 -14 -3 -6 -6z"/>
<path d="M1995 3035 c17 -8 39 -14 50 -14 11 0 2 6 -20 14 -50 18 -70 18 -30
0z"/>
<path d="M2127 3029 c7 -7 15 -10 18 -7 3 3 -2 9 -12 12 -14 6 -15 5 -6 -5z"/>
<path d="M4067 3029 c7 -7 15 -10 18 -7 3 3 -2 9 -12 12 -14 6 -15 5 -6 -5z"/>
<path d="M2073 3010 c2 -11 7 -23 12 -27 4 -5 5 -2 1 5 -14 23 13 12 64 -29
28 -22 54 -39 57 -36 2 3 -15 18 -39 35 -24 16 -52 39 -62 51 -24 26 -37 27
-33 1z"/>
<path d="M1381 3009 c-18 -6 -31 -12 -28 -15 6 -6 87 14 87 21 0 7 -20 5 -59
-6z"/>
<path d="M1716 3003 c-6 -14 -5 -15 5 -6 7 7 10 15 7 18 -3 3 -9 -2 -12 -12z"/>
<path d="M2743 3013 c4 -6 20 -13 37 -15 37 -6 27 8 -14 18 -19 4 -27 3 -23
-3z"/>
<path d="M4107 3009 c7 -7 15 -10 18 -7 3 3 -2 9 -12 12 -14 6 -15 5 -6 -5z"/>
<path d="M4029 2993 c8 -16 8 -23 -2 -26 -9 -4 -9 -6 0 -6 20 -2 23 15 7 35
-14 18 -15 18 -5 -3z"/>
<path d="M3415 2990 c27 -12 43 -12 25 0 -8 5 -22 9 -30 9 -10 0 -8 -3 5 -9z"/>
<path d="M1256 2969 c-84 -31 -136 -95 -136 -166 0 -42 19 -84 21 -48 1 16 3
15 8 -5 9 -38 72 -140 107 -175 18 -17 75 -53 128 -80 53 -27 96 -53 96 -58 0
-4 4 -5 10 -2 12 7 53 -19 43 -28 -6 -7 11 -11 35 -8 6 1 51 -18 100 -42 174
-88 341 -157 379 -157 28 0 34 -3 23 -10 -11 -7 -11 -10 -2 -10 7 0 10 -4 7
-10 -4 -7 39 -9 122 -8 94 1 107 3 48 5 -47 3 -82 9 -87 16 -5 9 -10 9 -20 -1
-6 -6 -19 -12 -28 -12 -9 0 -3 8 15 20 17 11 37 19 45 17 9 -2 21 6 27 19 12
25 2 40 -19 29 -7 -3 -2 2 11 12 38 28 69 25 40 -4 -8 -8 -7 -13 1 -18 9 -6 6
-13 -10 -25 l-23 -17 29 0 c16 0 23 2 16 4 -10 4 -10 8 -1 19 7 8 9 17 6 21
-3 3 1 22 9 41 8 20 12 42 9 49 -2 8 1 16 8 19 7 3 12 28 13 67 1 46 -1 54 -6
32 -4 -16 -8 -23 -9 -14 0 8 -13 26 -28 40 l-28 24 21 -25 c33 -38 39 -82 17
-123 -20 -39 -133 -134 -170 -143 -38 -10 -86 2 -169 40 -42 20 -78 36 -80 36
-5 0 -250 118 -408 196 -138 69 -173 91 -188 117 -10 18 -6 25 28 55 21 19 30
30 18 24 -11 -6 -26 -18 -33 -26 -16 -19 -42 -10 -34 11 4 11 2 14 -5 9 -8 -5
-10 -2 -6 8 4 10 1 16 -9 16 -10 0 -14 7 -11 23 4 20 4 20 -5 2 -8 -19 -9 -19
-16 -2 -4 10 -5 37 -2 59 4 28 2 37 -4 27 -5 -7 -9 -9 -10 -4 0 6 -4 1 -9 -10
-8 -18 -9 -17 -9 7 -1 33 8 58 21 58 6 0 5 -7 -2 -15 -15 -18 -10 -27 9 -16 7
4 14 21 16 37 1 15 12 35 24 42 11 8 21 21 21 28 0 8 12 16 28 20 15 3 36 9
47 14 11 5 27 11 35 13 10 4 8 5 -5 5 -11 0 -42 -8 -69 -19z m1004 -649 c0 -5
-10 -15 -22 -21 -23 -12 -23 -12 -4 10 21 23 26 26 26 11z m-70 -81 c0 -6 -72
-39 -87 -39 -3 0 9 10 28 23 34 23 59 30 59 16z"/>
<path d="M1901 2964 c0 -11 3 -14 6 -6 3 7 2 16 -1 19 -3 4 -6 -2 -5 -13z"/>
<path d="M2518 2961 c9 -25 49 -71 61 -71 5 0 -4 14 -20 31 -16 17 -29 37 -29
45 0 8 -4 14 -10 14 -5 0 -6 -9 -2 -19z"/>
<path d="M3318 2973 c7 -3 16 -2 19 1 4 3 -2 6 -13 5 -11 0 -14 -3 -6 -6z"/>
<path d="M3985 2970 c-7 -12 2 -30 16 -30 12 0 12 27 0 35 -5 3 -12 1 -16 -5z"/>
<path d="M1648 2963 c7 -3 16 -2 19 1 4 3 -2 6 -13 5 -11 0 -14 -3 -6 -6z"/>
<path d="M1741 2966 c2 -2 22 -6 44 -9 27 -4 35 -3 25 3 -14 9 -79 15 -69 6z"/>
<path d="M3334 2949 c-19 -22 -19 -22 4 -8 12 8 22 17 22 21 0 12 -6 9 -26
-13z"/>
<path d="M3420 2960 c0 -5 5 -10 10 -10 6 0 10 5 10 10 0 6 -4 10 -10 10 -5 0
-10 -4 -10 -10z"/>
<path d="M1560 2923 l-35 -35 48 32 c26 19 47 35 47 37 0 13 -31 -5 -60 -34z"/>
<path d="M1253 2880 c0 -41 2 -58 4 -37 2 20 2 54 0 75 -2 20 -4 3 -4 -38z"/>
<path d="M3258 2922 c-20 -15 -39 -33 -43 -40 -5 -14 70 42 80 59 9 13 5 11
-37 -19z"/>
<path d="M3456 2941 c-3 -5 1 -14 9 -21 10 -9 15 -9 15 -1 0 6 -6 11 -12 11
-9 0 -8 4 2 10 9 6 10 10 3 10 -6 0 -14 -4 -17 -9z"/>
<path d="M4253 2930 c14 -11 28 -20 32 -20 4 0 -4 9 -18 20 -14 11 -28 20 -32
20 -4 0 4 -9 18 -20z"/>
<path d="M1490 2931 c0 -5 5 -13 10 -16 6 -3 10 -2 10 4 0 5 -4 13 -10 16 -5
3 -10 2 -10 -4z"/>
<path d="M2750 2928 c0 -9 5 -20 10 -23 13 -8 13 5 0 25 -8 13 -10 13 -10 -2z"/>
<path d="M2808 2917 c-27 -22 -36 -51 -20 -61 5 -3 27 -6 50 -7 23 -2 42 -4
42 -5 0 -1 -9 -23 -20 -49 -11 -26 -20 -54 -20 -63 1 -9 9 6 19 33 10 28 28
70 40 94 21 40 21 43 4 36 -28 -13 -93 -18 -93 -8 0 5 7 19 16 31 19 27 16 27
-18 -1z"/>
<path d="M421 2902 c-2 -62 29 -155 72 -217 58 -82 138 -143 248 -190 140 -59
201 -88 236 -113 17 -12 34 -22 39 -22 4 0 -11 12 -32 28 -36 25 -102 57 -254
123 -182 78 -272 191 -300 374 -6 39 -8 43 -9 17z"/>
<path d="M817 2899 c10 -17 24 -36 32 -42 8 -7 2 7 -14 31 -32 49 -45 57 -18
11z"/>
<path d="M1342 2905 c0 -16 2 -22 5 -12 2 9 2 23 0 30 -3 6 -5 -1 -5 -18z"/>
<path d="M1895 2920 c27 -12 43 -12 25 0 -8 5 -22 9 -30 9 -10 0 -8 -3 5 -9z"/>
<path d="M1671 2916 c2 -2 29 -6 59 -9 36 -4 46 -3 30 3 -25 8 -97 13 -89 6z"/>
<path d="M2220 2917 c0 -2 19 -17 43 -32 23 -16 37 -22 30 -14 -12 15 -73 53
-73 46z"/>
<path d="M3195 2910 c-8 -13 5 -13 25 0 13 8 13 10 -2 10 -9 0 -20 -4 -23 -10z"/>
<path d="M1945 2900 c3 -5 11 -10 16 -10 6 0 7 5 4 10 -3 6 -11 10 -16 10 -6
0 -7 -4 -4 -10z"/>
<path d="M3471 2855 c-24 -30 -48 -52 -54 -48 -6 3 -7 1 -3 -5 4 -7 8 -12 10
-12 6 0 98 112 94 115 -2 2 -23 -20 -47 -50z"/>
<path d="M1101 2884 c0 -11 3 -14 6 -6 3 7 2 16 -1 19 -3 4 -6 -2 -5 -13z"/>
<path d="M1571 2860 c-29 -23 -50 -48 -50 -58 1 -14 2 -15 6 -1 3 14 28 37 92
86 9 7 13 13 9 13 -3 0 -29 -18 -57 -40z"/>
<path d="M1837 2876 c28 -13 62 -27 75 -30 12 -4 0 5 -29 18 -28 13 -62 27
-75 30 -12 4 0 -5 29 -18z"/>
<path d="M3415 2890 c3 -5 8 -10 11 -10 2 0 4 5 4 10 0 6 -5 10 -11 10 -5 0
-7 -4 -4 -10z"/>
<path d="M4326 2890 c6 -6 42 -29 80 -51 38 -22 62 -34 54 -25 -8 8 -44 31
-80 51 -36 20 -60 31 -54 25z"/>
<path d="M1505 2879 c-4 -6 -5 -12 -2 -15 2 -3 7 2 10 11 7 17 1 20 -8 4z"/>
<path d="M1738 2883 c7 -3 16 -2 19 1 4 3 -2 6 -13 5 -11 0 -14 -3 -6 -6z"/>
<path d="M1990 2880 c8 -5 20 -10 25 -10 6 0 3 5 -5 10 -8 5 -19 10 -25 10 -5
0 -3 -5 5 -10z"/>
<path d="M2730 2875 c0 -8 4 -15 10 -15 5 0 7 7 4 15 -4 8 -8 15 -10 15 -2 0
-4 -7 -4 -15z"/>
<path d="M2655 2846 c-17 -26 -37 -87 -30 -94 2 -2 7 9 11 24 12 50 33 82 56
87 l23 4 -22 2 c-14 0 -29 -8 -38 -23z"/>
<path d="M1218 2830 c2 -16 6 -30 8 -30 2 0 4 14 4 30 0 17 -4 30 -8 30 -5 0
-7 -13 -4 -30z"/>
<path d="M1372 2835 c0 -16 2 -22 5 -12 2 9 2 23 0 30 -3 6 -5 -1 -5 -18z"/>
<path d="M2313 2844 c0 -8 16 -27 36 -43 52 -40 70 -49 47 -23 -29 33 -8 26
40 -14 24 -19 41 -29 38 -22 -5 12 -94 80 -139 105 -18 10 -22 9 -22 -3z m47
-24 c14 -11 21 -20 15 -20 -5 0 -21 9 -35 20 -14 11 -20 20 -15 20 6 0 21 -9
35 -20z"/>
<path d="M656 2803 c15 -27 39 -62 53 -80 14 -17 55 -71 91 -119 36 -48 80
-104 99 -123 18 -20 9 -4 -20 34 -139 182 -211 280 -225 306 -8 16 -17 29 -20
29 -3 0 6 -21 22 -47z"/>
<path d="M2110 2841 c0 -5 7 -12 16 -15 14 -5 15 -4 4 9 -14 17 -20 19 -20 6z"/>
<path d="M4154 2834 c-17 -14 -17 -15 -1 -10 10 3 23 6 28 6 5 0 9 5 9 10 0
14 -13 12 -36 -6z"/>
<path d="M875 2820 c10 -11 20 -20 23 -20 3 0 -3 9 -13 20 -10 11 -20 20 -23
20 -3 0 3 -9 13 -20z"/>
<path d="M1762 2823 c-18 -9 -35 -26 -38 -40 -7 -25 12 -73 28 -73 5 0 2 10
-6 22 -21 29 -20 41 2 68 13 16 29 23 52 22 25 -1 30 2 20 8 -19 12 -19 12
-58 -7z"/>
<path d="M1948 2828 c5 -5 16 -8 23 -6 8 3 3 7 -10 11 -17 4 -21 3 -13 -5z"/>
<path d="M4280 2826 c25 -7 56 -15 70 -19 14 -4 7 2 -15 12 -22 11 -53 20 -70
20 -25 0 -23 -2 15 -13z"/>
<path d="M2690 2820 c0 -5 5 -10 11 -10 5 0 7 5 4 10 -3 6 -8 10 -11 10 -2 0
-4 -4 -4 -10z"/>
<path d="M1840 2817 c7 -8 211 -93 240 -101 l25 -6 -25 12 c-119 55 -252 108
-240 95z"/>
<path d="M2815 2810 c-3 -5 -2 -10 4 -10 5 0 13 5 16 10 3 6 2 10 -4 10 -5 0
-13 -4 -16 -10z"/>
<path d="M4050 2774 c-36 -24 -69 -46 -75 -48 -6 -2 -6 -8 2 -16 12 -13 52 12
123 77 48 45 28 40 -50 -13z"/>
<path d="M522 2790 c0 -14 2 -19 5 -12 2 6 2 18 0 25 -3 6 -5 1 -5 -13z"/>
<path d="M1466 2777 c0 -18 3 -32 5 -32 3 0 14 -9 27 -21 12 -11 41 -30 64
-42 24 -13 35 -17 24 -10 -85 59 -97 71 -103 98 -8 41 -18 45 -17 7z"/>
<path d="M2244 2786 c11 -9 24 -16 30 -16 12 0 7 5 -24 19 -24 11 -24 11 -6
-3z"/>
<path d="M4390 2790 c8 -5 20 -10 25 -10 6 0 3 5 -5 10 -8 5 -19 10 -25 10 -5
0 -3 -5 5 -10z"/>
<path d="M915 2770 c10 -11 20 -20 23 -20 3 0 -3 9 -13 20 -10 11 -20 20 -23
20 -3 0 3 -9 13 -20z"/>
<path d="M1341 2764 c0 -11 3 -14 6 -6 3 7 2 16 -1 19 -3 4 -6 -2 -5 -13z"/>
<path d="M1370 2776 c0 -2 8 -10 18 -17 15 -13 16 -12 3 4 -13 16 -21 21 -21
13z"/>
<path d="M3389 2778 c0 -2 -2 -11 -4 -21 -3 -15 -1 -16 11 -6 16 13 19 29 4
29 -5 0 -10 -1 -11 -2z"/>
<path d="M1560 2766 c0 -2 35 -25 78 -50 42 -25 65 -36 50 -23 -30 24 -128 81
-128 73z"/>
<path d="M1800 2762 c0 -15 78 -49 92 -41 10 7 10 9 0 9 -7 0 -31 9 -52 19
-22 11 -40 16 -40 13z"/>
<path d="M2320 2756 c14 -7 36 -16 50 -20 14 -3 7 3 -15 13 -45 22 -73 27 -35
7z"/>
<path d="M4504 2751 c7 -11 46 -35 46 -28 0 3 -12 12 -26 22 -15 9 -23 12 -20
6z"/>
<path d="M1241 2734 c0 -11 3 -14 6 -6 3 7 2 16 -1 19 -3 4 -6 -2 -5 -13z"/>
<path d="M3340 2724 c6 -6 7 -14 3 -17 -3 -4 -2 -7 4 -7 6 0 13 8 15 18 4 12
-1 18 -13 18 -12 0 -15 -4 -9 -12z"/>
<path d="M2415 2720 c27 -12 43 -12 25 0 -8 5 -22 9 -30 9 -10 0 -8 -3 5 -9z"/>
<path d="M2494 2718 c3 -11 0 -18 -7 -19 -7 0 3 -7 21 -15 18 -8 35 -21 38
-29 4 -8 11 -15 17 -15 6 0 7 3 4 7 -4 3 -1 13 6 22 10 14 10 14 -4 3 -13 -10
-19 -9 -29 3 -7 8 -19 15 -27 15 -8 0 -12 4 -9 8 2 4 0 14 -6 22 -8 12 -9 12
-4 -2z"/>
<path d="M2550 2720 c0 -5 5 -10 11 -10 5 0 7 5 4 10 -3 6 -8 10 -11 10 -2 0
-4 -4 -4 -10z"/>
<path d="M1917 2706 c-4 -9 -1 -18 5 -22 7 -5 8 -2 3 6 -6 9 -2 10 16 5 13 -4
22 -6 19 -3 -34 27 -38 28 -43 14z"/>
<path d="M340 2675 c-12 -19 -20 -39 -18 -43 2 -5 13 11 25 35 27 52 23 56 -7
8z"/>
<path d="M1251 2694 c0 -11 3 -14 6 -6 3 7 2 16 -1 19 -3 4 -6 -2 -5 -13z"/>
<path d="M1402 2701 c-11 -6 -9 -9 6 -13 15 -4 19 -2 15 8 -6 16 -4 16 -21 5z"/>
<path d="M1770 2705 c0 -2 41 -31 90 -63 50 -32 88 -61 84 -64 -3 -3 -1 -9 4
-12 6 -3 9 1 8 9 -2 14 -31 35 -159 118 -15 9 -27 15 -27 12z"/>
<path d="M2120 2700 c8 -5 20 -10 25 -10 6 0 3 5 -5 10 -8 5 -19 10 -25 10 -5
0 -3 -5 5 -10z"/>
<path d="M2826 2695 c-3 -9 -5 -35 -5 -58 2 -40 2 -39 9 13 7 59 6 71 -4 45z"/>
<path d="M3905 2683 c-160 -106 -190 -127 -193 -135 -2 -4 -9 -8 -14 -8 -24 0
-108 -63 -108 -81 0 -10 -13 -25 -30 -34 -38 -19 -40 -6 -2 17 17 11 21 18 11
18 -9 0 -24 -9 -33 -19 -10 -11 -31 -25 -47 -31 -16 -7 -29 -19 -29 -27 0 -8
-4 -12 -9 -8 -9 5 -159 -90 -186 -117 -17 -18 48 21 104 61 29 22 60 37 67 34
7 -2 19 5 26 16 7 12 23 21 36 21 21 0 192 103 192 116 0 3 -5 2 -11 -2 -7 -4
-10 -1 -7 7 3 8 13 16 23 17 10 2 15 0 11 -6 -3 -6 13 0 36 13 24 14 56 32 73
41 39 22 135 95 135 102 0 3 -5 1 -12 -6 -7 -7 -17 -12 -22 -12 -13 1 25 24
39 25 6 0 11 5 13 10 6 20 -24 14 -63 -12z m5 -27 c0 -3 -4 -8 -10 -11 -5 -3
-10 -1 -10 4 0 6 5 11 10 11 6 0 10 -2 10 -4z m-30 -15 c0 -5 -7 -14 -15 -21
-8 -7 -15 -9 -15 -4 0 4 -6 1 -12 -8 -7 -8 -34 -28 -61 -43 -35 -20 -46 -23
-41 -11 3 9 12 16 19 16 6 0 20 9 30 20 10 11 20 18 23 16 2 -3 16 6 30 20 28
25 42 30 42 15z m-220 -145 c0 -2 -12 -11 -27 -20 l-28 -17 24 20 c23 21 31
25 31 17z"/>
<path d="M3165 2690 c-3 -5 -1 -10 4 -10 6 0 11 5 11 10 0 6 -2 10 -4 10 -3 0
-8 -4 -11 -10z"/>
<path d="M3528 2650 c-38 -27 -68 -52 -68 -55 0 -3 20 9 44 27 25 18 60 43 78
56 18 12 28 22 23 22 -6 0 -40 -23 -77 -50z"/>
<path d="M4403 2678 c-11 -13 -36 -50 -56 -83 -20 -33 -54 -78 -76 -99 -30
-29 -37 -42 -28 -49 8 -5 5 -6 -9 -3 -14 4 -27 -1 -40 -15 -31 -35 -134 -97
-254 -154 -73 -35 -83 -39 -170 -65 -106 -33 -178 -68 -227 -114 -34 -31 -43
-45 -43 -72 0 -19 4 -34 8 -34 5 0 6 14 4 31 -3 21 -1 30 6 25 6 -3 17 3 25
15 14 19 15 20 20 2 4 -15 5 -14 6 4 1 22 55 70 73 65 5 -1 7 1 4 6 -3 5 7 15
22 22 46 23 235 78 248 73 14 -5 59 16 50 24 -3 3 -12 0 -20 -7 -9 -6 -21 -10
-28 -8 -7 3 7 13 32 24 92 39 199 100 234 132 20 18 36 30 36 27 0 -3 9 -1 21
5 11 7 18 14 15 17 -3 3 11 25 32 48 53 59 77 90 80 104 1 6 13 29 27 51 20
32 31 39 62 43 l38 4 -36 1 c-26 2 -41 -4 -56 -20z"/>
<path d="M2000 2670 c19 -11 57 -27 84 -36 36 -12 45 -19 35 -26 -11 -8 -10
-9 4 -4 9 3 68 -13 130 -35 129 -47 192 -62 225 -54 32 8 62 -3 63 -23 1 -9 5
1 8 23 4 30 10 40 24 39 9 -1 17 4 17 12 0 8 -4 14 -9 14 -5 0 -12 12 -14 28
-3 22 -4 20 -6 -10 -3 -77 -95 -92 -242 -40 -153 54 -304 113 -313 123 -6 5
-17 9 -25 9 -9 -1 0 -9 19 -20z"/>
<path d="M2186 2676 c50 -22 82 -27 39 -7 -22 11 -47 20 -55 20 -8 0 -1 -6 16
-13z"/>
<path d="M3250 2675 c-33 -19 -21 -19 21 0 19 8 27 14 19 14 -8 0 -26 -6 -40
-14z"/>
<path d="M4528 2683 c7 -3 16 -2 19 1 4 3 -2 6 -13 5 -11 0 -14 -3 -6 -6z"/>
<path d="M2665 2670 c3 -5 8 -10 11 -10 2 0 4 5 4 10 0 6 -5 10 -11 10 -5 0
-7 -4 -4 -10z"/>
<path d="M4570 2672 c8 -5 26 -13 40 -16 17 -5 20 -4 10 2 -8 5 -26 13 -40 16
-17 5 -20 4 -10 -2z"/>
<path d="M1020 2640 c12 -16 24 -30 26 -30 3 0 -4 14 -16 30 -12 17 -24 30
-26 30 -3 0 4 -13 16 -30z"/>
<path d="M1460 2666 c0 -2 7 -7 16 -10 8 -3 12 -2 9 4 -6 10 -25 14 -25 6z"/>
<path d="M1725 2662 c6 -4 69 -46 140 -93 72 -47 139 -96 150 -108 19 -21 19
-24 3 -52 -17 -29 -12 -39 10 -17 20 20 13 56 -15 83 -30 29 -278 195 -291
195 -4 0 -2 -4 3 -8z"/>
<path d="M1610 2656 c0 -3 9 -10 20 -16 11 -6 20 -8 20 -6 0 3 -9 10 -20 16
-11 6 -20 8 -20 6z"/>
<path d="M1307 2639 c-15 -9 -16 -12 -3 -25 34 -34 659 -334 671 -323 2 3 -42
24 -98 48 -131 56 -538 258 -556 276 -12 12 -9 15 20 23 29 9 30 10 9 11 -14
0 -33 -4 -43 -10z"/>
<path d="M1510 2645 c0 -7 61 -37 66 -33 2 3 -12 12 -31 21 -19 9 -35 15 -35
12z"/>
<path d="M1995 2635 c11 -9 43 -30 70 -46 28 -16 61 -37 75 -46 l25 -15 -25
21 c-14 12 -43 31 -65 44 -22 13 -53 31 -70 41 -25 15 -27 15 -10 1z"/>
<path d="M2296 2636 c50 -22 82 -27 39 -7 -22 11 -47 20 -55 20 -8 0 -1 -6 16
-13z"/>
<path d="M4670 2640 c8 -5 20 -10 25 -10 6 0 3 5 -5 10 -8 5 -19 10 -25 10 -5
0 -3 -5 5 -10z"/>
<path d="M1380 2635 c0 -4 60 -35 69 -35 8 0 -32 26 -51 33 -10 4 -18 5 -18 2z"/>
<path d="M1660 2626 c0 -2 24 -19 53 -37 28 -17 62 -38 75 -47 12 -8 22 -12
22 -9 0 7 -80 61 -121 82 -16 9 -29 14 -29 11z"/>
<path d="M2631 2614 c0 -11 3 -14 6 -6 3 7 2 16 -1 19 -3 4 -6 -2 -5 -13z"/>
<path d="M4560 2626 c0 -2 14 -14 30 -26 17 -12 30 -19 30 -16 0 2 -13 14 -30
26 -16 12 -30 19 -30 16z"/>
<path d="M2686 2612 c-3 -6 -1 -14 5 -17 14 -9 20 -2 10 14 -6 8 -11 9 -15 3z"/>
<path d="M1597 2599 c7 -7 15 -10 18 -7 3 3 -2 9 -12 12 -14 6 -15 5 -6 -5z"/>
<path d="M2388 2603 c7 -3 16 -2 19 1 4 3 -2 6 -13 5 -11 0 -14 -3 -6 -6z"/>
<path d="M2500 2600 c-8 -5 -10 -10 -5 -10 6 0 17 5 25 10 8 5 11 10 5 10 -5
0 -17 -5 -25 -10z"/>
<path d="M1070 2590 c0 -4 58 -63 129 -131 139 -133 262 -269 305 -337 36 -57
39 -53 7 10 -18 37 -81 108 -219 244 -131 130 -187 193 -176 196 10 2 6 7 -15
15 -17 6 -31 8 -31 3z"/>
<path d="M1467 2589 c7 -7 15 -10 18 -7 3 3 -2 9 -12 12 -14 6 -15 5 -6 -5z"/>
<path d="M4910 2593 c0 -5 13 -17 28 -27 l27 -19 -24 26 c-26 28 -31 32 -31
20z"/>
<path d="M1640 2580 c8 -5 20 -10 25 -10 6 0 3 5 -5 10 -8 5 -19 10 -25 10 -5
0 -3 -5 5 -10z"/>
<path d="M3126 2568 c-3 -13 0 -29 7 -36 11 -10 12 -6 9 23 -5 41 -8 43 -16
13z"/>
<path d="M302 2560 c0 -14 2 -19 5 -12 2 6 2 18 0 25 -3 6 -5 1 -5 -13z"/>
<path d="M2641 2572 c-1 -18 36 -89 51 -98 6 -4 2 8 -10 27 -11 19 -26 46 -31
60 -5 13 -10 18 -10 11z"/>
<path d="M1148 2563 c7 -3 16 -2 19 1 4 3 -2 6 -13 5 -11 0 -14 -3 -6 -6z"/>
<path d="M1535 2557 c22 -15 55 -28 55 -22 0 4 -60 35 -69 35 -3 0 3 -6 14
-13z"/>
<path d="M1995 2555 c11 -9 29 -21 40 -26 l20 -10 -20 16 c-11 9 -29 21 -40
26 l-20 10 20 -16z"/>
<path d="M1190 2550 c8 -5 24 -10 34 -10 26 0 18 6 -19 14 -22 5 -26 4 -15 -4z"/>
<path d="M2209 2537 c26 -28 31 -32 31 -19 0 4 -13 16 -28 26 l-27 19 24 -26z"/>
<path d="M1250 2536 c0 -2 7 -7 16 -10 8 -3 12 -2 9 4 -6 10 -25 14 -25 6z"/>
<path d="M1821 2527 c2 -1 13 -9 24 -17 19 -14 19 -14 6 3 -7 9 -18 17 -24 17
-6 0 -8 -1 -6 -3z"/>
<path d="M3198 2513 c56 -27 57 -44 7 -93 -25 -25 -45 -47 -45 -50 0 -4 26 18
58 49 32 31 69 64 83 74 21 16 20 16 -9 -1 l-33 -19 -31 29 c-16 15 -38 28
-47 28 -9 0 -1 -8 17 -17z"/>
<path d="M5000 2526 c0 -2 14 -14 30 -26 17 -12 30 -19 30 -16 0 2 -13 14 -30
26 -16 12 -30 19 -30 16z"/>
<path d="M1797 2509 c7 -7 15 -10 18 -7 3 3 -2 9 -12 12 -14 6 -15 5 -6 -5z"/>
<path d="M4880 2510 c0 -5 5 -10 11 -10 5 0 7 5 4 10 -3 6 -8 10 -11 10 -2 0
-4 -4 -4 -10z"/>
<path d="M1320 2501 c0 -5 5 -13 10 -16 6 -3 10 -2 10 4 0 5 -4 13 -10 16 -5
3 -10 2 -10 -4z"/>
<path d="M1640 2506 c0 -2 7 -7 16 -10 8 -3 12 -2 9 4 -6 10 -25 14 -25 6z"/>
<path d="M2080 2504 c0 -2 19 -16 43 -31 23 -15 53 -36 66 -47 19 -17 22 -18
15 -4 -9 16 -124 92 -124 82z"/>
<path d="M520 2491 c0 -5 7 -12 16 -15 14 -5 15 -4 4 9 -14 17 -20 19 -20 6z"/>
<path d="M2580 2491 c0 -6 4 -13 10 -16 6 -3 7 1 4 9 -7 18 -14 21 -14 7z"/>
<path d="M4319 2483 c-13 -16 -12 -17 4 -4 9 7 17 15 17 17 0 8 -8 3 -21 -13z"/>
<path d="M4910 2496 c0 -3 9 -10 20 -16 11 -6 20 -8 20 -6 0 3 -9 10 -20 16
-11 6 -20 8 -20 6z"/>
<path d="M1710 2470 c19 -11 40 -19 45 -19 6 0 -6 8 -25 19 -19 11 -39 19 -45
19 -5 0 6 -8 25 -19z"/>
<path d="M1875 2480 c-3 -6 1 -7 9 -4 18 7 21 14 7 14 -6 0 -13 -4 -16 -10z"/>
<path d="M2720 2470 c0 -5 5 -10 11 -10 5 0 7 5 4 10 -3 6 -8 10 -11 10 -2 0
-4 -4 -4 -10z"/>
<path d="M582 2448 c30 -26 88 -62 88 -55 0 5 -73 56 -100 70 -8 5 -3 -2 12
-15z"/>
<path d="M2542 2445 c0 -16 2 -22 5 -12 2 9 2 23 0 30 -3 6 -5 -1 -5 -18z"/>
<path d="M1835 2416 c66 -33 96 -44 82 -30 -7 7 -109 51 -137 60 -8 2 17 -11
55 -30z"/>
<path d="M1950 2440 c8 -5 20 -10 25 -10 6 0 3 5 -5 10 -8 5 -19 10 -25 10 -5
0 -3 -5 5 -10z"/>
<path d="M5130 2437 c0 -3 12 -12 26 -22 15 -9 23 -12 20 -6 -7 11 -46 35 -46
28z"/>
<path d="M2417 2412 c-15 -16 -15 -19 6 -31 20 -13 21 -13 8 2 -11 14 -11 20
-1 32 18 21 6 19 -13 -3z"/>
<path d="M5016 2404 c18 -26 28 -27 18 -1 -3 8 -12 18 -20 21 -11 4 -11 0 2
-20z"/>
<path d="M5064 2411 c20 -22 26 -25 26 -13 0 4 -10 13 -22 21 -23 14 -23 14
-4 -8z"/>
<path d="M2480 2410 c0 -5 5 -10 11 -10 5 0 7 5 4 10 -3 6 -8 10 -11 10 -2 0
-4 -4 -4 -10z"/>
<path d="M4259 2403 c-13 -16 -12 -17 4 -4 16 13 21 21 13 21 -2 0 -10 -8 -17
-17z"/>
<path d="M4320 2409 c0 -5 5 -7 10 -4 6 3 10 8 10 11 0 2 -4 4 -10 4 -5 0 -10
-5 -10 -11z"/>
<path d="M2542 2385 c0 -16 2 -22 5 -12 2 9 2 23 0 30 -3 6 -5 -1 -5 -18z"/>
<path d="M5142 2400 c9 -6 42 -38 73 -73 31 -34 52 -52 46 -41 -14 28 -112
124 -125 124 -6 0 -3 -5 6 -10z"/>
<path d="M2160 2351 c-25 -24 -60 -50 -79 -58 -18 -8 -31 -16 -28 -19 3 -3 18
1 34 10 33 17 130 102 123 107 -3 2 -25 -16 -50 -40z"/>
<path d="M2815 2380 c10 -11 23 -20 28 -20 6 0 0 9 -13 20 -13 11 -25 20 -28
20 -3 0 3 -9 13 -20z"/>
<path d="M4190 2356 c-10 -24 -23 -47 -29 -50 -6 -4 -11 -12 -11 -17 0 -6 11
3 25 18 15 17 23 21 19 11 -3 -10 -2 -18 4 -18 13 0 23 28 11 32 -5 2 -6 15 0
36 14 46 4 40 -19 -12z"/>
<path d="M4389 2383 c-13 -16 -12 -17 4 -4 9 7 17 15 17 17 0 8 -8 3 -21 -13z"/>
<path d="M5190 2396 c0 -2 8 -10 18 -17 15 -13 16 -12 3 4 -13 16 -21 21 -21
13z"/>
<path d="M690 2378 c8 -9 40 -29 70 -45 52 -28 108 -63 158 -99 20 -15 22 -15
22 0 0 9 -4 16 -8 16 -5 0 -33 15 -63 33 -98 59 -194 110 -179 95z"/>
<path d="M1970 2370 c-9 -6 -10 -10 -3 -10 6 0 15 5 18 10 8 12 4 12 -15 0z"/>
<path d="M2330 2355 c-26 -28 -26 -41 0 -15 11 11 27 20 35 20 8 0 15 4 15 8
0 16 -30 8 -50 -13z"/>
<path d="M2470 2365 c-7 -9 -11 -18 -8 -20 3 -3 11 1 18 10 7 9 11 18 8 20 -3
3 -11 -1 -18 -10z"/>
<path d="M5010 2361 c0 -6 4 -13 10 -16 6 -3 7 1 4 9 -7 18 -14 21 -14 7z"/>
<path d="M5230 2366 c0 -2 8 -10 18 -17 15 -13 16 -12 3 4 -13 16 -21 21 -21
13z"/>
<path d="M1030 2355 c0 -2 18 -14 40 -25 22 -11 40 -18 40 -15 0 2 -18 14 -40
25 -22 11 -40 18 -40 15z"/>
<path d="M1603 2330 c14 -11 30 -20 35 -20 6 0 14 -9 17 -20 8 -25 25 -27 18
-2 -5 17 -66 62 -85 62 -6 0 1 -9 15 -20z"/>
<path d="M2285 2339 c-4 -6 -5 -12 -2 -15 2 -3 7 2 10 11 7 17 1 20 -8 4z"/>
<path d="M3146 2334 c-11 -30 -6 -53 15 -64 11 -7 23 -9 26 -7 2 3 -5 8 -17
12 -19 6 -21 12 -17 41 6 36 3 44 -7 18z"/>
<path d="M5160 2346 c0 -2 8 -10 18 -17 15 -13 16 -12 3 4 -13 16 -21 21 -21
13z"/>
<path d="M1545 2330 c-3 -5 -1 -10 4 -10 6 0 11 5 11 10 0 6 -2 10 -4 10 -3 0
-8 -4 -11 -10z"/>
<path d="M1670 2330 c8 -5 20 -10 25 -10 6 0 3 5 -5 10 -8 5 -19 10 -25 10 -5
0 -3 -5 5 -10z"/>
<path d="M2880 2337 c0 -3 18 -20 40 -37 22 -17 40 -29 40 -27 0 3 -18 20 -40
37 -22 17 -40 29 -40 27z"/>
<path d="M3423 2302 c-1 -26 1 -32 7 -22 12 18 13 47 3 53 -5 3 -9 -11 -10
-31z"/>
<path d="M4980 2336 c0 -2 8 -10 18 -17 15 -13 16 -12 3 4 -13 16 -21 21 -21
13z"/>
<path d="M2418 2323 c7 -3 16 -2 19 1 4 3 -2 6 -13 5 -11 0 -14 -3 -6 -6z"/>
<path d="M2450 2319 c0 -5 5 -7 10 -4 6 3 10 8 10 11 0 2 -4 4 -10 4 -5 0 -10
-5 -10 -11z"/>
<path d="M4117 2312 c-10 -10 -17 -22 -17 -27 0 -5 -8 -18 -17 -29 -16 -18
-16 -19 -1 -8 15 12 62 82 54 82 -1 0 -10 -8 -19 -18z"/>
<path d="M4379 2303 l-24 -28 28 24 c25 23 32 31 24 31 -2 0 -14 -12 -28 -27z"/>
<path d="M2372 2306 c-30 -17 -42 -31 -17 -21 11 4 29 8 40 7 11 0 14 2 7 5
-6 3 -10 9 -6 14 6 11 5 11 -24 -5z"/>
<path d="M5165 2300 c10 -11 20 -20 23 -20 3 0 -3 9 -13 20 -10 11 -20 20 -23
20 -3 0 3 -9 13 -20z"/>
<path d="M1130 2300 c8 -5 20 -10 25 -10 6 0 3 5 -5 10 -8 5 -19 10 -25 10 -5
0 -3 -5 5 -10z"/>
<path d="M1680 2301 c0 -5 7 -11 15 -15 8 -3 15 -1 15 3 0 5 -7 11 -15 15 -8
3 -15 1 -15 -3z"/>
<path d="M4244 2288 l-19 -23 23 19 c12 11 22 21 22 23 0 8 -8 2 -26 -19z"/>
<path d="M4069 2283 c-13 -16 -12 -17 4 -4 9 7 17 15 17 17 0 8 -8 3 -21 -13z"/>
<path d="M1730 2280 c12 -8 11 -10 -7 -10 -25 0 -26 -4 -13 -35 l9 -20 1 20 1
20 9 -20 9 -20 0 20 c1 17 4 15 20 -10 11 -19 27 -31 42 -32 18 -2 20 0 9 7
-8 5 -17 7 -22 4 -9 -6 -40 54 -33 65 2 5 -2 12 -11 15 -24 9 -31 7 -14 -4z"/>
<path d="M2005 2280 c27 -12 43 -12 25 0 -8 5 -22 9 -30 9 -10 0 -8 -3 5 -9z"/>
<path d="M2471 2276 c-9 -10 -9 -16 -1 -21 17 -10 37 12 24 25 -8 8 -15 6 -23
-4z m19 -6 c0 -5 -5 -10 -11 -10 -5 0 -7 5 -4 10 3 6 8 10 11 10 2 0 4 -4 4
-10z"/>
<path d="M5010 2286 c0 -2 7 -7 16 -10 8 -3 12 -2 9 4 -6 10 -25 14 -25 6z"/>
<path d="M5386 2239 c57 -61 84 -98 125 -173 16 -28 29 -46 29 -41 0 34 -111
192 -169 239 -26 22 -22 15 15 -25z"/>
<path d="M1200 2269 c26 -17 70 -40 70 -35 0 5 -69 46 -78 46 -4 0 0 -5 8 -11z"/>
<path d="M4179 2258 c-7 -12 -21 -30 -33 -40 -19 -16 -19 -17 -2 -11 14 5 17
3 11 -7 -6 -9 -4 -11 4 -6 7 5 10 11 7 14 -3 3 0 12 7 21 15 17 29 51 22 51
-2 0 -10 -10 -16 -22z"/>
<path d="M5150 2276 c0 -2 7 -7 16 -10 8 -3 12 -2 9 4 -6 10 -25 14 -25 6z"/>
<path d="M2268 2259 c-10 -7 -10 -10 1 -21 11 -11 13 -11 6 1 -6 11 -3 13 13
9 12 -3 23 -1 25 5 2 7 11 5 26 -5 20 -14 20 -16 4 -22 -17 -7 -17 -8 0 -18
10 -5 21 -7 24 -4 4 3 1 6 -6 6 -9 0 -8 4 3 15 19 20 21 19 51 -11 14 -14 29
-23 33 -19 4 3 -1 11 -11 17 -14 7 -17 17 -12 36 6 24 5 25 -7 9 -12 -16 -18
-16 -43 -7 -39 15 -90 19 -107 9z"/>
<path d="M2518 2235 c-23 -35 -42 -48 -32 -21 3 8 0 17 -7 22 -7 4 -10 3 -5
-4 3 -6 2 -22 -4 -36 -11 -30 -6 -33 19 -8 23 22 64 82 57 82 -3 0 -16 -16
-28 -35z"/>
<path d="M2985 2250 c10 -11 20 -20 23 -20 3 0 -3 9 -13 20 -10 11 -20 20 -23
20 -3 0 3 -9 13 -20z"/>
<path d="M1770 2255 c0 -10 29 -24 34 -17 3 6 -3 12 -14 15 -11 3 -20 4 -20 2z"/>
<path d="M1857 2249 c7 -7 15 -10 18 -7 3 3 -2 9 -12 12 -14 6 -15 5 -6 -5z"/>
<path d="M3208 2248 c6 -6 18 -8 28 -6 14 3 12 5 -9 10 -19 3 -25 2 -19 -4z"/>
<path d="M4040 2249 c0 -5 5 -7 10 -4 6 3 10 8 10 11 0 2 -4 4 -10 4 -5 0 -10
-5 -10 -11z"/>
<path d="M5225 2252 c-9 -10 -5 -23 5 -17 14 9 13 -8 -2 -23 -6 -6 -9 -14 -6
-18 5 -5 38 46 38 59 0 5 -29 5 -35 -1z"/>
<path d="M2805 2240 c-3 -5 -1 -10 4 -10 6 0 11 5 11 10 0 6 -2 10 -4 10 -3 0
-8 -4 -11 -10z"/>
<path d="M3405 2219 c-4 -19 -12 -42 -18 -54 -5 -11 -13 -26 -17 -34 -3 -8
-14 -15 -25 -17 -10 -1 -24 -9 -32 -17 -12 -12 -12 -14 1 -14 8 0 12 5 9 10
-4 6 0 8 10 4 22 -8 61 40 77 97 7 26 10 49 7 52 -3 3 -8 -9 -12 -27z"/>
<path d="M4125 2240 c-3 -5 -1 -10 4 -10 6 0 11 5 11 10 0 6 -2 10 -4 10 -3 0
-8 -4 -11 -10z"/>
<path d="M5190 2230 c6 -11 13 -20 16 -20 2 0 0 9 -6 20 -6 11 -13 20 -16 20
-2 0 0 -9 6 -20z"/>
<path d="M1847 2216 c15 -13 30 -23 32 -20 5 4 -41 43 -52 44 -4 0 5 -11 20
-24z"/>
<path d="M953 2217 c-6 -9 12 -24 19 -15 2 2 17 -9 33 -24 20 -19 36 -26 49
-22 12 4 16 2 12 -5 -4 -6 11 -19 35 -31 22 -12 38 -17 34 -11 -9 15 5 13 35
-5 l25 -15 -25 7 c-30 8 -17 -7 21 -23 21 -9 26 -8 26 4 0 17 -166 102 -186
95 -8 -2 -11 -1 -9 4 9 14 -60 55 -69 41z m157 -82 c14 -8 21 -14 15 -14 -5 0
-21 6 -35 14 -14 8 -20 14 -15 14 6 0 21 -6 35 -14z"/>
<path d="M1280 2226 c0 -3 12 -12 28 -20 15 -8 58 -39 95 -70 38 -31 72 -56
75 -56 4 0 -9 13 -28 29 -19 16 -48 40 -64 54 -31 27 -106 72 -106 63z"/>
<path d="M4005 2209 c-40 -25 -15 -25 27 1 18 11 26 20 18 19 -8 0 -28 -9 -45
-20z"/>
<path d="M4239 2213 c-13 -16 -12 -17 4 -4 16 13 21 21 13 21 -2 0 -10 -8 -17
-17z"/>
<path d="M1901 2204 c0 -11 3 -14 6 -6 3 7 2 16 -1 19 -3 4 -6 -2 -5 -13z"/>
<path d="M1930 2211 c0 -10 30 -24 37 -17 3 2 -5 9 -16 16 -12 6 -21 7 -21 1z"/>
<path d="M2300 2210 c0 -5 -7 -10 -15 -10 -8 0 -15 -4 -15 -8 0 -17 36 -7 37
10 1 10 0 18 -3 18 -2 0 -4 -4 -4 -10z"/>
<path d="M3341 2204 c0 -11 3 -14 6 -6 3 7 2 16 -1 19 -3 4 -6 -2 -5 -13z"/>
<path d="M311 2194 c0 -11 3 -14 6 -6 3 7 2 16 -1 19 -3 4 -6 -2 -5 -13z"/>
<path d="M4430 2199 c0 -5 5 -7 10 -4 6 3 10 8 10 11 0 2 -4 4 -10 4 -5 0 -10
-5 -10 -11z"/>
<path d="M5180 2201 c0 -5 6 -12 13 -14 6 -3 3 -6 -9 -6 -12 -1 -29 -12 -40
-25 -10 -14 -21 -23 -26 -20 -4 3 -8 -2 -8 -10 0 -21 16 -20 24 0 4 9 13 14
21 10 10 -4 15 1 15 15 0 16 4 19 20 14 15 -5 20 -2 20 13 0 11 -7 22 -15 26
-8 3 -15 1 -15 -3z"/>
<path d="M2018 2183 c6 -2 18 -2 25 0 6 3 1 5 -13 5 -14 0 -19 -2 -12 -5z"/>
<path d="M2408 2182 c-28 -6 -21 -20 8 -16 14 1 28 4 30 7 8 7 -19 14 -38 9z"/>
<path d="M2650 2175 c0 -8 5 -15 10 -15 6 0 10 7 10 15 0 8 -4 15 -10 15 -5 0
-10 -7 -10 -15z"/>
<path d="M1858 2173 c6 -2 18 -2 25 0 6 3 1 5 -13 5 -14 0 -19 -2 -12 -5z"/>
<path d="M3739 2163 c-13 -15 -12 -15 9 -4 23 12 28 21 13 21 -5 0 -15 -7 -22
-17z"/>
<path d="M321 2160 c0 -8 4 -22 9 -30 12 -18 12 -2 0 25 -6 13 -9 15 -9 5z"/>
<path d="M1958 2163 c12 -2 32 -2 45 0 12 2 2 4 -23 4 -25 0 -35 -2 -22 -4z"/>
<path d="M2038 2163 c7 -3 16 -2 19 1 4 3 -2 6 -13 5 -11 0 -14 -3 -6 -6z"/>
<path d="M2338 2163 c6 -2 18 -2 25 0 6 3 1 5 -13 5 -14 0 -19 -2 -12 -5z"/>
<path d="M3160 2146 c14 -18 13 -19 -5 -12 -16 6 -18 5 -7 -5 8 -9 15 -10 22
-3 8 8 5 15 -7 25 -17 13 -17 13 -3 -5z"/>
<path d="M3290 2153 c0 -6 8 -17 18 -24 16 -13 16 -13 2 6 -8 11 -16 22 -17
24 -2 2 -3 0 -3 -6z"/>
<path d="M3830 2150 c0 -5 5 -10 11 -10 5 0 7 5 4 10 -3 6 -8 10 -11 10 -2 0
-4 -4 -4 -10z"/>
<path d="M5074 2140 c0 -20 7 -25 19 -14 7 7 -2 34 -12 34 -4 0 -7 -9 -7 -20z"/>
<path d="M4145 2140 c-3 -6 1 -7 9 -4 18 7 21 14 7 14 -6 0 -13 -4 -16 -10z"/>
<path d="M2290 2120 c-6 -11 -8 -20 -6 -20 3 0 10 9 16 20 6 11 8 20 6 20 -3
0 -10 -9 -16 -20z"/>
<path d="M3905 2130 c3 -5 8 -10 11 -10 2 0 4 5 4 10 0 6 -5 10 -11 10 -5 0
-7 -4 -4 -10z"/>
<path d="M4631 2124 c0 -11 3 -14 6 -6 3 7 2 16 -1 19 -3 4 -6 -2 -5 -13z"/>
<path d="M4715 2120 c-10 -11 -14 -20 -9 -20 5 0 15 9 22 20 7 11 11 20 9 20
-2 0 -12 -9 -22 -20z"/>
<path d="M4945 2131 c3 -5 0 -13 -6 -17 -12 -7 6 -24 26 -24 6 0 4 4 -4 9 -9
6 -10 11 -2 15 13 8 5 26 -10 26 -6 0 -8 -4 -4 -9z"/>
<path d="M5017 2129 c7 -7 15 -10 18 -7 3 3 -2 9 -12 12 -14 6 -15 5 -6 -5z"/>
<path d="M2070 2115 c0 -8 2 -15 4 -15 2 0 6 7 10 15 3 8 1 15 -4 15 -6 0 -10
-7 -10 -15z"/>
<path d="M2125 2119 c-4 -6 -5 -12 -2 -15 2 -3 7 2 10 11 7 17 1 20 -8 4z"/>
<path d="M2230 2115 c0 -8 2 -15 4 -15 2 0 6 7 10 15 3 8 1 15 -4 15 -6 0 -10
-7 -10 -15z"/>
<path d="M2347 2123 c-4 -3 -7 -11 -7 -17 0 -6 5 -5 12 2 6 6 9 14 7 17 -3 3
-9 2 -12 -2z"/>
<path d="M3740 2114 c-14 -8 -18 -13 -10 -13 24 1 55 15 44 21 -5 2 -20 -1
-34 -8z"/>
<path d="M3800 2120 c-8 -5 -12 -12 -9 -15 4 -3 12 1 19 10 14 17 11 19 -10 5z"/>
<path d="M4295 2100 c-16 -17 -35 -30 -44 -30 -8 0 -11 -3 -8 -7 4 -4 -10 -15
-30 -25 -38 -19 -38 -19 -6 -13 29 6 131 90 121 100 -2 3 -17 -9 -33 -25z"/>
<path d="M4585 2110 c-3 -6 1 -7 9 -4 18 7 21 14 7 14 -6 0 -13 -4 -16 -10z"/>
<path d="M341 2105 c0 -5 6 -21 14 -35 8 -14 14 -20 14 -15 0 6 -6 21 -14 35
-8 14 -14 21 -14 15z"/>
<path d="M3626 2101 c-11 -18 23 -25 50 -11 13 8 22 15 20 17 -2 3 -14 -1 -26
-7 -18 -9 -24 -9 -30 0 -5 9 -9 9 -14 1z"/>
<path d="M4786 2095 c-11 -8 -15 -15 -9 -15 6 0 16 7 23 15 16 19 11 19 -14 0z"/>
<path d="M4868 2079 l-33 -31 32 22 c18 11 35 25 38 30 12 19 -5 9 -37 -21z"/>
<path d="M5066 2101 c-3 -5 -15 -7 -25 -4 -10 3 -22 0 -25 -6 -4 -5 -14 -7
-24 -4 -14 5 -15 3 -5 -7 10 -10 15 -11 27 -1 8 7 17 8 20 3 3 -5 -8 -15 -24
-22 -17 -7 -29 -15 -26 -17 2 -2 22 5 43 16 41 20 74 51 55 51 -6 0 -13 -4
-16 -9z"/>
<path d="M2765 2090 c-3 -5 -2 -10 4 -10 5 0 13 5 16 10 3 6 2 10 -4 10 -5 0
-13 -4 -16 -10z"/>
<path d="M3096 2085 c4 -8 11 -15 16 -15 6 0 5 6 -2 15 -7 8 -14 15 -16 15 -2
0 -1 -7 2 -15z"/>
<path d="M3590 2090 c-13 -8 -12 -10 3 -10 9 0 17 5 17 10 0 12 -1 12 -20 0z"/>
<path d="M3879 2083 c-13 -17 -13 -17 6 -3 11 8 22 16 24 17 2 2 0 3 -6 3 -6
0 -17 -8 -24 -17z"/>
<path d="M3756 2075 c-11 -8 -15 -15 -9 -15 6 0 16 7 23 15 16 19 11 19 -14 0z"/>
<path d="M4195 2080 c-3 -5 -1 -10 4 -10 6 0 11 5 11 10 0 6 -2 10 -4 10 -3 0
-8 -4 -11 -10z"/>
<path d="M4905 2080 c-3 -5 -1 -10 4 -10 6 0 11 5 11 10 0 6 -2 10 -4 10 -3 0
-8 -4 -11 -10z"/>
<path d="M1234 2063 c2 -10 12 -23 24 -29 12 -6 30 -18 39 -26 30 -25 43 -30
43 -16 0 8 -21 30 -47 49 -61 43 -62 44 -59 22z"/>
<path d="M3027 2073 c-4 -3 -7 -11 -7 -17 0 -6 5 -5 12 2 6 6 9 14 7 17 -3 3
-9 2 -12 -2z"/>
<path d="M4313 2061 c-10 -15 -10 -21 0 -24 9 -4 9 -6 0 -6 -7 -1 -13 -8 -13
-17 0 -12 7 -8 22 12 13 16 26 31 30 32 5 2 8 8 8 14 0 7 -5 6 -14 -1 -9 -8
-15 -8 -18 -1 -1 5 -9 1 -15 -9z"/>
<path d="M5111 2064 c0 -11 3 -14 6 -6 3 7 2 16 -1 19 -3 4 -6 -2 -5 -13z"/>
<path d="M1565 2047 c10 -15 20 -25 23 -22 3 3 -5 16 -17 28 l-23 22 17 -28z"/>
<path d="M3188 2063 c7 -3 16 -2 19 1 4 3 -2 6 -13 5 -11 0 -14 -3 -6 -6z"/>
<path d="M3810 2062 c0 -5 6 -14 13 -21 10 -11 9 -12 -3 -6 -12 6 -13 5 -2 -6
10 -11 15 -10 30 5 9 11 11 16 5 12 -7 -4 -13 -3 -13 2 0 6 -7 12 -15 16 -8 3
-15 2 -15 -2z"/>
<path d="M4421 2059 c-13 -5 -22 -12 -19 -14 3 -3 20 1 39 9 37 17 19 21 -20
5z"/>
<path d="M4625 2060 c-3 -6 1 -7 9 -4 18 7 21 14 7 14 -6 0 -13 -4 -16 -10z"/>
<path d="M4955 2060 c-3 -5 -1 -10 4 -10 6 0 11 5 11 10 0 6 -2 10 -4 10 -3 0
-8 -4 -11 -10z"/>
<path d="M2955 2050 c-3 -5 -1 -10 4 -10 6 0 11 5 11 10 0 6 -2 10 -4 10 -3 0
-8 -4 -11 -10z"/>
<path d="M5140 2044 c0 -8 5 -12 10 -9 6 3 10 10 10 16 0 5 -4 9 -10 9 -5 0
-10 -7 -10 -16z"/>
<path d="M3078 2043 c6 -2 18 -2 25 0 6 3 1 5 -13 5 -14 0 -19 -2 -12 -5z"/>
<path d="M3628 2043 c7 -3 16 -2 19 1 4 3 -2 6 -13 5 -11 0 -14 -3 -6 -6z"/>
<path d="M4594 2039 c-3 -6 -2 -15 3 -20 5 -5 9 -1 10 11 2 22 -2 25 -13 9z"/>
<path d="M4879 2021 c-6 -18 -21 -34 -37 -40 -21 -7 -23 -10 -7 -10 29 -1 51
20 57 52 7 36 0 35 -13 -2z"/>
<path d="M2155 2027 c30 -18 121 -113 226 -234 125 -146 189 -212 222 -229 39
-21 33 -11 -12 19 -33 22 -196 200 -324 354 -39 48 -105 103 -122 102 -5 0 -1
-6 10 -12z"/>
<path d="M3590 2025 c-11 -13 -10 -14 4 -9 9 3 16 10 16 15 0 13 -6 11 -20 -6z"/>
<path d="M4833 2033 c4 -3 1 -13 -6 -22 -11 -14 -10 -14 5 -2 16 12 16 31 1
31 -4 0 -3 -3 0 -7z"/>
<path d="M4930 2020 c-19 -11 -31 -19 -27 -20 11 0 67 29 67 35 0 7 -1 7 -40
-15z"/>
<path d="M1547 2019 c7 -7 15 -10 18 -7 3 3 -2 9 -12 12 -14 6 -15 5 -6 -5z"/>
<path d="M3545 2020 c-4 -6 -10 -8 -15 -5 -5 3 -8 -4 -7 -15 2 -33 28 -52 171
-128 21 -11 45 -18 54 -15 12 5 11 8 -9 16 -122 46 -199 94 -199 123 0 7 8 18
18 23 9 6 12 11 5 11 -6 0 -15 -5 -18 -10z"/>
<path d="M4089 2009 c-23 -19 -23 -20 -2 -10 12 6 25 16 28 21 10 16 -1 12
-26 -11z"/>
<path d="M4477 2011 c-4 -17 -3 -21 5 -13 5 5 8 16 6 23 -3 8 -7 3 -11 -10z"/>
<path d="M4774 2007 c-11 -12 -12 -17 -4 -11 8 6 22 13 30 16 9 3 10 7 3 11
-6 4 -19 -3 -29 -16z"/>
<path d="M1614 1991 c8 -15 26 -36 41 -45 14 -9 100 -90 193 -179 226 -219
364 -335 508 -429 55 -35 180 -98 196 -98 7 0 -21 16 -62 36 -204 96 -415 270
-827 681 -43 43 -58 53 -49 34z"/>
<path d="M4359 2007 c-8 -8 -21 -16 -29 -20 -13 -5 -13 -5 0 -6 18 0 56 27 48
34 -3 3 -12 0 -19 -8z"/>
<path d="M4418 2012 c21 -15 3 -44 -25 -39 -16 3 -21 1 -15 -5 6 -6 24 -7 40
-3 26 5 30 9 23 28 -4 11 -14 23 -22 25 -11 3 -11 2 -1 -6z"/>
<path d="M380 2006 c0 -18 35 -95 64 -139 31 -50 145 -179 146 -167 0 3 -25
32 -55 65 -62 67 -116 151 -135 208 -10 31 -20 48 -20 33z"/>
<path d="M2710 1995 c-7 -9 -11 -17 -9 -20 3 -2 10 5 17 15 14 24 10 26 -8 5z"/>
<path d="M2761 1994 c0 -11 3 -14 6 -6 3 7 2 16 -1 19 -3 4 -6 -2 -5 -13z"/>
<path d="M3960 1995 c0 -9 9 -15 23 -14 17 1 18 2 4 6 -9 2 -15 9 -12 14 4 5
1 9 -4 9 -6 0 -11 -7 -11 -15z"/>
<path d="M4160 2002 c0 -4 12 -8 28 -9 23 -1 24 -1 7 7 -26 11 -35 12 -35 2z"/>
<path d="M4639 1989 c-22 -18 -22 -19 -3 -10 12 6 23 8 26 6 3 -3 5 2 5 10 0
19 0 19 -28 -6z"/>
<path d="M4707 1999 c7 -7 15 -10 18 -7 3 3 -2 9 -12 12 -14 6 -15 5 -6 -5z"/>
<path d="M5541 2000 c0 -8 4 -22 9 -30 12 -18 12 -2 0 25 -6 13 -9 15 -9 5z"/>
<path d="M2868 1993 c7 -3 16 -2 19 1 4 3 -2 6 -13 5 -11 0 -14 -3 -6 -6z"/>
<path d="M3870 1996 c0 -2 9 -6 20 -9 11 -3 18 -1 14 4 -5 9 -34 13 -34 5z"/>
<path d="M4265 1990 c-3 -5 -1 -10 4 -10 6 0 11 5 11 10 0 6 -2 10 -4 10 -3 0
-8 -4 -11 -10z"/>
<path d="M4795 1990 c-3 -5 -1 -10 4 -10 6 0 11 5 11 10 0 6 -2 10 -4 10 -3 0
-8 -4 -11 -10z"/>
<path d="M1350 1975 c0 -21 50 -64 73 -65 10 0 16 -4 13 -9 -3 -5 1 -14 9 -21
8 -7 15 -9 15 -5 0 4 9 -4 21 -19 14 -17 27 -25 39 -21 10 3 23 -2 31 -12 12
-15 12 -16 -5 -10 -16 6 -17 5 -6 -8 7 -8 21 -13 30 -10 10 3 23 -2 31 -12 13
-15 12 -16 -6 -9 -15 5 -17 4 -9 -4 6 -6 20 -13 30 -14 11 -2 19 -7 19 -13 0
-5 23 -29 50 -52 56 -48 295 -288 368 -369 26 -30 47 -50 47 -45 0 4 6 -3 13
-17 8 -14 19 -24 25 -23 7 2 12 -4 12 -12 0 -8 5 -15 10 -15 6 0 20 -11 32
-25 12 -14 28 -23 36 -20 7 2 11 1 8 -4 -3 -4 6 -19 21 -32 14 -13 23 -18 19
-11 -9 15 6 16 22 0 7 -7 12 -9 12 -6 0 3 -35 35 -77 71 -43 35 -197 183 -343
328 -243 242 -358 349 -375 349 -4 0 -43 29 -86 65 -51 42 -79 60 -79 50z m41
-32 c13 -16 12 -17 -3 -4 -10 7 -18 15 -18 17 0 8 8 3 21 -13z m879 -803 c0
-5 -2 -10 -4 -10 -3 0 -8 5 -11 10 -3 6 -1 10 4 10 6 0 11 -4 11 -10z"/>
<path d="M3838 1983 c7 -3 16 -2 19 1 4 3 -2 6 -13 5 -11 0 -14 -3 -6 -6z"/>
<path d="M4209 1963 l-24 -26 26 17 c14 9 29 13 32 9 4 -3 7 -1 7 5 0 23 -18
21 -41 -5z"/>
<path d="M3732 1968 c-7 -7 -12 -17 -12 -22 0 -6 5 -3 10 6 14 23 47 15 85
-22 17 -16 39 -30 49 -30 10 0 14 -5 10 -11 -4 -7 -1 -10 6 -7 19 6 20 47 2
57 -10 5 -23 4 -34 -3 -13 -8 -21 -8 -26 0 -10 15 -55 44 -67 44 -6 0 -16 -5
-23 -12z m143 -48 c-3 -5 -10 -10 -16 -10 -5 0 -9 5 -9 10 0 6 7 10 16 10 8 0
12 -4 9 -10z"/>
<path d="M3933 1968 c-16 -20 -23 -48 -13 -48 5 0 12 9 15 21 5 16 13 20 33
16 25 -5 25 -4 7 9 -23 17 -30 17 -42 2z"/>
<path d="M4020 1971 c0 -6 -8 -20 -17 -30 -15 -18 -30 -61 -16 -47 3 3 15 1
27 -5 19 -9 19 -9 4 4 -23 18 -23 26 3 53 13 14 17 24 10 29 -6 3 -11 1 -11
-4z"/>
<path d="M4596 1965 c-3 -8 -1 -15 4 -15 6 0 10 7 10 15 0 8 -2 15 -4 15 -2 0
-6 -7 -10 -15z"/>
<path d="M4696 1964 c-11 -8 -16 -14 -10 -14 13 0 39 18 34 24 -3 2 -14 -2
-24 -10z"/>
<path d="M4970 1969 c0 -5 5 -7 10 -4 6 3 10 8 10 11 0 2 -4 4 -10 4 -5 0 -10
-5 -10 -11z"/>
<path d="M2758 1963 c7 -3 16 -2 19 1 4 3 -2 6 -13 5 -11 0 -14 -3 -6 -6z"/>
<path d="M4300 1959 c12 -8 10 -10 -10 -7 -20 4 -25 0 -26 -19 -2 -28 0 -28
31 -1 29 25 32 38 8 38 -16 0 -16 -2 -3 -11z"/>
<path d="M4479 1953 c-13 -17 -13 -17 6 -3 11 8 22 16 24 17 2 2 0 3 -6 3 -6
0 -17 -8 -24 -17z"/>
<path d="M4382 1931 c7 -11 16 -17 20 -14 10 5 -10 33 -23 33 -5 0 -4 -9 3
-19z"/>
<path d="M2586 1925 c-3 -8 -1 -15 4 -15 6 0 10 7 10 15 0 8 -2 15 -4 15 -2 0
-6 -7 -10 -15z"/>
<path d="M3750 1930 c0 -5 4 -10 9 -10 5 0 18 -3 28 -6 16 -6 16 -5 -2 9 -23
19 -35 21 -35 7z"/>
<path d="M4080 1925 c-7 -9 -19 -14 -27 -11 -8 3 -11 1 -8 -4 9 -15 31 -12 45
5 7 8 17 12 23 8 6 -3 7 -1 3 5 -10 16 -21 15 -36 -3z"/>
<path d="M4160 1927 c0 -7 -12 -20 -27 -29 -16 -10 -22 -18 -16 -18 15 0 63
40 63 52 0 4 -4 8 -10 8 -5 0 -10 -6 -10 -13z"/>
<path d="M4426 1925 c6 -14 -40 -66 -69 -79 -6 -3 1 -4 16 -3 15 1 28 7 29 12
0 6 11 23 24 38 28 33 30 47 9 47 -9 0 -12 -6 -9 -15z"/>
<path d="M4555 1929 c-4 -6 -5 -12 -2 -15 2 -3 7 2 10 11 7 17 1 20 -8 4z"/>
<path d="M2640 1920 c-8 -5 -10 -10 -5 -10 6 0 17 5 25 10 8 5 11 10 5 10 -5
0 -17 -5 -25 -10z"/>
<path d="M4225 1920 c-3 -6 1 -7 9 -4 18 7 21 14 7 14 -6 0 -13 -4 -16 -10z"/>
<path d="M4355 1920 c-3 -5 1 -10 10 -10 9 0 13 5 10 10 -3 6 -8 10 -10 10 -2
0 -7 -4 -10 -10z"/>
<path d="M4475 1920 c-3 -5 -1 -10 4 -10 6 0 11 5 11 10 0 6 -2 10 -4 10 -3 0
-8 -4 -11 -10z"/>
<path d="M5571 1914 c0 -11 3 -14 6 -6 3 7 2 16 -1 19 -3 4 -6 -2 -5 -13z"/>
<path d="M3955 1910 c-3 -5 -1 -10 4 -10 6 0 11 5 11 10 0 6 -2 10 -4 10 -3 0
-8 -4 -11 -10z"/>
<path d="M2586 1888 c-31 -23 -56 -73 -56 -111 0 -45 138 -237 170 -237 5 0
-12 20 -38 44 -54 50 -122 159 -122 194 0 31 16 60 53 100 36 37 34 40 -7 10z"/>
<path d="M3746 1903 c-10 -11 -7 -23 7 -23 8 0 22 -9 31 -19 18 -20 66 -34 66
-20 0 5 -6 9 -12 10 -7 0 -4 5 7 10 15 7 11 8 -17 5 -31 -4 -41 0 -56 19 -11
14 -22 21 -26 18z"/>
<path d="M4285 1897 c-10 -8 -14 -16 -9 -19 5 -3 17 3 27 14 20 21 9 24 -18 5z"/>
<path d="M4500 1900 c-9 -6 -10 -10 -3 -10 6 0 15 5 18 10 8 12 4 12 -15 0z"/>
<path d="M5402 1903 c-7 -3 -17 -15 -22 -28 -7 -18 -88 -74 -135 -94 -5 -2
-40 -24 -77 -47 -71 -46 -98 -78 -74 -87 12 -5 26 11 30 33 3 14 18 30 29 30
6 0 2 -7 -9 -15 -10 -8 -14 -15 -8 -15 14 0 36 25 28 33 -3 3 16 18 43 33 117
67 193 117 188 124 -3 5 3 13 12 19 20 11 16 21 -5 14z"/>
<path d="M3780 1896 c0 -2 8 -10 18 -17 15 -13 16 -12 3 4 -13 16 -21 21 -21
13z"/>
<path d="M3820 1890 c0 -6 7 -10 15 -10 8 0 15 2 15 4 0 2 -7 6 -15 10 -8 3
-15 1 -15 -4z"/>
<path d="M4585 1890 c-3 -6 1 -7 9 -4 18 7 21 14 7 14 -6 0 -13 -4 -16 -10z"/>
<path d="M2985 1879 c-192 -35 -325 -84 -325 -120 0 -20 20 -37 20 -17 0 7 5
5 11 -6 8 -13 8 -20 -1 -26 -8 -5 -5 -9 8 -12 14 -4 23 1 31 18 6 13 19 24 28
25 11 0 13 3 5 6 -7 3 -19 0 -27 -7 -19 -16 -35 -4 -35 25 0 24 24 39 51 33 8
-2 13 2 12 8 -2 11 135 48 220 60 26 3 50 10 53 15 3 5 4 8 2 8 -2 -1 -25 -5
-53 -10z"/>
<path d="M3082 1879 c20 -5 76 -29 125 -55 48 -25 84 -42 78 -36 -23 24 -186
102 -212 101 -25 -1 -24 -2 9 -10z"/>
<path d="M4224 1875 c11 -8 24 -15 30 -15 5 0 1 7 -10 15 -10 8 -23 14 -29 14
-5 0 -1 -6 9 -14z"/>
<path d="M5335 1880 c-3 -5 -2 -10 4 -10 5 0 13 5 16 10 3 6 2 10 -4 10 -5 0
-13 -4 -16 -10z"/>
<path d="M5582 1865 c0 -16 2 -22 5 -12 2 9 2 23 0 30 -3 6 -5 -1 -5 -18z"/>
<path d="M3960 1873 c0 -13 38 -43 54 -43 6 0 -1 8 -14 17 -14 9 -28 22 -32
27 -5 8 -8 7 -8 -1z"/>
<path d="M4485 1870 l-30 -8 27 -1 c15 0 30 4 33 9 3 6 5 9 3 9 -2 -1 -16 -5
-33 -9z"/>
<path d="M4182 1863 c-8 -3 -4 -11 13 -25 19 -15 32 -18 46 -12 19 9 19 9 -2
22 -19 12 -21 12 -16 -2 8 -20 -6 -21 -22 -2 -9 11 -9 15 1 19 7 3 9 5 3 5 -5
0 -16 -2 -23 -5z"/>
<path d="M3870 1840 c0 -13 5 -18 15 -14 12 5 13 10 4 20 -15 19 -19 18 -19
-6z"/>
<path d="M4100 1856 c0 -3 9 -10 20 -16 11 -6 20 -8 20 -6 0 3 -9 10 -20 16
-11 6 -20 8 -20 6z"/>
<path d="M4270 1856 c0 -2 6 -9 13 -15 10 -8 14 -7 14 4 0 8 -6 15 -14 15 -7
0 -13 -2 -13 -4z"/>
<path d="M4670 1851 c0 -6 4 -13 10 -16 6 -3 7 1 4 9 -7 18 -14 21 -14 7z"/>
<path d="M4483 1820 c-18 -16 -33 -33 -33 -37 0 -4 13 6 29 21 16 16 34 25 40
22 7 -4 8 -1 5 8 -7 19 -3 21 -41 -14z"/>
<path d="M5110 1846 c0 -2 8 -10 18 -17 15 -13 16 -12 3 4 -13 16 -21 21 -21
13z"/>
<path d="M5230 1819 c-24 -16 -40 -29 -35 -29 10 0 95 49 95 55 0 10 -16 3
-60 -26z"/>
<path d="M3613 1825 c-17 -7 -34 -11 -36 -8 -3 2 -18 -3 -34 -12 -15 -9 -19
-13 -8 -9 11 3 29 8 40 9 24 3 95 33 80 34 -5 0 -24 -6 -42 -14z"/>
<path d="M4066 1831 c-3 -5 0 -11 8 -14 15 -6 26 1 26 15 0 11 -27 10 -34 -1z"/>
<path d="M4595 1820 c-10 -11 -14 -20 -9 -20 5 0 15 9 22 20 7 11 11 20 9 20
-2 0 -12 -9 -22 -20z"/>
<path d="M2988 1823 c7 -3 16 -2 19 1 4 3 -2 6 -13 5 -11 0 -14 -3 -6 -6z"/>
<path d="M3091 1810 c-14 -12 -18 -20 -10 -20 8 0 20 9 27 20 15 25 13 25 -17
0z"/>
<path d="M3644 1804 c-19 -17 -22 -22 -8 -16 20 10 52 42 42 42 -3 0 -18 -12
-34 -26z"/>
<path d="M4140 1820 c-18 -12 -2 -12 25 0 13 6 15 9 5 9 -8 0 -22 -4 -30 -9z"/>
<path d="M4430 1815 c-14 -16 -3 -20 19 -6 8 5 9 11 3 15 -5 3 -15 -1 -22 -9z"/>
<path d="M2897 1807 c-3 -8 1 -14 9 -14 8 0 14 6 14 14 0 7 -4 13 -9 13 -5 0
-11 -6 -14 -13z"/>
<path d="M3720 1811 c0 -6 5 -13 11 -16 6 -4 8 -13 6 -19 -3 -7 1 -13 9 -13 8
0 12 5 9 11 -3 6 -8 19 -11 29 -7 18 -24 24 -24 8z"/>
<path d="M4367 1806 c-4 -10 -1 -13 8 -9 8 3 12 9 9 14 -7 12 -11 11 -17 -5z"/>
<path d="M5458 1792 c-54 -37 -39 -39 18 -3 27 17 42 30 34 30 -8 -1 -32 -13
-52 -27z"/>
<path d="M2502 1780 c0 -19 2 -27 5 -17 2 9 2 25 0 35 -3 9 -5 1 -5 -18z"/>
<path d="M3800 1800 l-25 -8 27 -1 c16 -1 28 -8 31 -18 3 -10 4 -6 4 10 -1 15
-4 27 -7 26 -3 -1 -16 -5 -30 -9z"/>
<path d="M4297 1796 c-4 -10 -1 -13 9 -9 7 3 14 9 14 14 0 14 -17 10 -23 -5z"/>
<path d="M2957 1789 c7 -7 15 -10 18 -7 3 3 -2 9 -12 12 -14 6 -15 5 -6 -5z"/>
<path d="M3153 1789 c3 -9 1 -21 -5 -27 -8 -8 -5 -11 10 -9 17 1 19 4 10 22
-14 26 -23 34 -15 14z"/>
<path d="M4174 1788 c-4 -6 -2 -14 4 -16 6 -2 8 -11 5 -20 -6 -15 -5 -15 11
-3 16 13 16 15 1 23 -8 5 -13 13 -10 19 4 5 4 9 1 9 -3 0 -8 -5 -12 -12z"/>
<path d="M4237 1793 c-4 -3 -7 -11 -7 -17 0 -6 5 -5 12 2 6 6 9 14 7 17 -3 3
-9 2 -12 -2z"/>
<path d="M2834 1776 c-12 -9 -23 -11 -30 -5 -8 6 -14 4 -18 -6 -4 -12 0 -14
21 -10 15 2 34 11 42 20 19 19 11 20 -15 1z"/>
<path d="M3497 1779 c7 -7 15 -10 18 -7 3 3 -2 9 -12 12 -14 6 -15 5 -6 -5z"/>
<path d="M3667 1783 c-4 -3 -7 -11 -7 -17 0 -6 5 -5 12 2 6 6 9 14 7 17 -3 3
-9 2 -12 -2z"/>
<path d="M3903 1771 c1 -11 7 -23 14 -26 11 -4 11 0 2 18 -16 31 -18 32 -16 8z"/>
<path d="M3950 1779 c0 -5 5 -7 11 -4 6 4 13 -2 16 -14 4 -17 8 -19 19 -10 12
10 10 14 -12 25 -32 17 -34 17 -34 3z"/>
<path d="M4100 1781 c0 -6 5 -11 11 -11 5 0 8 -4 5 -9 -3 -5 1 -12 9 -15 13
-4 13 -2 5 14 -12 23 -30 35 -30 21z"/>
<path d="M4390 1780 c-9 -6 -10 -10 -3 -10 6 0 15 5 18 10 8 12 4 12 -15 0z"/>
<path d="M5145 1770 c-16 -11 -25 -20 -19 -20 11 0 64 39 54 40 -3 0 -18 -9
-35 -20z"/>
<path d="M2299 1762 c5 -10 18 -25 27 -33 11 -9 9 -2 -6 19 -26 35 -36 42 -21
14z"/>
<path d="M3317 1762 c12 -11 19 -23 15 -27 -4 -5 -2 -5 5 -1 16 9 89 -36 149
-91 13 -12 24 -19 24 -16 0 17 50 -43 51 -61 0 -20 1 -20 8 -2 6 17 10 15 34
-14 15 -17 27 -27 27 -20 0 17 -88 96 -165 147 -38 26 -81 54 -95 63 -14 9
-36 22 -50 29 l-25 12 22 -19z"/>
<path d="M3591 1771 c-8 -5 -9 -11 -3 -15 5 -3 12 1 16 9 6 17 6 18 -13 6z"/>
<path d="M4257 1773 c-10 -9 -9 -23 2 -23 5 0 11 7 15 15 5 15 -5 20 -17 8z"/>
<path d="M4320 1770 c0 -5 5 -10 10 -10 6 0 10 5 10 10 0 6 -4 10 -10 10 -5 0
-10 -4 -10 -10z"/>
<path d="M2902 1740 c0 -30 1 -32 11 -19 7 9 21 18 31 20 11 2 21 11 24 19 4
12 2 13 -9 3 -7 -7 -21 -13 -30 -13 -10 0 -19 6 -22 13 -2 6 -4 -4 -5 -23z"/>
<path d="M4045 1750 c-3 -5 1 -10 10 -10 9 0 13 5 10 10 -3 6 -8 10 -10 10 -2
0 -7 -4 -10 -10z"/>
<path d="M3465 1740 c3 -5 8 -10 11 -10 2 0 4 5 4 10 0 6 -5 10 -11 10 -5 0
-7 -4 -4 -10z"/>
<path d="M5077 1724 c-35 -40 -65 -99 -72 -141 l-7 -38 16 29 c9 16 14 31 12
34 -8 7 34 85 62 115 14 15 23 27 19 27 -4 0 -17 -12 -30 -26z"/>
<path d="M5338 1743 c7 -3 16 -2 19 1 4 3 -2 6 -13 5 -11 0 -14 -3 -6 -6z"/>
<path d="M3230 1730 c-8 -5 -12 -12 -9 -15 4 -3 12 1 19 10 14 17 11 19 -10 5z"/>
<path d="M3520 1710 c0 -16 2 -30 4 -30 2 0 6 14 8 30 3 17 1 30 -4 30 -4 0
-8 -13 -8 -30z"/>
<path d="M5360 1730 c-8 -5 -24 -7 -35 -4 -16 4 -17 3 -5 -5 13 -10 13 -11 0
-11 -8 0 -28 -12 -45 -26 -28 -23 -26 -23 30 6 33 17 64 36 70 41 12 12 4 11
-15 -1z"/>
<path d="M5590 1730 c0 -5 5 -10 11 -10 5 0 7 5 4 10 -3 6 -8 10 -11 10 -2 0
-4 -4 -4 -10z"/>
<path d="M3034 1715 c11 -8 24 -15 30 -15 5 0 1 7 -10 15 -10 8 -23 14 -29 14
-5 0 -1 -6 9 -14z"/>
<path d="M3280 1719 c0 -5 5 -7 10 -4 6 3 10 8 10 11 0 2 -4 4 -10 4 -5 0 -10
-5 -10 -11z"/>
<path d="M3580 1705 c-14 -8 -20 -14 -14 -15 5 0 19 7 30 15 24 18 16 19 -16
0z"/>
<path d="M2965 1700 c3 -5 11 -10 16 -10 6 0 7 5 4 10 -3 6 -11 10 -16 10 -6
0 -7 -4 -4 -10z"/>
<path d="M5218 1703 c6 -2 18 -2 25 0 6 3 1 5 -13 5 -14 0 -19 -2 -12 -5z"/>
<path d="M5460 1685 c-19 -14 -29 -25 -22 -25 7 0 10 -4 7 -10 -10 -16 11 -12
25 5 11 13 10 14 -6 9 -12 -4 -8 3 11 20 38 32 31 33 -15 1z"/>
<path d="M5592 1698 c-7 -7 -12 -17 -12 -22 0 -6 5 -4 10 4 9 13 13 12 30 -9
11 -12 17 -28 13 -34 -3 -6 -1 -7 5 -3 15 9 16 7 -11 44 -18 24 -26 29 -35 20z"/>
<path d="M615 1681 c17 -19 64 -55 112 -84 19 -12 24 9 6 24 -12 10 -14 10 -9
2 14 -25 -12 -13 -29 13 -9 14 -19 23 -22 20 -4 -3 -22 6 -42 21 -31 23 -33
24 -16 4z"/>
<path d="M2905 1684 c9 -9 19 -13 23 -10 3 4 0 11 -8 16 -24 15 -33 11 -15 -6z"/>
<path d="M3344 1681 c21 -23 26 -26 26 -11 0 5 -10 15 -22 21 -23 12 -23 12
-4 -10z"/>
<path d="M3090 1681 c0 -5 7 -11 14 -14 10 -4 13 -1 9 9 -6 15 -23 19 -23 5z"/>
<path d="M3225 1680 c3 -5 8 -10 11 -10 2 0 4 5 4 10 0 6 -5 10 -11 10 -5 0
-7 -4 -4 -10z"/>
<path d="M3284 1678 c-4 -6 -3 -8 4 -4 6 3 13 2 17 -4 3 -5 11 -10 17 -10 7 0
6 6 -2 15 -15 18 -26 19 -36 3z"/>
<path d="M3925 1680 c3 -5 8 -10 11 -10 2 0 4 5 4 10 0 6 -5 10 -11 10 -5 0
-7 -4 -4 -10z"/>
<path d="M5180 1680 c8 -5 22 -10 30 -10 13 0 13 1 0 10 -8 5 -22 10 -30 10
-13 0 -13 -1 0 -10z"/>
<path d="M2706 1665 c4 -8 8 -15 10 -15 2 0 4 7 4 15 0 8 -4 15 -10 15 -5 0
-7 -7 -4 -15z"/>
<path d="M2730 1653 c1 -10 16 -35 35 -57 31 -35 36 -37 62 -28 15 6 23 11 16
11 -13 1 -5 42 11 53 7 5 7 8 -2 8 -7 0 -15 -7 -17 -15 -3 -8 -7 -22 -10 -31
-7 -22 -15 -13 -19 22 -2 15 -8 30 -13 31 -6 2 -8 -7 -6 -22 3 -14 3 -25 0
-25 -14 0 -47 45 -43 57 3 7 1 13 -4 13 -6 0 -10 -8 -10 -17z"/>
<path d="M2900 1650 c0 -6 7 -10 15 -10 8 0 15 2 15 4 0 2 -7 6 -15 10 -8 3
-15 1 -15 -4z"/>
<path d="M3020 1644 c-20 -11 -21 -14 -7 -14 10 0 25 7 33 15 19 18 8 18 -26
-1z"/>
<path d="M5185 1652 c3 -3 -1 -12 -8 -20 -9 -12 -4 -11 23 3 19 10 36 18 38
20 1 1 -11 2 -28 2 -16 0 -28 -3 -25 -5z"/>
<path d="M2407 1639 c7 -7 15 -10 18 -7 3 3 -2 9 -12 12 -14 6 -15 5 -6 -5z"/>
<path d="M3097 1642 c14 -9 5 -26 -17 -35 -10 -4 -8 -6 7 -6 12 -1 30 -4 40
-7 16 -5 16 -4 1 5 -10 7 -14 19 -11 31 4 15 0 20 -13 20 -13 0 -15 -3 -7 -8z"/>
<path d="M3150 1646 c0 -3 15 -15 33 -27 l32 -23 -24 27 c-22 24 -41 35 -41
23z"/>
<path d="M2970 1621 c-6 -12 -7 -21 -1 -21 10 0 24 30 17 37 -2 3 -9 -5 -16
-16z"/>
<path d="M3440 1630 c-11 -7 -12 -12 -4 -20 8 -8 13 -6 17 9 3 12 4 21 4 21
-1 0 -9 -5 -17 -10z"/>
<path d="M3660 1630 c0 -5 5 -10 10 -10 6 0 10 5 10 10 0 6 -4 10 -10 10 -5 0
-10 -4 -10 -10z"/>
<path d="M3135 1620 c-3 -5 -1 -10 4 -10 6 0 11 5 11 10 0 6 -2 10 -4 10 -3 0
-8 -4 -11 -10z"/>
<path d="M3220 1626 c0 -2 8 -10 18 -17 15 -13 16 -12 3 4 -13 16 -21 21 -21
13z"/>
<path d="M3298 1623 c7 -3 16 -2 19 1 4 3 -2 6 -13 5 -11 0 -14 -3 -6 -6z"/>
<path d="M5278 1623 c6 -2 18 -2 25 0 6 3 1 5 -13 5 -14 0 -19 -2 -12 -5z"/>
<path d="M2575 1610 c3 -5 8 -10 11 -10 2 0 4 5 4 10 0 6 -5 10 -11 10 -5 0
-7 -4 -4 -10z"/>
<path d="M3008 1613 c6 -2 18 -2 25 0 6 3 1 5 -13 5 -14 0 -19 -2 -12 -5z"/>
<path d="M5087 1614 c-3 -3 -3 -13 0 -21 5 -12 7 -12 14 -1 15 23 4 40 -14 22z"/>
<path d="M3285 1587 c10 -15 20 -25 23 -22 3 3 -5 16 -17 28 l-23 22 17 -28z"/>
<path d="M5288 1590 c-17 -19 -11 -35 7 -22 9 7 20 42 13 42 -2 0 -11 -9 -20
-20z"/>
<path d="M756 1591 c-7 -10 7 -22 53 -46 21 -10 30 -12 25 -4 -5 9 -2 11 9 6
28 -11 19 0 -19 22 -41 24 -57 28 -28 6 22 -17 12 -20 -17 -4 -11 5 -17 14
-14 20 4 5 4 9 1 9 -3 0 -7 -4 -10 -9z"/>
<path d="M2918 1593 c6 -2 18 -2 25 0 6 3 1 5 -13 5 -14 0 -19 -2 -12 -5z"/>
<path d="M3162 1593 c-6 -2 -10 -9 -6 -14 8 -14 21 -11 21 6 0 8 -1 15 -1 14
-1 0 -7 -3 -14 -6z"/>
<path d="M3208 1580 c-16 -18 -12 -21 95 -81 62 -34 123 -68 137 -74 82 -41
155 -73 158 -71 9 9 -12 33 -26 29 -9 -2 -42 9 -73 24 -51 26 -56 31 -53 58 2
28 2 29 -8 8 -6 -13 -16 -23 -22 -23 -35 1 -55 45 -36 80 7 13 6 19 -3 23 -10
4 -13 -6 -13 -34 1 -21 -2 -39 -6 -39 -4 0 -23 16 -42 35 -34 34 -54 46 -41
25 8 -13 2 -13 -27 3 -17 9 -24 19 -22 35 4 26 4 26 -18 2z m97 -60 c3 -6 -1
-7 -9 -4 -18 7 -21 14 -7 14 6 0 13 -4 16 -10z"/>
<path d="M5365 1555 c-38 -24 -80 -51 -92 -59 -16 -12 -23 -13 -26 -3 -3 7 -6
5 -6 -5 -1 -10 -5 -18 -11 -18 -5 0 -10 -9 -10 -20 0 -11 7 -20 15 -20 8 0 15
9 15 19 0 19 47 55 153 115 44 26 57 37 40 35 -5 0 -39 -20 -78 -44z"/>
<path d="M2860 1579 c0 -5 5 -7 10 -4 6 3 10 8 10 11 0 2 -4 4 -10 4 -5 0 -10
-5 -10 -11z"/>
<path d="M3360 1581 c0 -5 9 -7 20 -4 11 3 20 7 20 9 0 2 -9 4 -20 4 -11 0
-20 -4 -20 -9z"/>
<path d="M5064 1576 c-3 -8 -4 -25 -2 -38 3 -17 5 -13 9 15 5 38 2 47 -7 23z"/>
<path d="M3495 1570 c3 -5 11 -10 16 -10 6 0 7 5 4 10 -3 6 -11 10 -16 10 -6
0 -7 -4 -4 -10z"/>
<path d="M5670 1569 c0 -5 -5 -7 -12 -3 -7 4 -8 3 -4 -4 8 -13 -30 -36 -44
-27 -6 4 -9 2 -8 -4 2 -5 -6 -17 -17 -26 -11 -9 5 -3 36 14 31 17 59 28 62 25
3 -3 3 3 0 15 -6 22 -13 28 -13 10z"/>
<path d="M4277 1553 c-4 -3 -7 -13 -7 -22 1 -13 3 -13 11 2 11 19 8 33 -4 20z"/>
<path d="M1089 1545 c-4 -3 -2 -21 4 -40 10 -34 34 -53 47 -38 8 8 -8 78 -15
71 -3 -2 -1 -19 4 -36 6 -18 6 -32 1 -32 -12 0 -22 18 -29 52 -3 16 -9 27 -12
23z"/>
<path d="M5705 1541 c-3 -5 -1 -12 5 -16 5 -3 10 1 10 9 0 18 -6 21 -15 7z"/>
<path d="M859 1529 c-13 -8 -7 -11 17 -8 3 0 12 -8 20 -18 7 -10 14 -13 14 -8
0 6 4 4 9 -4 7 -11 14 -10 40 5 30 18 41 34 22 34 -5 0 -11 -7 -15 -15 -6 -17
-42 -20 -51 -5 -12 19 -41 29 -56 19z"/>
<path d="M1155 1527 c3 -10 5 -25 5 -32 0 -7 9 -23 20 -36 l20 -24 -14 30 c-8
17 -19 41 -26 55 -6 14 -8 17 -5 7z"/>
<path d="M2805 1530 c-3 -5 -1 -10 4 -10 6 0 11 5 11 10 0 6 -2 10 -4 10 -3 0
-8 -4 -11 -10z"/>
<path d="M3520 1536 c0 -2 7 -7 16 -10 8 -3 12 -2 9 4 -6 10 -25 14 -25 6z"/>
<path d="M4991 1510 c-1 -19 -5 -52 -10 -72 -6 -26 -5 -38 2 -38 6 0 2 -7 -9
-15 -18 -14 -17 -15 7 -6 15 5 30 7 33 4 3 -4 6 -2 6 4 0 6 -7 16 -15 23 -9 7
-12 18 -7 24 4 6 5 34 1 61 -5 42 -6 44 -8 15z"/>
<path d="M5436 1529 c3 -5 12 -9 20 -9 9 0 12 -5 8 -12 -4 -7 -3 -8 5 -4 15
10 7 22 -19 29 -11 3 -18 1 -14 -4z"/>
<path d="M5148 1523 c6 -2 18 -2 25 0 6 3 1 5 -13 5 -14 0 -19 -2 -12 -5z"/>
<path d="M1206 1511 c4 -8 11 -28 15 -45 6 -29 7 -29 8 -5 1 14 -6 34 -15 45
-8 10 -12 13 -8 5z"/>
<path d="M2738 1513 c7 -3 16 -2 19 1 4 3 -2 6 -13 5 -11 0 -14 -3 -6 -6z"/>
<path d="M3470 1516 c0 -2 7 -7 16 -10 8 -3 12 -2 9 4 -6 10 -25 14 -25 6z"/>
<path d="M3515 1499 c-4 -6 -5 -12 -2 -15 2 -3 7 2 10 11 7 17 1 20 -8 4z"/>
<path d="M3560 1503 c0 -6 7 -14 16 -17 9 -4 14 -13 10 -21 -3 -8 -1 -15 4
-15 17 0 11 26 -10 45 -11 10 -20 13 -20 8z"/>
<path d="M3591 1507 c2 -1 15 -11 29 -22 l25 -20 -19 23 c-11 12 -24 22 -29
22 -6 0 -8 -1 -6 -3z"/>
<path d="M3710 1506 c0 -4 7 -14 15 -22 8 -9 15 -11 15 -6 0 5 -7 15 -15 22
-8 7 -15 9 -15 6z"/>
<path d="M5170 1490 c0 -11 4 -20 9 -20 5 0 7 9 4 20 -3 11 -7 20 -9 20 -2 0
-4 -9 -4 -20z"/>
<path d="M5410 1506 c0 -2 9 -6 20 -9 11 -3 18 -1 14 4 -5 9 -34 13 -34 5z"/>
<path d="M5702 1485 c-11 -24 -30 -29 -43 -12 -3 4 -16 -5 -30 -19 l-24 -27
27 17 c14 9 29 13 32 8 6 -10 -51 -59 -137 -117 -32 -22 -61 -43 -64 -49 -9
-15 118 74 175 122 53 44 89 88 80 97 -3 3 -10 -6 -16 -20z"/>
<path d="M1264 1478 c1 -13 8 -32 15 -43 11 -18 12 -15 7 18 -4 35 -3 37 11
25 14 -11 15 -11 11 2 -2 8 -14 16 -26 18 -16 3 -20 -1 -18 -20z"/>
<path d="M5509 1485 c-1 -3 -2 -10 -3 -17 0 -6 -11 -12 -23 -13 -13 -1 -26 -5
-30 -10 -5 -4 0 -5 10 -2 39 14 2 -13 -133 -97 -129 -82 -163 -106 -144 -106
4 0 57 33 118 74 61 40 144 94 184 120 39 26 72 50 72 53 0 4 -5 2 -12 -5 -15
-15 -32 -16 -23 -2 3 6 1 10 -4 10 -6 0 -12 -2 -12 -5z"/>
<path d="M1055 1457 c19 -30 52 -50 100 -61 23 -5 27 -4 15 5 -12 9 -10 10 10
5 14 -3 31 -6 39 -6 7 0 11 -6 8 -14 -4 -9 6 -15 31 -19 20 -3 48 -9 62 -13
14 -4 22 -4 18 0 -3 4 -28 14 -55 21 l-48 14 55 -4 55 -5 -65 15 c-109 25
-204 56 -224 74 -19 16 -19 15 -1 -12z m83 -37 c22 -7 23 -8 6 -9 -11 -1 -29
6 -40 15 -10 8 -13 12 -6 9 8 -4 26 -11 40 -15z"/>
<path d="M1346 1465 c-6 -17 2 -45 14 -45 5 0 6 10 3 23 -5 22 -5 22 11 2 16
-19 16 -19 5 8 -14 30 -24 34 -33 12z"/>
<path d="M5385 1469 c-11 -17 1 -21 15 -4 8 9 8 15 2 15 -6 0 -14 -5 -17 -11z"/>
<path d="M5126 1455 c4 -8 11 -15 16 -15 6 0 5 6 -2 15 -7 8 -14 15 -16 15 -2
0 -1 -7 2 -15z"/>
<path d="M3500 1456 c0 -2 7 -7 16 -10 8 -3 12 -2 9 4 -6 10 -25 14 -25 6z"/>
<path d="M3630 1449 c0 -5 5 -7 10 -4 6 3 10 8 10 11 0 2 -4 4 -10 4 -5 0 -10
-5 -10 -11z"/>
<path d="M5060 1456 c0 -2 7 -9 15 -16 9 -7 15 -8 15 -2 0 5 -7 12 -15 16 -8
3 -15 4 -15 2z"/>
<path d="M5338 1451 c10 -6 7 -13 -15 -29 -15 -12 -23 -21 -18 -21 6 -1 21 8
34 18 23 18 22 41 -2 41 -8 0 -8 -3 1 -9z"/>
<path d="M3545 1428 c-4 -11 -2 -25 5 -32 10 -8 11 -7 8 4 -3 8 2 20 10 26 13
9 13 12 -1 17 -11 4 -18 -1 -22 -15z"/>
<path d="M3700 1435 c0 -7 5 -17 12 -21 6 -4 8 -3 4 4 -3 5 -1 12 6 14 8 3 6
7 -5 11 -11 4 -17 1 -17 -8z"/>
<path d="M5176 1435 c-11 -8 -15 -15 -10 -15 6 0 19 7 30 15 10 8 15 14 9 14
-5 0 -19 -6 -29 -14z"/>
<path d="M1430 1411 c0 -6 4 -13 10 -16 6 -3 7 1 4 9 -7 18 -14 21 -14 7z"/>
<path d="M5118 1406 c-27 -20 -21 -30 7 -12 15 10 25 12 25 6 0 -6 5 -8 11 -4
8 4 7 9 -2 15 -18 11 -21 11 -41 -5z"/>
<path d="M5190 1411 c0 -10 19 -25 25 -20 1 2 -3 10 -11 17 -8 7 -14 8 -14 3z"/>
<path d="M5499 1403 c-13 -16 -12 -17 4 -4 16 13 21 21 13 21 -2 0 -10 -8 -17
-17z"/>
<path d="M1647 1389 c4 -13 8 -18 11 -10 2 7 -1 18 -6 23 -8 8 -9 4 -5 -13z"/>
<path d="M1610 1395 c0 -5 5 -17 10 -25 5 -8 10 -10 10 -5 0 6 -5 17 -10 25
-5 8 -10 11 -10 5z"/>
<path d="M4917 1389 c9 -9 9 -16 2 -25 -8 -9 -5 -11 10 -7 22 6 18 28 -7 38
-14 5 -14 4 -5 -6z"/>
<path d="M5240 1370 l-35 -30 31 15 c18 9 37 22 44 30 21 25 -3 16 -40 -15z"/>
<path d="M3657 1358 c-6 -21 -5 -22 8 -5 13 18 14 18 24 0 10 -17 10 -16 11 5
0 15 -6 22 -19 22 -11 0 -21 -9 -24 -22z"/>
<path d="M1381 1365 c6 -5 135 -36 161 -38 9 -1 16 -5 15 -11 -2 -10 62 -30
70 -22 3 2 -11 8 -30 11 -21 4 -34 12 -31 19 3 7 -24 17 -73 29 -76 17 -121
22 -112 12z"/>
<path d="M5014 1355 c26 -73 3 -144 -82 -250 -118 -147 -125 -151 -397 -270
-16 -7 -61 -25 -100 -40 -38 -14 -79 -30 -90 -35 -11 -5 -40 -14 -65 -21 -68
-17 -73 -19 -68 -24 2 -3 28 2 57 11 29 8 60 13 68 10 8 -3 12 -2 9 3 -6 9 16
21 37 21 7 0 6 -5 -3 -11 -13 -9 -13 -10 0 -6 8 2 14 10 13 16 -3 11 2 13 30
15 6 1 14 4 17 7 12 15 191 79 202 73 6 -4 8 -3 5 3 -6 10 103 66 131 68 7 0
17 6 21 13 5 8 12 14 17 15 5 1 20 14 33 30 13 16 36 41 50 57 14 15 31 34 36
42 88 122 110 171 102 230 -3 22 -11 46 -18 52 -9 8 -10 6 -5 -9z"/>
<path d="M5101 1354 c0 -11 3 -14 6 -6 3 7 2 16 -1 19 -3 4 -6 -2 -5 -13z"/>
<path d="M1380 1341 c0 -9 61 -22 69 -15 7 6 -2 11 -36 17 -18 4 -33 3 -33 -2z"/>
<path d="M3627 1337 c-3 -9 1 -18 9 -21 16 -6 18 2 5 22 -7 11 -9 11 -14 -1z"/>
<path d="M1590 1320 c8 -5 24 -9 35 -9 l20 0 -20 9 c-11 5 -27 9 -35 9 -13 1
-13 0 0 -9z"/>
<path d="M3925 1278 c-46 -48 -46 -49 -9 -17 35 29 70 69 61 69 -1 0 -25 -23
-52 -52z"/>
<path d="M5107 1310 c6 -22 23 -38 23 -21 0 17 -12 41 -20 41 -5 0 -6 -9 -3
-20z"/>
<path d="M5145 1320 c-3 -5 1 -10 10 -10 9 0 13 5 10 10 -3 6 -8 10 -10 10 -2
0 -7 -4 -10 -10z"/>
<path d="M4795 1310 c-3 -6 1 -7 9 -4 18 7 21 14 7 14 -6 0 -13 -4 -16 -10z"/>
<path d="M1658 1303 c7 -3 16 -2 19 1 4 3 -2 6 -13 5 -11 0 -14 -3 -6 -6z"/>
<path d="M1724 1284 c52 -19 59 -28 16 -20 -26 5 -20 1 24 -18 33 -14 63 -23
67 -20 4 2 9 0 11 -5 1 -5 14 -3 28 5 23 14 23 14 2 9 -14 -4 -32 1 -50 13
-31 21 -106 52 -125 51 -6 0 6 -7 27 -15z m86 -39 c14 -8 21 -14 15 -14 -5 0
-21 6 -35 14 -14 8 -20 14 -15 14 6 0 21 -6 35 -14z"/>
<path d="M3549 1283 c-11 -15 -11 -16 1 -6 11 10 17 10 30 -2 14 -13 16 -12
16 5 0 25 -29 26 -47 3z"/>
<path d="M1655 1280 c11 -5 27 -9 35 -9 13 -1 13 0 0 9 -8 5 -24 9 -35 9 l-20
0 20 -9z"/>
<path d="M4665 1260 c-16 -7 -17 -9 -3 -9 9 -1 20 4 23 9 7 11 7 11 -20 0z"/>
<path d="M5051 1254 c0 -11 3 -14 6 -6 3 7 2 16 -1 19 -3 4 -6 -2 -5 -13z"/>
<path d="M5377 1235 c-20 -14 -37 -28 -37 -31 0 -2 18 8 40 22 35 23 47 34 37
34 -1 0 -19 -11 -40 -25z"/>
<path d="M2609 1219 c24 -11 46 -18 48 -15 4 4 -73 36 -85 35 -4 0 13 -9 37
-20z"/>
<path d="M5130 1219 c-14 -11 -36 -25 -50 -31 -14 -6 -20 -12 -13 -15 7 -3 25
4 40 15 16 10 36 22 46 25 9 4 17 11 17 17 0 15 -12 12 -40 -11z"/>
<path d="M4900 1200 c-75 -40 -193 -94 -202 -92 -7 2 -53 -17 -125 -49 -23
-10 -49 -19 -58 -19 -10 0 -13 -5 -9 -12 5 -7 2 -9 -8 -5 -9 3 -39 -1 -68 -10
-39 -11 -49 -18 -39 -25 10 -7 6 -8 -13 -4 -16 4 -54 -2 -90 -14 -35 -11 -76
-24 -93 -30 -16 -5 -72 -21 -124 -34 -51 -14 -96 -28 -100 -31 -12 -12 69 8
240 60 120 36 155 43 104 20 -16 -8 -25 -14 -18 -15 7 0 24 5 38 12 19 8 22
14 13 21 -9 5 -4 7 14 3 30 -7 61 2 52 15 -3 5 5 8 18 7 31 -2 188 53 294 103
22 10 46 19 52 19 7 0 12 4 12 8 0 5 6 9 13 9 21 0 101 40 132 67 38 32 33 31
-35 -4z"/>
<path d="M1931 1188 c6 -11 42 -50 81 -86 38 -36 96 -104 129 -151 32 -48 71
-95 86 -105 16 -12 23 -14 18 -5 -5 8 -17 20 -26 27 -10 7 -44 49 -76 95 -54
77 -236 270 -212 225z"/>
<path d="M5240 1201 c0 -5 5 -13 10 -16 6 -3 10 -2 10 4 0 5 -4 13 -10 16 -5
3 -10 2 -10 -4z"/>
<path d="M2695 1185 c17 -8 37 -14 45 -14 8 0 -1 7 -20 14 -46 18 -64 17 -25
0z"/>
<path d="M4468 1193 c7 -3 16 -2 19 1 4 3 -2 6 -13 5 -11 0 -14 -3 -6 -6z"/>
<path d="M5299 1183 c-13 -15 -12 -15 9 -4 23 12 28 21 13 21 -5 0 -15 -7 -22
-17z"/>
<path d="M5018 1163 c-8 -10 -23 -31 -33 -48 -10 -16 -41 -54 -69 -84 -38 -40
-43 -49 -21 -35 29 19 29 19 21 -1 -4 -11 -4 -15 1 -10 4 6 22 25 38 44 17 19
24 31 16 26 -9 -5 -12 -3 -9 6 3 8 12 14 21 14 8 0 19 4 24 9 4 5 3 6 -4 2
-20 -11 -15 8 6 31 11 12 17 24 13 28 -4 4 -1 5 7 3 8 -1 17 5 19 15 2 9 -1
17 -6 17 -5 0 -16 -8 -24 -17z m-58 -116 c0 -2 -10 -12 -22 -23 l-23 -19 19
23 c18 21 26 27 26 19z"/>
<path d="M2768 1163 c7 -3 16 -2 19 1 4 3 -2 6 -13 5 -11 0 -14 -3 -6 -6z"/>
<path d="M5240 1149 l-25 -20 33 16 c17 8 32 18 32 20 0 10 -16 4 -40 -16z"/>
<path d="M2815 1150 c11 -5 27 -9 35 -9 9 0 8 4 -5 9 -11 5 -27 9 -35 9 -9 0
-8 -4 5 -9z"/>
<path d="M2878 1133 c7 -3 16 -2 19 1 4 3 -2 6 -13 5 -11 0 -14 -3 -6 -6z"/>
<path d="M2933 1123 c9 -2 23 -2 30 0 6 3 -1 5 -18 5 -16 0 -22 -2 -12 -5z"/>
<path d="M3260 1116 c0 -8 4 -17 9 -20 5 -4 7 3 4 14 -6 23 -13 26 -13 6z"/>
<path d="M5145 1096 c-27 -18 -90 -55 -140 -81 -49 -27 -103 -57 -120 -67 -34
-21 -49 -23 -39 -6 4 7 3 8 -5 4 -6 -4 -9 -11 -6 -16 7 -11 -135 -81 -149 -73
-6 3 -7 2 -3 -2 4 -5 -7 -17 -25 -27 -18 -9 -28 -17 -23 -18 9 0 234 118 400
210 82 46 182 110 170 109 -5 0 -32 -15 -60 -33z"/>
<path d="M2993 1113 c9 -2 23 -2 30 0 6 3 -1 5 -18 5 -16 0 -22 -2 -12 -5z"/>
<path d="M4038 1113 c7 -3 16 -2 19 1 4 3 -2 6 -13 5 -11 0 -14 -3 -6 -6z"/>
<path d="M3058 1103 c7 -3 16 -2 19 1 4 3 -2 6 -13 5 -11 0 -14 -3 -6 -6z"/>
<path d="M3372 1096 c7 -8 15 -12 17 -11 5 6 -10 25 -20 25 -5 0 -4 -6 3 -14z"/>
<path d="M3432 1097 c-7 -8 -7 -18 -2 -27 6 -8 10 -10 11 -5 0 6 2 18 4 28 4
20 1 21 -13 4z"/>
<path d="M3473 1103 c-15 -5 -17 -23 -4 -23 5 0 11 7 15 15 3 8 4 15 3 14 -1
0 -8 -3 -14 -6z"/>
<path d="M3968 1103 c6 -2 18 -2 25 0 6 3 1 5 -13 5 -14 0 -19 -2 -12 -5z"/>
<path d="M2300 1096 c0 -2 8 -10 18 -17 15 -13 16 -12 3 4 -13 16 -21 21 -21
13z"/>
<path d="M2355 1080 c10 -11 20 -20 23 -20 3 0 -3 9 -13 20 -10 11 -20 20 -23
20 -3 0 3 -9 13 -20z"/>
<path d="M3660 1092 c0 -12 19 -26 26 -19 2 2 -2 10 -11 17 -9 8 -15 8 -15 2z"/>
<path d="M3173 1083 c9 -2 23 -2 30 0 6 3 -1 5 -18 5 -16 0 -22 -2 -12 -5z"/>
<path d="M3336 1082 c-3 -4 4 -9 15 -9 23 -2 25 3 4 10 -8 4 -16 3 -19 -1z"/>
<path d="M3818 1083 c12 -2 30 -2 40 0 9 3 -1 5 -23 4 -22 0 -30 -2 -17 -4z"/>
<path d="M3270 1076 c0 -2 7 -7 16 -10 8 -3 12 -2 9 4 -6 10 -25 14 -25 6z"/>
<path d="M3758 1073 c7 -3 16 -2 19 1 4 3 -2 6 -13 5 -11 0 -14 -3 -6 -6z"/>
<path d="M2365 1040 c10 -11 20 -20 23 -20 3 0 -3 9 -13 20 -10 11 -20 20 -23
20 -3 0 3 -9 13 -20z"/>
<path d="M2445 1022 c23 -25 271 -142 298 -142 7 0 -22 15 -63 34 -41 18 -109
50 -150 72 -90 46 -99 50 -85 36z"/>
<path d="M2424 997 c43 -37 199 -120 301 -160 140 -56 257 -86 373 -97 125
-12 339 -13 345 -2 3 4 -29 5 -71 4 -76 -4 -93 2 -38 12 16 3 31 8 35 12 7 7
-149 -3 -157 -11 -3 -3 3 -5 13 -5 10 0 16 -2 13 -5 -12 -12 -251 16 -333 40
-148 43 -340 128 -440 195 -58 38 -74 45 -41 17z m861 -247 c-3 -5 -14 -10
-23 -10 -15 0 -15 2 -2 10 20 13 33 13 25 0z"/>
<path d="M4240 930 c-21 -7 -21 -8 -5 -9 11 0 27 4 35 9 18 11 5 11 -30 0z"/>
<path d="M4190 910 c-9 -6 -10 -10 -3 -10 6 0 15 5 18 10 8 12 4 12 -15 0z"/>
<path d="M4040 868 c-36 -11 -76 -24 -90 -29 l-25 -9 25 4 c33 5 128 32 160
45 41 16 -1 10 -70 -11z"/>
<path d="M2785 865 c17 -8 37 -14 45 -14 8 0 -1 7 -20 14 -46 18 -64 17 -25 0z"/>
<path d="M3919 865 c-3 -2 -23 -7 -45 -11 -50 -8 -57 -14 -13 -13 40 1 117 27
83 28 -11 1 -23 -1 -25 -4z"/>
<path d="M2890 834 c25 -7 52 -13 60 -13 8 0 -5 7 -30 15 -25 7 -52 13 -60 13
-8 0 5 -7 30 -15z"/>
<path d="M3755 828 c-134 -32 -493 -44 -680 -24 -44 5 -46 4 -15 -4 19 -5 100
-12 180 -16 80 -4 151 -12 159 -18 11 -8 13 -8 7 2 -5 9 3 12 31 13 21 1 44 1
51 0 24 -4 305 40 321 49 21 12 2 12 -54 -2z"/>
<path d="M3898 823 c7 -3 16 -2 19 1 4 3 -2 6 -13 5 -11 0 -14 -3 -6 -6z"/>
<path d="M3858 813 c7 -3 16 -2 19 1 4 3 -2 6 -13 5 -11 0 -14 -3 -6 -6z"/>
<path d="M4593 813 c3 -5 -9 -17 -28 -26 -33 -16 -35 -16 -36 1 0 14 -2 13
-11 -5 -6 -13 -34 -31 -67 -44 -31 -12 -60 -26 -66 -31 -11 -10 67 19 163 61
62 27 76 41 51 50 -6 2 -9 -1 -6 -6z"/>
<path d="M3766 799 c3 -5 -3 -9 -12 -9 -10 0 -15 -3 -12 -6 3 -3 21 -1 39 4
l34 8 -27 6 c-15 3 -25 1 -22 -3z"/>
<path d="M2270 783 c0 -15 42 -66 94 -113 27 -25 46 -39 41 -31 -5 9 -3 12 6
9 8 -3 14 -10 14 -16 0 -13 9 -16 27 -10 12 4 -36 39 -58 42 -18 3 -61 43 -95
90 -16 21 -29 35 -29 29z"/>
<path d="M3635 764 l-50 -14 50 6 c71 9 74 9 81 17 11 10 -24 6 -81 -9z"/>
<path d="M3468 763 c7 -3 16 -2 19 1 4 3 -2 6 -13 5 -11 0 -14 -3 -6 -6z"/>
<path d="M3488 743 c18 -2 45 -2 60 0 15 2 0 4 -33 4 -33 0 -45 -2 -27 -4z"/>
<path d="M4260 710 c-13 -8 -13 -10 2 -10 9 0 20 5 23 10 8 13 -5 13 -25 0z"/>
<path d="M4150 696 c-45 -15 -99 -45 -82 -46 8 0 30 -7 49 -17 32 -15 38 -15
87 0 70 22 174 66 158 67 -7 0 -29 -7 -50 -16 -45 -19 -151 -54 -164 -54 -6 0
-2 12 8 28 13 19 13 24 2 15 -8 -7 -19 -9 -23 -5 -5 4 -5 -1 -2 -10 7 -19 -8
-25 -18 -8 -4 6 -11 7 -17 4 -6 -4 -8 -2 -4 4 3 6 29 18 56 27 28 9 50 18 50
21 0 6 -9 4 -50 -10z"/>
<path d="M4189 663 c-13 -16 -12 -17 4 -4 16 13 21 21 13 21 -2 0 -10 -8 -17
-17z"/>
<path d="M4005 629 c-16 -11 -29 -24 -27 -30 1 -6 -1 -8 -6 -5 -5 3 -36 -4
-68 -15 -32 -12 -92 -23 -131 -25 -40 -2 -82 -8 -92 -14 -11 -5 -29 -10 -40
-10 -11 0 -23 -4 -26 -10 -4 -6 7 -8 27 -4 32 5 32 4 -7 -12 -37 -15 -55 -18
-112 -22 -13 -1 -23 -8 -23 -16 0 -10 -14 -16 -42 -19 -39 -3 -38 -4 12 -5 42
-2 69 5 117 27 48 23 70 28 103 24 23 -3 67 0 98 7 66 16 215 87 208 99 -3 5
1 8 10 7 9 0 23 9 31 22 19 27 8 27 -32 1z m-85 -64 c0 -9 -84 -43 -120 -49
-26 -4 -30 -4 -15 3 19 9 19 10 -2 10 -13 1 -23 -2 -23 -7 0 -4 -19 -6 -41 -4
-61 6 -28 22 46 22 33 0 80 7 105 14 25 8 46 15 48 15 1 1 2 -1 2 -4z m-192
-62 c-10 -2 -26 -2 -35 0 -10 3 -2 5 17 5 19 0 27 -2 18 -5z"/>
<path d="M2463 612 c-9 -6 -6 -11 8 -21 12 -7 18 -8 14 -2 -9 15 1 14 36 -5
17 -8 29 -18 26 -21 -3 -2 -15 0 -26 7 -12 6 -21 8 -21 6 0 -13 104 -58 108
-47 2 6 8 9 13 6 5 -3 21 1 36 10 27 15 27 15 3 9 -14 -3 -27 -7 -30 -8 -9 -2
-75 28 -112 51 -43 26 -39 25 -55 15z m117 -62 c8 -5 11 -10 5 -10 -5 0 -17 5
-25 10 -8 5 -10 10 -5 10 6 0 17 -5 25 -10z"/>
<path d="M2719 507 c27 -29 48 -39 105 -52 55 -13 75 -14 92 -4 18 9 27 8 45
-5 13 -9 33 -16 44 -16 14 1 8 7 -19 20 -46 23 -67 25 -84 8 -8 -8 -12 -8 -12
-1 0 15 25 23 73 22 31 0 37 -2 22 -8 -13 -5 2 -8 40 -8 43 1 68 -4 85 -17 25
-17 25 -17 -27 -13 -29 3 -53 1 -53 -4 0 -23 180 6 195 32 10 15 53 10 87 -11
32 -19 98 -28 98 -12 0 4 -16 7 -35 6 -19 -1 -38 2 -41 7 -3 5 5 9 18 10 23 1
23 1 -2 9 -22 7 -20 8 15 9 23 0 35 -3 28 -7 -8 -5 1 -8 22 -8 41 0 43 3 13
16 -19 8 -15 9 22 9 25 0 62 4 82 9 20 5 38 9 40 8 2 0 1 2 -2 6 -3 4 -21 3
-40 -2 -32 -10 -83 -14 -259 -25 -45 -2 -67 -8 -73 -19 -11 -20 -60 -21 -96
-2 -15 8 -74 19 -131 25 -57 6 -107 14 -112 17 -5 3 -9 0 -9 -7 0 -8 -4 -8
-12 -2 -7 6 -35 16 -63 23 -27 6 -59 14 -70 17 -16 4 -13 -2 14 -30z m89 -9
c17 -5 32 -14 32 -19 0 -5 5 -9 11 -9 5 0 7 5 4 10 -4 6 7 10 27 9 30 0 31 -1
10 -10 -13 -5 -21 -13 -18 -18 8 -13 -102 15 -130 33 -13 9 -24 19 -24 21 0 6
37 -1 88 -17z m512 -28 c0 -5 -2 -10 -4 -10 -3 0 -8 5 -11 10 -3 6 -1 10 4 10
6 0 11 -4 11 -10z"/>
<path d="M3468 463 c7 -3 16 -2 19 1 4 3 -2 6 -13 5 -11 0 -14 -3 -6 -6z"/>
</g>
</svg>
