<?xml version="1.0" standalone="no"?>
<!DOCTYPE svg PUBLIC "-//W3C//DTD SVG 20010904//EN"
 "http://www.w3.org/TR/2001/REC-SVG-20010904/DTD/svg10.dtd">
<svg version="1.0" xmlns="http://www.w3.org/2000/svg"
 width="884.000000pt" height="512.000000pt" viewBox="0 0 884.000000 512.000000"
 preserveAspectRatio="xMidYMid meet">

<g transform="translate(0.000000,512.000000) scale(0.100000,-0.100000)"
fill="#000000" stroke="none">
<path d="M5567 4686 c-4 -9 -1 -15 5 -13 7 1 13 -4 14 -10 1 -7 2 -14 3 -15 2
-2 4 -13 7 -26 3 -16 0 -21 -8 -16 -7 5 -8 3 -3 -6 6 -10 12 -8 27 9 24 30 23
32 -11 65 -23 22 -29 24 -34 12z m46 -41 c4 -8 3 -16 -1 -19 -4 -3 -9 4 -9 15
-2 23 3 25 10 4z"/>
<path d="M5495 4671 c-3 -5 -2 -12 3 -15 5 -3 9 1 9 9 0 17 -3 19 -12 6z"/>
<path d="M5392 4614 c-41 -34 -45 -65 -4 -34 15 11 38 30 52 40 23 18 24 19 4
20 -11 0 -35 -12 -52 -26z"/>
<path d="M5570 4570 c-9 -6 -10 -10 -3 -10 6 0 15 5 18 10 8 12 4 12 -15 0z"/>
<path d="M5310 4560 c-9 -6 -10 -10 -3 -10 6 0 15 5 18 10 8 12 4 12 -15 0z"/>
<path d="M5455 4530 c-13 -5 -14 -9 -5 -9 8 0 24 4 35 9 13 5 14 9 5 9 -8 0
-24 -4 -35 -9z"/>
<path d="M5196 4459 c-39 -39 -62 -66 -51 -61 22 12 140 132 129 132 -3 0 -38
-32 -78 -71z"/>
<path d="M5374 4520 c-12 -5 -25 -13 -28 -19 -4 -6 -13 -8 -22 -4 -8 3 -26 -5
-39 -17 -14 -13 -27 -21 -30 -18 -7 6 -75 -58 -75 -70 0 -18 -49 -54 -65 -48
-19 7 -42 -3 -28 -13 4 -3 19 -27 32 -53 20 -41 23 -56 18 -108 -6 -56 -5 -60
14 -60 11 0 29 -5 39 -10 16 -9 21 -6 26 15 3 14 10 25 15 25 5 0 9 5 9 11 0
6 -6 9 -14 6 -8 -3 -17 -1 -20 6 -2 7 -5 2 -5 -10 -1 -13 -5 -23 -10 -23 -5 0
-16 -3 -25 -6 -9 -3 -16 -1 -16 5 0 6 5 10 12 9 7 -2 17 7 22 19 14 30 40 35
60 11 19 -21 17 -55 -2 -50 -7 1 -12 -5 -12 -13 0 -8 9 -15 19 -15 11 0 22 -4
25 -9 4 -5 30 -17 60 -26 30 -10 67 -30 82 -46 15 -16 33 -29 38 -29 6 0 -7
17 -30 38 -41 37 -47 62 -16 62 12 0 10 4 -7 13 -38 19 -38 37 -2 33 26 -3 29
-1 20 10 -9 11 -8 14 2 15 8 0 4 4 -9 10 -18 7 -22 14 -17 29 4 12 2 20 -5 20
-7 0 -9 8 -5 21 6 18 5 19 -13 10 -12 -6 -29 -11 -39 -11 -10 0 -24 -9 -31
-20 -14 -23 -42 -27 -42 -5 0 8 9 15 21 15 11 0 18 4 14 9 -7 12 31 25 45 16
5 -3 10 1 10 10 0 9 6 15 13 14 22 -3 37 1 37 9 0 4 -13 7 -30 7 -16 0 -30 -4
-30 -8 0 -5 -5 -5 -10 -2 -15 10 -2 25 22 25 17 0 18 3 8 14 -6 8 -17 13 -24
10 -7 -3 -21 4 -31 16 -21 23 -35 26 -35 8 -1 -29 -37 -57 -70 -55 -18 1 -35
-3 -37 -10 -3 -9 6 -10 34 -6 42 7 80 30 85 52 2 9 8 7 22 -8 19 -21 19 -21
-2 -21 -12 0 -26 -9 -32 -20 -7 -13 -21 -20 -40 -20 -23 0 -30 -4 -30 -20 0
-11 7 -20 15 -20 9 0 12 6 9 15 -5 11 1 15 26 15 18 0 29 -4 25 -10 -3 -5 -13
-10 -21 -10 -8 0 -14 -4 -14 -8 0 -5 -11 -14 -25 -20 -22 -10 -25 -9 -25 8 0
10 -9 25 -21 34 -27 18 -29 81 -4 105 16 15 17 15 5 -7 -6 -13 -10 -26 -7 -28
2 -3 10 10 17 28 17 41 60 87 81 88 9 0 22 -7 29 -15 10 -12 9 -16 -3 -21 -19
-7 -40 4 -32 17 13 21 -6 7 -20 -15 -18 -27 -11 -56 14 -56 9 0 12 3 6 8 -5 4
-11 16 -12 27 -1 19 -1 19 11 3 7 -10 16 -15 19 -11 4 3 14 0 22 -7 19 -16 95
-25 95 -11 0 5 -9 7 -20 4 -14 -4 -20 0 -20 12 0 13 -6 16 -23 13 -20 -4 -24
-1 -24 24 0 15 3 28 6 28 3 0 20 -17 38 -37 18 -20 33 -32 33 -25 0 6 -4 14
-10 17 -5 3 -15 16 -21 28 -11 21 -10 21 15 -2 14 -14 26 -29 26 -34 0 -5 13
-26 28 -46 16 -20 32 -45 36 -55 3 -10 9 -16 12 -13 3 3 -3 19 -13 37 -10 17
-25 44 -33 58 -36 63 -53 82 -74 82 -54 1 -59 34 -6 42 14 2 24 9 22 16 -2 10
4 11 19 7 14 -5 19 -3 15 3 -3 6 4 13 16 15 19 4 20 4 3 5 -11 0 -30 -3 -41
-8z m-64 -250 c0 -5 -7 -10 -16 -10 -8 0 -12 5 -9 10 3 6 10 10 16 10 5 0 9
-4 9 -10z m70 -65 c7 -8 11 -15 9 -16 -2 0 -13 -2 -23 -4 -10 -2 -22 -9 -26
-15 -5 -8 -9 -6 -14 5 -4 11 0 23 11 31 23 17 28 17 43 -1z m-68 -40 c0 -5 -5
-11 -11 -13 -6 -2 -11 4 -11 13 0 9 5 15 11 13 6 -2 11 -8 11 -13z m84 -17 c5
-7 0 -9 -14 -6 -14 4 -22 0 -25 -12 -5 -18 5 -42 17 -41 7 1 9 -6 4 -21 -3 -7
-14 -9 -31 -4 -20 5 -27 13 -27 31 0 16 -6 25 -15 25 -8 0 -15 5 -15 10 0 10
21 14 48 11 6 -1 12 3 12 9 0 14 37 13 46 -2z m-112 -34 c9 -3 16 -13 16 -20
0 -12 -4 -12 -20 -4 -11 6 -20 15 -20 20 0 12 3 12 24 4z"/>
<path d="M5331 4104 c0 -11 3 -14 6 -6 3 7 2 16 -1 19 -3 4 -6 -2 -5 -13z"/>
<path d="M5423 4403 c9 -2 23 -2 30 0 6 3 -1 5 -18 5 -16 0 -22 -2 -12 -5z"/>
<path d="M5110 4359 c0 -5 5 -7 10 -4 6 3 10 8 10 11 0 2 -4 4 -10 4 -5 0 -10
-5 -10 -11z"/>
<path d="M5210 4320 c-13 -8 -12 -10 3 -10 9 0 17 5 17 10 0 12 -1 12 -20 0z"/>
<path d="M5473 4231 c0 -11 4 -18 8 -16 8 6 33 -46 30 -64 -1 -7 2 -10 8 -6 6
3 11 -1 11 -9 0 -9 5 -16 11 -16 5 0 19 -19 29 -42 10 -24 29 -49 40 -56 12
-7 19 -16 16 -19 -3 -3 5 -14 17 -24 19 -16 20 -20 7 -29 -12 -9 -10 -10 9 -5
19 6 23 4 18 -9 -8 -20 1 -46 16 -46 7 0 7 4 -1 12 -27 27 -10 30 18 3 52 -50
59 -123 11 -108 -9 2 -2 -6 14 -19 17 -12 40 -34 52 -47 l22 -23 -3 33 c-6 59
-58 149 -125 217 -27 28 -87 105 -100 131 -7 13 -28 44 -47 68 -19 25 -34 50
-34 58 0 7 -6 18 -14 25 -12 9 -15 8 -13 -9z m317 -462 c0 -6 -4 -7 -10 -4 -5
3 -10 11 -10 16 0 6 5 7 10 4 6 -3 10 -11 10 -16z"/>
<path d="M4861 4197 c-26 -13 -40 -37 -22 -37 5 0 21 11 35 25 28 28 24 31
-13 12z"/>
<path d="M4906 4186 c-20 -16 -25 -26 -16 -31 9 -6 9 -9 -1 -16 -7 -4 -11 -10
-8 -13 7 -7 59 16 59 27 0 4 9 7 20 7 11 0 20 -4 20 -10 0 -5 -4 -10 -8 -10
-5 0 -17 -7 -28 -15 -18 -14 -17 -15 11 -9 17 4 33 11 36 17 4 5 9 3 11 -4 3
-8 8 -11 12 -8 6 5 -69 90 -77 89 -1 -1 -15 -11 -31 -24z m34 -15 c0 -6 -4
-13 -10 -16 -5 -3 -10 1 -10 9 0 9 5 16 10 16 6 0 10 -4 10 -9z"/>
<path d="M5470 4110 c0 -5 7 -10 16 -10 8 0 12 5 9 10 -3 6 -10 10 -16 10 -5
0 -9 -4 -9 -10z"/>
<path d="M5435 4080 c3 -5 8 -10 11 -10 2 0 4 5 4 10 0 6 -5 10 -11 10 -5 0
-7 -4 -4 -10z"/>
<path d="M5475 4060 c-19 -8 -19 -9 3 -9 12 -1 22 4 22 9 0 6 -1 10 -2 9 -2 0
-12 -4 -23 -9z"/>
<path d="M5520 4061 c0 -6 4 -13 10 -16 6 -3 7 1 4 9 -7 18 -14 21 -14 7z"/>
<path d="M5440 4054 c0 -6 11 -21 24 -33 24 -23 25 -23 19 -2 -3 11 -9 18 -14
16 -4 -3 -12 3 -18 12 -6 10 -11 13 -11 7z"/>
<path d="M4958 4043 c6 -2 18 -2 25 0 6 3 1 5 -13 5 -14 0 -19 -2 -12 -5z"/>
<path d="M5120 4046 c0 -2 9 -6 20 -9 11 -3 20 -1 20 4 0 5 -9 9 -20 9 -11 0
-20 -2 -20 -4z"/>
<path d="M4890 4025 c-14 -8 -20 -14 -14 -15 5 0 19 7 30 15 24 18 16 19 -16
0z"/>
<path d="M5507 4033 c-9 -9 -9 -41 1 -46 4 -3 7 8 7 24 0 16 0 29 -1 29 0 0
-4 -3 -7 -7z"/>
<path d="M5197 4019 c7 -7 15 -10 18 -7 3 3 -2 9 -12 12 -14 6 -15 5 -6 -5z"/>
<path d="M5521 4017 c2 -1 12 -9 22 -16 15 -12 17 -12 11 3 -3 9 -13 16 -22
16 -8 0 -13 -1 -11 -3z"/>
<path d="M5275 3990 c3 -5 11 -10 16 -10 6 0 7 5 4 10 -3 6 -11 10 -16 10 -6
0 -7 -4 -4 -10z"/>
<path d="M5587 3986 c-4 -10 -1 -13 8 -9 8 3 12 9 9 14 -7 12 -11 11 -17 -5z"/>
<path d="M5478 3984 c-7 -12 7 -49 18 -49 16 0 135 -127 196 -211 38 -51 88
-100 88 -86 0 7 -11 24 -25 37 -13 14 -22 25 -20 25 2 0 -9 13 -23 29 -43 46
-51 58 -44 66 4 4 0 5 -8 3 -8 -1 -14 2 -13 9 2 6 -6 15 -17 18 -11 4 -20 10
-20 15 0 5 -25 35 -55 65 -30 31 -58 63 -63 72 -5 8 -12 12 -14 7z"/>
<path d="M5310 3976 c0 -2 7 -7 16 -10 8 -3 12 -2 9 4 -6 10 -25 14 -25 6z"/>
<path d="M5531 3971 c-9 -6 -10 -11 -2 -15 6 -4 11 -2 11 4 0 7 7 9 16 6 8 -3
12 -2 9 4 -8 12 -16 12 -34 1z"/>
<path d="M4719 3933 c-13 -17 -13 -17 6 -3 11 8 22 16 24 17 2 2 0 3 -6 3 -6
0 -17 -8 -24 -17z"/>
<path d="M5400 3926 c0 -2 8 -10 18 -17 15 -13 16 -12 3 4 -13 16 -21 21 -21
13z"/>
<path d="M4667 3901 c-38 -25 -42 -31 -19 -24 12 3 28 14 38 24 21 23 17 23
-19 0z"/>
<path d="M5580 3916 c0 -2 8 -10 18 -17 15 -13 16 -12 3 4 -13 16 -21 21 -21
13z"/>
<path d="M5644 3888 c-4 -7 -3 -8 4 -4 7 4 12 2 12 -3 0 -6 4 -11 10 -11 5 0
7 7 4 15 -7 18 -20 19 -30 3z"/>
<path d="M5629 3856 c14 -14 26 -24 29 -22 7 8 -8 25 -31 37 -21 11 -21 10 2
-15z"/>
<path d="M4813 3834 c-4 -11 -13 -14 -32 -9 -19 4 -22 3 -11 -5 8 -5 21 -10
28 -10 20 0 73 -42 87 -70 7 -14 12 -36 10 -49 -2 -27 -65 -87 -75 -71 -3 6
-45 23 -93 39 l-87 30 0 -25 c0 -30 17 -64 39 -81 9 -7 49 -12 96 -13 130 0
375 -23 375 -34 0 -10 20 14 20 24 0 3 -30 5 -68 5 -115 1 -215 15 -234 32
-17 16 -17 17 12 31 16 8 30 20 30 26 0 7 3 6 8 -2 5 -8 8 1 8 23 -1 19 -4 35
-7 35 -4 0 -12 13 -19 29 -6 16 -27 40 -45 53 -41 29 -34 45 20 51 39 4 39 4
-8 5 -35 2 -49 -2 -54 -14z m-52 -199 c26 -9 49 -24 52 -33 3 -15 -4 -18 -39
-20 -29 -1 -44 3 -44 11 0 6 -13 21 -28 31 l-27 19 23 -25 c13 -14 19 -28 14
-32 -13 -8 -56 40 -47 53 3 6 1 11 -5 11 -6 0 -9 4 -5 9 5 10 22 6 106 -24z"/>
<path d="M5077 3829 c7 -7 15 -10 18 -7 3 3 -2 9 -12 12 -14 6 -15 5 -6 -5z"/>
<path d="M5680 3836 c0 -2 11 -6 25 -8 13 -3 22 -1 19 3 -5 9 -44 13 -44 5z"/>
<path d="M4941 3826 c10 -9 69 -36 69 -32 0 6 -55 36 -66 36 -4 0 -5 -2 -3 -4z"/>
<path d="M7490 3811 c0 -6 4 -13 10 -16 6 -3 7 1 4 9 -7 18 -14 21 -14 7z"/>
<path d="M7569 3783 c32 -26 71 -47 71 -39 0 2 -17 15 -37 27 -64 40 -69 42
-34 12z"/>
<path d="M7443 3788 c-10 -14 -2 -73 9 -70 16 3 38 -11 38 -23 0 -8 4 -16 9
-19 5 -3 8 5 7 18 0 13 -4 22 -7 20 -4 -2 -14 5 -24 16 -10 11 -14 20 -9 20 5
0 1 7 -9 14 -16 13 -16 14 -1 20 9 4 17 5 18 4 1 -2 11 -17 24 -35 12 -18 22
-36 22 -40 1 -10 70 -89 70 -80 0 13 -25 51 -45 70 -11 10 -14 16 -7 12 22
-11 13 4 -27 45 -41 43 -53 47 -68 28z"/>
<path d="M5070 3765 c14 -8 32 -14 40 -14 8 0 0 6 -19 14 -42 19 -54 19 -21 0z"/>
<path d="M5700 3771 c0 -5 5 -13 10 -16 6 -3 10 -2 10 4 0 5 -4 13 -10 16 -5
3 -10 2 -10 -4z"/>
<path d="M7548 3756 c12 -16 22 -34 22 -40 0 -6 9 -22 20 -36 11 -14 20 -33
20 -42 0 -9 4 -19 9 -22 15 -10 6 29 -17 64 -12 19 -22 40 -22 46 0 6 -12 21
-27 35 l-27 24 22 -29z"/>
<path d="M5550 3766 c0 -2 8 -10 18 -17 15 -13 16 -12 3 4 -13 16 -21 21 -21
13z"/>
<path d="M7395 3760 c-3 -6 1 -7 9 -4 18 7 21 14 7 14 -6 0 -13 -4 -16 -10z"/>
<path d="M7352 3700 c-13 -28 -20 -55 -17 -61 4 -5 2 -15 -3 -22 -5 -7 -13
-32 -17 -56 -6 -37 -5 -43 8 -38 9 3 18 1 21 -6 2 -7 5 -2 5 11 1 13 -3 20 -9
17 -6 -3 -10 4 -10 17 0 13 4 19 8 13 10 -14 56 -20 48 -6 -4 6 -14 11 -22 11
-8 0 -14 4 -14 10 0 5 7 7 15 4 8 -4 15 -1 15 5 0 6 -7 11 -15 11 -19 0 -19
37 0 56 19 20 30 63 19 74 -6 6 -19 -11 -32 -40z"/>
<path d="M7411 3734 c0 -11 3 -14 6 -6 3 7 2 16 -1 19 -3 4 -6 -2 -5 -13z"/>
<path d="M5740 3725 c7 -8 16 -15 21 -15 5 0 9 7 9 15 0 9 -9 15 -21 15 -18 0
-19 -2 -9 -15z"/>
<path d="M7720 3665 c41 -44 76 -81 78 -84 1 -2 2 1 2 8 0 12 -32 47 -110 116
-25 22 -11 4 30 -40z"/>
<path d="M5183 3710 c40 -32 52 -93 24 -130 -10 -13 -9 -13 5 0 8 8 18 30 21
47 5 27 1 39 -24 68 -17 19 -36 35 -41 35 -6 0 1 -9 15 -20z"/>
<path d="M7611 3708 c-1 -9 10 -30 24 -45 13 -15 25 -23 25 -17 0 6 -7 18 -16
25 -9 7 -20 22 -24 34 -7 16 -9 17 -9 3z"/>
<path d="M4578 3693 c7 -3 16 -2 19 1 4 3 -2 6 -13 5 -11 0 -14 -3 -6 -6z"/>
<path d="M5770 3693 c1 -18 18 -35 24 -24 4 6 2 11 -4 11 -6 0 -8 5 -5 10 3 6
1 10 -4 10 -6 0 -11 -3 -11 -7z"/>
<path d="M7388 3675 c-20 -26 -23 -45 -8 -45 6 0 10 8 10 18 0 10 5 23 12 30
6 6 10 14 7 16 -2 2 -12 -6 -21 -19z"/>
<path d="M7422 3670 c0 -19 2 -27 5 -17 2 9 2 25 0 35 -3 9 -5 1 -5 -18z"/>
<path d="M7440 3690 c0 -5 7 -10 15 -10 9 0 20 -10 25 -22 5 -13 9 -17 9 -10
1 22 -19 52 -34 52 -8 0 -15 -4 -15 -10z"/>
<path d="M4370 3655 c-11 -13 -10 -14 4 -9 9 3 16 10 16 15 0 13 -6 11 -20 -6z"/>
<path d="M7510 3640 c6 -11 16 -20 22 -20 6 0 3 9 -7 20 -10 11 -20 20 -22 20
-2 0 1 -9 7 -20z"/>
<path d="M4167 3643 c-14 -13 -6 -33 12 -33 14 0 18 5 14 20 -5 21 -15 25 -26
13z"/>
<path d="M5190 3641 c0 -6 4 -13 10 -16 6 -3 7 1 4 9 -7 18 -14 21 -14 7z"/>
<path d="M5666 3627 c3 -10 9 -15 12 -12 3 3 0 11 -7 18 -10 9 -11 8 -5 -6z"/>
<path d="M7400 3630 c0 -5 5 -10 11 -10 5 0 7 5 4 10 -3 6 -8 10 -11 10 -2 0
-4 -4 -4 -10z"/>
<path d="M7095 3594 c-9 -15 -12 -23 -6 -20 11 7 35 46 28 46 -3 0 -12 -12
-22 -26z"/>
<path d="M5795 3600 c3 -5 8 -10 11 -10 2 0 4 5 4 10 0 6 -5 10 -11 10 -5 0
-7 -4 -4 -10z"/>
<path d="M7431 3594 c0 -11 3 -14 6 -6 3 7 2 16 -1 19 -3 4 -6 -2 -5 -13z"/>
<path d="M5156 3588 c3 -5 10 -6 15 -3 13 9 11 12 -6 12 -8 0 -12 -4 -9 -9z"/>
<path d="M5686 3585 c4 -8 11 -15 16 -15 6 0 5 6 -2 15 -7 8 -14 15 -16 15 -2
0 -1 -7 2 -15z"/>
<path d="M7156 3573 c-6 -14 -5 -15 5 -6 7 7 10 15 7 18 -3 3 -9 -2 -12 -12z"/>
<path d="M7500 3570 c6 -11 12 -20 14 -20 2 0 2 9 -1 20 -3 11 -9 20 -15 20
-5 0 -4 -9 2 -20z"/>
<path d="M4664 3555 c22 -17 40 -20 32 -6 -3 5 -16 11 -28 14 -22 6 -22 5 -4
-8z"/>
<path d="M7784 3405 c0 -93 2 -133 3 -88 2 45 2 122 0 170 -1 48 -3 12 -3 -82z"/>
<path d="M3935 3539 c-4 -6 -5 -12 -2 -15 2 -3 7 2 10 11 7 17 1 20 -8 4z"/>
<path d="M7128 3525 c-25 -34 -22 -43 3 -11 12 15 20 29 18 31 -2 1 -12 -7
-21 -20z"/>
<path d="M4796 3527 c3 -10 9 -15 12 -12 3 3 0 11 -7 18 -10 9 -11 8 -5 -6z"/>
<path d="M7517 3527 c-3 -9 1 -18 9 -21 16 -6 18 2 5 22 -7 11 -9 11 -14 -1z"/>
<path d="M4930 3520 c0 -5 7 -10 16 -10 8 0 12 5 9 10 -3 6 -10 10 -16 10 -5
0 -9 -4 -9 -10z"/>
<path d="M5015 3510 c4 -6 11 -8 16 -5 14 9 11 15 -7 15 -8 0 -12 -5 -9 -10z"/>
<path d="M7290 3502 c0 -10 -7 -27 -15 -38 -8 -10 -15 -27 -15 -37 0 -10 -7
-20 -16 -24 -9 -3 -14 -13 -11 -24 3 -11 2 -17 -2 -15 -4 3 -21 -10 -39 -28
l-32 -33 30 -13 c17 -7 34 -18 38 -24 11 -18 102 -88 102 -79 0 4 -21 23 -46
42 -25 19 -49 42 -55 53 -5 10 -16 18 -24 18 -8 0 -15 5 -15 10 0 6 6 10 14
10 8 0 16 7 20 15 3 8 12 15 20 15 7 0 13 8 12 17 0 10 4 18 10 18 15 0 48 35
40 42 -3 4 -13 -2 -21 -13 -8 -10 -15 -14 -15 -7 0 6 5 15 10 18 6 4 8 10 5
15 -3 5 -1 11 4 15 5 3 14 -2 19 -11 7 -13 11 -9 16 21 5 27 4 40 -6 46 -20
13 -28 11 -28 -9z m17 -24 c-3 -8 -6 -5 -6 6 -1 11 2 17 5 13 3 -3 4 -12 1
-19z"/>
<path d="M4291 3438 c29 -37 73 -81 98 -98 40 -27 41 -27 11 -3 -19 15 -46 41
-60 56 -79 90 -97 107 -49 45z"/>
<path d="M7369 3498 c-6 -12 -5 -46 2 -43 4 3 7 14 6 25 -1 18 -5 25 -8 18z"/>
<path d="M4086 3460 c-5 -19 -14 -44 -21 -55 -7 -11 -16 -30 -19 -41 -6 -20
-2 -22 59 -28 36 -3 94 -9 129 -12 40 -4 70 -2 82 5 17 10 16 11 -7 5 -18 -4
-37 2 -64 20 -21 14 -44 26 -51 26 -18 0 -91 73 -96 96 -3 14 -7 9 -12 -16z
m54 -68 c0 -5 8 -16 18 -23 16 -13 16 -13 2 5 -12 15 -5 14 35 -8 67 -38 68
-39 10 -31 -27 4 -59 15 -69 24 -11 9 -16 10 -12 4 5 -9 1 -13 -11 -13 -29 0
-54 23 -44 39 7 11 10 9 16 -8 3 -11 11 -21 16 -21 11 0 12 14 2 24 -11 10
-12 37 -2 30 5 -3 9 0 9 6 0 7 6 5 15 -4 8 -8 15 -19 15 -24z"/>
<path d="M5655 3479 c-4 -6 -19 -10 -33 -9 -47 3 -48 -2 -2 -10 30 -5 48 -3
52 4 5 6 8 7 8 1 0 -5 5 -3 10 5 6 10 10 11 10 3 0 -7 5 -13 11 -13 5 0 7 5 3
11 -5 9 6 10 42 6 48 -5 54 -9 113 -82 5 -5 31 -30 59 -54 28 -24 49 -47 47
-51 -2 -3 0 -12 6 -20 5 -10 9 -11 9 -3 0 7 7 10 16 6 9 -3 -35 44 -97 105
l-114 112 -67 0 c-37 0 -70 -5 -73 -11z"/>
<path d="M7340 3469 c0 -14 -5 -30 -11 -36 -8 -8 -8 -20 -2 -40 9 -26 10 -23
17 31 3 32 4 61 1 64 -3 3 -5 -6 -5 -19z"/>
<path d="M5545 3450 c-12 -4 -27 -15 -34 -24 -12 -14 -11 -20 10 -44 13 -15
28 -29 33 -31 4 -2 16 -12 25 -23 9 -11 28 -26 43 -34 15 -8 56 -35 91 -61
122 -90 192 -138 212 -146 11 -5 31 -19 45 -32 14 -12 41 -31 60 -42 145 -78
190 -146 125 -189 -20 -13 -56 -15 -224 -12 -110 2 -193 0 -183 -4 9 -4 103
-7 207 -7 174 -1 193 1 223 19 29 18 33 25 28 48 -8 34 -94 115 -155 147 -25
13 -61 37 -80 54 -19 17 -38 31 -42 31 -5 0 -28 14 -51 30 -24 17 -68 47 -98
67 -30 20 -73 51 -94 69 -22 19 -44 34 -50 34 -15 0 -106 85 -106 99 0 6 9 20
21 32 24 24 22 30 -6 19z"/>
<path d="M5685 3441 c3 -6 -3 -14 -12 -20 -15 -8 -16 -12 -5 -23 10 -10 14 -9
18 10 5 17 11 21 29 16 13 -3 26 0 30 7 5 7 4 10 -3 5 -6 -3 -22 -2 -37 4 -15
6 -24 6 -20 1z"/>
<path d="M7087 3443 c-4 -3 -7 -11 -7 -17 0 -6 5 -5 12 2 6 6 9 14 7 17 -3 3
-9 2 -12 -2z"/>
<path d="M5435 3430 c3 -5 8 -10 11 -10 2 0 4 5 4 10 0 6 -5 10 -11 10 -5 0
-7 -4 -4 -10z"/>
<path d="M5420 3408 c0 -3 9 -15 20 -28 11 -13 20 -19 20 -13 0 5 -9 18 -20
28 -11 10 -20 16 -20 13z"/>
<path d="M5780 3408 c0 -3 12 -18 26 -34 17 -19 22 -22 16 -8 -10 20 -42 52
-42 42z"/>
<path d="M7304 3375 c-4 -8 -10 -12 -15 -9 -5 3 -9 0 -9 -5 0 -19 28 -12 33 9
6 23 -1 27 -9 5z"/>
<path d="M5740 3366 c0 -2 7 -6 15 -10 8 -3 15 -1 15 4 0 6 -7 10 -15 10 -8 0
-15 -2 -15 -4z"/>
<path d="M7891 3334 c0 -11 3 -14 6 -6 3 7 2 16 -1 19 -3 4 -6 -2 -5 -13z"/>
<path d="M5456 3325 c4 -8 11 -15 16 -15 6 0 5 6 -2 15 -7 8 -14 15 -16 15 -2
0 -1 -7 2 -15z"/>
<path d="M7237 3333 c-4 -3 -7 -13 -7 -22 1 -13 3 -13 11 2 11 19 8 33 -4 20z"/>
<path d="M5795 3320 c3 -5 11 -10 16 -10 6 0 7 5 4 10 -3 6 -11 10 -16 10 -6
0 -7 -4 -4 -10z"/>
<path d="M4440 3306 c0 -2 7 -7 16 -10 8 -3 12 -2 9 4 -6 10 -25 14 -25 6z"/>
<path d="M7901 3300 c0 -8 4 -24 9 -35 5 -13 9 -14 9 -5 0 8 -4 24 -9 35 -5
13 -9 14 -9 5z"/>
<path d="M5820 3285 c0 -2 10 -10 23 -16 20 -11 21 -11 8 4 -13 16 -31 23 -31
12z"/>
<path d="M4513 3264 c20 -24 22 -38 5 -28 -7 4 -9 3 -5 -1 4 -5 14 -10 22 -11
18 -3 5 26 -22 47 -17 13 -17 13 0 -7z"/>
<path d="M6044 3249 c8 -11 24 -28 37 -37 19 -13 18 -10 -7 21 -31 39 -56 52
-30 16z"/>
<path d="M4721 3247 c-1 -17 -7 -27 -39 -62 -12 -13 -10 -14 10 -11 13 3 26 5
29 5 11 2 16 35 8 61 -5 17 -7 19 -8 7z"/>
<path d="M7097 3241 c-4 -17 -3 -21 5 -13 5 5 8 16 6 23 -3 8 -7 3 -11 -10z"/>
<path d="M5560 3241 c0 -5 5 -13 10 -16 6 -3 10 -2 10 4 0 5 -4 13 -10 16 -5
3 -10 2 -10 -4z"/>
<path d="M4011 3200 c-12 -22 -20 -40 -18 -40 7 0 48 72 44 76 -2 2 -14 -14
-26 -36z"/>
<path d="M6015 3230 c3 -5 8 -10 11 -10 2 0 4 5 4 10 0 6 -5 10 -11 10 -5 0
-7 -4 -4 -10z"/>
<path d="M7921 3224 c0 -11 3 -14 6 -6 3 7 2 16 -1 19 -3 4 -6 -2 -5 -13z"/>
<path d="M3390 3220 c0 -5 7 -7 15 -4 8 4 15 8 15 10 0 2 -7 4 -15 4 -8 0 -15
-4 -15 -10z"/>
<path d="M3430 3226 c0 -2 11 -6 25 -8 14 -3 25 -1 25 3 0 5 -11 9 -25 9 -14
0 -25 -2 -25 -4z"/>
<path d="M3324 3196 c-28 -13 -70 -42 -94 -65 -24 -22 -49 -41 -55 -41 -7 0
-15 -11 -18 -25 -2 -14 -2 -24 2 -23 3 2 18 10 34 17 15 8 27 18 27 23 0 4 7
8 16 8 29 0 119 33 131 47 6 8 16 12 22 8 6 -3 11 -1 11 5 0 7 7 10 15 6 9 -3
15 0 15 8 0 8 -6 17 -12 19 -10 4 -10 6 0 6 6 1 12 6 12 12 0 5 -8 9 -17 7
-10 -1 -23 1 -29 4 -6 4 -33 -4 -60 -16z m71 -26 c-3 -5 -13 -10 -21 -10 -8 0
-12 5 -9 10 3 6 13 10 21 10 8 0 12 -4 9 -10z m-75 -31 c0 -16 -5 -20 -20 -16
-10 3 -24 -1 -31 -9 -15 -19 -29 -18 -29 2 0 8 4 13 8 10 5 -3 22 4 38 14 16
10 30 19 32 19 1 1 2 -9 2 -20z"/>
<path d="M7060 3210 c-9 -6 -10 -10 -3 -10 6 0 15 5 18 10 8 12 4 12 -15 0z"/>
<path d="M4589 3187 c5 -5 24 -7 42 -5 33 3 33 4 -8 8 -23 3 -39 2 -34 -3z"/>
<path d="M5620 3196 c0 -2 7 -7 16 -10 8 -3 12 -2 9 4 -6 10 -25 14 -25 6z"/>
<path d="M6110 3196 c0 -14 190 -115 225 -120 l40 -6 -45 14 c-25 7 -67 27
-95 44 -69 43 -125 73 -125 68z"/>
<path d="M7019 3183 c-13 -16 -12 -17 4 -4 9 7 17 15 17 17 0 8 -8 3 -21 -13z"/>
<path d="M7185 3170 c34 -41 86 -85 84 -73 -1 4 -26 31 -57 58 -44 39 -50 42
-27 15z"/>
<path d="M7931 3184 c0 -11 3 -14 6 -6 3 7 2 16 -1 19 -3 4 -6 -2 -5 -13z"/>
<path d="M3446 3175 c-3 -8 -1 -15 4 -15 6 0 10 7 10 15 0 8 -2 15 -4 15 -2 0
-6 -7 -10 -15z"/>
<path d="M7744 3166 c-3 -8 -4 -23 -2 -33 3 -11 6 -6 9 15 6 34 2 42 -7 18z"/>
<path d="M5676 3156 c4 -11 54 -41 54 -33 0 2 -13 13 -30 25 -17 13 -27 17
-24 8z"/>
<path d="M7350 3162 c0 -6 6 -15 14 -19 21 -12 165 -142 208 -187 l37 -40 27
24 c29 28 79 108 71 116 -3 3 -11 -8 -18 -25 -7 -16 -17 -27 -23 -24 -5 3 -6
1 -2 -5 8 -13 -22 -44 -35 -37 -5 4 -9 -1 -9 -9 0 -9 -2 -16 -6 -16 -3 0 -33
27 -67 59 -34 33 -75 70 -92 83 -16 12 -34 27 -40 33 -32 33 -65 57 -65 47z"/>
<path d="M7941 3144 c0 -11 3 -14 6 -6 3 7 2 16 -1 19 -3 4 -6 -2 -5 -13z"/>
<path d="M3589 3116 c-7 -20 -18 -36 -25 -36 -6 0 -15 -7 -18 -17 -5 -13 -11
-11 -35 16 -20 23 -31 29 -37 20 -4 -7 -3 -10 4 -5 6 3 13 -7 17 -26 4 -18 11
-39 16 -48 17 -29 49 -121 49 -139 0 -31 25 -31 64 1 30 24 36 36 36 68 0 23
-5 40 -14 43 -17 7 -28 -16 -19 -40 4 -10 2 -14 -4 -10 -5 3 -10 -1 -10 -9 0
-8 5 -13 11 -11 6 2 11 16 11 30 -1 14 3 23 7 21 4 -3 8 -18 8 -34 0 -30 -29
-57 -45 -42 -5 4 -5 1 0 -7 6 -10 4 -12 -4 -6 -8 4 -10 17 -6 33 5 22 4 24 -9
13 -16 -14 -20 -9 -16 22 1 9 -4 16 -11 15 -7 -2 -14 6 -16 17 -3 17 -2 18 7
5 9 -12 10 -7 4 20 -6 32 -5 34 11 20 16 -14 17 -13 11 8 -5 13 -3 22 3 22 6
0 11 7 11 16 0 8 5 12 10 9 6 -4 7 -13 1 -24 -16 -29 -2 -61 25 -59 13 1 24 4
24 5 0 13 -35 130 -41 136 -4 5 -13 -7 -20 -27z m31 -88 c0 -19 -2 -20 -10 -8
-13 19 -13 30 0 30 6 0 10 -10 10 -22z"/>
<path d="M3820 3124 c1 -14 76 -64 98 -64 19 0 42 21 56 50 4 8 0 6 -9 -5 -9
-11 -23 -19 -31 -17 -8 2 -14 -2 -14 -7 0 -15 -50 5 -77 31 -13 12 -23 17 -23
12z"/>
<path d="M5750 3106 c0 -2 7 -9 15 -16 13 -11 14 -10 9 4 -5 14 -24 23 -24 12z"/>
<path d="M7719 3093 c-13 -16 -12 -17 4 -4 16 13 21 21 13 21 -2 0 -10 -8 -17
-17z"/>
<path d="M7951 3094 c0 -11 3 -14 6 -6 3 7 2 16 -1 19 -3 4 -6 -2 -5 -13z"/>
<path d="M6160 3096 c0 -2 7 -7 16 -10 8 -3 12 -2 9 4 -6 10 -25 14 -25 6z"/>
<path d="M5795 3079 c4 -5 20 -16 37 -25 16 -9 27 -11 24 -5 -4 5 -20 16 -36
25 -17 8 -28 10 -25 5z"/>
<path d="M6758 3083 c7 -3 16 -2 19 1 4 3 -2 6 -13 5 -11 0 -14 -3 -6 -6z"/>
<path d="M6125 3070 c3 -5 8 -10 11 -10 2 0 4 5 4 10 0 6 -5 10 -11 10 -5 0
-7 -4 -4 -10z"/>
<path d="M6199 3041 c26 -23 44 -20 34 6 -4 11 -8 13 -11 5 -3 -9 -9 -9 -25
-1 -21 9 -20 9 2 -10z"/>
<path d="M6430 3045 c14 -8 32 -14 40 -14 8 0 0 6 -19 14 -42 19 -54 19 -21 0z"/>
<path d="M7963 3025 c0 -22 2 -30 4 -17 2 12 2 30 0 40 -3 9 -5 -1 -4 -23z"/>
<path d="M7320 3040 c0 -5 5 -10 11 -10 5 0 7 5 4 10 -3 6 -8 10 -11 10 -2 0
-4 -4 -4 -10z"/>
<path d="M6110 3036 c0 -2 7 -7 16 -10 8 -3 12 -2 9 4 -6 10 -25 14 -25 6z"/>
<path d="M5880 3022 c0 -12 19 -26 26 -19 2 2 -2 10 -11 17 -9 8 -15 8 -15 2z"/>
<path d="M6375 3006 c10 -14 19 -26 22 -26 7 0 -17 39 -28 46 -6 3 -3 -5 6
-20z"/>
<path d="M6550 3005 c14 -8 30 -14 35 -14 6 0 -1 6 -15 14 -14 8 -29 14 -35
14 -5 0 1 -6 15 -14z"/>
<path d="M2689 2989 c-40 -10 -70 -29 -64 -39 3 -6 0 -7 -8 -5 -7 3 -21 -3
-31 -14 -10 -11 -23 -18 -29 -14 -5 3 -7 0 -5 -8 8 -22 75 -14 155 18 68 28
71 30 50 43 l-22 14 25 7 c21 6 20 7 -10 6 -20 0 -47 -4 -61 -8z m28 -15 c-3
-3 -12 -4 -19 -1 -8 3 -5 6 6 6 11 1 17 -2 13 -5z m-42 -14 c-3 -5 -12 -10
-18 -10 -7 0 -6 4 3 10 19 12 23 12 15 0z m-40 -40 c-3 -5 -14 -8 -25 -7 -24
2 -18 12 9 14 12 1 19 -2 16 -7z"/>
<path d="M2803 2993 c11 -3 16 -11 13 -19 -7 -18 8 -18 23 0 9 11 8 15 -5 20
-8 3 -23 5 -32 5 -14 -1 -14 -2 1 -6z"/>
<path d="M3101 2984 c0 -11 3 -14 6 -6 3 7 2 16 -1 19 -3 4 -6 -2 -5 -13z"/>
<path d="M6240 2990 c-9 -6 -10 -10 -3 -10 6 0 15 5 18 10 8 12 4 12 -15 0z"/>
<path d="M7380 2992 c0 -12 19 -26 26 -19 2 2 -2 10 -11 17 -9 8 -15 8 -15 2z"/>
<path d="M3007 2969 c-7 -27 3 -41 35 -46 20 -3 20 -2 6 14 -8 10 -20 26 -25
37 -9 17 -10 17 -16 -5z"/>
<path d="M6617 2979 c7 -7 15 -10 18 -7 3 3 -2 9 -12 12 -14 6 -15 5 -6 -5z"/>
<path d="M5958 2973 c7 -3 16 -2 19 1 4 3 -2 6 -13 5 -11 0 -14 -3 -6 -6z"/>
<path d="M2439 2952 c-48 -32 -119 -107 -119 -124 0 -9 -4 -20 -10 -23 -16
-10 -12 -65 4 -65 8 0 16 -5 18 -12 2 -6 24 -17 48 -24 36 -11 47 -11 62 0 18
13 17 14 -9 19 -15 3 -39 9 -52 13 -19 6 -23 4 -17 -7 5 -9 3 -8 -6 2 -7 8
-22 19 -33 23 -12 5 -15 10 -8 13 7 2 10 10 7 17 -3 8 2 20 10 29 9 9 16 20
16 25 0 29 86 72 146 72 l32 0 -14 30 c-18 34 -38 38 -75 12z m60 -10 c8 -14
6 -18 -10 -19 -10 -1 -19 2 -19 8 0 5 -4 9 -10 9 -5 0 -10 -7 -10 -15 0 -8 -4
-15 -10 -15 -27 0 14 43 47 50 1 0 7 -8 12 -18z m-104 -222 c3 -5 1 -10 -4
-10 -6 0 -11 5 -11 10 0 6 2 10 4 10 3 0 8 -4 11 -10z"/>
<path d="M4775 2960 c3 -5 8 -10 11 -10 2 0 4 5 4 10 0 6 -5 10 -11 10 -5 0
-7 -4 -4 -10z"/>
<path d="M7967 2963 c-4 -3 -6 -29 -6 -57 2 -48 2 -49 9 -16 5 27 8 14 11 -54
3 -65 1 -90 -8 -93 -7 -3 -13 -11 -13 -18 0 -16 19 -23 44 -17 16 4 18 12 12
66 -3 33 -11 65 -16 70 -6 6 -10 30 -10 56 0 46 -11 76 -23 63z m36 -234 c-4
-4 -9 20 -9 54 l-1 62 9 -54 c6 -29 6 -57 1 -62z"/>
<path d="M3100 2932 c37 -32 88 -46 123 -33 16 6 9 9 -30 9 -40 0 -60 6 -90
27 l-38 27 35 -30z"/>
<path d="M6230 2940 c0 -5 5 -10 11 -10 5 0 7 5 4 10 -3 6 -8 10 -11 10 -2 0
-4 -4 -4 -10z"/>
<path d="M6695 2935 c22 -18 86 -53 70 -38 -5 6 -28 20 -50 32 -22 13 -31 15
-20 6z"/>
<path d="M4193 2928 c-18 -4 -35 -13 -39 -19 -4 -8 -1 -8 13 -1 22 12 266 16
259 4 -2 -4 43 -8 102 -8 180 0 37 18 -228 30 -41 2 -89 -1 -107 -6z"/>
<path d="M6380 2936 c0 -2 8 -10 18 -17 15 -13 16 -12 3 4 -13 16 -21 21 -21
13z"/>
<path d="M6035 2910 c10 -11 19 -20 21 -20 1 0 0 9 -3 20 -3 11 -12 20 -21 20
-13 0 -12 -3 3 -20z"/>
<path d="M6206 2917 c3 -10 9 -15 12 -12 3 3 0 11 -7 18 -10 9 -11 8 -5 -6z"/>
<path d="M5020 2910 c0 -6 17 -10 37 -10 43 0 41 5 -4 13 -19 4 -33 2 -33 -3z"/>
<path d="M5125 2909 c-18 -4 4 -7 55 -8 47 -1 79 -5 72 -9 -7 -5 -65 -8 -130
-7 -85 1 -121 -2 -130 -12 -8 -7 -18 -11 -23 -8 -22 14 -149 -89 -149 -121 0
-8 -5 -23 -12 -33 -9 -15 -9 -25 0 -45 10 -23 17 -26 54 -24 l43 1 -37 4 c-51
6 -62 28 -38 80 12 27 33 51 59 67 45 29 51 31 51 15 0 -5 -4 -8 -9 -5 -5 3
-11 -15 -13 -40 -4 -49 20 -92 47 -86 8 1 16 -2 20 -8 4 -6 63 -10 151 -10 79
0 144 -4 144 -8 0 -4 15 -6 33 -4 18 2 50 -3 71 -12 30 -13 36 -19 31 -36 -4
-11 -2 -20 4 -20 6 0 11 6 11 14 0 8 4 16 9 18 5 2 3 12 -5 22 -17 24 -74 33
-244 41 -231 10 -264 20 -258 78 2 25 11 36 38 50 31 16 57 18 209 15 l173 -3
23 -29 c12 -15 25 -24 28 -19 9 14 -22 53 -42 53 -9 0 -26 6 -37 14 -17 14
-15 15 24 11 29 -3 42 0 42 8 0 7 -14 14 -32 15 -58 4 -88 13 -88 28 0 8 -8
14 -17 15 -64 4 -102 3 -128 -2z"/>
<path d="M5306 2911 c-3 -5 5 -11 19 -13 28 -6 34 6 9 16 -20 8 -22 8 -28 -3z"/>
<path d="M5720 2910 c0 -5 5 -10 11 -10 5 0 7 5 4 10 -3 6 -8 10 -11 10 -2 0
-4 -4 -4 -10z"/>
<path d="M5960 2911 c0 -5 5 -13 10 -16 6 -3 10 -2 10 4 0 5 -4 13 -10 16 -5
3 -10 2 -10 -4z"/>
<path d="M7440 2909 c0 -5 5 -7 10 -4 6 3 10 8 10 11 0 2 -4 4 -10 4 -5 0 -10
-5 -10 -11z"/>
<path d="M3275 2899 c-28 -6 -26 -7 13 -8 42 -1 53 3 30 11 -7 2 -26 1 -43 -3z"/>
<path d="M4373 2903 c9 -2 23 -2 30 0 6 3 -1 5 -18 5 -16 0 -22 -2 -12 -5z"/>
<path d="M4650 2905 c0 -3 16 -11 35 -19 27 -11 33 -19 29 -33 -4 -12 4 -8 23
12 30 30 37 49 10 26 -11 -8 -24 -8 -56 4 -22 8 -41 12 -41 10z"/>
<path d="M4950 2906 c0 -2 9 -6 20 -9 11 -3 18 -1 14 4 -5 9 -34 13 -34 5z"/>
<path d="M5395 2900 c3 -5 21 -10 38 -9 27 0 29 2 12 9 -28 12 -57 12 -50 0z"/>
<path d="M5640 2906 c0 -2 7 -6 15 -10 8 -3 15 -1 15 4 0 6 -7 10 -15 10 -8 0
-15 -2 -15 -4z"/>
<path d="M5880 2900 c0 -5 7 -10 16 -10 8 0 12 5 9 10 -3 6 -10 10 -16 10 -5
0 -9 -4 -9 -10z"/>
<path d="M7720 2900 c-9 -6 -10 -10 -3 -10 6 0 15 5 18 10 8 12 4 12 -15 0z"/>
<path d="M5808 2893 c7 -3 16 -2 19 1 4 3 -2 6 -13 5 -11 0 -14 -3 -6 -6z"/>
<path d="M3358 2883 c12 -2 32 -2 45 0 12 2 2 4 -23 4 -25 0 -35 -2 -22 -4z"/>
<path d="M4117 2872 c-18 -20 -22 -48 -8 -56 4 -3 14 -27 21 -53 7 -27 35 -97
62 -156 26 -60 48 -121 48 -135 0 -15 5 -34 11 -42 7 -11 8 -4 3 25 -6 43 -50
162 -66 182 -6 7 -11 28 -13 48 -2 19 -11 42 -20 52 -10 9 -15 26 -12 39 2 13
0 21 -4 18 -5 -3 -9 11 -9 30 0 20 4 36 8 36 5 0 9 7 9 15 0 20 -10 19 -30 -3z"/>
<path d="M4532 2876 c7 -8 15 -12 17 -11 5 6 -10 25 -20 25 -5 0 -4 -6 3 -14z"/>
<path d="M5495 2883 c11 -3 24 -9 30 -14 5 -5 14 -9 20 -9 5 0 1 7 -9 15 -11
8 -29 14 -40 14 -20 -1 -21 -1 -1 -6z"/>
<path d="M6810 2860 c17 -16 37 -30 46 -30 8 0 37 -23 65 -50 28 -28 54 -48
58 -44 8 9 -72 78 -114 98 -19 9 -39 26 -45 36 -6 11 -17 20 -26 20 -10 0 -4
-10 16 -30z"/>
<path d="M4190 2876 c0 -3 9 -10 20 -16 11 -6 20 -8 20 -6 0 3 -9 10 -20 16
-11 6 -20 8 -20 6z"/>
<path d="M4467 2869 c12 -15 73 -53 73 -46 0 2 -19 17 -42 32 -24 16 -38 22
-31 14z"/>
<path d="M7611 2833 c-24 -23 -40 -43 -35 -43 10 1 49 34 78 68 33 38 3 21
-43 -25z"/>
<path d="M5400 2845 c0 -8 4 -15 8 -15 5 0 9 7 9 15 0 8 -4 15 -9 15 -4 0 -8
-7 -8 -15z"/>
<path d="M7672 2835 c-6 -14 -10 -25 -8 -25 2 0 11 11 20 25 9 14 13 25 8 25
-5 0 -14 -11 -20 -25z"/>
<path d="M4145 2840 c3 -5 11 -10 16 -10 6 0 7 5 4 10 -3 6 -11 10 -16 10 -6
0 -7 -4 -4 -10z"/>
<path d="M5440 2839 c-12 -8 -10 -9 9 -4 16 5 21 4 17 -4 -6 -10 -2 -12 22
-10 4 0 10 -10 14 -23 5 -20 6 -19 7 8 1 41 -34 58 -69 33z"/>
<path d="M4697 2825 c3 -8 9 -12 14 -9 12 7 11 11 -5 17 -10 4 -13 1 -9 -8z"/>
<path d="M5640 2819 c0 -10 5 -19 11 -19 5 0 7 5 3 11 -5 8 -1 8 14 0 12 -6
23 -7 26 -2 3 5 -8 14 -24 20 -27 9 -30 8 -30 -10z"/>
<path d="M4292 2814 c10 -10 20 -15 24 -12 3 4 -5 12 -18 18 -22 12 -22 12 -6
-6z"/>
<path d="M4574 2811 c7 -11 46 -35 46 -28 0 3 -12 12 -26 22 -15 9 -23 12 -20
6z"/>
<path d="M4400 2795 c7 -8 22 -14 34 -14 20 2 20 2 -1 6 -13 2 -23 9 -23 14 0
5 -5 9 -11 9 -8 0 -8 -5 1 -15z"/>
<path d="M4506 2795 c10 -8 23 -15 28 -15 6 0 1 7 -10 15 -10 8 -23 15 -28 15
-6 0 -1 -7 10 -15z"/>
<path d="M7604 2787 c-29 -20 -60 -56 -52 -61 2 -1 23 17 48 41 49 48 50 51 4
20z"/>
<path d="M4680 2784 c0 -9 5 -14 12 -12 18 6 21 28 4 28 -9 0 -16 -7 -16 -16z"/>
<path d="M5100 2789 l-85 -5 101 -2 c56 -1 123 -5 150 -8 27 -4 46 -3 42 1
-12 13 -120 20 -208 14z"/>
<path d="M4366 2772 c29 -27 75 -54 81 -49 3 3 -8 12 -24 21 -15 8 -23 16 -18
16 12 1 -35 29 -49 30 -6 0 -1 -8 10 -18z"/>
<path d="M4901 2774 c0 -11 3 -14 6 -6 3 7 2 16 -1 19 -3 4 -6 -2 -5 -13z"/>
<path d="M5475 2781 c3 -5 -9 -12 -27 -14 -33 -4 -33 -4 5 -5 27 -2 37 2 37
13 0 8 -5 15 -11 15 -5 0 -8 -4 -4 -9z"/>
<path d="M5631 2783 c-1 -6 -4 -20 -7 -30 -5 -17 -5 -17 6 0 6 10 9 23 6 30
-3 9 -5 9 -5 0z"/>
<path d="M7519 2770 l-24 -21 33 16 c31 15 41 25 23 25 -5 0 -19 -9 -32 -20z"/>
<path d="M4467 2769 c7 -7 15 -10 18 -7 3 3 -2 9 -12 12 -14 6 -15 5 -6 -5z"/>
<path d="M4305 2760 c4 -6 11 -8 16 -5 14 9 11 15 -7 15 -8 0 -12 -5 -9 -10z"/>
<path d="M5329 2752 c5 -10 18 -25 28 -33 17 -13 17 -13 1 7 -10 11 -18 26
-18 32 0 7 -5 12 -10 12 -7 0 -7 -6 -1 -18z"/>
<path d="M2437 2749 c7 -7 15 -10 18 -7 3 3 -2 9 -12 12 -14 6 -15 5 -6 -5z"/>
<path d="M4680 2744 c0 -5 -4 -15 -9 -23 -7 -11 -14 -10 -37 4 l-29 18 30 -26
30 -25 13 25 c8 13 11 27 8 31 -3 3 -6 1 -6 -4z"/>
<path d="M2815 2730 c3 -5 8 -10 11 -10 2 0 4 5 4 10 0 6 -5 10 -11 10 -5 0
-7 -4 -4 -10z"/>
<path d="M4349 2726 c11 -13 11 -16 1 -16 -8 0 -10 -3 -7 -6 4 -4 12 -2 19 3
13 10 29 3 92 -41 15 -10 29 -16 32 -13 3 2 -11 15 -30 27 -20 12 -36 25 -36
30 0 5 -10 12 -22 15 -67 19 -64 19 -49 1z"/>
<path d="M6745 2730 c3 -5 11 -10 16 -10 6 0 7 5 4 10 -3 6 -11 10 -16 10 -6
0 -7 -4 -4 -10z"/>
<path d="M7465 2730 c-3 -5 -2 -10 4 -10 5 0 13 5 16 10 3 6 2 10 -4 10 -5 0
-13 -4 -16 -10z"/>
<path d="M2488 2723 c7 -3 16 -2 19 1 4 3 -2 6 -13 5 -11 0 -14 -3 -6 -6z"/>
<path d="M4460 2720 c0 -5 5 -10 10 -10 6 0 10 5 10 10 0 6 -4 10 -10 10 -5 0
-10 -4 -10 -10z"/>
<path d="M5594 2685 c-9 -25 -20 -45 -24 -45 -4 0 -12 -11 -18 -25 -10 -23 -9
-25 16 -32 54 -14 728 -3 753 12 3 3 97 9 208 15 111 6 212 15 224 20 22 9 22
9 -3 11 -58 5 -80 4 -80 -3 0 -4 -10 -8 -22 -8 -13 0 -48 -2 -78 -5 -40 -5
-51 -3 -40 4 12 8 7 11 -22 11 -20 0 -39 -4 -43 -9 -3 -6 -13 -10 -23 -9 -9 0
-53 -5 -97 -11 -115 -16 -771 -26 -779 -12 -4 6 0 14 8 17 9 3 18 21 22 40 3
19 10 32 14 29 4 -3 10 4 13 15 10 40 -12 29 -29 -15z m913 -61 c-3 -3 -12 -4
-19 -1 -8 3 -5 6 6 6 11 1 17 -2 13 -5z"/>
<path d="M5470 2716 c0 -8 51 -13 56 -5 3 5 -9 9 -25 9 -17 0 -31 -2 -31 -4z"/>
<path d="M6867 2705 c-4 -8 -3 -16 1 -19 4 -3 9 4 9 15 2 23 -3 25 -10 4z"/>
<path d="M6943 2706 c1 -6 -5 -9 -13 -8 -8 2 -12 0 -8 -4 10 -9 -22 -33 -44
-34 -10 0 -18 -4 -18 -9 0 -16 38 0 76 33 25 22 32 33 21 33 -9 0 -15 -5 -14
-11z"/>
<path d="M7491 2700 c-13 -11 -19 -20 -14 -20 6 0 18 9 28 20 23 25 17 25 -14
0z"/>
<path d="M2500 2705 c0 -7 73 -36 82 -33 5 2 -11 11 -37 20 -25 9 -45 15 -45
13z"/>
<path d="M2816 2693 c-6 -14 -5 -15 5 -6 7 7 10 15 7 18 -3 3 -9 -2 -12 -12z"/>
<path d="M6720 2700 c-13 -8 -12 -10 3 -10 9 0 17 5 17 10 0 12 -1 12 -20 0z"/>
<path d="M2044 2684 c-18 -15 -18 -15 3 -5 25 12 53 -8 53 -37 1 -28 157 -94
253 -107 26 -3 45 -10 42 -16 -4 -5 1 -9 9 -9 9 0 16 -4 16 -10 0 -5 5 -10 11
-10 5 0 7 5 4 10 -3 6 3 10 15 10 13 0 19 -4 14 -12 -5 -7 -3 -8 6 -3 10 6 9
11 -6 22 -17 13 -15 14 26 8 56 -9 60 -11 60 -37 0 -11 9 -31 20 -45 20 -26
29 -89 10 -78 -6 3 -7 -1 -4 -9 3 -9 1 -16 -5 -16 -6 0 -11 -5 -11 -12 0 -6 9
-3 20 7 28 26 25 72 -10 141 -16 32 -30 67 -30 76 0 9 -4 20 -10 23 -6 4 -9
-4 -7 -17 2 -19 -2 -23 -23 -21 -14 1 -56 5 -95 8 -102 8 -162 24 -230 59 -47
25 -62 39 -70 64 -10 35 -30 41 -61 16z"/>
<path d="M7389 2683 c-13 -17 -13 -17 6 -3 11 8 22 16 24 17 2 2 0 3 -6 3 -6
0 -17 -8 -24 -17z"/>
<path d="M4348 2683 c7 -3 16 -2 19 1 4 3 -2 6 -13 5 -11 0 -14 -3 -6 -6z"/>
<path d="M4635 2670 c17 -19 35 -19 35 0 0 5 -7 7 -15 4 -8 -4 -15 -1 -15 5 0
6 -5 11 -12 11 -6 0 -3 -8 7 -20z"/>
<path d="M4387 2667 c-7 -19 1 -27 25 -27 10 0 18 -4 18 -9 0 -5 8 -11 18 -14
9 -4 32 -13 51 -22 29 -13 32 -13 21 0 -7 8 -18 15 -25 15 -7 0 -27 13 -44 29
-16 15 -33 26 -36 22 -3 -3 -10 0 -14 8 -7 10 -9 10 -14 -2z"/>
<path d="M5440 2673 c0 -13 29 -38 35 -31 3 3 -4 13 -15 23 -11 10 -20 13 -20
8z"/>
<path d="M5670 2659 c0 -11 4 -18 10 -14 5 3 7 12 3 20 -7 21 -13 19 -13 -6z"/>
<path d="M7426 2664 c-5 -14 -4 -15 9 -4 17 14 19 20 6 20 -5 0 -12 -7 -15
-16z"/>
<path d="M1990 2663 c-16 -6 -74 -31 -130 -57 -34 -15 -34 -15 -5 -9 17 3 47
14 67 24 21 11 44 19 51 19 8 0 20 7 27 15 13 16 13 16 -10 8z"/>
<path d="M2615 2660 c11 -5 29 -8 40 -8 16 0 15 2 -5 8 -34 11 -60 11 -35 0z"/>
<path d="M4760 2660 c1 -16 27 -56 34 -49 2 2 -5 18 -15 34 -11 17 -19 23 -19
15z"/>
<path d="M7343 2660 c-13 -5 -23 -12 -23 -15 0 -9 16 -5 36 10 22 16 19 18
-13 5z"/>
<path d="M6345 2650 c3 -5 13 -10 21 -10 8 0 12 5 9 10 -3 6 -13 10 -21 10 -8
0 -12 -4 -9 -10z"/>
<path d="M6813 2653 c-18 -2 -33 -8 -33 -12 0 -4 16 -5 35 -3 19 2 35 8 35 13
0 5 -1 8 -2 7 -2 0 -18 -3 -35 -5z"/>
<path d="M2010 2637 c-8 -7 -16 -18 -17 -25 -4 -16 14 -16 19 0 3 7 7 2 10
-10 5 -16 2 -22 -10 -22 -13 0 -14 -2 -3 -12 11 -10 14 -10 18 0 3 6 11 12 19
12 8 0 14 5 14 10 0 6 5 10 11 10 5 0 7 -4 4 -10 -3 -5 -1 -10 4 -10 6 0 11
-4 11 -9 0 -5 -10 -7 -22 -4 -18 5 -20 3 -12 -7 7 -6 21 -9 32 -6 17 6 18 10
8 31 -12 26 -36 42 -36 24 0 -6 -5 -7 -12 -3 -7 4 -8 3 -4 -4 4 -7 2 -12 -3
-12 -6 0 -11 7 -11 15 0 8 5 15 10 15 6 0 10 8 10 17 0 15 -2 14 -16 -3 -13
-16 -15 -16 -10 -1 6 20 6 20 -14 4z"/>
<path d="M2060 2641 c0 -5 7 -12 16 -15 14 -5 15 -4 4 9 -14 17 -20 19 -20 6z"/>
<path d="M4943 2638 c-11 -4 4 -7 37 -8 30 -1 105 -5 167 -9 128 -8 153 -20
145 -71 -5 -33 -48 -74 -69 -66 -7 3 -13 2 -13 -3 0 -7 -98 -12 -264 -14 -29
0 -44 6 -60 24 -14 17 -28 23 -41 19 -18 -5 -17 -8 13 -37 17 -17 32 -28 32
-23 0 4 9 6 20 3 31 -8 24 -22 -10 -21 -17 1 -33 -2 -37 -5 -3 -4 -12 1 -19
11 -10 12 -13 13 -14 3 0 -11 -3 -11 -16 0 -13 10 -17 10 -24 0 -6 -11 -11
-11 -27 0 -17 13 -20 24 -15 53 1 4 14 0 30 -10 23 -15 25 -15 13 -1 -12 15
-11 17 5 18 11 1 6 4 -11 8 -21 5 -34 3 -42 -6 -9 -12 -13 -12 -23 4 -9 15
-10 15 -4 -7 15 -55 25 -70 51 -77 38 -11 499 -10 510 0 4 5 0 15 -10 22 -10
7 -14 15 -10 16 23 10 50 67 49 104 -1 36 -5 41 -41 59 -32 15 -65 19 -172 20
-73 1 -140 -2 -150 -6z m124 -199 c-11 -7 -23 -7 -28 -2 -5 5 3 9 19 11 24 1
25 0 9 -9z"/>
<path d="M4328 2628 c5 -5 16 -8 23 -6 8 3 3 7 -10 11 -17 4 -21 3 -13 -5z"/>
<path d="M4377 2606 c4 -17 10 -22 22 -19 10 2 25 -2 33 -11 9 -8 18 -13 21
-10 3 4 11 3 17 -1 9 -6 9 -10 -1 -17 -11 -8 -11 -9 -1 -6 21 5 17 22 -7 33
-12 6 -19 16 -16 24 4 9 0 11 -10 7 -9 -3 -26 1 -39 9 -22 15 -23 15 -19 -9z"/>
<path d="M4626 2615 c-11 -8 -15 -15 -9 -15 6 0 16 7 23 15 16 19 11 19 -14 0z"/>
<path d="M7260 2614 c-14 -8 -18 -14 -10 -13 8 0 26 6 40 14 14 8 18 14 10 14
-8 -1 -26 -7 -40 -15z"/>
<path d="M7350 2621 c0 -18 18 -21 30 -6 10 13 9 15 -9 15 -11 0 -21 -4 -21
-9z"/>
<path d="M1748 2582 c-27 -8 -48 -19 -48 -24 0 -4 16 -1 36 7 20 8 47 15 61
15 14 0 21 4 18 10 -7 12 -8 12 -67 -8z"/>
<path d="M4930 2591 c35 -11 273 -14 267 -4 -3 5 -70 10 -149 10 -81 1 -132
-2 -118 -6z"/>
<path d="M7287 2593 c-12 -12 -7 -22 8 -17 8 4 15 10 15 15 0 11 -14 12 -23 2z"/>
<path d="M7974 2584 c3 -9 6 -22 6 -31 0 -9 6 -13 15 -9 9 3 15 0 15 -10 0
-10 -6 -14 -15 -10 -8 3 -15 1 -15 -4 0 -6 12 -10 26 -10 19 0 25 4 20 15 -3
8 -1 15 4 15 6 0 10 -5 10 -12 0 -9 3 -9 11 -1 7 7 8 24 4 42 -6 28 -10 31
-47 31 -32 0 -39 -3 -34 -16z m60 -10 c4 -9 4 -19 1 -22 -3 -3 -5 0 -5 6 0 7
-7 12 -16 12 -8 0 -12 5 -9 10 9 15 22 12 29 -6z"/>
<path d="M1910 2582 c0 -5 20 -17 45 -27 28 -12 40 -22 33 -26 -7 -5 -15 -3
-19 3 -4 6 -13 8 -20 6 -9 -4 -4 -10 15 -19 l29 -13 -28 -12 c-22 -9 -24 -12
-11 -17 9 -4 16 -2 16 3 0 5 15 14 33 19 17 5 24 10 13 10 -13 1 -16 4 -8 14
10 12 -1 29 -23 36 -29 10 -34 14 -28 25 4 6 -1 5 -10 -3 -11 -9 -17 -10 -17
-2 0 6 -4 11 -10 11 -5 0 -10 -4 -10 -8z"/>
<path d="M4336 2580 c3 -3 9 -5 12 -5 17 -1 52 -27 47 -35 -3 -5 0 -12 6 -16
8 -5 8 -9 -1 -14 -7 -5 -2 -7 13 -7 l26 0 -22 18 c-12 10 -17 18 -11 19 5 0
15 -5 21 -11 6 -6 19 -9 29 -6 17 4 16 5 -2 6 -11 0 -29 10 -39 21 -10 11 -24
20 -32 20 -7 0 -13 4 -13 9 0 6 -9 9 -20 8 -10 -1 -17 -4 -14 -7z"/>
<path d="M4606 2574 c-3 -9 -6 -43 -6 -75 0 -45 -3 -58 -12 -53 -7 4 -5 -2 5
-13 9 -11 17 -24 17 -30 0 -6 19 -26 43 -44 23 -19 45 -38 49 -43 4 -6 44 -13
89 -16 l83 -5 20 -38 c12 -20 41 -70 65 -110 25 -39 50 -90 57 -112 8 -26 13
-32 13 -18 1 31 -15 66 -75 158 -29 44 -56 92 -59 108 -7 26 -10 27 -71 27
-35 0 -65 -1 -66 -1 -11 -6 -91 47 -117 77 -32 36 -33 38 -29 120 1 46 2 84 2
84 -1 0 -5 -7 -8 -16z"/>
<path d="M7189 2573 c-13 -16 -12 -17 4 -4 16 13 21 21 13 21 -2 0 -10 -8 -17
-17z"/>
<path d="M3090 2570 c0 -6 7 -10 15 -10 8 0 15 2 15 4 0 2 -7 6 -15 10 -8 3
-15 1 -15 -4z"/>
<path d="M1751 2547 c-19 -22 -20 -25 -6 -37 8 -7 18 -10 22 -7 3 4 -1 9 -10
13 -14 5 -12 10 10 30 14 13 22 24 16 24 -5 0 -19 -11 -32 -23z"/>
<path d="M5381 2562 c-1 -8 -11 -28 -23 -45 -13 -18 -23 -35 -23 -39 0 -4 -9
-14 -20 -22 -27 -20 -6 -20 23 0 26 18 76 93 68 102 -3 3 -6 -1 -7 -9 0 -8 -4
-6 -9 6 -5 11 -9 14 -9 7z"/>
<path d="M6650 2560 c-13 -8 -12 -10 3 -10 9 0 17 5 17 10 0 12 -1 12 -20 0z"/>
<path d="M1651 2549 c-14 -5 -41 -12 -60 -15 -20 -3 -54 -10 -76 -15 -22 -4
-68 -9 -102 -9 -34 0 -64 -3 -66 -7 -6 -9 174 2 213 12 19 5 22 4 10 -4 -8 -6
-10 -11 -4 -11 5 0 16 6 23 13 11 9 12 9 7 0 -7 -13 40 -31 51 -19 4 3 -1 6
-10 6 -34 0 -26 21 15 39 44 20 43 28 -1 10z"/>
<path d="M2910 2539 c-7 -11 -10 -23 -7 -25 2 -2 9 7 15 21 14 30 7 33 -8 4z"/>
<path d="M3181 2556 c9 -10 89 -24 89 -16 0 4 -7 11 -16 14 -18 7 -80 8 -73 2z"/>
<path d="M4892 2544 c10 -10 20 -15 24 -12 3 4 -5 12 -18 18 -22 12 -22 12 -6
-6z"/>
<path d="M1831 2541 c-7 -5 -11 -13 -7 -19 4 -6 -3 -8 -16 -6 -21 4 -22 4 -3
-5 32 -15 41 -12 41 14 0 14 0 25 0 25 -1 0 -7 -4 -15 -9z"/>
<path d="M2046 2535 c10 -8 26 -14 34 -14 9 0 4 6 -10 14 -33 19 -49 19 -24 0z"/>
<path d="M2188 2528 c6 -6 18 -8 28 -6 14 3 12 5 -9 10 -19 3 -25 2 -19 -4z"/>
<path d="M3001 2521 c-37 -29 -24 -79 36 -140 91 -91 158 -184 204 -278 11
-24 22 -43 25 -43 10 0 -10 56 -26 75 -22 24 -70 122 -71 144 0 12 -2 13 -6 3
-4 -10 -15 -4 -39 19 -19 18 -34 38 -34 44 0 6 -14 22 -31 34 -22 17 -28 26
-20 34 6 6 11 20 10 32 -1 19 -2 17 -15 -23 -3 -11 -7 -10 -19 2 -12 11 -13
23 -6 53 6 24 9 29 10 16 1 -13 5 -23 9 -23 4 0 6 16 4 35 -2 19 -5 35 -6 35
0 0 -12 -9 -25 -19z m-4 -43 c-3 -8 -6 -5 -6 6 -1 11 2 17 5 13 3 -3 4 -12 1
-19z"/>
<path d="M4340 2531 c0 -5 7 -11 15 -15 8 -3 15 -1 15 3 0 5 -7 11 -15 15 -8
3 -15 1 -15 -3z"/>
<path d="M5440 2525 c-11 -13 -10 -14 4 -9 9 3 16 10 16 15 0 13 -6 11 -20 -6z"/>
<path d="M6235 2530 c3 -5 11 -10 16 -10 6 0 7 5 4 10 -3 6 -11 10 -16 10 -6
0 -7 -4 -4 -10z"/>
<path d="M6340 2529 c0 -5 5 -7 10 -4 6 3 10 8 10 11 0 2 -4 4 -10 4 -5 0 -10
-5 -10 -11z"/>
<path d="M6840 2530 c0 -5 5 -10 11 -10 5 0 7 5 4 10 -3 6 -8 10 -11 10 -2 0
-4 -4 -4 -10z"/>
<path d="M1868 2523 c7 -3 16 -2 19 1 4 3 -2 6 -13 5 -11 0 -14 -3 -6 -6z"/>
<path d="M3390 2520 c0 -6 9 -10 21 -10 11 0 18 -4 15 -8 -2 -4 11 -6 30 -4
18 2 42 1 51 -3 10 -4 32 -9 48 -11 28 -3 28 -2 7 7 -13 5 -28 7 -32 4 -5 -3
-11 -1 -15 5 -3 5 -21 10 -40 10 -19 0 -45 4 -59 10 -17 6 -26 6 -26 0z"/>
<path d="M6140 2520 c0 -5 5 -10 10 -10 6 0 10 5 10 10 0 6 -4 10 -10 10 -5 0
-10 -4 -10 -10z"/>
<path d="M2284 2511 c4 -6 16 -11 26 -11 10 0 23 -6 27 -14 7 -12 27 -19 96
-33 15 -3 26 -10 25 -15 -2 -5 -7 -9 -12 -8 -4 1 -14 -7 -22 -17 -12 -17 -13
-16 -14 10 0 15 -5 27 -11 27 -6 0 -8 -8 -4 -19 6 -21 -9 -36 -25 -26 -8 5 -8
11 -1 19 13 15 4 26 -21 26 -10 0 -18 4 -18 8 0 4 -10 9 -22 9 -13 1 -24 7
-26 13 -2 5 -16 10 -30 10 -21 0 -12 -7 38 -30 44 -20 64 -34 62 -45 -2 -8 3
-15 10 -15 8 0 5 -5 -5 -11 -10 -6 -25 -8 -33 -5 -8 3 -14 1 -14 -4 0 -6 -12
-10 -26 -10 -22 0 -24 -2 -14 -15 6 -8 9 -23 5 -35 -5 -14 -2 -20 9 -20 9 0
16 -4 16 -10 0 -5 -3 -9 -7 -9 -19 3 -33 -2 -33 -11 0 -6 8 -10 18 -8 11 2 18
-4 20 -19 3 -19 -1 -23 -22 -21 -20 2 -25 7 -20 20 3 10 1 18 -5 18 -6 0 -8 7
-5 15 4 9 0 15 -7 15 -11 0 -11 3 1 11 12 8 10 9 -7 4 -12 -3 -36 1 -53 10
-18 9 -34 14 -37 12 -2 -3 5 -8 16 -12 29 -9 28 -35 -1 -27 -21 5 -22 4 -9
-12 13 -15 15 -15 32 0 10 9 25 14 34 11 24 -10 18 -27 -10 -27 -14 0 -25 -5
-25 -11 0 -5 -4 -7 -10 -4 -13 8 -35 -5 -24 -14 5 -3 14 -15 20 -26 15 -27 38
-25 42 4 2 15 0 21 -7 17 -6 -4 -11 -2 -11 3 0 6 10 11 21 11 17 0 20 -5 16
-20 -5 -19 -2 -20 36 -15 23 4 48 11 55 17 7 6 28 8 46 5 26 -4 36 -1 40 10 4
9 4 18 1 21 -3 3 -5 0 -5 -6 0 -7 -15 -12 -34 -12 -40 0 -61 19 -41 37 10 9
18 8 36 -7 29 -26 29 -26 29 13 0 22 -3 28 -9 18 -6 -9 -9 4 -8 38 0 40 4 51
17 51 38 0 90 43 90 73 0 2 -14 4 -32 5 -18 2 -35 8 -39 14 -4 6 -13 8 -20 6
-8 -3 -25 0 -39 7 -42 21 -73 28 -66 16z m56 -167 c0 -11 -6 -13 -20 -9 -11 4
-20 2 -20 -4 0 -6 14 -11 30 -11 17 0 30 -5 30 -11 0 -7 -9 -9 -22 -5 -13 3
-29 6 -35 6 -18 0 -16 25 3 44 17 18 34 13 34 -10z"/>
<path d="M2065 2500 c-3 -5 -2 -10 4 -10 5 0 13 5 16 10 3 6 2 10 -4 10 -5 0
-13 -4 -16 -10z"/>
<path d="M2195 2500 c3 -5 8 -10 11 -10 2 0 4 5 4 10 0 6 -5 10 -11 10 -5 0
-7 -4 -4 -10z"/>
<path d="M3240 2500 c0 -5 10 -15 23 -21 22 -12 22 -12 3 10 -21 23 -26 26
-26 11z"/>
<path d="M4315 2498 c72 -39 126 -81 114 -88 -6 -5 -19 -6 -28 -3 -13 5 -14 3
-4 -7 10 -11 17 -10 38 4 26 17 26 18 8 30 -37 25 -131 76 -139 76 -5 0 0 -6
11 -12z"/>
<path d="M1250 2490 l-45 -7 40 -1 c22 0 49 3 60 8 23 10 9 10 -55 0z"/>
<path d="M2892 2480 c0 -14 2 -19 5 -12 2 6 2 18 0 25 -3 6 -5 1 -5 -13z"/>
<path d="M5410 2479 c-7 -11 -10 -23 -7 -25 2 -2 9 7 15 21 14 30 7 33 -8 4z"/>
<path d="M2130 2486 c0 -2 7 -7 16 -10 8 -3 12 -2 9 4 -6 10 -25 14 -25 6z"/>
<path d="M3440 2486 c0 -2 7 -7 16 -10 8 -3 12 -2 9 4 -6 10 -25 14 -25 6z"/>
<path d="M4408 2479 c4 -4 20 -11 37 -15 26 -6 28 -6 15 7 -8 8 -25 15 -37 15
-13 0 -19 -4 -15 -7z"/>
<path d="M4468 2483 c7 -3 16 -2 19 1 4 3 -2 6 -13 5 -11 0 -14 -3 -6 -6z"/>
<path d="M1150 2470 l-25 -8 27 -1 c15 -1 30 4 33 9 7 11 0 11 -35 0z"/>
<path d="M1748 2473 c7 -3 16 -2 19 1 4 3 -2 6 -13 5 -11 0 -14 -3 -6 -6z"/>
<path d="M1980 2465 c-7 -8 -20 -15 -29 -16 -9 0 -11 -3 -5 -5 7 -3 27 4 45
15 20 12 27 21 18 21 -9 0 -22 -7 -29 -15z"/>
<path d="M6086 2471 c-3 -5 3 -11 15 -14 16 -4 18 -3 8 9 -13 16 -16 17 -23 5z"/>
<path d="M7050 2470 c0 -5 5 -10 10 -10 6 0 10 5 10 10 0 6 -4 10 -10 10 -5 0
-10 -4 -10 -10z"/>
<path d="M1665 2460 c-3 -5 -15 -10 -26 -10 -10 0 -19 -4 -19 -9 0 -6 13 -6
33 1 39 13 41 14 28 22 -5 4 -12 2 -16 -4z"/>
<path d="M2051 2457 c-13 -6 -25 -20 -27 -30 -4 -28 -11 -31 -39 -19 -36 17
-55 14 -25 -3 26 -15 81 -20 79 -7 -3 19 3 22 21 12 14 -8 20 -8 20 0 0 6 -10
14 -22 19 l-22 8 21 11 c11 6 23 8 27 5 3 -3 6 -1 6 5 0 15 -9 15 -39 -1z"/>
<path d="M2205 2450 c17 -11 35 -20 40 -20 16 1 -38 40 -55 40 -8 0 -1 -9 15
-20z"/>
<path d="M3248 2453 c13 -10 40 -32 60 -49 21 -17 57 -41 82 -53 42 -21 44
-21 20 -2 -14 11 -29 21 -34 21 -4 0 -29 17 -55 38 -25 20 -57 43 -71 50 l-25
13 23 -18z"/>
<path d="M3621 2465 c11 -10 142 -55 147 -50 3 3 3 5 1 5 -2 0 -35 11 -73 25
-69 25 -83 29 -75 20z"/>
<path d="M4701 2454 c0 -12 8 -32 19 -45 10 -13 19 -19 20 -13 0 6 -6 17 -14
24 -8 6 -17 21 -19 33 l-4 22 -2 -21z"/>
<path d="M1065 2448 c-80 -27 -168 -76 -205 -113 l-41 -42 30 -31 c16 -18 37
-32 48 -32 13 0 10 5 -13 19 -18 11 -35 24 -38 30 -8 12 83 103 95 95 5 -3 9
0 9 6 0 7 6 10 13 7 7 -3 24 2 38 10 13 8 16 12 6 9 -11 -3 -15 -2 -12 4 9 14
35 12 35 -2 0 -6 9 -2 20 10 12 12 29 22 40 22 10 0 22 5 25 10 7 12 -10 11
-50 -2z"/>
<path d="M1546 2448 c3 -4 9 -8 15 -8 5 0 9 4 9 8 0 5 -7 9 -15 9 -8 0 -12 -4
-9 -9z"/>
<path d="M1868 2453 c7 -3 16 -2 19 1 4 3 -2 6 -13 5 -11 0 -14 -3 -6 -6z"/>
<path d="M3510 2440 c27 -21 63 -34 54 -19 -3 5 -11 9 -18 9 -8 0 -19 7 -26
15 -7 8 -18 15 -24 15 -6 0 0 -9 14 -20z"/>
<path d="M4510 2442 c6 -13 14 -21 18 -18 3 4 -2 14 -12 24 -18 16 -18 16 -6
-6z"/>
<path d="M5530 2450 c20 -13 33 -13 25 0 -3 6 -14 10 -23 10 -15 0 -15 -2 -2
-10z"/>
<path d="M5615 2450 c-3 -5 1 -10 10 -10 9 0 13 5 10 10 -3 6 -8 10 -10 10 -2
0 -7 -4 -10 -10z"/>
<path d="M5800 2450 c0 -5 7 -10 16 -10 8 0 12 5 9 10 -3 6 -10 10 -16 10 -5
0 -9 -4 -9 -10z"/>
<path d="M5900 2449 c0 -5 5 -7 10 -4 6 3 10 8 10 11 0 2 -4 4 -10 4 -5 0 -10
-5 -10 -11z"/>
<path d="M5998 2453 c7 -3 16 -2 19 1 4 3 -2 6 -13 5 -11 0 -14 -3 -6 -6z"/>
<path d="M1820 2440 c-13 -8 -13 -10 2 -10 9 0 20 5 23 10 8 13 -5 13 -25 0z"/>
<path d="M1910 2439 c0 -5 5 -7 10 -4 6 3 10 8 10 11 0 2 -4 4 -10 4 -5 0 -10
-5 -10 -11z"/>
<path d="M2102 2445 c6 -7 92 -34 96 -30 2 2 -6 6 -17 10 -12 3 -21 10 -21 14
0 4 -14 8 -31 9 -17 0 -29 -1 -27 -3z"/>
<path d="M2262 2438 c6 -18 25 -21 25 -3 0 8 -7 15 -14 15 -8 0 -13 -5 -11
-12z"/>
<path d="M2500 2442 c0 -6 9 -12 20 -15 11 -3 20 -3 20 -1 0 2 -9 8 -20 14
-11 6 -20 7 -20 2z"/>
<path d="M2900 2443 c0 -7 10 -22 23 -35 12 -13 17 -17 11 -8 -6 8 -16 24 -22
35 -6 11 -12 15 -12 8z"/>
<path d="M8071 2420 c0 -19 6 -60 14 -90 17 -70 17 -36 0 55 -9 48 -13 59 -14
35z"/>
<path d="M1985 2430 c-3 -5 -2 -10 4 -10 5 0 13 5 16 10 3 6 2 10 -4 10 -5 0
-13 -4 -16 -10z"/>
<path d="M3070 2436 c0 -2 7 -7 16 -10 8 -3 12 -2 9 4 -6 10 -25 14 -25 6z"/>
<path d="M5374 2431 c-5 -5 -18 -11 -29 -14 l-20 -5 20 -1 c22 -1 52 15 44 23
-3 3 -10 2 -15 -3z"/>
<path d="M6970 2430 c0 -5 4 -10 9 -10 6 0 13 5 16 10 3 6 -1 10 -9 10 -9 0
-16 -4 -16 -10z"/>
<path d="M1548 2423 c6 -2 18 -2 25 0 6 3 1 5 -13 5 -14 0 -19 -2 -12 -5z"/>
<path d="M1678 2423 c7 -3 16 -2 19 1 4 3 -2 6 -13 5 -11 0 -14 -3 -6 -6z"/>
<path d="M1760 2421 c-22 -6 -23 -8 -7 -14 24 -9 24 -9 31 8 3 8 4 15 3 14 -1
-1 -13 -4 -27 -8z"/>
<path d="M1844 2414 c-16 -13 -16 -15 -2 -10 10 3 17 1 15 -3 -2 -10 2 -11 36
-11 21 1 21 1 4 14 -14 11 -15 15 -5 19 7 3 4 6 -8 6 -11 1 -29 -6 -40 -15z"/>
<path d="M3190 2410 c11 -11 23 -20 27 -20 3 0 -2 9 -12 20 -10 11 -22 20 -27
20 -4 0 1 -9 12 -20z"/>
<path d="M1156 2404 c-4 -9 1 -14 14 -14 23 0 27 15 6 23 -8 3 -17 -1 -20 -9z"/>
<path d="M1266 2411 c-3 -5 1 -11 9 -15 8 -3 15 -1 15 4 0 13 -18 22 -24 11z"/>
<path d="M1626 2406 c3 -8 12 -12 21 -9 12 5 12 7 1 14 -20 13 -28 11 -22 -5z"/>
<path d="M1395 2400 c3 -5 11 -10 16 -10 6 0 7 5 4 10 -3 6 -11 10 -16 10 -6
0 -7 -4 -4 -10z"/>
<path d="M2130 2405 c0 -6 57 -35 70 -35 22 0 8 17 -23 28 -36 13 -47 15 -47
7z"/>
<path d="M2254 2398 c-4 -6 -3 -8 4 -4 6 3 13 2 17 -4 10 -16 25 -12 19 5 -7
18 -30 20 -40 3z"/>
<path d="M2467 2389 c-6 -21 10 -45 22 -33 3 3 -1 9 -8 13 -8 6 -9 10 -2 12 6
2 7 10 2 17 -6 10 -10 8 -14 -9z"/>
<path d="M3120 2407 c0 -2 6 -10 14 -16 11 -9 16 -9 22 1 4 7 4 10 -1 6 -4 -4
-14 -3 -22 3 -7 6 -13 9 -13 6z"/>
<path d="M3250 2400 c-9 -6 -10 -10 -3 -10 6 0 15 -9 18 -20 3 -11 16 -25 28
-31 19 -9 20 -8 7 3 -27 24 -41 56 -27 61 7 3 8 6 2 6 -5 0 -17 -4 -25 -9z"/>
<path d="M3500 2406 c0 -3 9 -10 20 -16 11 -6 20 -8 20 -6 0 3 -9 10 -20 16
-11 6 -20 8 -20 6z"/>
<path d="M3592 2394 c10 -10 20 -16 22 -13 3 3 -5 11 -17 18 -21 13 -21 12 -5
-5z"/>
<path d="M3800 2400 c25 -8 87 -13 79 -6 -2 2 -26 6 -54 9 -34 4 -42 3 -25 -3z"/>
<path d="M4244 2382 c-14 -69 -108 -79 -250 -28 -38 14 -70 24 -72 22 -8 -9
142 -58 192 -63 31 -3 54 -9 51 -13 -2 -4 2 -7 10 -7 8 0 11 5 8 10 -4 6 0 8
9 4 10 -3 28 7 48 28 29 30 32 38 22 57 -10 22 -11 22 -18 -10z"/>
<path d="M4320 2402 c0 -5 7 -15 15 -22 8 -7 15 -8 15 -2 0 5 -7 15 -15 22 -8
7 -15 8 -15 2z"/>
<path d="M4485 2403 c11 -3 24 -10 28 -17 6 -7 7 -6 4 4 -2 8 -14 16 -28 17
-19 1 -20 1 -4 -4z"/>
<path d="M2550 2390 c0 -5 5 -10 11 -10 5 0 7 5 4 10 -3 6 -8 10 -11 10 -2 0
-4 -4 -4 -10z"/>
<path d="M5270 2385 c7 -8 16 -15 20 -15 4 0 10 7 14 15 4 11 -2 15 -21 15
-21 0 -24 -2 -13 -15z"/>
<path d="M1348 2383 c7 -3 16 -2 19 1 4 3 -2 6 -13 5 -11 0 -14 -3 -6 -6z"/>
<path d="M1815 2382 c-35 -7 -37 -19 -3 -19 18 0 47 -4 63 -7 l30 -6 -30 11
c-16 7 -32 15 -35 18 -3 4 -14 5 -25 3z"/>
<path d="M1940 2380 c-12 -8 -11 -10 8 -10 12 0 22 5 22 10 0 13 -11 13 -30 0z"/>
<path d="M2058 2383 c7 -3 16 -2 19 1 4 3 -2 6 -13 5 -11 0 -14 -3 -6 -6z"/>
<path d="M3726 2371 c10 -10 21 -17 23 -15 6 6 -20 34 -32 34 -6 0 -2 -8 9
-19z"/>
<path d="M4435 2380 c4 -6 1 -18 -6 -26 -10 -13 -10 -17 1 -24 8 -5 17 -7 19
-4 3 3 0 8 -6 12 -8 5 -7 10 2 19 11 10 19 8 39 -8 16 -13 24 -15 21 -6 -3 7
-22 21 -41 31 -20 9 -32 12 -29 6z"/>
<path d="M4878 2378 c-13 -3 27 -7 87 -9 61 -1 123 -3 138 -4 15 -1 26 2 25 7
-4 10 -216 16 -250 6z"/>
<path d="M5170 2380 l-25 -7 27 -8 c29 -7 52 1 43 16 -7 10 -10 10 -45 -1z"/>
<path d="M995 2370 c-4 -7 -2 -16 6 -21 11 -7 11 -9 1 -9 -7 0 -10 -5 -6 -11
11 -19 27 18 16 37 -7 13 -11 14 -17 4z"/>
<path d="M1025 2370 c3 -5 11 -10 16 -10 6 0 7 5 4 10 -3 6 -11 10 -16 10 -6
0 -7 -4 -4 -10z"/>
<path d="M1060 2370 c0 -5 5 -10 10 -10 6 0 10 5 10 10 0 6 -4 10 -10 10 -5 0
-10 -4 -10 -10z"/>
<path d="M1160 2370 c-9 -6 -10 -10 -3 -10 6 0 15 5 18 10 8 12 4 12 -15 0z"/>
<path d="M1658 2373 c6 -2 18 -2 25 0 6 3 1 5 -13 5 -14 0 -19 -2 -12 -5z"/>
<path d="M2224 2363 c0 -10 -5 -18 -11 -17 -7 1 -25 2 -40 3 -22 1 -25 3 -13
11 12 8 9 10 -12 10 -16 0 -28 -4 -28 -10 0 -5 4 -10 9 -10 5 0 22 -5 38 -12
38 -15 70 -17 70 -4 0 6 2 17 4 25 2 7 -1 15 -7 18 -7 2 -11 -4 -10 -14z"/>
<path d="M3107 2359 c6 -23 9 -24 16 -5 3 8 0 17 -7 19 -10 4 -12 -1 -9 -14z"/>
<path d="M3199 2353 c33 -46 114 -131 93 -98 -11 17 -30 39 -42 50 -12 11 -28
32 -36 47 -8 16 -19 28 -25 28 -6 0 -1 -12 10 -27z"/>
<path d="M4818 2373 c6 -2 18 -2 25 0 6 3 1 5 -13 5 -14 0 -19 -2 -12 -5z"/>
<path d="M1585 2360 c3 -5 11 -10 16 -10 6 0 7 5 4 10 -3 6 -11 10 -16 10 -6
0 -7 -4 -4 -10z"/>
<path d="M1985 2360 c3 -5 10 -10 16 -10 5 0 9 5 9 10 0 6 -7 10 -16 10 -8 0
-12 -4 -9 -10z"/>
<path d="M2022 2358 c3 -7 13 -15 23 -17 17 -3 17 -2 3 13 -20 19 -31 21 -26
4z"/>
<path d="M2521 2344 c13 -17 26 -30 28 -27 3 2 -8 16 -24 31 l-28 27 24 -31z"/>
<path d="M3323 2345 c15 -14 33 -25 40 -25 7 0 0 8 -15 18 -16 9 -28 20 -28
24 0 5 -6 8 -12 8 -7 0 0 -12 15 -25z"/>
<path d="M3523 2340 c19 -16 38 -30 41 -30 4 0 -9 14 -27 30 -19 17 -38 30
-41 30 -4 0 9 -13 27 -30z"/>
<path d="M3580 2354 c8 -8 23 -20 34 -26 19 -10 18 -8 -3 16 -26 27 -53 37
-31 10z"/>
<path d="M1468 2353 c7 -3 16 -2 19 1 4 3 -2 6 -13 5 -11 0 -14 -3 -6 -6z"/>
<path d="M1745 2350 c3 -5 10 -10 16 -10 5 0 9 5 9 10 0 6 -7 10 -16 10 -8 0
-12 -4 -9 -10z"/>
<path d="M2390 2350 c0 -4 11 -11 24 -14 13 -3 32 -8 43 -12 12 -3 10 -1 -5 8
-12 8 -21 16 -18 19 2 2 -7 5 -20 5 -13 1 -24 -2 -24 -6z"/>
<path d="M930 2340 c-8 -5 -12 -12 -9 -15 4 -3 12 1 19 10 14 17 11 19 -10 5z"/>
<path d="M1812 2343 c-32 -6 -16 -23 21 -22 20 1 25 3 13 6 -15 4 -16 7 -5 14
14 9 10 9 -29 2z"/>
<path d="M2087 2343 c-9 -2 -15 -9 -12 -14 9 -14 22 -11 29 6 3 8 4 14 3 14
-1 -1 -10 -3 -20 -6z"/>
<path d="M3130 2345 c0 -5 5 -17 10 -25 5 -8 10 -10 10 -5 0 6 -5 17 -10 25
-5 8 -10 11 -10 5z"/>
<path d="M2005 2329 c-19 -7 -19 -8 2 -8 12 -1 25 -5 28 -11 3 -5 16 -9 28 -9
17 1 18 2 5 6 -10 2 -18 8 -18 13 0 13 -23 18 -45 9z"/>
<path d="M3261 2328 c8 -7 24 -26 34 -41 10 -15 20 -26 22 -23 8 8 -29 56 -51
67 -18 9 -19 8 -5 -3z"/>
<path d="M4340 2330 c0 -6 7 -10 15 -10 8 0 15 2 15 4 0 2 -7 6 -15 10 -8 3
-15 1 -15 -4z"/>
<path d="M4525 2330 c3 -5 11 -10 16 -10 6 0 7 5 4 10 -3 6 -11 10 -16 10 -6
0 -7 -4 -4 -10z"/>
<path d="M1185 2320 c3 -5 10 -10 16 -10 5 0 9 5 9 10 0 6 -7 10 -16 10 -8 0
-12 -4 -9 -10z"/>
<path d="M1348 2323 c7 -3 16 -2 19 1 4 3 -2 6 -13 5 -11 0 -14 -3 -6 -6z"/>
<path d="M3444 2318 c-4 -6 -3 -8 4 -4 6 3 13 2 17 -4 3 -5 16 -15 28 -21 21
-11 21 -10 -2 15 -27 29 -36 32 -47 14z"/>
<path d="M3678 2317 c-8 -19 2 -37 20 -37 14 0 14 2 3 9 -7 5 -11 13 -7 19 3
6 2 13 -3 16 -5 3 -11 0 -13 -7z"/>
<path d="M3832 2314 c10 -10 20 -15 24 -12 3 4 -5 12 -18 18 -22 12 -22 12 -6
-6z"/>
<path d="M4263 2324 c4 -4 2 -13 -4 -21 -15 -17 -1 -17 16 1 12 12 12 15 -2
21 -10 3 -14 3 -10 -1z"/>
<path d="M1790 2309 c0 -5 9 -9 20 -9 11 0 20 2 20 4 0 2 -9 6 -20 9 -11 3
-20 1 -20 -4z"/>
<path d="M1920 2310 c0 -5 5 -10 11 -10 5 0 7 5 4 10 -3 6 -8 10 -11 10 -2 0
-4 -4 -4 -10z"/>
<path d="M2413 2307 c2 -7 9 -12 16 -12 7 0 18 -8 25 -17 16 -22 26 -23 26 -2
0 8 -4 13 -9 9 -6 -3 -14 2 -19 12 -11 19 -45 28 -39 10z"/>
<path d="M3395 2300 c28 -31 57 -46 49 -25 -4 9 -21 23 -38 32 l-31 16 20 -23z"/>
<path d="M1658 2303 c7 -3 16 -2 19 1 4 3 -2 6 -13 5 -11 0 -14 -3 -6 -6z"/>
<path d="M2082 2287 c-24 -25 -28 -37 -12 -37 6 0 10 7 10 15 0 8 4 15 9 15 5
0 11 7 15 15 7 21 3 19 -22 -8z"/>
<path d="M2500 2295 c0 -9 6 -12 15 -9 8 4 15 7 15 9 0 2 -7 5 -15 9 -9 3 -15
0 -15 -9z"/>
<path d="M3310 2305 c0 -2 20 -18 45 -35 25 -17 44 -34 41 -38 -2 -4 7 -8 20
-8 14 -1 43 -14 65 -29 23 -14 43 -25 45 -22 5 5 -74 58 -91 61 -6 1 -35 18
-63 39 -50 36 -62 42 -62 32z"/>
<path d="M3580 2307 c0 -2 14 -13 30 -25 17 -13 30 -18 30 -13 0 6 -13 17 -30
26 -16 9 -30 14 -30 12z"/>
<path d="M5265 2300 c-4 -6 -11 -7 -17 -4 -7 4 -8 2 -4 -4 5 -9 13 -9 27 -2
10 6 19 13 19 15 0 9 -19 5 -25 -5z"/>
<path d="M660 2243 l-55 -58 58 55 c53 50 62 60 54 60 -1 0 -27 -26 -57 -57z"/>
<path d="M1465 2290 c4 -6 11 -8 16 -5 14 9 11 15 -7 15 -8 0 -12 -5 -9 -10z"/>
<path d="M1634 2286 c11 -9 24 -16 30 -16 12 0 7 5 -24 19 -24 11 -24 11 -6
-3z"/>
<path d="M1720 2289 c0 -5 11 -9 25 -9 33 0 33 15 0 16 -14 1 -25 -2 -25 -7z"/>
<path d="M1850 2290 c8 -5 22 -10 30 -10 13 0 13 1 0 10 -8 5 -22 10 -30 10
-13 0 -13 -1 0 -10z"/>
<path d="M1990 2290 c0 -5 10 -10 22 -12 32 -5 35 -28 3 -28 -15 0 -24 -4 -20
-10 3 -5 1 -10 -6 -10 -8 0 -9 -3 0 -14 9 -10 8 -16 -4 -26 -13 -11 -14 -10
-9 4 8 20 -4 21 -25 2 -17 -15 -37 -19 -84 -17 -16 1 -26 5 -22 11 3 6 2 10
-4 10 -5 0 -13 -4 -16 -10 -3 -5 -1 -10 6 -10 9 0 10 -3 3 -10 -6 -6 -18 -8
-28 -4 -14 5 -14 9 -4 22 10 12 10 14 1 8 -7 -4 -23 -9 -34 -11 -28 -6 -69
-33 -69 -46 0 -6 5 -7 10 -4 6 3 10 1 10 -4 0 -6 -4 -11 -10 -11 -13 0 -13
-11 0 -30 9 -13 11 -13 20 0 6 10 10 11 10 3 0 -7 11 -13 24 -13 14 0 31 6 38
13 7 6 19 12 26 13 6 1 23 2 37 3 19 1 25 6 24 24 0 20 -1 20 -8 3 -6 -17 -8
-17 -14 -4 -7 20 23 34 34 16 4 -6 6 -15 4 -19 -8 -12 114 -2 130 11 12 10 15
29 13 84 -3 69 -4 71 -30 73 -16 1 -28 -2 -28 -7z m44 -66 c3 -8 2 -12 -4 -9
-6 3 -10 1 -10 -4 0 -6 5 -11 10 -11 14 0 12 -28 -2 -33 -23 -8 -40 4 -27 19
6 8 9 20 6 28 -6 14 0 26 14 26 4 0 10 -7 13 -16z m-74 -60 c0 -10 5 -14 16
-10 8 3 12 2 9 -4 -5 -8 -65 -10 -65 -2 0 6 25 31 33 32 4 0 7 -7 7 -16z
m-174 -17 c4 -4 -9 -7 -30 -7 -23 0 -35 4 -31 10 7 11 49 9 61 -3z m49 -17
c-3 -5 -11 -10 -16 -10 -6 0 -7 5 -4 10 3 6 11 10 16 10 6 0 7 -4 4 -10z m-69
-15 c10 -8 14 -15 7 -15 -19 0 -43 11 -43 21 0 13 14 11 36 -6z"/>
<path d="M3222 2280 c7 -11 16 -20 21 -20 4 0 3 9 -3 20 -6 11 -15 20 -20 20
-6 0 -5 -9 2 -20z"/>
<path d="M3539 2276 c14 -15 26 -26 28 -26 9 0 -24 40 -37 45 -8 4 -4 -5 9
-19z"/>
<path d="M3817 2279 c12 -12 24 -21 27 -18 2 2 -8 13 -22 23 l-27 19 22 -24z"/>
<path d="M4540 2281 c14 -11 30 -21 35 -21 11 0 -7 14 -40 31 -13 7 -12 3 5
-10z"/>
<path d="M4963 2293 c9 -2 25 -2 35 0 9 3 1 5 -18 5 -19 0 -27 -2 -17 -5z"/>
<path d="M4355 2280 c3 -5 26 -22 51 -36 37 -22 49 -25 67 -16 21 11 21 11 -3
6 -18 -4 -38 4 -68 25 -43 32 -58 38 -47 21z"/>
<path d="M4440 2281 c0 -6 4 -13 10 -16 6 -3 7 1 4 9 -7 18 -14 21 -14 7z"/>
<path d="M4620 2287 c0 -3 12 -12 26 -22 15 -9 23 -12 20 -6 -7 11 -46 35 -46
28z"/>
<path d="M5030 2286 c0 -2 7 -9 15 -16 9 -7 15 -8 15 -2 0 5 -7 12 -15 16 -8
3 -15 4 -15 2z"/>
<path d="M1785 2270 c3 -5 16 -10 28 -9 21 0 21 1 2 9 -28 12 -37 12 -30 0z"/>
<path d="M2420 2260 c0 -19 11 -26 23 -14 8 8 -3 34 -14 34 -5 0 -9 -9 -9 -20z"/>
<path d="M4294 2266 c11 -9 24 -16 30 -16 12 0 7 5 -24 19 -24 11 -24 11 -6
-3z"/>
<path d="M2097 2263 c-4 -3 -7 -11 -7 -16 0 -6 3 -7 7 -4 3 4 12 2 20 -4 9 -9
13 -8 13 0 0 6 -5 11 -11 11 -5 0 -7 5 -4 10 7 11 -8 14 -18 3z"/>
<path d="M3660 2261 c0 -5 14 -14 30 -20 17 -5 30 -8 30 -6 0 3 -13 11 -30 20
-16 9 -30 11 -30 6z"/>
<path d="M8100 2261 c0 -6 4 -13 10 -16 6 -3 7 1 4 9 -7 18 -14 21 -14 7z"/>
<path d="M1470 2248 c0 -4 4 -8 9 -8 6 0 12 4 15 8 3 5 -1 9 -9 9 -8 0 -15 -4
-15 -9z"/>
<path d="M1595 2250 c-3 -6 1 -7 9 -4 18 7 21 14 7 14 -6 0 -13 -4 -16 -10z"/>
<path d="M1848 2248 c6 -6 18 -8 28 -6 14 3 12 5 -9 10 -19 3 -25 2 -19 -4z"/>
<path d="M3205 2250 c3 -5 8 -10 11 -10 2 0 4 5 4 10 0 6 -5 10 -11 10 -5 0
-7 -4 -4 -10z"/>
<path d="M4761 2257 c2 -1 13 -9 24 -17 19 -14 19 -14 6 3 -7 9 -18 17 -24 17
-6 0 -8 -1 -6 -3z"/>
<path d="M4810 2251 c0 -5 5 -13 10 -16 6 -3 10 -2 10 4 0 5 -4 13 -10 16 -5
3 -10 2 -10 -4z"/>
<path d="M1743 2243 c21 -5 23 -23 2 -23 -8 0 -15 -4 -15 -8 0 -5 10 -8 23 -6
12 1 27 3 32 3 6 1 3 6 -5 11 -13 8 -12 10 3 10 35 0 16 17 -20 17 -21 0 -30
-2 -20 -4z"/>
<path d="M3606 2235 c10 -8 23 -15 28 -15 6 0 1 7 -10 15 -10 8 -23 15 -28 15
-6 0 -1 -7 10 -15z"/>
<path d="M4508 2243 c7 -3 16 -2 19 1 4 3 -2 6 -13 5 -11 0 -14 -3 -6 -6z"/>
<path d="M8150 2236 c0 -2 8 -10 18 -17 15 -13 16 -12 3 4 -13 16 -21 21 -21
13z"/>
<path d="M927 2219 c7 -7 15 -10 18 -7 3 3 -2 9 -12 12 -14 6 -15 5 -6 -5z"/>
<path d="M3350 2226 c0 -2 8 -10 18 -17 15 -13 16 -12 3 4 -13 16 -21 21 -21
13z"/>
<path d="M4386 2215 c10 -8 23 -15 28 -15 6 0 1 7 -10 15 -10 8 -23 15 -28 15
-6 0 -1 -7 10 -15z"/>
<path d="M5070 2221 c0 -5 5 -13 10 -16 6 -3 10 -2 10 4 0 5 -4 13 -10 16 -5
3 -10 2 -10 -4z"/>
<path d="M8083 2179 c-12 -27 -20 -49 -18 -49 8 0 46 81 43 90 -2 4 -13 -14
-25 -41z"/>
<path d="M1390 2209 c0 -5 5 -7 10 -4 6 3 10 8 10 11 0 2 -4 4 -10 4 -5 0 -10
-5 -10 -11z"/>
<path d="M1860 2210 c0 -5 14 -10 30 -10 17 0 30 5 30 10 0 6 -13 10 -30 10
-16 0 -30 -4 -30 -10z"/>
<path d="M2080 2211 c19 -5 24 -13 22 -30 -3 -21 0 -23 20 -18 12 4 26 7 31 7
4 0 7 8 7 17 0 9 -3 13 -6 10 -4 -3 -16 0 -28 8 -11 8 -32 15 -46 14 l-25 -1
25 -7z"/>
<path d="M3284 2201 c21 -23 26 -26 26 -11 0 5 -10 15 -22 21 -23 12 -23 12
-4 -10z"/>
<path d="M3847 2209 c7 -7 15 -10 18 -7 3 3 -2 9 -12 12 -14 6 -15 5 -6 -5z"/>
<path d="M4790 2212 c0 -5 7 -15 15 -22 8 -7 15 -9 15 -6 0 4 -7 14 -15 22 -8
9 -15 11 -15 6z"/>
<path d="M973 2200 c21 -13 126 -49 146 -50 26 0 4 11 -60 29 -35 11 -73 22
-84 26 -18 6 -18 5 -2 -5z"/>
<path d="M1660 2200 c0 -5 10 -10 23 -10 18 0 19 2 7 10 -19 13 -30 13 -30 0z"/>
<path d="M3416 2187 c18 -15 39 -27 47 -27 9 0 19 -4 22 -10 9 -14 45 -32 45
-23 0 5 -28 24 -62 43 -83 46 -89 48 -52 17z"/>
<path d="M4595 2200 c3 -5 11 -10 16 -10 6 0 7 5 4 10 -3 6 -11 10 -16 10 -6
0 -7 -4 -4 -10z"/>
<path d="M1460 2190 c0 -5 7 -10 15 -10 8 0 15 5 15 10 0 6 -7 10 -15 10 -8 0
-15 -4 -15 -10z"/>
<path d="M6375 2190 c-3 -5 -1 -10 4 -10 6 0 11 5 11 10 0 6 -2 10 -4 10 -3 0
-8 -4 -11 -10z"/>
<path d="M8226 2150 c15 -28 29 -49 31 -47 4 5 -47 97 -53 97 -3 0 7 -23 22
-50z"/>
<path d="M1175 2171 c-3 -12 -14 -21 -23 -21 -15 -1 -15 -2 -2 -9 23 -13 100
-20 100 -10 0 5 -9 9 -19 9 -11 0 -27 3 -37 7 -17 6 -17 7 0 13 16 5 16 7 3
18 -13 11 -16 10 -22 -7z"/>
<path d="M2063 2172 c0 -12 5 -22 9 -22 11 0 10 12 -2 30 -7 12 -9 10 -7 -8z"/>
<path d="M3357 2165 c10 -13 22 -25 27 -25 5 0 -1 11 -14 25 -30 32 -36 32
-13 0z"/>
<path d="M3701 2186 c2 -2 15 -9 29 -15 24 -11 24 -11 6 3 -16 13 -49 24 -35
12z"/>
<path d="M1630 2168 c0 -4 6 -8 14 -8 8 0 16 -5 18 -12 2 -6 10 -8 16 -4 20
12 13 24 -18 28 -16 3 -30 1 -30 -4z"/>
<path d="M3627 2169 c7 -7 15 -10 18 -7 3 3 -2 9 -12 12 -14 6 -15 5 -6 -5z"/>
<path d="M4587 2159 c12 -12 24 -21 27 -18 2 2 -8 13 -22 23 l-27 19 22 -24z"/>
<path d="M4730 2176 c0 -2 7 -7 16 -10 8 -3 12 -2 9 4 -6 10 -25 14 -25 6z"/>
<path d="M1243 2156 c9 -7 17 -18 17 -23 0 -13 34 -23 78 -23 33 0 43 14 16
24 -9 4 -13 2 -8 -5 4 -7 1 -10 -7 -7 -8 3 -13 15 -11 29 2 23 2 23 -12 5 -9
-10 -13 -22 -11 -27 3 -4 -4 -5 -15 -2 -11 3 -17 9 -15 14 3 4 -3 13 -14 18
-28 15 -39 13 -18 -3z"/>
<path d="M1345 2160 c-3 -5 1 -10 10 -10 9 0 13 5 10 10 -3 6 -8 10 -10 10 -2
0 -7 -4 -10 -10z"/>
<path d="M1473 2163 c-20 -7 -15 -23 7 -23 11 0 20 -4 20 -9 0 -4 -20 -4 -44
2 -49 11 -76 5 -76 -17 0 -16 15 -22 80 -30 28 -4 37 -3 26 2 -15 7 -17 10 -6
17 8 5 18 0 29 -14 9 -12 31 -23 49 -26 19 -2 47 -7 63 -10 19 -4 29 -3 29 5
0 6 8 10 18 8 13 -2 18 5 20 28 3 26 -1 33 -20 38 -38 10 -48 7 -41 -11 6 -15
5 -15 -16 -1 -13 9 -30 14 -38 11 -11 -4 -9 -9 9 -22 13 -8 29 -16 36 -18 19
-2 27 -12 18 -20 -4 -4 -16 -2 -27 5 -10 7 -32 10 -48 7 -17 -3 -33 0 -37 7
-4 6 -3 8 4 4 7 -4 10 1 9 14 -1 11 -7 20 -14 20 -7 0 -10 7 -6 17 5 11 3 14
-6 8 -7 -4 -16 -3 -20 2 -3 6 -12 8 -18 6z m-43 -48 c0 -9 -6 -12 -15 -9 -8 4
-15 10 -15 15 0 5 7 9 15 9 8 0 15 -7 15 -15z m35 -5 c-3 -5 -11 -10 -16 -10
-6 0 -7 5 -4 10 3 6 11 10 16 10 6 0 7 -4 4 -10z m205 6 c0 -3 -4 -8 -10 -11
-5 -3 -10 -1 -10 4 0 6 5 11 10 11 6 0 10 -2 10 -4z"/>
<path d="M1554 2161 c9 -13 48 -21 44 -9 -2 6 -14 13 -27 15 -12 2 -20 -1 -17
-6z"/>
<path d="M3280 2161 c0 -5 7 -15 17 -22 15 -13 15 -12 4 9 -12 23 -21 28 -21
13z"/>
<path d="M3555 2160 c3 -5 16 -15 28 -21 l22 -11 -22 21 c-23 22 -39 28 -28
11z"/>
<path d="M3597 2159 c7 -7 15 -10 18 -7 3 3 -2 9 -12 12 -14 6 -15 5 -6 -5z"/>
<path d="M3840 2166 c0 -2 8 -10 18 -17 15 -13 16 -12 3 4 -13 16 -21 21 -21
13z"/>
<path d="M6280 2149 c0 -5 5 -7 10 -4 6 3 10 8 10 11 0 2 -4 4 -10 4 -5 0 -10
-5 -10 -11z"/>
<path d="M569 2133 c-13 -16 -12 -17 4 -4 9 7 17 15 17 17 0 8 -8 3 -21 -13z"/>
<path d="M5100 2130 c0 -5 5 -10 10 -10 6 0 10 5 10 10 0 6 -4 10 -10 10 -5 0
-10 -4 -10 -10z"/>
<path d="M3449 2112 c6 -12 16 -24 22 -28 8 -4 8 -1 0 14 -6 12 -16 24 -22 28
-8 4 -8 1 0 -14z"/>
<path d="M3375 2100 c10 -11 23 -20 28 -20 6 0 0 9 -13 20 -13 11 -25 20 -28
20 -3 0 3 -9 13 -20z"/>
<path d="M3541 2116 c2 -2 15 -9 29 -15 24 -11 24 -11 6 3 -16 13 -49 24 -35
12z"/>
<path d="M539 2093 c-13 -16 -12 -17 4 -4 9 7 17 15 17 17 0 8 -8 3 -21 -13z"/>
<path d="M3500 2103 c0 -13 29 -38 35 -31 3 3 -4 13 -15 23 -11 10 -20 13 -20
8z"/>
<path d="M3864 2098 c-3 -4 17 -8 44 -8 28 0 106 -13 175 -30 69 -16 143 -30
163 -30 20 0 53 -4 73 -10 110 -29 204 -50 271 -61 41 -6 86 -14 100 -17 14
-2 80 -6 146 -9 l121 -5 34 32 c19 18 27 28 18 21 -9 -6 -20 -7 -24 -3 -5 4
-5 2 -1 -5 14 -25 -35 -35 -146 -31 -60 2 -112 8 -116 13 -4 6 -38 11 -76 12
-39 2 -74 7 -79 12 -5 5 -15 7 -22 5 -7 -3 -59 7 -116 21 -57 15 -131 29 -164
32 -33 3 -103 16 -155 30 -104 27 -238 44 -246 31z"/>
<path d="M3300 2097 c0 -2 14 -16 32 -33 31 -29 31 -29 12 -2 -16 23 -44 45
-44 35z"/>
<path d="M3799 2086 c10 -12 8 -17 -9 -26 -11 -6 -24 -9 -29 -6 -5 3 -11 -4
-15 -17 -5 -18 -8 -20 -16 -7 -13 21 -12 12 5 -35 l14 -40 1 36 c0 31 5 38 40
58 43 24 49 35 24 45 -24 9 -28 7 -15 -8z"/>
<path d="M3600 2086 c0 -2 8 -10 18 -17 15 -13 16 -12 3 4 -13 16 -21 21 -21
13z"/>
<path d="M3649 2066 c14 -14 27 -26 29 -26 10 0 -26 44 -39 48 -8 3 -3 -7 10
-22z"/>
<path d="M8260 2085 c0 -11 49 -94 50 -84 0 4 -11 27 -25 50 -14 24 -25 40
-25 34z"/>
<path d="M3455 2060 c10 -11 20 -20 22 -20 2 0 -2 9 -9 20 -7 11 -17 20 -22
20 -5 0 -1 -9 9 -20z"/>
<path d="M3255 2040 c8 -13 -18 -71 -41 -92 -51 -45 -282 -93 -481 -100 -46
-2 -83 -6 -83 -9 0 -4 -26 0 -57 7 -31 7 -59 11 -61 9 -4 -4 66 -25 86 -25 7
0 41 -18 76 -40 35 -22 67 -40 72 -40 5 0 48 -38 95 -84 47 -46 97 -90 110
-97 39 -22 679 -32 679 -11 0 4 -57 6 -127 4 -141 -4 -175 1 -167 22 3 8 0 17
-7 22 -7 4 -10 3 -7 -2 3 -5 2 -18 -3 -29 -7 -17 -8 -17 -8 8 -1 22 -6 27 -25
27 -13 0 -35 9 -50 21 -25 20 -26 20 -26 1 0 -15 9 -21 35 -26 19 -4 35 -9 35
-11 0 -2 2 -9 5 -17 4 -11 -17 -14 -102 -16 -60 -2 -135 0 -168 4 -60 6 -61 7
-161 105 -55 55 -103 97 -106 93 -4 -3 -30 11 -60 31 l-53 37 68 -4 c37 -2 67
0 67 4 0 5 33 7 74 6 41 -2 72 -6 69 -11 -2 -4 16 -16 40 -26 25 -11 48 -24
51 -30 4 -6 12 -11 18 -11 17 0 -44 50 -70 56 -19 5 -21 9 -10 22 9 11 9 13 1
9 -6 -4 -14 -3 -18 3 -4 6 13 10 44 10 30 0 51 -4 51 -11 0 -6 6 -9 13 -6 6 2
12 10 12 18 0 7 8 15 17 17 13 2 16 -1 12 -12 -5 -13 -2 -15 12 -9 16 6 17 4
6 -9 -10 -13 -10 -17 3 -22 9 -3 14 -2 11 2 -9 15 10 67 25 68 49 3 104 51
119 104 10 34 6 50 -11 50 -6 0 -8 -4 -4 -10z"/>
<path d="M3380 2040 c0 -5 9 -10 21 -10 11 0 17 5 14 10 -3 6 -13 10 -21 10
-8 0 -14 -4 -14 -10z"/>
<path d="M3595 2040 c3 -5 8 -10 11 -10 2 0 4 5 4 10 0 6 -5 10 -11 10 -5 0
-7 -4 -4 -10z"/>
<path d="M3320 2036 c0 -2 8 -10 18 -17 15 -13 16 -12 3 4 -13 16 -21 21 -21
13z"/>
<path d="M476 2011 c-11 -12 -15 -25 -10 -33 4 -7 4 -10 -1 -6 -18 17 -56 -63
-70 -149 -9 -49 -18 -96 -21 -105 -27 -89 32 -353 84 -373 7 -2 2 10 -12 28
-26 35 -55 144 -63 245 -6 74 24 252 39 230 6 -9 7 -6 3 9 -3 12 -1 24 5 28
15 9 12 28 -2 19 -7 -4 -2 4 12 17 14 14 26 24 28 23 2 -1 -1 -25 -6 -53 -5
-28 -6 -48 -1 -45 8 4 16 53 21 124 2 19 7 38 13 42 5 4 7 9 4 13 -3 3 -14 -4
-23 -14z"/>
<path d="M3290 2015 c0 -9 54 -54 65 -55 6 0 27 -12 48 -26 21 -14 43 -23 50
-21 7 3 -1 10 -18 16 -16 7 -55 30 -87 52 -32 21 -58 37 -58 34z"/>
<path d="M3468 2007 c7 -8 9 -16 7 -19 -3 -3 3 -8 14 -11 17 -4 18 -2 8 14 -6
10 -18 21 -26 24 -11 4 -11 2 -3 -8z"/>
<path d="M3500 2010 c0 -5 5 -10 11 -10 5 0 7 5 4 10 -3 6 -8 10 -11 10 -2 0
-4 -4 -4 -10z"/>
<path d="M5140 2010 c0 -5 5 -10 10 -10 6 0 10 5 10 10 0 6 -4 10 -10 10 -5 0
-10 -4 -10 -10z"/>
<path d="M3375 1998 c11 -6 34 -20 50 -30 26 -18 26 -16 -5 11 -19 17 -42 30
-50 30 -10 0 -9 -3 5 -11z"/>
<path d="M3594 2001 c7 -11 46 -35 46 -28 0 3 -12 12 -26 22 -15 9 -23 12 -20
6z"/>
<path d="M4055 2000 c-3 -5 -1 -10 4 -10 6 0 11 5 11 10 0 6 -2 10 -4 10 -3 0
-8 -4 -11 -10z"/>
<path d="M4760 1983 c0 -13 5 -23 10 -23 13 0 13 11 0 30 -8 12 -10 11 -10 -7z"/>
<path d="M5920 1980 c0 -5 5 -10 10 -10 6 0 10 5 10 10 0 6 -4 10 -10 10 -5 0
-10 -4 -10 -10z"/>
<path d="M8311 1985 c0 -5 9 -28 20 -50 10 -22 16 -29 13 -15 -7 28 -33 80
-33 65z"/>
<path d="M4158 1973 c6 -2 18 -2 25 0 6 3 1 5 -13 5 -14 0 -19 -2 -12 -5z"/>
<path d="M3466 1951 c-3 -5 4 -11 16 -14 29 -8 32 -4 8 11 -10 6 -21 8 -24 3z"/>
<path d="M3561 1948 c2 -2 20 -16 39 -33 l35 -30 -29 33 c-17 17 -34 32 -40
32 -5 0 -7 -1 -5 -2z"/>
<path d="M3744 1908 c3 -36 14 -64 45 -111 22 -35 41 -68 41 -75 0 -6 5 -14
12 -18 17 -11 3 20 -45 100 -22 38 -44 87 -49 110 l-7 41 3 -47z"/>
<path d="M3320 1936 c0 -2 7 -7 16 -10 8 -3 12 -2 9 4 -6 10 -25 14 -25 6z"/>
<path d="M3245 1920 c-3 -5 -1 -10 4 -10 6 0 11 5 11 10 0 6 -2 10 -4 10 -3 0
-8 -4 -11 -10z"/>
<path d="M3270 1911 c0 -10 39 -36 45 -29 2 2 -8 11 -21 21 -13 10 -24 13 -24
8z"/>
<path d="M3360 1916 c0 -2 8 -10 18 -17 15 -13 16 -12 3 4 -13 16 -21 21 -21
13z"/>
<path d="M4448 1913 c7 -3 16 -2 19 1 4 3 -2 6 -13 5 -11 0 -14 -3 -6 -6z"/>
<path d="M3214 1898 c-7 -11 22 -39 40 -37 6 0 5 3 -2 6 -6 2 -10 8 -8 11 2 4
-2 13 -10 19 -9 10 -15 10 -20 1z"/>
<path d="M3561 1907 c2 -1 15 -11 29 -22 l25 -20 -19 23 c-11 12 -24 22 -29
22 -6 0 -8 -1 -6 -3z"/>
<path d="M4535 1900 c3 -5 8 -10 11 -10 2 0 4 5 4 10 0 6 -5 10 -11 10 -5 0
-7 -4 -4 -10z"/>
<path d="M2095 1880 c3 -5 8 -10 11 -10 2 0 4 5 4 10 0 6 -5 10 -11 10 -5 0
-7 -4 -4 -10z"/>
<path d="M3174 1876 c-3 -9 -12 -16 -19 -16 -19 0 -12 -31 11 -43 16 -9 17 -8
7 4 -10 12 -9 20 3 38 9 12 13 25 10 28 -3 3 -8 -2 -12 -11z"/>
<path d="M3510 1886 c0 -3 14 -12 30 -21 17 -9 30 -13 30 -11 0 3 -13 12 -30
21 -16 9 -30 13 -30 11z"/>
<path d="M8351 1874 c0 -11 3 -14 6 -6 3 7 2 16 -1 19 -3 4 -6 -2 -5 -13z"/>
<path d="M3430 1876 c0 -3 9 -10 20 -16 11 -6 20 -8 20 -6 0 3 -9 10 -20 16
-11 6 -20 8 -20 6z"/>
<path d="M3280 1855 c0 -3 14 -11 30 -20 17 -9 30 -11 30 -6 0 5 -13 14 -30
20 -16 5 -30 8 -30 6z"/>
<path d="M3387 1853 c-4 -3 -7 -11 -7 -17 0 -6 4 -5 9 3 8 13 12 13 28 0 16
-13 17 -13 4 4 -14 18 -24 21 -34 10z"/>
<path d="M3487 1849 c7 -7 15 -10 18 -7 3 3 -2 9 -12 12 -14 6 -15 5 -6 -5z"/>
<path d="M4468 1853 c7 -3 16 -2 19 1 4 3 -2 6 -13 5 -11 0 -14 -3 -6 -6z"/>
<path d="M5755 1850 c-3 -5 -1 -10 4 -10 6 0 11 5 11 10 0 6 -2 10 -4 10 -3 0
-8 -4 -11 -10z"/>
<path d="M2980 1838 c0 -6 3 -9 6 -5 4 3 21 -1 38 -9 l31 -15 -24 21 c-26 22
-51 26 -51 8z"/>
<path d="M3224 1841 c7 -11 46 -35 46 -28 0 3 -12 12 -26 22 -15 9 -23 12 -20
6z"/>
<path d="M4567 1839 c7 -7 15 -10 18 -7 3 3 -2 9 -12 12 -14 6 -15 5 -6 -5z"/>
<path d="M4980 1840 c0 -5 5 -10 10 -10 6 0 10 5 10 10 0 6 -4 10 -10 10 -5 0
-10 -4 -10 -10z"/>
<path d="M8362 1830 c0 -14 2 -19 5 -12 2 6 2 18 0 25 -3 6 -5 1 -5 -13z"/>
<path d="M3527 1829 c7 -7 15 -10 18 -7 3 3 -2 9 -12 12 -14 6 -15 5 -6 -5z"/>
<path d="M440 1821 c0 -6 5 -13 10 -16 6 -3 10 1 10 9 0 9 -4 16 -10 16 -5 0
-10 -4 -10 -9z"/>
<path d="M1680 1819 c-58 -3 -100 -6 -95 -8 24 -5 301 1 307 7 8 8 -70 9 -212
1z"/>
<path d="M2003 1823 c37 -2 97 -2 135 0 37 2 6 3 -68 3 -74 0 -105 -1 -67 -3z"/>
<path d="M2236 1816 c3 -9 11 -16 16 -16 13 0 5 23 -10 28 -7 2 -10 -2 -6 -12z"/>
<path d="M2813 1823 c9 -2 23 -2 30 0 6 3 -1 5 -18 5 -16 0 -22 -2 -12 -5z"/>
<path d="M1365 1799 c-115 -12 -125 -19 -20 -12 50 3 97 9 105 14 8 5 11 8 5
7 -5 0 -46 -4 -90 -9z"/>
<path d="M1493 1803 c15 -2 39 -2 55 0 15 2 2 4 -28 4 -30 0 -43 -2 -27 -4z"/>
<path d="M2485 1800 c3 -5 11 -10 16 -10 6 0 7 5 4 10 -3 6 -11 10 -16 10 -6
0 -7 -4 -4 -10z"/>
<path d="M3094 1785 c29 -27 46 -34 27 -12 -6 8 -7 17 -1 23 5 5 -3 10 -22 11
l-30 2 26 -24z"/>
<path d="M3290 1806 c0 -2 7 -6 15 -10 8 -3 15 -1 15 4 0 6 -7 10 -15 10 -8 0
-15 -2 -15 -4z"/>
<path d="M3580 1806 c0 -2 8 -10 18 -17 15 -13 16 -12 3 4 -13 16 -21 21 -21
13z"/>
<path d="M2320 1790 c0 -5 5 -10 11 -10 5 0 7 5 4 10 -3 6 -8 10 -11 10 -2 0
-4 -4 -4 -10z"/>
<path d="M2810 1775 c13 -14 25 -25 27 -25 9 0 -33 49 -41 50 -5 0 1 -11 14
-25z"/>
<path d="M5680 1784 c0 -8 5 -12 10 -9 6 3 10 10 10 16 0 5 -4 9 -10 9 -5 0
-10 -7 -10 -16z"/>
<path d="M8371 1784 c0 -11 3 -14 6 -6 3 7 2 16 -1 19 -3 4 -6 -2 -5 -13z"/>
<path d="M453 1755 c0 -22 2 -30 4 -17 2 12 2 30 0 40 -3 9 -5 -1 -4 -23z"/>
<path d="M2550 1786 c0 -3 9 -10 20 -16 11 -6 20 -8 20 -6 0 3 -9 10 -20 16
-11 6 -20 8 -20 6z"/>
<path d="M3320 1776 c0 -2 7 -7 16 -10 8 -3 12 -2 9 4 -6 10 -25 14 -25 6z"/>
<path d="M2948 1763 c6 -2 9 -10 6 -15 -4 -7 -2 -8 4 -4 18 11 14 26 -5 25
-11 0 -13 -3 -5 -6z"/>
<path d="M2980 1759 c0 -5 5 -7 10 -4 6 3 10 8 10 11 0 2 -4 4 -10 4 -5 0 -10
-5 -10 -11z"/>
<path d="M3189 1762 c9 -7 10 -11 2 -15 -7 -4 -8 -5 -1 -3 16 2 14 20 -2 24
-10 3 -10 2 1 -6z"/>
<path d="M3548 1763 c7 -3 16 -2 19 1 4 3 -2 6 -13 5 -11 0 -14 -3 -6 -6z"/>
<path d="M8387 1725 c6 -41 28 -105 37 -105 2 0 -2 17 -9 38 -7 20 -18 53 -24
72 l-10 35 6 -40z"/>
<path d="M2550 1736 c0 -2 7 -7 16 -10 8 -3 12 -2 9 4 -6 10 -25 14 -25 6z"/>
<path d="M2845 1730 c3 -5 11 -10 16 -10 6 0 7 5 4 10 -3 6 -11 10 -16 10 -6
0 -7 -4 -4 -10z"/>
<path d="M3034 1726 c24 -19 32 -20 42 -4 4 7 3 8 -4 4 -6 -4 -22 -2 -34 4
-22 11 -22 10 -4 -4z"/>
<path d="M2965 1710 c10 -11 20 -20 23 -20 3 0 -3 9 -13 20 -10 11 -20 20 -23
20 -3 0 3 -9 13 -20z"/>
<path d="M3138 1723 c7 -3 16 -2 19 1 4 3 -2 6 -13 5 -11 0 -14 -3 -6 -6z"/>
<path d="M5537 1719 c7 -7 15 -10 18 -7 3 3 -2 9 -12 12 -14 6 -15 5 -6 -5z"/>
<path d="M5048 1713 c23 -2 61 -2 85 0 23 2 4 4 -43 4 -47 0 -66 -2 -42 -4z"/>
<path d="M5610 1710 l-45 -7 42 -1 c23 -1 45 3 48 8 3 6 5 9 3 8 -2 0 -23 -4
-48 -8z"/>
<path d="M2895 1687 c10 -15 20 -25 23 -22 3 3 -5 16 -17 28 l-23 22 17 -28z"/>
<path d="M3390 1706 c0 -2 8 -10 18 -17 15 -13 16 -12 3 4 -13 16 -21 21 -21
13z"/>
<path d="M2630 1696 c0 -2 8 -10 18 -17 15 -13 16 -12 3 4 -13 16 -21 21 -21
13z"/>
<path d="M5743 1693 c9 -2 23 -2 30 0 6 3 -1 5 -18 5 -16 0 -22 -2 -12 -5z"/>
<path d="M3110 1684 c0 -2 10 -8 21 -15 13 -6 19 -7 15 -1 -3 6 2 12 11 15 10
2 3 4 -14 4 -18 0 -33 -1 -33 -3z"/>
<path d="M3040 1676 c0 -2 8 -10 18 -17 15 -13 16 -12 3 4 -13 16 -21 21 -21
13z"/>
<path d="M3840 1661 c-12 -24 -13 -34 -1 -27 9 6 22 46 15 46 -2 0 -8 -9 -14
-19z"/>
<path d="M2690 1657 c0 -3 12 -12 26 -22 15 -9 23 -12 20 -6 -7 11 -46 35 -46
28z"/>
<path d="M3187 1649 c7 -7 15 -10 18 -7 3 3 -2 9 -12 12 -14 6 -15 5 -6 -5z"/>
<path d="M3665 1650 c3 -5 8 -10 11 -10 2 0 4 5 4 10 0 6 -5 10 -11 10 -5 0
-7 -4 -4 -10z"/>
<path d="M3300 1646 c0 -2 7 -6 15 -10 8 -3 15 -1 15 4 0 6 -7 10 -15 10 -8 0
-15 -2 -15 -4z"/>
<path d="M3730 1633 c0 -7 5 -15 10 -18 21 -13 10 -35 -19 -35 -17 0 -28 5
-27 13 0 6 -2 12 -5 12 -3 0 -13 6 -22 13 -9 8 -18 9 -21 3 -4 -5 3 -12 14
-16 22 -7 27 -30 8 -39 -7 -3 7 -3 31 -1 25 2 52 11 60 20 14 14 13 17 -7 37
-12 12 -22 17 -22 11z"/>
<path d="M3060 1626 c0 -2 8 -10 18 -17 15 -13 16 -12 3 4 -13 16 -21 21 -21
13z"/>
<path d="M3145 1620 c3 -5 14 -10 23 -10 15 0 15 2 2 10 -20 13 -33 13 -25 0z"/>
<path d="M3363 1616 c9 -7 17 -18 17 -25 0 -6 5 -11 10 -11 6 0 9 6 8 12 -3
15 -29 37 -43 37 -5 0 -2 -6 8 -13z"/>
<path d="M3530 1625 c0 -7 82 -45 97 -45 7 0 13 5 13 11 0 5 -4 8 -9 5 -4 -3
-27 3 -49 14 -42 21 -52 23 -52 15z"/>
<path d="M517 1609 c7 -7 15 -10 18 -7 3 3 -2 9 -12 12 -14 6 -15 5 -6 -5z"/>
<path d="M3785 1610 c-3 -5 -2 -10 4 -10 5 0 13 5 16 10 3 6 2 10 -4 10 -5 0
-13 -4 -16 -10z"/>
<path d="M440 1599 c0 -5 -3 -8 -7 -6 -21 13 -9 -71 21 -152 31 -84 58 -124
129 -196 21 -22 -8 22 -45 67 -56 68 -86 151 -84 232 0 36 -2 66 -6 66 -5 0
-8 -5 -8 -11z"/>
<path d="M2785 1590 c3 -5 8 -10 11 -10 2 0 4 5 4 10 0 6 -5 10 -11 10 -5 0
-7 -4 -4 -10z"/>
<path d="M620 1554 c0 -7 52 -25 57 -20 2 2 -10 8 -26 14 -17 6 -31 9 -31 6z"/>
<path d="M8451 1544 c0 -11 3 -14 6 -6 3 7 2 16 -1 19 -3 4 -6 -2 -5 -13z"/>
<path d="M2830 1540 c0 -5 5 -10 11 -10 5 0 7 5 4 10 -3 6 -8 10 -11 10 -2 0
-4 -4 -4 -10z"/>
<path d="M2910 1516 c0 -2 8 -10 18 -17 15 -13 16 -12 3 4 -13 16 -21 21 -21
13z"/>
<path d="M8462 1500 c0 -14 2 -19 5 -12 2 6 2 18 0 25 -3 6 -5 1 -5 -13z"/>
<path d="M421 1465 c0 -11 6 -31 14 -45 18 -32 18 -25 0 25 -8 22 -14 31 -14
20z"/>
<path d="M8472 1445 c0 -16 2 -22 5 -12 2 9 2 23 0 30 -3 6 -5 -1 -5 -18z"/>
<path d="M3635 1450 c3 -5 8 -10 11 -10 2 0 4 5 4 10 0 6 -5 10 -11 10 -5 0
-7 -4 -4 -10z"/>
<path d="M8482 1385 c0 -16 2 -22 5 -12 2 9 2 23 0 30 -3 6 -5 -1 -5 -18z"/>
<path d="M2913 1368 c-3 -6 -1 -8 5 -4 5 3 12 1 14 -5 2 -6 11 -10 21 -8 13 3
12 6 -8 16 -17 8 -27 8 -32 1z"/>
<path d="M2998 1353 c6 -2 18 -2 25 0 6 3 1 5 -13 5 -14 0 -19 -2 -12 -5z"/>
<path d="M8492 1299 c-1 -31 -4 -72 -7 -90 l-5 -34 11 33 c5 19 8 59 6 90 l-3
57 -2 -56z"/>
<path d="M485 1305 c15 -26 85 -94 85 -83 0 2 -23 28 -52 58 -33 35 -45 44
-33 25z"/>
<path d="M628 1209 c19 -21 29 -38 22 -41 -6 -2 3 -8 20 -15 24 -9 30 -9 30 3
0 7 -10 19 -22 25 -13 6 -36 23 -53 38 -27 24 -27 23 3 -10z"/>
<path d="M580 1210 c0 -5 10 -15 23 -21 22 -12 22 -12 3 10 -21 23 -26 26 -26
11z"/>
<path d="M711 1141 c5 -15 141 -77 189 -86 l35 -7 -39 21 c-21 11 -43 18 -49
14 -6 -3 -7 -1 -3 5 3 6 -8 20 -24 32 -35 25 -115 40 -109 21z m86 -22 c43
-27 36 -37 -9 -12 -18 10 -42 21 -53 24 -18 6 -18 7 4 8 13 1 39 -9 58 -20z"/>
<path d="M8446 1069 c-4 -23 -5 -44 -2 -46 2 -2 7 14 11 37 4 23 5 43 2 46 -2
3 -7 -14 -11 -37z"/>
<path d="M961 1008 c-1 -10 11 -30 27 -46 15 -15 19 -19 10 -7 -9 11 -21 31
-27 45 -7 17 -10 20 -10 8z"/>
<path d="M8416 977 c-10 -17 -30 -54 -44 -82 -14 -27 -61 -85 -104 -128 -43
-43 -66 -70 -51 -59 45 32 139 135 162 177 12 22 31 55 42 72 12 18 19 37 17
43 -1 5 -11 -5 -22 -23z"/>
<path d="M5380 660 c8 -5 20 -10 25 -10 6 0 3 5 -5 10 -8 5 -19 10 -25 10 -5
0 -3 -5 5 -10z"/>
<path d="M2050 565 c13 -14 26 -25 28 -25 3 0 -5 11 -18 25 -13 14 -26 25 -28
25 -3 0 5 -11 18 -25z"/>
<path d="M5670 536 c0 -2 8 -10 18 -17 15 -13 16 -12 3 4 -13 16 -21 21 -21
13z"/>
</g>
</svg>
