<?xml version="1.0" standalone="no"?>
<!DOCTYPE svg PUBLIC "-//W3C//DTD SVG 20010904//EN"
 "http://www.w3.org/TR/2001/REC-SVG-20010904/DTD/svg10.dtd">
<svg version="1.0" xmlns="http://www.w3.org/2000/svg"
 width="512.000000pt" height="512.000000pt" viewBox="0 0 512.000000 512.000000"
 preserveAspectRatio="xMidYMid meet">

<g transform="translate(0.000000,512.000000) scale(0.100000,-0.100000)"
fill="#000000" stroke="none">
<path d="M2032 3588 c-16 -24 -48 -73 -71 -111 -37 -61 -41 -74 -41 -133 0
-43 6 -78 19 -104 17 -35 13 -76 -6 -57 -4 5 -1 12 6 16 7 5 9 11 5 14 -5 3
-34 -15 -64 -40 -83 -67 -196 -142 -259 -172 -52 -24 -66 -26 -190 -26 -109 0
-127 -2 -97 -10 20 -6 34 -14 29 -18 -4 -5 1 -5 11 -1 13 5 17 4 13 -3 -8 -12
18 -12 29 0 4 4 12 7 18 7 6 0 4 -4 -4 -10 -8 -5 -12 -11 -9 -15 3 -3 18 4 33
16 14 11 32 18 39 16 7 -3 5 -6 -5 -6 -9 -1 -20 -6 -24 -12 -4 -6 1 -9 12 -8
11 2 25 0 33 -5 10 -6 12 -5 7 2 -4 7 -1 12 8 12 19 0 40 -36 26 -45 -5 -3
-10 -1 -10 4 0 6 -5 11 -11 11 -8 0 -8 -4 0 -13 6 -8 7 -17 1 -23 -5 -5 0 -13
16 -21 13 -6 24 -7 24 -2 0 5 -4 9 -10 9 -5 0 -10 5 -10 11 0 6 9 9 20 6 17
-4 18 -2 9 15 -10 19 -9 20 12 15 16 -4 42 3 77 23 29 15 50 25 47 20 -3 -4 6
-15 20 -24 30 -20 35 -20 35 0 0 8 -4 13 -8 10 -4 -2 -14 -1 -22 4 -12 8 -12
12 -2 22 10 10 15 10 22 -2 8 -13 10 -12 10 3 0 9 4 17 10 17 5 0 7 -6 4 -14
-3 -8 -1 -17 5 -21 7 -4 11 5 11 24 0 21 -5 31 -15 31 -26 0 -16 19 23 44 37
25 37 25 116 10 90 -17 114 -13 31 5 -30 7 -53 16 -50 21 3 5 0 12 -6 16 -6 3
-15 0 -20 -7 -5 -8 -9 -9 -9 -3 0 13 25 36 31 30 3 -3 16 -7 31 -10 22 -4 29
0 38 22 9 25 10 24 6 -10 -3 -22 0 -38 5 -38 6 0 7 5 4 10 -3 6 -1 10 4 10 6
0 11 -4 11 -10 0 -5 21 -10 48 -10 36 0 43 -3 32 -11 -10 -7 -11 -9 -2 -7 20
5 16 22 -5 26 -24 4 -66 25 -75 37 -25 33 1 78 72 125 19 13 37 27 40 30 29
31 170 104 170 88 0 -10 3 -9 9 1 7 11 9 11 14 0 4 -10 6 -9 6 4 1 9 -4 17
-10 17 -5 0 -7 5 -4 10 13 21 -73 9 -126 -18 -97 -50 -195 -125 -184 -142 3
-5 1 -11 -5 -15 -5 -3 -10 1 -10 9 0 9 -5 15 -11 14 -29 -7 -38 157 -11 184 8
8 9 5 5 -11 -7 -27 2 -27 30 0 12 11 38 29 57 39 19 11 32 19 28 20 -11 0 -82
-34 -89 -44 -4 -4 -10 -3 -13 3 -4 6 6 27 21 46 15 19 26 37 23 40 -3 2 5 12
18 20 12 9 20 21 17 26 -4 5 6 20 21 34 20 18 23 25 11 25 -9 0 -29 -19 -45
-42z m184 -208 c-22 -11 -42 -18 -44 -15 -5 5 57 34 73 34 6 0 -8 -9 -29 -19z
m-106 -61 c-7 -11 -14 -18 -17 -15 -8 8 5 36 17 36 7 0 7 -6 0 -21z m-61 -38
c-18 -10 -35 -24 -38 -32 -3 -11 -1 -11 14 1 17 14 17 14 5 -6 -10 -17 -16
-19 -26 -10 -11 9 -6 17 23 43 19 18 40 30 45 27 5 -3 -5 -14 -23 -23z m-133
-106 c-3 -18 -49 -63 -91 -89 -16 -11 -34 -25 -38 -33 -4 -7 -14 -13 -22 -13
-8 0 -26 -18 -41 -40 -27 -41 -63 -70 -88 -70 -8 0 -16 -4 -18 -9 -4 -11 -58
-2 -58 10 0 5 8 6 18 2 16 -6 16 -5 -1 14 -17 19 -17 21 -1 27 9 4 19 4 22 1
3 -3 0 -5 -7 -5 -7 0 -10 -4 -6 -10 3 -5 13 -6 22 -3 12 5 14 3 8 -8 -7 -11
-6 -12 7 -2 8 7 17 11 20 8 2 -3 5 2 5 10 0 12 -3 12 -15 3 -12 -10 -14 -9
-11 7 3 11 9 20 14 20 6 1 20 6 33 13 14 8 22 9 22 2 0 -5 -4 -10 -10 -10 -5
0 -10 -4 -10 -9 0 -5 9 -7 21 -4 13 4 18 11 14 21 -7 19 12 42 37 42 12 0 17
4 12 12 -5 8 -2 9 9 5 9 -3 20 -1 24 6 10 15 120 117 127 117 2 0 3 -7 2 -15z
m44 -37 c0 -10 -4 -17 -9 -14 -5 4 -12 0 -15 -6 -3 -7 -3 -2 0 12 l7 25 -23
-20 -24 -20 20 26 c21 29 44 28 44 -3z"/>
<path d="M2085 3579 c-4 -6 -5 -12 -2 -15 2 -3 7 2 10 11 7 17 1 20 -8 4z"/>
<path d="M2217 3561 c10 -16 25 -34 34 -39 12 -8 10 1 -9 28 -29 46 -49 54
-25 11z"/>
<path d="M2150 3550 c0 -5 5 -10 11 -10 5 0 7 5 4 10 -3 6 -8 10 -11 10 -2 0
-4 -4 -4 -10z"/>
<path d="M2134 3525 c2 -17 6 -29 10 -28 3 1 20 4 36 8 48 11 37 31 -14 25
-10 -1 -22 4 -27 12 -5 8 -7 1 -5 -17z"/>
<path d="M2027 3502 c-14 -30 -14 -33 -2 -17 9 11 20 19 25 18 5 -2 8 6 7 17
-2 29 -10 24 -30 -18z"/>
<path d="M2076 3518 c4 -5 12 -7 20 -4 8 3 14 -1 14 -9 0 -8 -7 -15 -15 -15
-8 0 -15 -5 -15 -11 0 -5 3 -8 8 -6 4 2 15 7 25 10 24 9 8 40 -21 42 -12 1
-19 -2 -16 -7z"/>
<path d="M2312 3488 c9 -7 37 -25 63 -41 57 -33 54 -53 -6 -50 -41 2 -43 1
-20 -11 18 -10 20 -15 10 -19 -11 -4 -10 -6 3 -6 9 -1 24 -8 32 -17 18 -17 21
-11 7 15 -8 13 -5 17 14 19 19 1 23 -2 18 -16 -6 -15 -5 -15 10 -3 15 12 17
12 11 -3 -4 -10 1 -25 11 -36 21 -23 4 -27 -19 -5 -8 8 -18 15 -22 15 -3 0 -1
-7 6 -15 9 -11 10 -18 1 -28 -6 -8 -7 -17 -3 -21 4 -5 -2 -6 -13 -4 -11 1 -24
8 -28 13 -5 6 -5 0 -2 -12 4 -14 2 -23 -4 -23 -6 0 -11 21 -11 50 0 45 -2 50
-22 50 -20 -1 -21 -2 -6 -11 14 -8 15 -14 6 -34 -12 -26 -4 -75 12 -75 17 0
90 49 90 60 0 6 11 10 25 10 14 0 25 5 25 11 0 11 68 -35 82 -55 14 -21 -3
-18 -29 5 -15 13 -22 17 -15 8 6 -8 12 -30 14 -47 3 -36 18 -44 18 -10 0 21 0
21 20 -2 11 -13 20 -19 20 -14 0 6 -5 15 -12 22 -6 6 -8 15 -4 19 10 10 35
-23 32 -42 -1 -7 -13 -23 -26 -35 -23 -19 -22 -19 12 2 22 13 38 31 38 42 0
34 31 -4 67 -84 19 -41 44 -86 56 -99 20 -21 132 -101 143 -101 2 0 33 -18 69
-40 72 -44 225 -123 225 -116 0 3 -39 26 -87 52 -180 97 -299 170 -334 207
-20 20 -47 63 -60 95 -12 31 -29 66 -36 78 -7 11 -10 24 -6 27 3 4 1 7 -5 7
-12 0 -26 10 -82 61 -36 33 -52 39 -25 9 30 -33 13 -30 -30 5 -22 19 -37 37
-33 40 3 3 13 -1 22 -10 9 -9 16 -13 16 -8 0 12 -46 63 -56 63 -5 0 -15 9 -22
20 -11 18 -10 20 10 20 27 0 21 5 -14 14 -23 5 -28 3 -28 -11 -1 -16 -2 -16
-13 -2 -7 8 -39 30 -72 48 -33 18 -53 27 -43 19z m153 -98 c3 -6 -1 -7 -9 -4
-18 7 -21 14 -7 14 6 0 13 -4 16 -10z m35 -66 c0 -2 -9 0 -20 6 -11 6 -20 13
-20 16 0 2 9 0 20 -6 11 -6 20 -13 20 -16z m120 -79 c7 -8 8 -15 2 -15 -5 0
-15 7 -22 15 -7 8 -8 15 -2 15 5 0 15 -7 22 -15z"/>
<path d="M2580 3382 c22 -22 40 -46 40 -55 0 -12 56 -57 71 -57 3 0 -27 34
-66 75 -38 41 -74 75 -78 75 -4 0 10 -17 33 -38z"/>
<path d="M1941 3340 c-1 -44 8 -80 21 -80 5 0 6 5 3 11 -4 5 -10 31 -15 57 -7
43 -8 44 -9 12z"/>
<path d="M2382 3315 c0 -16 2 -22 5 -12 2 9 2 23 0 30 -3 6 -5 -1 -5 -18z"/>
<path d="M2178 3285 c-20 -14 -41 -25 -45 -25 -17 0 -113 -96 -113 -113 0 -10
11 -19 26 -23 36 -9 126 1 166 19 132 60 152 55 446 -114 17 -10 32 -15 32
-11 0 11 -232 141 -285 159 -58 19 -124 14 -190 -17 -33 -15 -70 -23 -110 -24
-54 -1 -60 1 -60 19 0 13 22 36 61 65 110 81 119 89 114 89 -3 1 -22 -10 -42
-24z"/>
<path d="M2744 3275 c11 -8 21 -23 22 -32 1 -10 5 -26 9 -35 4 -11 3 -18 -5
-18 -6 0 -9 4 -5 9 6 10 -32 41 -49 41 -6 0 0 -7 12 -16 12 -8 22 -23 22 -32
0 -27 37 -80 60 -87 15 -5 20 -13 17 -26 -3 -10 0 -22 5 -26 7 -3 8 -1 4 5 -4
7 -3 12 3 12 6 0 8 8 4 18 -6 15 -3 14 17 -3 l24 -20 -18 30 c-11 17 -25 34
-32 38 -8 4 -19 18 -26 30 -10 20 -10 21 5 8 11 -8 17 -9 17 -3 0 6 -8 16 -19
21 -23 13 -35 41 -22 54 7 7 16 5 27 -4 10 -8 15 -9 11 -3 -7 12 -82 54 -95
54 -4 0 2 -7 12 -15z m66 -140 c7 -8 8 -15 2 -15 -5 0 -15 7 -22 15 -7 8 -8
15 -2 15 5 0 15 -7 22 -15z"/>
<path d="M2640 3272 c0 -4 14 -16 30 -25 36 -22 41 -6 5 17 -27 18 -35 20 -35
8z"/>
<path d="M710 3263 c8 -3 24 -10 35 -16 18 -9 19 -9 6 6 -7 10 -23 17 -35 16
-14 0 -16 -2 -6 -6z"/>
<path d="M660 3240 c-14 -11 -20 -20 -14 -20 6 0 19 9 29 20 23 25 17 25 -15
0z"/>
<path d="M810 3250 l-45 -7 38 -1 c21 -1 36 -6 33 -10 -3 -5 1 -9 9 -9 8 0 12
4 9 8 -2 4 8 12 23 17 28 10 28 10 3 10 -14 -1 -45 -4 -70 -8z"/>
<path d="M991 3208 c20 -18 50 -53 67 -78 16 -25 45 -58 63 -75 l33 -30 -35
40 c-19 23 -50 62 -67 87 -18 26 -47 56 -65 68 -32 22 -32 22 4 -12z"/>
<path d="M2796 3228 c2 -7 16 -21 29 -31 15 -11 23 -13 19 -5 -2 7 -16 21 -29
31 -15 11 -23 13 -19 5z"/>
<path d="M2865 3211 c-4 -14 -2 -33 6 -48 10 -19 11 -26 0 -32 -9 -6 -2 -17
24 -39 20 -18 39 -32 43 -32 4 0 -8 13 -27 29 -21 17 -30 31 -23 35 6 4 8 14
5 24 -4 9 17 -4 45 -30 28 -27 56 -48 61 -48 6 0 15 -9 21 -20 17 -32 -15 -38
-47 -9 -14 13 -23 18 -18 10 6 -11 4 -13 -11 -8 -14 5 -12 2 6 -13 14 -11 29
-20 34 -20 4 0 6 -6 3 -13 -3 -8 -1 -20 4 -28 7 -11 9 -11 9 4 0 9 5 17 11 17
6 0 9 -6 6 -14 -3 -8 2 -16 14 -19 10 -3 19 -1 19 4 0 5 3 8 8 8 22 -4 32 3
32 23 0 30 10 16 16 -22 4 -24 2 -30 -7 -25 -7 5 -10 4 -6 -3 4 -5 16 -8 26
-5 20 5 20 16 -2 60 -6 13 -8 26 -4 29 3 4 12 -5 18 -19 7 -15 15 -24 19 -22
4 3 14 -3 21 -12 12 -15 12 -16 -3 -10 -36 13 -16 -3 47 -38 62 -35 84 -62 69
-86 -3 -6 -9 -7 -13 -3 -3 5 -22 18 -41 28 -19 10 -48 31 -63 45 -16 14 -25
19 -22 11 4 -8 31 -34 61 -58 39 -30 61 -41 75 -37 29 9 24 -19 -7 -40 -14 -9
-35 -15 -45 -12 -10 3 -17 1 -13 -4 3 -5 16 -9 30 -9 25 0 33 -15 12 -23 -7
-3 -3 -6 10 -6 13 -1 20 3 17 9 -3 6 1 10 10 10 9 0 13 -4 10 -10 -3 -5 -1
-10 5 -10 6 0 10 8 8 18 -2 10 -11 16 -21 14 -18 -3 -23 13 -7 23 14 9 52 -14
44 -27 -5 -7 -2 -8 6 -3 10 6 12 4 7 -8 -4 -11 -1 -17 8 -17 17 0 10 25 -14
54 -16 19 -15 19 9 3 13 -9 34 -17 47 -17 12 0 24 -4 27 -9 4 -5 -4 -7 -16 -4
-23 4 -23 4 -3 -12 13 -11 16 -19 8 -22 -20 -7 19 -63 45 -63 23 0 48 42 37
61 -4 5 1 6 10 3 12 -5 13 -9 4 -20 -7 -9 -8 -14 -1 -14 9 0 26 30 20 35 -15
12 -50 25 -57 21 -4 -3 -21 8 -37 25 -16 17 -38 35 -49 40 -16 8 -15 6 4 -10
18 -16 19 -21 7 -21 -18 0 -56 34 -56 51 0 5 6 7 13 3 9 -5 9 -3 -1 7 -11 12
-14 12 -22 -1 -11 -17 -24 -6 -35 28 l-7 23 34 -16 c18 -10 40 -22 49 -29 8
-6 3 1 -12 15 -14 15 -48 34 -75 44 -27 10 -56 24 -65 32 -8 7 -22 13 -29 13
-7 0 -11 3 -7 6 9 9 -20 64 -51 97 -21 22 -34 27 -75 27 -26 0 -58 5 -70 12
-29 15 -87 76 -87 92 0 7 -6 21 -14 31 -13 18 -14 18 -21 -4z m25 -41 c0 -13
-1 -13 -10 0 -5 8 -10 22 -10 30 0 13 1 13 10 0 5 -8 10 -22 10 -30z m197
-128 c12 -27 12 -27 -5 -6 -17 20 -20 20 -31 5 -6 -9 -9 -10 -6 -3 3 6 1 12
-5 12 -6 0 -8 5 -5 10 12 19 40 10 52 -18z m62 -36 c0 -6 -5 -1 -11 12 -6 12
-15 22 -20 22 -4 0 -8 6 -8 13 1 6 10 1 20 -12 11 -13 20 -28 19 -35z m302
-285 c6 10 9 6 9 -13 0 -20 -4 -26 -15 -22 -8 4 -15 16 -14 28 0 12 3 16 6 7
5 -11 7 -11 14 0z"/>
<path d="M623 3198 c-23 -30 -64 -110 -60 -115 3 -3 15 15 27 39 12 23 29 51
38 61 8 9 13 19 10 22 -3 3 -10 0 -15 -7z"/>
<path d="M915 3190 c10 -11 20 -20 23 -20 3 0 -3 9 -13 20 -10 11 -20 20 -23
20 -3 0 3 -9 13 -20z"/>
<path d="M2707 3199 c7 -7 15 -10 18 -7 3 3 -2 9 -12 12 -14 6 -15 5 -6 -5z"/>
<path d="M830 3193 c8 -3 22 -11 30 -17 13 -10 13 -9 1 7 -7 9 -21 17 -30 16
-13 0 -14 -1 -1 -6z"/>
<path d="M890 3171 c0 -5 5 -13 10 -16 6 -3 10 -2 10 4 0 5 -4 13 -10 16 -5 3
-10 2 -10 -4z"/>
<path d="M2296 3162 c-3 -3 -32 -16 -63 -29 -51 -21 -80 -30 -118 -35 -5 -1
-11 -12 -12 -26 -1 -22 2 -24 35 -19 53 6 176 41 180 50 2 4 9 3 16 -2 8 -7
12 -4 12 10 0 14 -5 19 -18 16 -10 -3 -20 -1 -23 3 -7 11 31 23 45 15 17 -11
54 -15 44 -5 -11 11 -91 30 -98 22z m-51 -51 c3 -6 -4 -15 -15 -21 -19 -10
-20 -10 -8 9 15 24 15 24 23 12z m-45 -20 c0 -5 -7 -11 -14 -14 -10 -4 -13 -1
-9 9 6 15 23 19 23 5z m-40 -12 c0 -9 -31 -21 -38 -14 -3 3 0 5 7 5 7 0 10 4
7 8 -3 5 1 9 9 9 8 0 15 -4 15 -8z"/>
<path d="M2550 3159 c0 -11 27 -12 34 -1 2 4 -4 9 -15 9 -10 1 -19 -2 -19 -8z"/>
<path d="M2664 3155 c12 -41 45 -120 46 -109 0 17 -32 108 -42 119 -7 7 -8 3
-4 -10z"/>
<path d="M999 3112 c5 -10 18 -25 27 -33 11 -9 9 -2 -6 19 -26 35 -36 42 -21
14z"/>
<path d="M2446 3107 c3 -10 9 -15 12 -12 3 3 0 11 -7 18 -10 9 -11 8 -5 -6z"/>
<path d="M810 3095 c7 -8 17 -15 22 -15 6 0 5 7 -2 15 -7 8 -17 15 -22 15 -6
0 -5 -7 2 -15z"/>
<path d="M780 3095 c0 -11 88 -93 113 -106 12 -6 18 -7 12 -2 -76 72 -125 114
-125 108z"/>
<path d="M940 3091 c0 -5 7 -12 16 -15 14 -5 15 -4 4 9 -14 17 -20 19 -20 6z"/>
<path d="M2370 3091 c0 -10 30 -24 37 -17 3 2 -5 9 -16 16 -12 6 -21 7 -21 1z"/>
<path d="M2473 3085 c-6 -7 -9 -16 -5 -20 4 -4 -4 -4 -18 -1 l-25 7 25 -15
c27 -17 55 -22 30 -6 -11 7 -11 10 -2 10 7 0 10 5 7 10 -9 14 18 12 34 -2 11
-10 12 -10 7 -1 -13 23 -40 32 -53 18z"/>
<path d="M750 3075 c0 -8 2 -15 4 -15 2 0 6 7 10 15 3 8 1 15 -4 15 -6 0 -10
-7 -10 -15z"/>
<path d="M541 3044 c-9 -21 -9 -30 0 -38 9 -8 10 -8 5 1 -4 7 -2 22 4 34 7 11
10 23 7 25 -2 2 -9 -8 -16 -22z"/>
<path d="M2020 3055 c0 -8 5 -15 10 -15 6 0 10 7 10 15 0 8 -4 15 -10 15 -5 0
-10 -7 -10 -15z"/>
<path d="M900 3050 c0 -5 5 -10 11 -10 5 0 7 5 4 10 -3 6 -8 10 -11 10 -2 0
-4 -4 -4 -10z"/>
<path d="M2290 3045 c14 -7 27 -11 30 -9 6 7 -22 24 -40 23 -9 0 -5 -6 10 -14z"/>
<path d="M2550 3052 c1 -9 112 -74 117 -68 2 2 -24 19 -57 39 -33 20 -60 33
-60 29z"/>
<path d="M740 3044 c0 -12 112 -116 132 -123 7 -2 -14 20 -45 49 -31 29 -57
57 -57 62 0 5 5 6 10 3 6 -3 10 -1 10 4 0 6 -7 11 -15 11 -8 0 -15 -6 -15 -12
0 -9 -4 -8 -10 2 -5 8 -10 10 -10 4z"/>
<path d="M870 3046 c0 -2 8 -10 18 -17 15 -13 16 -12 3 4 -13 16 -21 21 -21
13z"/>
<path d="M2068 3043 c7 -3 16 -2 19 1 4 3 -2 6 -13 5 -11 0 -14 -3 -6 -6z"/>
<path d="M2185 3030 c3 -5 11 -10 16 -10 6 0 7 5 4 10 -3 6 -11 10 -16 10 -6
0 -7 -4 -4 -10z"/>
<path d="M2227 3017 c-10 -10 -24 -16 -31 -14 -10 4 -13 -11 -13 -59 1 -40 5
-63 12 -61 5 2 10 10 10 17 0 7 6 15 14 18 8 3 11 0 7 -7 -4 -6 -1 -11 8 -11
9 0 16 7 16 15 0 8 6 12 15 9 23 -9 37 5 25 27 -7 13 -7 19 0 19 5 0 10 -7 10
-15 0 -16 27 -20 46 -7 16 10 13 41 -3 35 -9 -3 -11 0 -7 10 3 8 1 18 -5 21
-5 4 -12 -3 -16 -13 -6 -19 -35 -19 -35 0 0 4 7 6 15 3 11 -4 13 -2 9 9 -8 23
-56 26 -77 4z m16 -24 c-7 -2 -19 -2 -25 0 -7 3 -2 5 12 5 14 0 19 -2 13 -5z
m-6 -19 c-3 -3 -12 -4 -19 -1 -8 3 -5 6 6 6 11 1 17 -2 13 -5z m3 -28 c0 -9
-30 -14 -35 -6 -4 6 3 10 14 10 12 0 21 -2 21 -4z"/>
<path d="M2511 3024 c26 -33 40 -72 27 -80 -7 -4 -8 -3 -4 5 4 6 -12 -2 -35
-18 -24 -16 -48 -27 -54 -25 -5 2 -17 -2 -25 -9 -21 -16 -48 -53 -33 -44 16
10 45 -3 40 -17 -3 -7 4 -12 14 -12 17 0 17 2 2 18 -9 10 -13 21 -10 25 4 3 7
2 7 -2 0 -5 7 0 15 11 13 17 14 17 15 2 0 -12 32 -33 103 -68 56 -28 93 -44
83 -35 -11 8 -25 15 -30 16 -6 0 -2 5 9 10 18 8 18 9 -4 5 -30 -6 -147 52
-154 76 -7 24 21 47 34 27 5 -8 9 -18 9 -22 0 -5 4 -6 9 -3 5 3 14 -1 21 -9 7
-8 18 -15 24 -15 6 0 3 7 -6 14 -10 7 -18 22 -19 32 0 11 -3 13 -6 7 -2 -7 -9
-13 -15 -13 -6 0 -3 9 7 20 14 16 20 17 27 8 5 -9 8 -2 9 17 1 17 3 22 6 13 2
-10 8 -18 13 -18 4 0 6 9 3 19 -4 16 -1 19 19 14 l23 -6 -24 22 c-28 24 -41
26 -60 9 -8 -7 -11 -8 -8 -3 2 6 -7 19 -22 29 -26 19 -26 19 -10 0z m-61 -128
c0 -3 -4 -8 -10 -11 -5 -3 -10 -1 -10 4 0 6 5 11 10 11 6 0 10 -2 10 -4z"/>
<path d="M800 3023 c0 -10 80 -67 86 -61 2 3 -16 19 -41 37 -25 18 -45 29 -45
24z"/>
<path d="M1160 3025 c0 -10 83 -45 105 -44 11 0 2 6 -20 13 -22 7 -50 18 -62
25 -13 6 -23 9 -23 6z"/>
<path d="M2143 3013 c4 -6 0 -19 -8 -29 -13 -18 -14 -18 -20 -1 -4 9 -12 17
-17 17 -6 0 -5 -6 2 -15 11 -13 8 -15 -14 -15 -14 0 -26 4 -26 9 0 5 -8 12
-17 15 -12 4 -9 -2 8 -17 19 -17 35 -22 60 -20 19 2 40 4 47 5 17 2 11 50 -7
56 -8 3 -11 0 -8 -5z"/>
<path d="M1865 3000 c-4 -7 -15 -10 -25 -7 -22 6 -33 -16 -17 -33 9 -10 9 -14
-1 -17 -13 -5 -7 -23 9 -23 6 0 8 4 5 8 -2 4 4 14 16 21 11 7 17 8 13 2 -4 -7
5 -11 25 -11 30 0 31 -1 14 -17 -17 -17 -17 -18 0 -21 11 -3 15 -9 12 -19 -5
-12 -1 -14 16 -10 14 4 38 -3 65 -18 23 -14 48 -25 55 -24 7 0 3 5 -9 11 -31
15 -29 30 2 18 38 -14 30 4 -10 23 -19 9 -35 21 -35 27 0 15 5 13 64 -25 63
-40 65 -41 92 -19 10 8 14 13 7 9 -7 -3 -27 8 -45 26 -28 27 -30 31 -10 25 13
-5 22 -3 22 3 0 6 5 11 11 11 8 0 8 -4 0 -14 -10 -12 -8 -17 9 -26 19 -10 20
-8 18 20 -2 32 -8 33 -63 21 -19 -5 -38 -2 -52 7 -14 9 -23 10 -28 3 -3 -6 0
-11 8 -11 7 0 22 -8 33 -18 10 -9 32 -27 48 -40 16 -12 24 -22 18 -22 -12 0
-83 46 -92 59 -8 12 -61 37 -95 45 l-30 7 25 -21 c35 -28 21 -25 -19 4 -18 14
-39 22 -47 19 -8 -3 -14 -1 -14 5 0 6 6 12 13 15 6 2 9 7 6 11 -4 4 -10 2 -14
-4z m131 -117 c-2 -3 -14 -2 -27 2 -16 6 -18 9 -8 16 13 7 45 -9 35 -18z"/>
<path d="M1916 2997 c3 -10 9 -15 12 -12 3 3 0 11 -7 18 -10 9 -11 8 -5 -6z"/>
<path d="M1963 2990 c14 -11 29 -20 34 -20 10 1 -39 39 -51 40 -5 0 3 -9 17
-20z"/>
<path d="M2715 3000 c3 -5 8 -10 11 -10 2 0 4 5 4 10 0 6 -5 10 -11 10 -5 0
-7 -4 -4 -10z"/>
<path d="M2866 2992 c-2 -4 4 -8 14 -8 10 0 16 4 14 8 -3 4 -9 8 -14 8 -5 0
-11 -4 -14 -8z"/>
<path d="M723 2945 c0 -22 2 -30 4 -17 2 12 2 30 0 40 -3 9 -5 -1 -4 -23z"/>
<path d="M2925 2960 c10 -11 20 -20 23 -20 3 0 -3 9 -13 20 -10 11 -20 20 -23
20 -3 0 3 -9 13 -20z"/>
<path d="M780 2967 c0 -2 15 -16 33 -33 l32 -29 -29 33 c-28 30 -36 37 -36 29z"/>
<path d="M1075 2952 c11 -13 29 -28 40 -34 21 -11 18 -8 -30 32 -29 24 -29 24
-10 2z"/>
<path d="M1156 2955 c4 -8 11 -15 16 -15 6 0 5 6 -2 15 -7 8 -14 15 -16 15 -2
0 -1 -7 2 -15z"/>
<path d="M540 2950 c0 -5 4 -10 9 -10 6 0 13 5 16 10 3 6 -1 10 -9 10 -9 0
-16 -4 -16 -10z"/>
<path d="M750 2951 c0 -6 4 -13 10 -16 6 -3 7 1 4 9 -7 18 -14 21 -14 7z"/>
<path d="M2667 2949 c7 -7 15 -10 18 -7 3 3 -2 9 -12 12 -14 6 -15 5 -6 -5z"/>
<path d="M910 2935 c13 -22 150 -120 150 -108 0 8 -64 54 -85 62 -5 2 -25 18
-44 35 -20 19 -29 23 -21 11z"/>
<path d="M2985 2940 c-3 -5 -1 -10 4 -10 6 0 11 5 11 10 0 6 -2 10 -4 10 -3 0
-8 -4 -11 -10z"/>
<path d="M1022 2924 c10 -10 20 -16 22 -13 3 3 -5 11 -17 18 -21 13 -21 12 -5
-5z"/>
<path d="M1201 2936 c2 -2 15 -9 29 -15 24 -11 24 -11 6 3 -16 13 -49 24 -35
12z"/>
<path d="M525 2919 c-9 -14 -2 -20 14 -10 8 6 9 11 3 15 -6 3 -14 1 -17 -5z"/>
<path d="M666 2915 c4 -8 8 -15 10 -15 2 0 4 7 4 15 0 8 -4 15 -10 15 -5 0 -7
-7 -4 -15z"/>
<path d="M1687 2922 c-26 -6 -10 -22 23 -22 15 0 30 -6 33 -12 2 -7 7 -10 11
-7 11 10 -47 46 -67 41z"/>
<path d="M1786 2916 c3 -8 15 -17 27 -20 31 -8 30 -2 -3 18 -24 13 -29 14 -24
2z"/>
<path d="M2700 2926 c0 -2 7 -7 16 -10 8 -3 12 -2 9 4 -6 10 -25 14 -25 6z"/>
<path d="M3115 2921 c-3 -5 -1 -12 5 -16 5 -3 10 1 10 9 0 18 -6 21 -15 7z"/>
<path d="M750 2909 c0 -6 -6 -17 -14 -25 -12 -12 -19 -12 -51 2 -21 8 -39 13
-42 11 -2 -3 17 -13 44 -23 26 -9 63 -23 82 -31 42 -16 53 -10 14 9 -22 11
-27 19 -25 41 2 15 1 27 -2 27 -3 0 -6 -5 -6 -11z"/>
<path d="M1270 2912 c0 -6 9 -12 20 -15 11 -3 20 -3 20 -1 0 2 -9 8 -20 14
-11 6 -20 7 -20 2z"/>
<path d="M850 2900 c0 -6 7 -13 15 -17 24 -9 27 1 5 15 -13 8 -20 8 -20 2z"/>
<path d="M1440 2904 c0 -10 33 -33 48 -34 6 0 12 5 12 12 0 6 -3 8 -7 5 -3 -4
-17 0 -30 8 -13 9 -23 12 -23 9z"/>
<path d="M1640 2900 c0 -5 5 -10 11 -10 5 0 7 5 4 10 -3 6 -8 10 -11 10 -2 0
-4 -4 -4 -10z"/>
<path d="M2600 2900 c35 -24 54 -31 30 -11 -14 11 -29 21 -35 21 -5 0 -3 -5 5
-10z"/>
<path d="M770 2883 c0 -15 2 -15 9 -4 7 11 10 10 14 -5 4 -16 5 -16 6 4 1 13
-5 22 -14 22 -8 0 -15 -8 -15 -17z"/>
<path d="M820 2891 c0 -6 4 -11 9 -11 5 0 12 -8 14 -17 4 -15 5 -15 6 -2 0 9
-6 22 -14 29 -10 9 -15 9 -15 1z"/>
<path d="M1218 2887 c12 -7 19 -16 16 -20 -4 -4 -2 -7 4 -7 7 0 12 5 12 11 0
6 7 8 18 4 10 -4 13 -3 7 3 -5 5 -26 12 -45 15 -32 6 -33 6 -12 -6z"/>
<path d="M908 2883 c7 -3 16 -2 19 1 4 3 -2 6 -13 5 -11 0 -14 -3 -6 -6z"/>
<path d="M1030 2883 c0 -4 30 -33 65 -63 36 -30 65 -58 65 -62 0 -17 -19 -6
-54 29 -21 22 -36 31 -36 23 0 -8 16 -26 35 -39 36 -24 45 -41 23 -41 -16 0
-40 15 -39 24 2 9 -64 66 -75 66 -5 0 -2 -6 6 -13 8 -7 23 -22 33 -33 17 -21
17 -21 -17 -10 -19 6 -33 13 -31 16 2 3 -13 6 -32 7 -47 2 -37 -5 44 -32 37
-13 82 -29 98 -36 17 -7 36 -13 44 -15 7 -1 35 -12 62 -23 26 -12 55 -21 63
-21 9 0 24 -4 34 -9 54 -28 160 -56 170 -46 3 3 0 5 -7 5 -8 0 -11 6 -7 16 4
10 -3 26 -19 42 -31 31 -24 44 8 14 22 -21 23 -21 23 -2 0 12 -6 19 -14 17 -8
-1 -21 9 -31 23 l-16 24 25 -17 c13 -9 31 -17 40 -17 11 1 9 4 -5 12 -11 6
-23 16 -26 21 -4 5 -16 6 -28 2 -18 -5 -20 -9 -10 -21 38 -46 -49 2 -119 65
-27 25 -33 26 -26 6 4 -8 3 -15 -1 -15 -3 0 -13 7 -21 15 -17 17 -39 21 -29 5
3 -5 20 -19 37 -32 26 -18 30 -19 25 -5 -3 9 -4 17 -2 17 10 0 145 -102 145
-110 0 -11 -75 28 -95 51 -22 23 -40 25 -31 3 8 -20 -48 18 -89 61 -16 18 -38
35 -47 38 -10 4 14 -25 53 -63 62 -60 74 -68 94 -60 18 7 25 5 29 -7 4 -10 2
-14 -8 -10 -7 3 -18 1 -24 -5 -14 -14 -112 21 -112 41 0 11 4 10 20 -4 11 -10
23 -16 26 -12 11 11 -6 25 -36 32 -16 4 -33 11 -37 17 -4 7 0 9 10 5 29 -11
19 -1 -38 38 -30 21 -55 42 -55 46 0 4 -13 17 -30 29 -16 12 -30 18 -30 13z
m155 -154 c4 -6 5 -12 2 -15 -7 -7 -37 7 -37 17 0 13 27 11 35 -2z m263 -82
c7 3 10 -1 6 -10 -5 -13 -10 -14 -38 -2 -19 8 -35 12 -38 10 -2 -2 -4 5 -5 16
-2 20 -2 20 30 1 18 -11 38 -17 45 -15z m-93 13 c8 -13 -5 -13 -25 0 -13 8
-13 10 2 10 9 0 20 -4 23 -10z"/>
<path d="M1670 2879 c0 -5 14 -9 32 -9 36 0 32 10 -6 14 -14 2 -26 -1 -26 -5z"/>
<path d="M1790 2875 c7 -8 17 -15 23 -15 5 0 16 -8 24 -17 13 -16 13 -16 3 5
-6 12 -17 22 -25 22 -8 0 -15 5 -15 10 0 6 -5 10 -11 10 -8 0 -8 -5 1 -15z"/>
<path d="M2787 2879 c7 -7 15 -10 18 -7 3 3 -2 9 -12 12 -14 6 -15 5 -6 -5z"/>
<path d="M2820 2886 c0 -2 7 -7 16 -10 8 -3 12 -2 9 4 -6 10 -25 14 -25 6z"/>
<path d="M511 2864 c0 -11 3 -14 6 -6 3 7 2 16 -1 19 -3 4 -6 -2 -5 -13z"/>
<path d="M1396 2867 c-15 -11 -12 -12 23 -9 23 2 38 8 35 13 -8 13 -37 11 -58
-4z"/>
<path d="M1627 2869 c7 -7 15 -10 18 -7 3 3 -2 9 -12 12 -14 6 -15 5 -6 -5z"/>
<path d="M1870 2871 c0 -6 16 -21 35 -33 19 -13 35 -26 35 -30 0 -10 -69 -28
-86 -21 -8 3 -14 12 -14 20 0 11 -7 14 -21 10 -14 -4 -29 2 -46 19 -13 13 -29
24 -36 24 -7 0 -4 -7 6 -14 15 -11 15 -15 3 -19 -8 -3 -21 4 -30 16 -15 22
-15 21 -6 -5 6 -18 6 -28 0 -28 -18 0 -6 -24 19 -37 39 -21 48 -15 16 12 -16
13 -25 24 -18 25 6 0 15 -4 18 -10 10 -16 28 -12 21 5 -3 8 -1 15 4 15 6 0 10
-10 10 -22 1 -32 23 -58 49 -58 11 0 21 -4 21 -10 0 -5 7 -7 15 -4 8 4 15 9
15 13 0 10 -51 33 -58 26 -6 -6 -32 14 -32 26 0 5 9 9 20 9 11 0 20 -3 20 -8
0 -4 9 -13 21 -20 16 -10 24 -10 35 -1 11 9 14 8 14 -6 0 -12 5 -15 16 -11 9
3 21 6 27 7 7 1 1 5 -13 9 -24 8 -23 8 8 9 18 1 31 5 27 10 -3 5 -1 12 4 15 5
4 12 2 16 -4 3 -5 11 -10 17 -10 7 0 7 5 -1 14 -6 7 -9 20 -6 28 4 9 -4 19
-20 26 -33 15 -42 15 -27 0 7 -7 12 -16 12 -20 0 -15 -21 -8 -56 18 -19 15
-34 21 -34 15z"/>
<path d="M2343 2850 c-5 -20 -44 -37 -61 -26 -4 3 -23 -4 -40 -15 -18 -10 -40
-19 -50 -19 -13 0 -14 -2 -4 -9 7 -4 12 -14 10 -22 -2 -8 4 -14 12 -14 9 0 15
9 15 22 0 12 4 25 8 29 4 4 7 1 7 -7 0 -8 20 -22 45 -32 24 -11 56 -28 70 -39
l26 -20 -26 -22 c-20 -18 -23 -24 -13 -35 10 -11 10 -12 1 -7 -7 4 -13 2 -13
-3 0 -6 9 -11 21 -11 11 0 17 5 14 10 -3 6 -2 10 4 10 5 0 11 -4 13 -9 2 -5
17 -12 33 -15 28 -6 29 -6 7 6 -20 10 -22 16 -16 51 4 26 3 37 -4 33 -6 -3
-14 -2 -17 4 -4 6 -33 24 -65 40 -50 25 -57 32 -52 52 3 12 7 17 10 10 2 -6
10 -12 18 -12 8 0 26 -7 40 -16 22 -15 24 -15 18 0 -3 9 -10 14 -14 11 -5 -3
-11 -1 -15 5 -3 5 0 10 8 10 9 0 17 13 19 30 5 34 -1 41 -9 10z"/>
<path d="M890 2850 c19 -13 30 -13 30 0 0 6 -10 10 -22 10 -19 0 -20 -2 -8
-10z"/>
<path d="M1192 2840 c7 -11 17 -20 22 -20 5 0 1 9 -9 20 -10 11 -20 20 -22 20
-2 0 2 -9 9 -20z"/>
<path d="M1470 2850 c0 -5 5 -10 11 -10 5 0 7 5 4 10 -3 6 -8 10 -11 10 -2 0
-4 -4 -4 -10z"/>
<path d="M1780 2850 c0 -5 5 -10 11 -10 5 0 7 5 4 10 -3 6 -8 10 -11 10 -2 0
-4 -4 -4 -10z"/>
<path d="M2696 2846 c49 -35 234 -127 234 -117 0 6 -6 11 -14 11 -8 0 -18 5
-22 11 -4 8 1 9 17 4 13 -4 21 -4 17 0 -4 4 -22 9 -41 10 -18 2 -71 24 -116
49 -83 46 -114 59 -75 32z"/>
<path d="M3110 2853 c0 -6 8 -17 18 -24 16 -13 16 -13 2 6 -8 11 -16 22 -17
24 -2 2 -3 0 -3 -6z"/>
<path d="M860 2846 c0 -2 8 -10 18 -17 15 -13 16 -12 3 4 -13 16 -21 21 -21
13z"/>
<path d="M1230 2841 c0 -9 30 -24 36 -18 2 1 -6 8 -16 15 -11 7 -20 8 -20 3z"/>
<path d="M1300 2846 c0 -2 7 -7 16 -10 8 -3 12 -2 9 4 -6 10 -25 14 -25 6z"/>
<path d="M1425 2840 c28 -12 37 -12 30 0 -3 6 -16 10 -28 9 -21 0 -21 -1 -2
-9z"/>
<path d="M1625 2840 c3 -5 8 -10 11 -10 2 0 4 5 4 10 0 6 -5 10 -11 10 -5 0
-7 -4 -4 -10z"/>
<path d="M1660 2846 c0 -2 7 -7 16 -10 8 -3 12 -2 9 4 -6 10 -25 14 -25 6z"/>
<path d="M2310 2839 c0 -5 5 -7 10 -4 6 3 10 8 10 11 0 2 -4 4 -10 4 -5 0 -10
-5 -10 -11z"/>
<path d="M2630 2836 c0 -3 9 -10 20 -16 11 -6 20 -8 20 -6 0 3 -9 10 -20 16
-11 6 -20 8 -20 6z"/>
<path d="M2910 2836 c0 -2 7 -7 16 -10 8 -3 12 -2 9 4 -6 10 -25 14 -25 6z"/>
<path d="M836 2821 c5 -5 20 -12 34 -15 l25 -7 -25 15 c-28 17 -50 21 -34 7z"/>
<path d="M903 2811 c-1 -10 5 -22 13 -25 17 -7 18 5 1 28 -12 16 -13 16 -14
-3z"/>
<path d="M3433 2819 c15 -6 25 -15 22 -19 -3 -5 0 -12 6 -16 8 -4 9 -3 5 4 -4
8 0 12 12 12 26 0 34 -11 20 -29 -10 -13 -10 -14 1 -4 11 9 17 9 28 -3 8 -8
20 -14 26 -14 17 1 -51 57 -76 63 -74 18 -74 18 -44 6z"/>
<path d="M1428 2808 c9 -11 10 -18 2 -23 -18 -11 -11 -26 13 -23 12 2 23 -1
24 -6 3 -14 48 -33 77 -33 14 0 23 4 20 9 -3 5 -14 6 -25 3 -12 -4 -27 2 -44
19 -14 14 -30 26 -36 26 -6 0 -8 4 -4 9 3 6 -5 15 -17 22 -20 11 -22 11 -10
-3z"/>
<path d="M1870 2810 c20 -13 53 -13 45 0 -3 6 -18 10 -33 10 -21 0 -24 -2 -12
-10z"/>
<path d="M2030 2816 c0 -2 9 -6 20 -9 11 -3 20 -1 20 4 0 5 -9 9 -20 9 -11 0
-20 -2 -20 -4z"/>
<path d="M2401 2801 c50 -23 68 -39 66 -61 -1 -21 -21 -16 -51 12 -11 10 -27
18 -35 18 -9 -1 -4 -8 13 -16 16 -9 24 -19 18 -23 -7 -4 -6 -13 4 -26 11 -15
17 -16 26 -7 7 7 23 12 36 12 21 0 22 2 12 15 -8 10 -9 15 -2 15 6 0 9 6 6 14
-5 13 -105 67 -121 65 -4 0 8 -8 28 -18z"/>
<path d="M3160 2816 c0 -2 8 -10 18 -17 15 -13 16 -12 3 4 -13 16 -21 21 -21
13z"/>
<path d="M950 2805 c0 -8 29 -12 39 -5 9 5 4 8 -13 8 -14 0 -26 -2 -26 -3z"/>
<path d="M1380 2801 c0 -5 7 -12 16 -15 14 -5 15 -4 4 9 -14 17 -20 19 -20 6z"/>
<path d="M1618 2803 c7 -3 16 -2 19 1 4 3 -2 6 -13 5 -11 0 -14 -3 -6 -6z"/>
<path d="M2952 2801 c-11 -7 -11 -9 0 -14 9 -3 15 1 15 9 0 8 -1 14 -1 14 -1
0 -7 -4 -14 -9z"/>
<path d="M466 2665 c-25 -130 -33 -205 -20 -192 3 3 7 29 9 57 2 28 14 98 25
156 12 58 20 108 17 110 -2 3 -16 -56 -31 -131z"/>
<path d="M2510 2796 c0 -9 101 -58 107 -52 3 3 -16 16 -43 28 -27 12 -52 24
-56 26 -5 2 -8 1 -8 -2z"/>
<path d="M1348 2783 c7 -3 16 -2 19 1 4 3 -2 6 -13 5 -11 0 -14 -3 -6 -6z"/>
<path d="M1636 2781 c-3 -5 5 -12 19 -15 14 -4 25 -10 25 -15 0 -5 8 -7 19 -4
27 7 65 -44 49 -66 -10 -13 -8 -13 7 1 16 15 16 19 4 34 -13 16 -12 17 13 11
14 -4 33 -10 42 -13 9 -3 16 -2 16 3 0 5 -6 10 -12 11 -69 10 -88 16 -88 29 0
11 -7 13 -23 9 -13 -3 -32 1 -45 9 -11 9 -23 11 -26 6z"/>
<path d="M2735 2774 c11 -8 19 -19 18 -24 -2 -5 4 -7 11 -4 14 5 76 -21 76
-32 0 -4 -11 -3 -24 0 -14 3 -28 2 -31 -4 -6 -10 20 -15 66 -11 23 2 26 -1 22
-24 -5 -24 -23 -46 -23 -28 0 5 -43 7 -94 6 -52 -1 -116 1 -141 6 -29 5 -43 5
-38 0 13 -13 55 -20 135 -23 37 -1 71 -6 75 -10 5 -5 -2 -5 -14 -2 -32 10 -29
-2 3 -14 l26 -10 -29 -34 c-34 -41 -58 -49 -131 -41 -85 10 -341 11 -335 2 2
-4 49 -6 104 -5 80 2 102 0 109 -12 7 -10 10 -11 10 -2 0 6 8 12 18 12 14 0
15 -2 2 -10 -11 -7 -5 -10 23 -10 33 0 38 -3 32 -19 -4 -14 0 -23 14 -30 30
-16 38 -13 13 5 -23 16 -21 34 3 34 8 0 39 -11 69 -25 30 -14 58 -25 63 -25
13 0 -49 36 -82 47 -26 9 -28 12 -11 18 11 5 27 3 38 -4 17 -10 22 -9 34 6 7
10 14 15 14 10 0 -4 14 7 30 25 18 19 30 27 29 18 -3 -28 1 -40 12 -40 5 0 7
5 4 10 -3 6 -4 10 0 10 12 0 104 -50 110 -61 13 -20 -10 -30 -41 -19 -23 9
-27 9 -16 -1 20 -21 14 -29 -21 -29 -18 0 -38 -5 -45 -12 -9 -9 -13 -7 -18 5
-3 9 -11 17 -17 17 -8 0 -8 -3 0 -11 13 -13 6 -71 -14 -109 l-13 -25 0 32 c0
17 -4 34 -8 37 -4 2 -8 -11 -8 -30 0 -20 -6 -39 -14 -45 -10 -6 -11 -9 -2 -9
15 0 16 -24 2 -50 -9 -16 -15 -18 -37 -9 -14 5 -28 8 -30 5 -2 -2 18 -11 45
-20 28 -10 53 -24 56 -32 3 -7 11 -14 17 -14 7 0 -2 13 -19 30 -17 16 -27 32
-22 35 5 3 18 -3 30 -15 11 -11 18 -20 15 -20 -3 0 0 -6 7 -14 7 -8 16 -12 21
-9 4 2 8 -6 8 -19 1 -15 3 -17 6 -7 2 10 -5 37 -16 60 -10 24 -22 51 -25 59
-3 8 -5 0 -3 -17 2 -18 0 -33 -5 -33 -16 0 -7 50 17 93 13 25 21 48 17 52 -4
3 0 5 8 3 8 -1 19 7 25 20 5 12 13 22 18 22 4 0 5 -4 2 -10 -9 -15 -3 -13 51
18 42 23 49 31 46 55 -3 20 1 27 14 27 12 0 15 -6 11 -25 -2 -15 0 -24 6 -22
14 4 19 44 7 52 -6 3 -10 11 -10 17 0 6 9 3 20 -7 12 -10 18 -25 16 -32 -7
-17 13 -16 44 3 22 13 22 14 3 9 -16 -4 -23 -1 -28 14 -3 12 -19 22 -38 27
-18 3 -53 17 -79 30 -26 13 -51 24 -55 24 -4 -1 18 -14 50 -31 58 -30 73 -49
37 -49 -22 0 -115 44 -124 58 -3 5 6 15 19 22 13 7 21 18 18 24 -4 7 -2 7 8
-1 8 -6 19 -12 24 -13 30 -5 164 -74 159 -81 -3 -5 2 -9 10 -9 9 0 16 5 16 11
0 5 4 8 10 4 5 -3 7 -12 3 -20 -3 -11 -1 -13 10 -9 12 4 13 12 7 35 -7 24 -6
29 8 29 15 1 15 2 2 9 -8 5 -28 11 -45 14 l-30 6 27 -12 c20 -9 25 -16 18 -27
-7 -11 -10 -11 -10 -2 0 9 -5 10 -16 4 -12 -7 -28 -4 -53 9 -20 10 -53 25 -73
35 -35 15 -38 19 -37 58 1 30 3 35 7 18 4 -13 11 -23 16 -22 5 1 13 -4 18 -12
8 -10 9 -10 5 2 -2 8 -10 14 -16 13 -6 -2 -11 4 -11 12 0 9 6 12 15 9 24 -10
17 6 -7 16 -13 6 -30 14 -38 20 -32 20 -184 89 -165 74z m135 -361 c-8 -3 -20
-10 -26 -14 -7 -5 -11 -3 -11 6 0 10 10 15 26 14 16 0 20 -3 11 -6z m-53 -35
c-3 -8 -6 -5 -6 6 -1 11 2 17 5 13 3 -3 4 -12 1 -19z"/>
<path d="M660 2770 c0 -6 -4 -9 -9 -5 -6 3 -15 -5 -22 -17 -11 -21 -11 -22 4
-10 12 10 21 11 36 2 16 -8 21 -8 21 1 0 7 10 9 28 5 22 -5 24 -4 10 4 -10 6
-21 11 -25 11 -5 1 -16 5 -25 10 -12 7 -18 6 -18 -1z"/>
<path d="M2987 2769 c7 -7 15 -10 18 -7 3 3 -2 9 -12 12 -14 6 -15 5 -6 -5z"/>
<path d="M1375 2760 c3 -5 14 -10 23 -10 15 0 15 2 2 10 -20 13 -33 13 -25 0z"/>
<path d="M2520 2755 c33 -19 49 -19 24 0 -10 8 -26 14 -34 14 -9 0 -4 -6 10
-14z"/>
<path d="M3025 2760 c-3 -5 -1 -10 4 -10 6 0 11 5 11 10 0 6 -2 10 -4 10 -3 0
-8 -4 -11 -10z"/>
<path d="M2097 2739 c-10 -11 -15 -24 -11 -30 3 -6 11 -3 20 8 12 17 13 16 14
-12 1 -28 2 -29 10 -7 5 12 12 22 15 22 15 0 151 -73 161 -86 10 -13 12 -13
17 0 4 9 -1 17 -13 21 -11 3 -19 11 -17 17 1 6 -5 13 -13 15 -13 4 -13 3 0 -6
27 -19 -5 -11 -59 14 -28 14 -54 32 -57 40 -3 7 -12 11 -20 8 -8 -3 -14 0 -14
6 0 16 -12 12 -33 -10z"/>
<path d="M3064 2746 c1 -8 5 -18 8 -22 4 -3 5 1 4 10 -1 8 -5 18 -8 22 -4 3
-5 -1 -4 -10z"/>
<path d="M3580 2750 c8 -5 26 -10 39 -10 32 0 24 6 -19 14 -25 4 -31 3 -20 -4z"/>
<path d="M750 2734 c0 -10 6 -14 14 -11 7 3 19 0 25 -6 8 -8 11 -8 11 1 0 10
-30 32 -44 32 -3 0 -6 -7 -6 -16z"/>
<path d="M1640 2733 c27 -19 70 -25 70 -10 0 5 -9 7 -20 4 -11 -3 -27 1 -34 9
-8 8 -20 14 -28 14 -7 0 -1 -8 12 -17z"/>
<path d="M700 2730 c0 -6 7 -10 15 -10 8 0 15 2 15 4 0 2 -7 6 -15 10 -8 3
-15 1 -15 -4z"/>
<path d="M825 2721 c11 -12 21 -18 23 -12 2 5 11 7 20 4 9 -3 14 -3 11 1 -4 4
-16 8 -28 11 -11 2 -27 7 -34 11 -6 4 -3 -3 8 -15z"/>
<path d="M2255 2720 c17 -11 35 -20 40 -20 6 0 -5 9 -23 20 -42 26 -56 26 -17
0z"/>
<path d="M2960 2736 c0 -3 12 -12 28 -20 15 -9 20 -15 12 -16 -9 0 -26 7 -38
16 -12 8 -22 11 -22 6 0 -4 15 -16 34 -25 29 -14 35 -14 40 -2 3 10 -6 21 -24
30 -17 9 -30 13 -30 11z"/>
<path d="M3570 2731 c0 -5 5 -13 10 -16 6 -3 10 -2 10 4 0 5 -4 13 -10 16 -5
3 -10 2 -10 -4z"/>
<path d="M3651 2736 c2 -2 15 -9 29 -15 24 -11 24 -11 6 3 -16 13 -49 24 -35
12z"/>
<path d="M2605 2716 c55 -7 105 -14 110 -15 6 -2 19 -2 30 -1 44 4 -38 19
-138 24 l-102 5 100 -13z"/>
<path d="M3207 2719 c7 -7 15 -10 18 -7 3 3 -2 9 -12 12 -14 6 -15 5 -6 -5z"/>
<path d="M3540 2721 c0 -6 14 -18 30 -28 30 -17 34 -24 31 -54 -1 -9 5 -16 14
-16 26 0 16 27 -26 68 -43 41 -49 45 -49 30z"/>
<path d="M3620 2726 c0 -2 7 -7 16 -10 8 -3 12 -2 9 4 -6 10 -25 14 -25 6z"/>
<path d="M1626 2711 c-4 -6 -3 -11 3 -11 6 0 8 -7 5 -15 -4 -11 -11 -12 -24
-5 -9 5 -20 7 -23 4 -3 -3 -11 -3 -18 2 -9 5 -7 10 7 16 15 7 14 7 -6 3 -14
-2 -35 -5 -48 -5 -13 0 -21 -4 -17 -10 3 -5 12 -7 19 -4 8 3 17 1 21 -5 4 -7
-4 -11 -19 -11 -44 0 -33 -34 15 -50 38 -13 42 -12 55 5 15 21 10 31 -21 37
-19 4 -18 4 3 10 26 7 56 -17 48 -39 -4 -9 -1 -13 6 -11 6 2 13 19 15 36 5 36
-10 72 -21 53z m-61 -61 c14 -5 23 -14 20 -20 -9 -15 -35 -12 -35 4 0 8 -10
17 -22 19 -14 3 -16 5 -6 6 9 0 29 -3 43 -9z"/>
<path d="M3140 2707 c0 -9 4 -18 9 -21 5 -4 8 1 7 9 -3 21 -16 31 -16 12z"/>
<path d="M910 2702 c23 -4 24 -5 5 -13 -17 -6 -17 -8 -2 -8 9 -1 17 -5 17 -11
0 -5 10 -10 23 -10 22 1 22 1 -3 16 l-25 15 25 -7 c120 -33 123 -34 104 -15
-11 10 -21 14 -22 9 -2 -4 -9 -5 -15 -1 -16 11 -98 32 -117 31 -8 0 -4 -3 10
-6z"/>
<path d="M1720 2702 c0 -7 -7 -9 -17 -5 -15 5 -16 3 -5 -8 9 -10 15 -10 24 -1
6 6 9 15 5 19 -4 3 -7 1 -7 -5z"/>
<path d="M2029 2693 c-1 -10 -1 -21 -1 -24 1 -4 -8 -9 -18 -12 -24 -6 -25 1
-4 24 15 16 14 17 -5 12 -12 -3 -21 -13 -21 -22 0 -11 -3 -12 -8 -4 -13 20
-35 -2 -27 -27 4 -12 9 -19 12 -16 4 3 13 0 22 -7 14 -11 14 -10 2 6 -17 21
-6 37 12 16 6 -8 21 -21 32 -29 16 -12 15 -9 -3 12 -22 24 -22 26 -5 30 10 2
42 -6 72 -19 30 -13 56 -21 58 -19 2 2 -21 14 -51 27 -49 20 -55 25 -50 46 4
14 2 23 -5 23 -6 0 -12 -8 -12 -17z"/>
<path d="M3338 2703 c7 -3 16 -2 19 1 4 3 -2 6 -13 5 -11 0 -14 -3 -6 -6z"/>
<path d="M1663 2670 c0 -18 6 -30 14 -30 7 0 13 7 13 15 0 9 7 13 18 9 9 -2 7
1 -5 7 -13 7 -23 16 -23 21 0 4 -4 8 -8 8 -5 0 -9 -13 -9 -30z"/>
<path d="M2313 2679 c-1 -10 3 -19 8 -19 6 0 8 4 5 9 -4 5 -1 11 6 13 8 3 7 6
-3 10 -10 4 -15 -1 -16 -13z"/>
<path d="M3307 2669 c26 -16 57 -28 68 -28 14 0 12 4 -10 11 -36 13 -56 28
-50 37 2 4 -9 8 -26 8 -29 0 -28 -1 18 -28z"/>
<path d="M3817 2690 c9 -8 130 -23 122 -15 -3 2 -33 9 -68 13 -34 5 -58 6 -54
2z"/>
<path d="M783 2674 c-3 -9 -14 -19 -24 -22 -15 -6 -12 -9 17 -18 31 -10 33
-10 20 5 -10 11 -12 21 -5 34 6 9 7 17 4 17 -3 0 -8 -7 -12 -16z"/>
<path d="M3020 2681 c0 -9 30 -24 36 -18 2 1 -6 8 -16 15 -11 7 -20 8 -20 3z"/>
<path d="M662 2654 c-7 -8 -19 -29 -26 -47 -17 -40 -30 -119 -17 -97 5 8 12
34 16 57 4 23 16 54 27 68 22 28 22 42 0 19z"/>
<path d="M880 2656 c14 -9 32 -15 40 -15 13 0 13 1 0 8 -8 5 -26 12 -40 15
l-25 7 25 -15z"/>
<path d="M3215 2660 c-3 -6 1 -7 9 -4 18 7 21 14 7 14 -6 0 -13 -4 -16 -10z"/>
<path d="M3840 2665 c0 -8 29 -12 39 -5 9 5 4 8 -13 8 -14 0 -26 -2 -26 -3z"/>
<path d="M3958 2663 c7 -3 16 -2 19 1 4 3 -2 6 -13 5 -11 0 -14 -3 -6 -6z"/>
<path d="M3998 2663 c7 -3 16 -2 19 1 4 3 -2 6 -13 5 -11 0 -14 -3 -6 -6z"/>
<path d="M985 2650 c3 -5 8 -10 11 -10 2 0 4 5 4 10 0 6 -5 10 -11 10 -5 0 -7
-4 -4 -10z"/>
<path d="M3077 2649 c7 -7 15 -10 18 -7 3 3 -2 9 -12 12 -14 6 -15 5 -6 -5z"/>
<path d="M3125 2650 c3 -4 14 -10 25 -13 11 -3 18 -2 15 3 -3 4 -14 10 -25 13
-11 3 -18 2 -15 -3z"/>
<path d="M4045 2651 c11 -5 38 -10 60 -10 31 -1 37 -4 25 -12 -12 -9 -12 -10
-1 -7 33 9 22 28 -16 28 -21 0 -49 3 -63 5 -22 5 -22 4 -5 -4z"/>
<path d="M605 2639 c-4 -6 -5 -12 -2 -15 2 -3 7 2 10 11 7 17 1 20 -8 4z"/>
<path d="M940 2646 c0 -2 7 -6 15 -10 8 -3 15 -1 15 4 0 6 -7 10 -15 10 -8 0
-15 -2 -15 -4z"/>
<path d="M1030 2646 c0 -2 7 -7 16 -10 8 -3 12 -2 9 4 -6 10 -25 14 -25 6z"/>
<path d="M1075 2640 c-3 -5 -3 -14 0 -20 4 -6 -1 -7 -11 -3 -11 4 -15 2 -12
-7 2 -8 26 -19 51 -26 26 -7 59 -19 72 -28 24 -16 25 -15 31 9 3 14 10 25 16
25 18 0 48 -21 48 -33 0 -8 -3 -9 -8 -1 -10 16 -41 13 -35 -3 3 -7 11 -13 19
-13 8 0 14 -4 14 -10 0 -5 -7 -10 -16 -10 -24 0 -12 -22 26 -47 21 -15 27 -23
16 -23 -9 0 -25 9 -36 20 -11 11 -24 20 -30 20 -5 0 -10 9 -10 21 0 11 -5 17
-10 14 -6 -4 -8 -10 -5 -15 3 -4 -1 -10 -7 -13 -10 -3 -10 -7 1 -20 15 -19 36
-23 25 -5 -4 7 -3 8 4 4 6 -4 9 -13 5 -22 -5 -13 -8 -13 -24 2 -11 10 -21 15
-24 12 -3 -3 6 -13 21 -23 20 -13 23 -19 13 -26 -7 -4 -11 -10 -8 -14 3 -3 18
6 32 19 25 23 31 24 28 4 -2 -14 70 -38 87 -29 13 7 11 11 -12 26 -30 20 -28
32 3 16 16 -9 20 -8 18 7 -1 13 -8 17 -29 16 -32 -2 -75 27 -64 44 10 16 37
14 60 -3 11 -8 28 -15 38 -15 12 0 18 -7 18 -23 0 -12 9 -28 21 -35 19 -12 19
-11 9 8 -6 12 -9 24 -7 26 3 3 46 -16 97 -41 50 -25 89 -42 86 -36 -4 5 -50
31 -102 56 -67 33 -92 50 -83 56 8 5 20 2 31 -8 13 -11 18 -12 18 -3 0 7 8 10
20 7 29 -8 14 10 -23 27 -68 31 -110 46 -131 46 -16 0 -18 -3 -7 -9 11 -7 11
-10 0 -15 -8 -4 -6 -5 6 -3 11 1 31 -8 44 -20 30 -28 22 -29 -27 -3 -20 11
-37 28 -38 38 0 9 -4 25 -9 35 -6 14 -10 16 -16 6 -6 -10 -12 -10 -27 4 -10 9
-21 14 -24 11 -3 -3 -25 4 -49 15 -46 23 -84 27 -94 11z m30 -30 c1 -10 -2
-17 -7 -14 -4 3 -8 15 -8 26 0 26 13 15 15 -12z m90 -10 c3 -5 2 -10 -4 -10
-5 0 -13 5 -16 10 -3 6 -2 10 4 10 5 0 13 -4 16 -10z m0 -28 c-7 -7 -55 8 -55
17 0 5 13 4 30 -2 16 -6 27 -13 25 -15z m145 -162 c0 -5 -7 -7 -15 -4 -8 4
-15 8 -15 10 0 2 7 4 15 4 8 0 15 -4 15 -10z"/>
<path d="M1745 2640 c3 -5 8 -10 11 -10 2 0 4 5 4 10 0 6 -5 10 -11 10 -5 0
-7 -4 -4 -10z"/>
<path d="M3965 2640 c-3 -6 1 -7 9 -4 18 7 21 14 7 14 -6 0 -13 -4 -16 -10z"/>
<path d="M4167 2639 c7 -7 15 -10 18 -7 3 3 -2 9 -12 12 -14 6 -15 5 -6 -5z"/>
<path d="M3113 2634 c4 -4 30 -19 59 -34 42 -21 53 -31 51 -48 -2 -16 3 -22
16 -22 27 0 52 11 46 20 -3 4 4 10 16 13 16 4 18 3 8 -9 -7 -9 -8 -14 -1 -14
6 0 14 5 17 10 4 6 12 7 18 3 7 -4 6 0 -2 10 -7 9 -23 16 -35 15 -11 0 -41 11
-66 25 -47 28 -65 34 -55 17 8 -14 1 -13 -42 5 -20 9 -34 13 -30 9z m122 -36
c14 -6 25 -15 25 -20 0 -12 -6 -10 -42 12 -36 22 -25 27 17 8z m35 -48 c0 -5
-7 -10 -16 -10 -8 0 -12 5 -9 10 3 6 10 10 16 10 5 0 9 -4 9 -10z"/>
<path d="M3315 2625 c11 -9 19 -19 18 -23 -1 -4 1 -9 4 -12 4 -3 3 1 -2 9 -6
10 -1 12 26 6 19 -5 46 -9 60 -10 14 -1 31 -5 38 -9 7 -5 47 -5 89 -1 68 7 73
9 42 16 -19 4 -38 5 -42 3 -5 -3 -8 -1 -8 5 0 5 12 12 28 14 28 5 -37 2 -141
-7 -38 -3 -70 0 -95 10 -34 13 -35 13 -17 -1z"/>
<path d="M3703 2625 c-10 -10 -9 -14 3 -19 10 -4 13 -2 8 6 -5 7 0 9 14 6 26
-7 28 -2 5 11 -12 6 -22 5 -30 -4z"/>
<path d="M4035 2630 c3 -5 11 -10 16 -10 6 0 7 5 4 10 -3 6 -11 10 -16 10 -6
0 -7 -4 -4 -10z"/>
<path d="M4211 2629 c13 -8 137 -13 128 -5 -2 2 -35 6 -73 9 -41 3 -63 1 -55
-4z"/>
<path d="M1860 2619 c0 -5 6 -7 13 -3 10 6 10 4 0 -7 -7 -7 -13 -21 -13 -31 0
-34 25 -18 27 17 2 26 -1 35 -12 35 -8 0 -15 -5 -15 -11z"/>
<path d="M1906 2621 c-5 -8 -3 -17 5 -22 17 -11 39 -12 23 -1 -6 4 -13 14 -16
22 -3 11 -6 11 -12 1z"/>
<path d="M3800 2626 c0 -3 9 -10 20 -16 11 -6 20 -8 20 -6 0 3 -9 10 -20 16
-11 6 -20 8 -20 6z"/>
<path d="M4090 2615 c33 -19 49 -19 24 0 -10 8 -26 14 -34 14 -9 0 -4 -6 10
-14z"/>
<path d="M4423 2618 c15 -11 8 -13 -39 -11 -31 1 -54 0 -53 -1 15 -13 50 -26
45 -17 -10 16 30 14 64 -4 17 -9 32 -15 35 -15 29 1 33 -2 30 -21 -3 -15 0
-19 11 -15 9 3 17 6 20 6 2 0 -1 11 -5 23 -8 21 -6 24 12 23 12 -1 28 -6 36
-10 9 -6 7 0 -4 15 -15 20 -26 24 -54 22 -20 -1 -37 -7 -39 -13 -2 -5 -11 -10
-20 -9 -12 0 -13 2 -4 6 9 3 4 10 -13 19 -34 17 -44 18 -22 2z m82 -28 c3 -5
1 -10 -4 -10 -6 0 -11 5 -11 10 0 6 2 10 4 10 3 0 8 -4 11 -10z"/>
<path d="M890 2612 c0 -5 11 -14 25 -20 14 -6 25 -10 25 -8 0 2 -11 11 -25 20
-14 9 -25 13 -25 8z"/>
<path d="M2267 2599 c-5 -18 -10 -20 -34 -15 -23 6 -26 5 -15 -5 6 -7 12 -21
12 -30 0 -10 5 -21 12 -25 6 -4 8 -3 4 4 -3 6 -2 13 3 16 5 4 12 2 16 -4 3 -5
10 -10 16 -10 5 0 4 9 -3 20 -8 12 -9 23 -3 28 6 5 64 12 130 15 78 4 115 3
105 -3 -10 -7 8 -10 59 -10 41 0 72 2 70 4 -11 11 -122 20 -229 19 -63 -1
-120 3 -126 8 -8 6 -13 3 -17 -12z"/>
<path d="M2990 2605 c14 -8 32 -14 40 -14 8 0 0 6 -19 14 -42 19 -54 19 -21 0z"/>
<path d="M3060 2616 c0 -2 7 -9 15 -16 9 -7 15 -8 15 -2 0 5 -7 12 -15 16 -8
3 -15 4 -15 2z"/>
<path d="M4020 2611 c0 -5 7 -12 16 -15 14 -5 15 -4 4 9 -14 17 -20 19 -20 6z"/>
<path d="M4205 2610 c-3 -5 6 -12 20 -16 14 -3 25 -10 25 -15 0 -5 4 -9 9 -9
12 0 8 30 -5 31 -5 1 -17 5 -26 10 -10 6 -19 5 -23 -1z"/>
<path d="M4570 2610 c0 -5 5 -10 11 -10 5 0 7 5 4 10 -3 6 -8 10 -11 10 -2 0
-4 -4 -4 -10z"/>
<path d="M571 2594 c0 -11 3 -14 6 -6 3 7 2 16 -1 19 -3 4 -6 -2 -5 -13z"/>
<path d="M591 2603 c0 -6 -4 -20 -7 -30 -5 -14 -4 -15 5 -7 7 7 11 20 8 30 -3
11 -5 14 -6 7z"/>
<path d="M713 2596 c-6 -8 -9 -17 -6 -20 12 -11 19 -6 20 14 2 23 2 23 -14 6z"/>
<path d="M785 2600 c3 -5 8 -10 11 -10 2 0 4 5 4 10 0 6 -5 10 -11 10 -5 0 -7
-4 -4 -10z"/>
<path d="M1793 2589 c-13 -14 -33 -21 -57 -21 -20 0 -33 -4 -30 -9 3 -5 -2 -9
-11 -9 -9 0 -14 -4 -10 -9 9 -16 -35 -24 -53 -9 -15 12 -16 11 -3 -4 12 -16
11 -18 -4 -18 -10 0 -15 -3 -12 -6 4 -4 31 1 61 10 31 10 60 15 66 11 5 -3 10
-2 10 4 0 5 -8 12 -17 14 -14 4 -12 5 5 6 19 1 22 -4 22 -32 0 -22 8 -41 22
-53 l21 -19 -17 27 c-27 42 -12 50 46 27 28 -11 53 -18 55 -15 2 2 -11 9 -29
15 -18 6 -45 19 -60 29 l-27 18 24 28 c13 15 28 25 34 22 5 -4 12 -2 16 4 12
19 -31 10 -52 -11z"/>
<path d="M4280 2606 c0 -2 7 -6 15 -10 8 -3 15 -1 15 4 0 6 -7 10 -15 10 -8 0
-15 -2 -15 -4z"/>
<path d="M4620 2606 c0 -3 9 -10 20 -16 11 -6 20 -8 20 -6 0 3 -9 10 -20 16
-11 6 -20 8 -20 6z"/>
<path d="M885 2585 c11 -9 29 -21 40 -26 l20 -10 -20 16 c-11 9 -29 21 -40 26
l-20 10 20 -16z"/>
<path d="M1380 2593 c0 -5 5 -15 10 -23 8 -12 10 -11 10 8 0 12 -4 22 -10 22
-5 0 -10 -3 -10 -7z"/>
<path d="M3122 2580 c19 -15 24 -26 20 -42 -4 -16 -2 -19 9 -13 11 7 11 5 -1
-10 -14 -17 -13 -17 10 -10 34 10 63 28 33 20 -19 -5 -23 -2 -23 14 0 12 5 21
11 21 5 0 7 -4 4 -10 -3 -5 1 -10 9 -10 28 0 27 19 -1 25 -15 4 -44 13 -63 21
l-35 14 27 -20z"/>
<path d="M3642 2580 c0 -14 2 -19 5 -12 2 6 2 18 0 25 -3 6 -5 1 -5 -13z"/>
<path d="M3746 2585 c-3 -8 0 -17 5 -21 6 -3 9 -17 6 -30 -2 -13 0 -21 4 -18
12 7 11 71 0 78 -5 3 -11 -1 -15 -9z"/>
<path d="M3880 2591 c0 -5 5 -13 10 -16 6 -3 10 -2 10 4 0 5 -4 13 -10 16 -5
3 -10 2 -10 -4z"/>
<path d="M545 2542 c-4 -26 -9 -58 -10 -72 -2 -14 -6 -38 -9 -55 -5 -23 -1
-37 18 -60 l25 -30 1 92 c0 61 -4 93 -12 95 -7 3 -8 10 -4 17 7 10 10 10 16 1
5 -8 9 -7 13 4 4 10 1 16 -8 16 -8 0 -12 6 -9 14 3 8 1 17 -4 20 -5 3 -13 -16
-17 -42z m12 -132 l-2 -60 -15 31 c-12 25 -12 33 -2 36 6 3 12 16 12 29 0 13
2 24 5 24 2 0 4 -27 2 -60z"/>
<path d="M961 2572 c-15 -16 -14 -17 19 -27 24 -7 24 -7 5 9 -26 20 -1 22 37
2 18 -10 25 -10 22 -2 -2 6 -19 16 -37 22 -26 8 -36 7 -46 -4z"/>
<path d="M3380 2580 c20 -13 33 -13 25 0 -3 6 -14 10 -23 10 -15 0 -15 -2 -2
-10z"/>
<path d="M3420 2580 c0 -5 5 -10 10 -10 6 0 10 5 10 10 0 6 -4 10 -10 10 -5 0
-10 -4 -10 -10z"/>
<path d="M3613 2565 c-13 -36 74 -94 127 -84 19 3 27 7 18 8 -10 0 -18 6 -18
11 0 6 -8 10 -17 10 -15 0 -16 -2 -3 -10 13 -8 12 -10 -3 -10 -9 0 -35 12 -57
26 -30 20 -39 32 -35 45 8 23 -3 26 -12 4z"/>
<path d="M4225 2570 c3 -5 8 -10 11 -10 2 0 4 5 4 10 0 6 -5 10 -11 10 -5 0
-7 -4 -4 -10z"/>
<path d="M4420 2570 c0 -6 7 -10 15 -10 8 0 15 2 15 4 0 2 -7 6 -15 10 -8 3
-15 1 -15 -4z"/>
<path d="M4620 2569 c0 -6 -4 -8 -9 -5 -5 3 -12 -1 -15 -9 -4 -12 -2 -13 12
-7 9 5 24 11 31 14 12 3 12 6 -2 11 -9 3 -17 2 -17 -4z"/>
<path d="M646 2559 c-3 -8 -10 -34 -16 -58 -7 -28 -15 -40 -19 -32 -5 7 -11
-14 -14 -49 -4 -33 -9 -71 -13 -85 -5 -22 1 -27 71 -60 42 -20 79 -35 81 -32
3 2 -22 16 -55 30 -65 28 -82 49 -80 99 l2 33 7 -35 7 -35 2 45 c1 25 10 77
21 115 10 39 16 72 14 74 -2 2 -6 -2 -8 -10z"/>
<path d="M835 2560 c3 -5 8 -10 11 -10 2 0 4 5 4 10 0 6 -5 10 -11 10 -5 0 -7
-4 -4 -10z"/>
<path d="M1087 2563 c-11 -10 -8 -20 7 -26 10 -4 12 0 9 14 -6 21 -7 22 -16
12z"/>
<path d="M2131 2567 c2 -2 18 -11 34 -21 l30 -17 -24 20 c-13 12 -28 21 -34
21 -6 0 -8 -1 -6 -3z"/>
<path d="M3780 2559 c0 -5 5 -7 10 -4 6 3 10 8 10 11 0 2 -4 4 -10 4 -5 0 -10
-5 -10 -11z"/>
<path d="M3889 2504 c20 -23 40 -40 44 -37 4 3 3 11 -3 18 -6 7 -7 15 -3 17 4
3 3 4 -3 2 -5 -1 -21 7 -35 17 -27 21 -19 25 14 7 20 -10 21 -10 8 5 -7 9 -23
16 -36 15 -22 -2 -21 -4 14 -44z"/>
<path d="M740 2533 c0 -5 5 -14 11 -20 8 -8 4 -15 -12 -26 -20 -14 -21 -22
-16 -74 9 -104 31 -124 148 -137 13 -1 30 -5 36 -9 15 -9 255 0 262 10 3 5 22
9 41 11 19 1 37 7 38 13 3 6 10 5 19 -2 12 -10 16 -10 24 2 5 8 9 19 9 24 -1
18 -47 44 -122 69 -40 13 -109 38 -153 55 -82 32 -223 66 -233 56 -3 -3 0 -5
6 -5 23 0 63 -21 57 -30 -4 -6 -16 -3 -33 7 l-27 17 28 -27 c15 -15 32 -27 38
-27 5 0 9 -4 9 -10 0 -5 5 -10 12 -10 6 0 3 9 -7 20 -12 14 -14 20 -5 20 9 0
50 -36 50 -44 0 -1 -13 -2 -29 -3 -16 -1 -37 6 -48 17 -20 18 -21 18 -19 -8 1
-15 5 -33 9 -39 15 -25 -19 -13 -53 17 -32 29 -33 30 -10 25 24 -6 24 -5 6 9
-10 8 -15 19 -11 25 3 6 2 11 -4 11 -5 0 -12 -7 -14 -15 -4 -11 -5 -11 -3 2 0
9 11 20 23 23 l22 5 -25 28 c-13 15 -24 24 -24 20z m184 -68 c26 -20 0 -20
-34 0 -22 13 -23 14 -5 14 11 0 29 -6 39 -14z m91 -27 c66 -21 85 -31 79 -39
-3 -5 -16 -2 -29 7 -14 9 -32 14 -40 10 -8 -3 -15 -1 -15 4 0 6 -6 10 -12 10
-7 0 -22 8 -33 17 l-20 16 20 -8 c11 -4 34 -11 50 -17z m-55 -8 c0 -5 9 -10
20 -10 11 0 19 -6 18 -12 -2 -8 7 -12 24 -10 28 3 40 -9 44 -45 2 -15 -3 -23
-12 -23 -8 0 -12 5 -9 10 4 6 3 10 -2 9 -21 -4 -32 3 -38 21 -3 11 -13 20 -21
20 -8 0 -12 5 -9 10 3 6 0 10 -8 10 -8 0 -20 7 -27 15 -10 12 -10 15 4 15 9 0
16 -4 16 -10z m-68 -43 c9 8 20 3 38 -14 l25 -25 -30 14 c-16 8 -38 13 -47 11
-10 -3 -25 2 -33 10 -20 21 -5 30 17 11 12 -12 21 -14 30 -7z m58 2 c0 -6 -4
-7 -10 -4 -5 3 -10 11 -10 16 0 6 5 7 10 4 6 -3 10 -11 10 -16z m-134 -29 c19
0 27 -17 16 -36 -7 -13 -14 -10 -40 21 -18 20 -37 33 -42 30 -6 -3 -7 1 -4 9
5 14 9 13 31 -4 14 -11 32 -20 39 -20z m191 -15 c19 -19 30 -35 26 -35 -10 1
-33 20 -57 48 -30 35 -6 25 31 -13z m123 19 c0 -8 5 -12 10 -9 6 3 10 4 10 1
0 -15 -20 -13 -35 4 -16 18 -16 20 -2 20 10 0 17 -7 17 -16z m-273 -26 c-3 -8
-6 -5 -6 6 -1 11 2 17 5 13 3 -3 4 -12 1 -19z m263 -10 c0 -6 -7 -5 -15 2 -8
7 -15 17 -15 22 0 6 7 5 15 -2 8 -7 15 -17 15 -22z m91 14 c-7 -2 -18 1 -23 6
-8 8 -4 9 13 5 13 -4 18 -8 10 -11z m49 -2 c0 -5 -2 -10 -4 -10 -3 0 -8 5 -11
10 -3 6 -1 10 4 10 6 0 11 -4 11 -10z m-470 -21 c0 -6 -4 -7 -10 -4 -5 3 -10
11 -10 16 0 6 5 7 10 4 6 -3 10 -11 10 -16z m400 6 c16 -19 1 -19 -24 0 -16
12 -17 15 -4 15 8 0 21 -7 28 -15z"/>
<path d="M1020 2373 c0 -7 7 -13 15 -13 8 0 15 6 15 13 0 8 -7 14 -15 14 -8 0
-15 -6 -15 -14z"/>
<path d="M1060 2530 c0 -6 7 -10 15 -10 7 0 19 -8 24 -17 9 -15 10 -16 11 -2
0 9 -11 21 -25 27 -15 7 -25 8 -25 2z"/>
<path d="M1130 2530 c0 -4 9 -10 20 -13 11 -3 20 -2 20 3 0 4 -9 10 -20 13
-11 3 -20 2 -20 -3z"/>
<path d="M2793 2524 c-15 -15 -17 -28 -4 -20 5 3 23 -1 40 -10 18 -9 34 -14
37 -11 3 2 -9 10 -25 17 -17 6 -31 18 -33 25 -2 11 -5 10 -15 -1z"/>
<path d="M3784 2525 c3 -8 1 -15 -3 -15 -5 0 -7 -9 -4 -20 3 -11 12 -20 20
-20 13 0 13 3 3 15 -7 9 -8 15 -2 15 5 0 8 9 5 20 -3 11 -10 20 -15 20 -6 0
-8 -7 -4 -15z"/>
<path d="M4185 2530 c-3 -5 -1 -10 4 -10 6 0 11 5 11 10 0 6 -2 10 -4 10 -3 0
-8 -4 -11 -10z"/>
<path d="M4542 2525 l-23 -12 21 -6 c12 -3 19 -3 16 0 -3 4 -1 12 5 20 13 15
12 15 -19 -2z"/>
<path d="M4771 2510 c14 -31 19 -36 19 -24 0 6 -7 19 -16 30 -14 18 -14 18 -3
-6z"/>
<path d="M3840 2510 c0 -5 5 -10 11 -10 5 0 7 5 4 10 -3 6 -8 10 -11 10 -2 0
-4 -4 -4 -10z"/>
<path d="M1060 2495 c0 -8 4 -15 10 -15 5 0 7 7 4 15 -4 8 -8 15 -10 15 -2 0
-4 -7 -4 -15z"/>
<path d="M1142 2494 c10 -10 20 -15 24 -12 3 4 -5 12 -18 18 -22 12 -22 12 -6
-6z"/>
<path d="M2160 2500 c8 -5 20 -10 25 -10 6 0 3 5 -5 10 -8 5 -19 10 -25 10 -5
0 -3 -5 5 -10z"/>
<path d="M4192 2488 c1 -13 8 -25 15 -25 9 0 9 5 1 21 -16 31 -18 32 -16 4z"/>
<path d="M4620 2490 c-19 -11 -31 -19 -27 -20 11 0 67 29 67 35 0 7 -1 7 -40
-15z"/>
<path d="M3980 2490 c0 -5 -8 -10 -17 -11 -14 0 -13 -2 5 -9 13 -6 31 -6 45 0
17 7 18 9 5 9 -10 1 -18 6 -18 11 0 6 -4 10 -10 10 -5 0 -10 -4 -10 -10z"/>
<path d="M4064 2480 c0 -11 6 -20 13 -20 11 0 11 5 3 20 -6 11 -12 20 -13 20
-2 0 -3 -9 -3 -20z"/>
<path d="M1620 2480 c0 -5 5 -10 11 -10 5 0 7 5 4 10 -3 6 -8 10 -11 10 -2 0
-4 -4 -4 -10z"/>
<path d="M2227 2479 c7 -7 15 -10 18 -7 3 3 -2 9 -12 12 -14 6 -15 5 -6 -5z"/>
<path d="M2470 2470 c19 -11 40 -19 45 -19 6 0 -6 8 -25 19 -19 11 -39 19 -45
19 -5 0 6 -8 25 -19z"/>
<path d="M2914 2475 c11 -8 22 -12 25 -9 6 6 -19 24 -34 24 -5 -1 -1 -7 9 -15z"/>
<path d="M3841 2486 c2 -2 18 -6 34 -10 22 -5 26 -4 15 4 -14 9 -59 15 -49 6z"/>
<path d="M4105 2480 c3 -5 8 -10 11 -10 2 0 4 5 4 10 0 6 -5 10 -11 10 -5 0
-7 -4 -4 -10z"/>
<path d="M1540 2470 c0 -6 7 -10 15 -10 8 0 15 2 15 4 0 2 -7 6 -15 10 -8 3
-15 1 -15 -4z"/>
<path d="M1915 2470 c27 -12 43 -12 25 0 -8 5 -22 9 -30 9 -10 0 -8 -3 5 -9z"/>
<path d="M2350 2476 c0 -3 14 -12 30 -21 17 -9 30 -13 30 -11 0 3 -13 12 -30
21 -16 9 -30 13 -30 11z"/>
<path d="M2775 2470 c3 -5 11 -10 16 -10 6 0 7 5 4 10 -3 6 -11 10 -16 10 -6
0 -7 -4 -4 -10z"/>
<path d="M3195 2470 c3 -5 11 -10 16 -10 6 0 7 5 4 10 -3 6 -11 10 -16 10 -6
0 -7 -4 -4 -10z"/>
<path d="M1680 2440 c19 -18 47 -47 62 -64 23 -26 27 -27 25 -11 -1 11 -5 20
-8 20 -3 0 -30 20 -60 44 -30 24 -38 29 -19 11z"/>
<path d="M3246 2453 c-4 -10 -2 -19 3 -21 6 -2 11 -12 11 -22 0 -10 5 -22 12
-26 6 -4 8 -3 4 4 -15 25 18 22 45 -4 22 -21 26 -30 17 -37 -9 -6 -7 -7 5 -3
10 3 21 6 23 6 2 0 4 5 4 10 0 6 -6 10 -13 10 -7 0 -26 13 -41 29 -27 28 -27
29 -7 36 29 9 27 25 -3 25 -13 0 -31 3 -39 6 -8 3 -17 -2 -21 -13z"/>
<path d="M4272 2440 c0 -19 2 -27 5 -17 2 9 2 25 0 35 -3 9 -5 1 -5 -18z"/>
<path d="M4540 2455 c-14 -8 -20 -14 -15 -14 6 0 21 6 35 14 14 8 21 14 15 14
-5 0 -21 -6 -35 -14z"/>
<path d="M4790 2460 c0 -5 7 -10 15 -10 15 0 40 -38 31 -47 -3 -3 1 -15 9 -27
18 -25 21 -131 4 -120 -7 4 -9 0 -5 -13 14 -45 -54 -198 -109 -245 -32 -27
-193 -108 -215 -108 -28 0 -25 -18 5 -32 27 -12 46 -6 95 32 l25 20 -35 -11
c-19 -7 -41 -16 -47 -22 -9 -6 -13 -6 -13 1 0 12 48 32 81 34 29 2 97 46 145
96 37 38 74 108 78 148 2 13 6 27 9 31 4 3 7 46 7 93 0 65 -4 91 -15 100 -8 7
-12 16 -9 21 3 5 0 18 -6 29 -12 23 -50 46 -50 30z"/>
<path d="M477 2435 c10 -13 22 -25 26 -25 4 0 0 11 -10 25 -10 13 -22 25 -26
25 -4 0 0 -11 10 -25z"/>
<path d="M3145 2450 c3 -5 11 -10 16 -10 6 0 7 5 4 10 -3 6 -11 10 -16 10 -6
0 -7 -4 -4 -10z"/>
<path d="M3380 2458 c3 -3 21 -13 40 -22 25 -12 31 -13 20 -3 -8 8 -26 18 -40
22 -14 4 -23 5 -20 3z"/>
<path d="M1838 2443 c7 -3 16 -2 19 1 4 3 -2 6 -13 5 -11 0 -14 -3 -6 -6z"/>
<path d="M2540 2440 c8 -5 20 -10 25 -10 6 0 3 5 -5 10 -8 5 -19 10 -25 10 -5
0 -3 -5 5 -10z"/>
<path d="M2833 2443 c9 -2 25 -2 35 0 9 3 1 5 -18 5 -19 0 -27 -2 -17 -5z"/>
<path d="M3194 2441 c-16 -15 -72 -21 -78 -8 -2 7 -5 5 -5 -4 -1 -19 -60 -33
-75 -18 -13 12 -26 11 -26 0 0 -5 8 -11 18 -13 11 -3 -5 -14 -44 -32 l-61 -27
-2 -53 c-2 -55 -1 -56 74 -138 14 -15 25 -32 25 -38 0 -6 4 -9 9 -6 5 3 14 -1
21 -9 7 -8 9 -15 4 -15 -11 0 18 -20 30 -20 4 0 6 9 3 20 -3 11 -1 20 4 20 5
0 9 -11 9 -25 0 -18 5 -25 19 -25 11 0 26 -3 35 -6 11 -4 16 0 16 12 1 18 1
18 11 2 12 -22 104 -26 112 -5 3 7 6 5 6 -5 1 -29 31 -22 31 7 0 14 4 25 9 25
4 0 6 -11 3 -25 -2 -15 0 -25 7 -25 7 0 11 6 10 13 -3 24 1 47 9 47 4 -1 21
-12 37 -26 24 -20 26 -25 10 -22 -11 2 -23 8 -27 13 -5 6 -8 3 -8 -6 0 -21 97
-31 225 -24 104 6 92 6 170 4 104 -1 121 0 106 10 -8 5 -11 16 -8 25 8 20 -2
48 -14 40 -5 -3 -9 -1 -9 5 0 5 6 12 13 14 6 3 0 6 -15 6 -15 1 -30 6 -34 13
-5 7 -2 9 9 5 12 -4 14 -2 10 10 -5 12 -2 15 10 10 45 -18 51 -19 29 -3 -13
10 -30 15 -42 11 -12 -4 -31 1 -48 13 -15 10 -34 22 -42 25 -10 3 -7 6 8 6 13
1 32 -9 41 -20 17 -21 17 -21 17 20 0 27 -5 41 -13 41 -7 0 -13 -7 -13 -15 0
-19 -29 -19 -54 0 -19 15 -19 15 1 15 12 0 24 4 27 9 3 4 17 7 32 5 20 -2 24
0 15 9 -18 18 -13 29 12 22 18 -6 20 -5 9 6 -10 10 -17 11 -31 2 -20 -12 -47
-1 -37 15 3 6 -2 15 -11 21 -17 10 -17 10 1 11 11 0 16 3 12 7 -3 4 -25 6 -47
4 -23 -1 -51 4 -63 12 -12 8 -37 18 -56 22 -19 4 -41 12 -48 18 -7 5 -15 8
-18 5 -7 -7 66 -41 91 -42 11 -1 20 -6 20 -13 0 -6 4 -15 9 -20 5 -4 6 -3 2 4
-9 16 64 4 81 -13 18 -17 16 -27 -2 -20 -8 3 -15 1 -15 -4 0 -6 8 -10 18 -10
9 0 24 -5 32 -10 11 -8 7 -9 -15 -5 -27 6 -28 5 -10 -6 19 -13 19 -13 -5 -19
-31 -8 -50 -2 -50 15 0 8 -4 16 -8 19 -5 3 -8 -4 -7 -15 1 -11 8 -25 16 -29 8
-5 14 -17 14 -27 0 -10 4 -24 8 -30 11 -17 -1 -16 -18 1 -8 7 -11 17 -7 21 4
4 -11 -3 -32 -15 -33 -18 -43 -20 -67 -9 -16 6 -29 15 -29 20 0 14 16 11 30
-6 7 -8 17 -12 22 -9 5 3 -5 17 -23 30 -18 13 -28 24 -22 24 7 0 19 -7 28 -16
9 -9 18 -14 21 -12 2 3 -5 13 -16 23 -22 20 -55 13 -46 -10 3 -8 1 -15 -5 -15
-6 0 -5 -8 2 -22 10 -18 8 -24 -7 -36 -18 -14 -18 -14 0 -8 14 5 17 2 12 -9
-3 -9 0 -15 10 -15 8 0 12 5 9 10 -8 13 5 13 25 0 13 -8 12 -10 -4 -10 -16 0
-17 -2 -5 -16 11 -14 14 -14 24 -1 9 13 14 12 34 -4 13 -11 19 -19 15 -19 -5
0 -2 -5 6 -11 12 -9 11 -10 -5 -4 -11 4 -35 11 -52 17 -18 5 -33 13 -33 17 0
5 -11 11 -25 13 -21 4 -25 1 -25 -18 0 -14 -6 -24 -14 -24 -21 0 -28 17 -16
39 7 15 6 23 -6 35 -8 9 -20 16 -25 16 -18 0 -9 21 14 30 31 12 4 12 -29 0
-32 -12 -74 9 -74 38 0 14 -2 15 -10 2 -11 -18 36 -62 62 -56 10 2 15 -1 12
-8 -3 -7 7 -18 22 -25 15 -6 24 -14 21 -17 -3 -3 -15 -1 -26 6 -28 14 -27 3 2
-21 22 -20 22 -20 0 -7 -22 12 -47 3 -28 -10 16 -11 14 -51 -2 -45 -7 3 -13 8
-13 12 0 4 -12 13 -27 20 -19 9 -23 15 -14 20 10 6 9 10 -4 15 -9 3 -21 4 -26
1 -5 -4 -7 0 -4 7 2 7 -18 28 -49 49 -54 37 -76 38 -98 5 -6 -8 -11 -6 -17 4
-13 20 -19 11 -24 -32 -5 -47 4 -61 35 -53 17 4 24 13 24 27 -1 12 5 22 12 24
7 1 8 0 3 -2 -5 -3 -7 -14 -4 -24 3 -11 2 -32 -1 -46 -6 -21 -10 -24 -19 -15
-9 9 -8 14 3 21 8 5 11 10 5 10 -5 0 -16 -4 -24 -9 -22 -14 -51 10 -51 40 0
15 -7 29 -15 33 -18 7 -20 -5 -3 -22 16 -16 -4 -16 -21 1 -11 10 -11 8 -2 -10
6 -13 17 -23 23 -23 6 0 9 -3 5 -6 -12 -12 -65 35 -61 54 3 10 -3 22 -16 30
-18 11 -20 10 -21 -10 l0 -23 -11 23 c-13 26 -28 29 -28 5 0 -12 -5 -8 -15 11
-9 16 -13 31 -10 34 3 3 5 0 5 -6 0 -15 30 -15 50 -1 12 8 9 9 -12 5 -24 -6
-27 -3 -26 24 1 16 5 27 10 24 5 -3 7 -12 4 -20 -6 -16 19 -19 29 -4 3 6 1 10
-5 10 -6 0 -9 4 -6 9 3 5 22 8 41 6 19 -2 35 1 35 6 0 5 -21 7 -47 4 -33 -3
-43 -1 -33 5 8 5 23 10 34 10 15 0 16 3 6 15 -9 10 -9 15 -1 15 6 0 10 5 9 11
-2 6 3 14 11 17 10 3 12 0 8 -12 -6 -14 -3 -16 16 -10 12 4 33 7 47 8 17 1 25
6 24 19 -1 9 4 17 12 17 23 0 16 -40 -8 -49 -13 -5 -27 -6 -33 -3 -5 3 -1 -4
9 -16 21 -24 46 -31 26 -7 -9 11 -10 15 -1 15 12 0 41 -24 41 -33 0 -13 -47
-14 -74 -1 -34 16 -33 15 37 -38 15 -12 25 -23 23 -26 -3 -2 -22 9 -42 24 -28
21 -36 24 -31 12 5 -14 1 -18 -14 -18 -11 0 -17 5 -14 10 3 6 -5 10 -18 10
-16 0 -26 -7 -30 -20 -5 -19 -2 -20 33 -15 35 5 38 4 33 -16 -4 -12 0 -25 8
-30 24 -15 33 -10 15 10 -16 18 -16 19 11 24 15 3 33 1 38 -3 6 -5 18 -3 27 4
13 10 15 15 6 24 -7 7 -18 12 -25 12 -7 0 -13 5 -13 10 0 16 6 13 71 -32 33
-24 69 -48 79 -53 10 -6 25 -17 34 -24 14 -12 16 -12 11 0 -7 16 -78 69 -94
69 -6 0 -11 5 -11 10 0 13 27 13 35 0 3 -6 21 -17 38 -26 27 -13 29 -13 13 0
-10 9 -16 22 -13 31 4 8 2 15 -3 15 -6 0 -10 5 -10 10 0 6 9 10 19 10 22 0 36
16 22 24 -5 4 -11 0 -14 -6 -3 -10 -9 -11 -26 0 -28 16 -32 15 -24 -5 6 -16 5
-17 -13 -3 -10 7 -24 20 -31 28 -6 8 -17 12 -24 10 -7 -2 6 -17 29 -34 48 -34
56 -54 11 -27 -59 35 -91 67 -84 85 4 10 11 15 16 12 5 -3 7 5 5 18 -2 13 -9
22 -16 20 -7 -2 -20 0 -29 4 -11 5 -2 10 28 13 37 5 42 8 29 18 -8 7 -19 9
-24 4z m-44 -41 c0 -5 -15 -10 -32 -10 -24 0 -29 -3 -18 -10 8 -5 12 -12 8
-15 -6 -7 -48 16 -48 26 0 3 14 6 31 7 17 0 34 3 37 6 9 9 22 7 22 -4z m0 -24
c0 -11 -19 -15 -25 -6 -3 5 1 10 9 10 9 0 16 -2 16 -4z m-123 -22 c-3 -3 -12
-4 -19 -1 -8 3 -5 6 6 6 11 1 17 -2 13 -5z m233 -96 c0 -14 -16 -9 -36 13 -19
21 -19 21 9 8 15 -7 27 -16 27 -21z m-300 2 c0 -5 -4 -10 -10 -10 -5 0 -10 5
-10 10 0 6 5 10 10 10 6 0 10 -4 10 -10z m185 -20 c3 -5 1 -10 -4 -10 -6 0
-11 5 -11 10 0 6 2 10 4 10 3 0 8 -4 11 -10z m141 -68 c8 -9 14 -24 14 -33 0
-9 14 -22 32 -30 17 -7 26 -15 20 -17 -23 -7 -112 51 -98 66 4 3 11 0 16 -8 5
-8 12 -11 15 -8 11 10 -4 28 -23 28 -20 1 -54 25 -46 33 9 9 56 -12 70 -31z
m389 18 c3 -5 15 -10 25 -10 10 0 21 -4 24 -9 3 -5 -12 -4 -34 1 -22 6 -40 14
-40 19 0 12 17 11 25 -1z m88 -9 c15 -8 27 -20 27 -27 0 -8 11 -21 24 -29 23
-15 41 -43 33 -52 -8 -7 -78 67 -72 76 3 5 -3 12 -14 16 -11 3 -25 13 -33 22
-14 17 -11 16 35 -6z m-131 -3 c-9 -9 -7 -14 6 -24 9 -8 12 -14 5 -14 -6 0
-19 7 -27 16 -9 8 -20 13 -25 9 -5 -3 -12 -1 -15 4 -4 5 6 12 21 14 16 2 32 5
38 6 5 0 4 -4 -3 -11z m-595 -35 c-3 -10 -5 -4 -5 12 0 17 2 24 5 18 2 -7 2
-21 0 -30z m668 7 c8 -13 -5 -13 -25 0 -13 8 -13 10 2 10 9 0 20 -4 23 -10z
m49 -39 c-2 -3 -12 3 -22 13 -16 17 -16 18 5 5 12 -7 20 -15 17 -18z m-689 9
c3 -5 1 -10 -4 -10 -6 0 -11 5 -11 10 0 6 2 10 4 10 3 0 8 -4 11 -10z m630 0
c3 -5 1 -10 -4 -10 -6 0 -11 5 -11 10 0 6 2 10 4 10 3 0 8 -4 11 -10z m-427
-8 c9 -7 10 -15 3 -35 -13 -34 -17 -34 -16 1 0 15 -4 30 -10 34 -14 11 7 10
23 0z m277 -2 c3 -5 1 -10 -4 -10 -6 0 -11 5 -11 10 0 6 2 10 4 10 3 0 8 -4
11 -10z m255 -48 c0 -12 -3 -12 -15 -2 -8 7 -15 22 -15 34 1 21 1 21 15 2 8
-11 15 -26 15 -34z m-665 28 c-3 -5 -10 -10 -16 -10 -5 0 -9 5 -9 10 0 6 7 10
16 10 8 0 12 -4 9 -10z m333 -26 c-7 -15 -14 -21 -16 -15 -5 16 5 41 17 41 7
0 6 -10 -1 -26z m126 18 c2 -4 -4 -13 -15 -20 -15 -10 -19 -10 -19 1 0 24 23
36 34 19z m163 -7 c9 -24 -1 -27 -15 -5 -8 13 -8 20 -2 20 6 0 13 -7 17 -15z
m-597 -5 c0 -5 -2 -10 -4 -10 -3 0 -8 5 -11 10 -3 6 -1 10 4 10 6 0 11 -4 11
-10z m336 -27 c-5 -12 -10 -13 -17 -6 -8 8 -7 16 2 26 16 17 24 5 15 -20z
m228 22 c11 -8 18 -17 15 -19 -2 -3 -15 4 -29 14 -14 11 -20 20 -15 19 6 0 19
-6 29 -14z m109 1 c3 -8 -1 -17 -9 -20 -9 -4 -14 1 -14 14 0 23 15 27 23 6z
m-213 -12 c0 -8 -5 -12 -10 -9 -6 4 -8 11 -5 16 9 14 15 11 15 -7z"/>
<path d="M3455 2440 c3 -5 11 -10 16 -10 6 0 7 5 4 10 -3 6 -11 10 -16 10 -6
0 -7 -4 -4 -10z"/>
<path d="M1620 2431 c0 -6 10 -16 23 -22 12 -6 33 -21 46 -33 13 -11 21 -16
17 -9 -11 19 -86 75 -86 64z"/>
<path d="M2049 2425 c18 -8 36 -15 40 -15 13 1 -45 29 -59 29 -8 0 0 -6 19
-14z"/>
<path d="M2450 2426 c0 -2 7 -7 16 -10 8 -3 12 -2 9 4 -6 10 -25 14 -25 6z"/>
<path d="M2700 2416 c14 -7 36 -16 50 -20 14 -3 7 3 -15 13 -45 22 -73 27 -35
7z"/>
<path d="M3310 2426 c0 -2 14 -14 30 -26 17 -12 30 -18 30 -13 0 5 -13 17 -30
26 -16 10 -30 16 -30 13z"/>
<path d="M3665 2420 c3 -5 8 -10 11 -10 2 0 4 5 4 10 0 6 -5 10 -11 10 -5 0
-7 -4 -4 -10z"/>
<path d="M2970 2411 c0 -5 5 -13 10 -16 6 -3 10 -2 10 4 0 5 -4 13 -10 16 -5
3 -10 2 -10 -4z"/>
<path d="M1950 2406 c0 -2 9 -6 20 -9 11 -3 18 -1 14 4 -5 9 -34 13 -34 5z"/>
<path d="M2620 2406 c0 -2 9 -6 20 -9 11 -3 18 -1 14 4 -5 9 -34 13 -34 5z"/>
<path d="M3227 2404 c-7 -7 33 -54 47 -54 5 0 17 -6 26 -12 9 -7 0 2 -19 20
-20 19 -35 38 -33 43 2 10 -11 12 -21 3z"/>
<path d="M3510 2406 c0 -2 7 -7 16 -10 8 -3 12 -2 9 4 -6 10 -25 14 -25 6z"/>
<path d="M2001 2377 c0 -12 3 -16 6 -9 2 6 9 12 14 12 6 0 7 -5 3 -12 -4 -7
-3 -8 4 -4 18 11 14 23 -8 29 -16 4 -20 0 -19 -16z"/>
<path d="M2169 2385 c18 -8 36 -15 40 -15 13 1 -45 29 -59 29 -8 0 0 -6 19
-14z"/>
<path d="M1364 2375 c11 -8 24 -15 30 -15 5 0 1 7 -10 15 -10 8 -23 14 -29 14
-5 0 -1 -6 9 -14z"/>
<path d="M1490 2386 c0 -2 7 -7 16 -10 8 -3 12 -2 9 4 -6 10 -25 14 -25 6z"/>
<path d="M2330 2380 c8 -5 20 -10 25 -10 6 0 3 5 -5 10 -8 5 -19 10 -25 10 -5
0 -3 -5 5 -10z"/>
<path d="M2680 2380 c8 -5 20 -10 25 -10 6 0 3 5 -5 10 -8 5 -19 10 -25 10 -5
0 -3 -5 5 -10z"/>
<path d="M3783 2375 c-9 -10 -6 -15 12 -23 21 -10 23 -8 22 8 -2 24 -18 32
-34 15z"/>
<path d="M1652 2329 c26 -28 48 -58 48 -65 0 -8 7 -14 15 -14 8 0 15 3 15 6 0
8 -112 124 -120 124 -3 0 16 -23 42 -51z"/>
<path d="M2067 2369 c7 -7 15 -10 18 -7 3 3 -2 9 -12 12 -14 6 -15 5 -6 -5z"/>
<path d="M2227 2369 c7 -7 15 -10 18 -7 3 3 -2 9 -12 12 -14 6 -15 5 -6 -5z"/>
<path d="M2940 2370 c0 -5 5 -10 10 -10 6 0 10 5 10 10 0 6 -4 10 -10 10 -5 0
-10 -4 -10 -10z"/>
<path d="M4111 2335 c-29 -25 -48 -45 -43 -45 5 0 16 8 23 17 8 9 32 29 53 45
21 15 35 28 29 28 -5 0 -33 -20 -62 -45z"/>
<path d="M1817 2356 c-4 -10 2 -20 14 -27 11 -6 18 -13 16 -16 -3 -2 -19 3
-36 12 -31 15 -31 15 -19 -4 6 -11 15 -18 18 -16 3 2 6 -5 6 -16 0 -14 -7 -19
-28 -19 -18 0 -28 5 -28 14 0 8 -4 17 -9 20 -5 3 -8 -6 -7 -19 l1 -26 120 1
c66 0 199 -4 295 -9 141 -8 190 -14 250 -34 89 -29 162 -47 190 -47 11 0 28
-4 38 -9 9 -5 49 -16 87 -25 39 -9 100 -24 137 -35 37 -10 65 -15 62 -10 -2 5
-20 11 -39 15 -19 3 -32 10 -29 15 3 5 -2 6 -10 3 -15 -6 -164 35 -221 60 -65
29 -88 37 -93 32 -2 -3 7 -10 22 -15 45 -18 28 -21 -26 -5 -174 49 -198 58
-198 75 0 11 -16 22 -51 33 -55 18 -83 13 -31 -5 18 -6 32 -15 32 -19 0 -4 7
-7 16 -6 9 0 19 -5 22 -13 3 -8 0 -11 -6 -7 -6 3 -33 7 -61 7 -32 1 -51 6 -51
13 0 7 -22 17 -50 22 -63 13 -65 3 -2 -19 l47 -17 -88 4 c-49 2 -94 9 -99 14
-7 7 -17 8 -29 2 -20 -11 -99 -9 -92 3 2 4 -1 7 -6 7 -6 0 -11 -5 -11 -11 0
-5 -4 -7 -10 -4 -18 11 -12 38 8 31 15 -5 15 -5 2 6 -9 7 -23 23 -32 36 -13
19 -17 20 -21 8z"/>
<path d="M2380 2360 c20 -13 33 -13 25 0 -3 6 -14 10 -23 10 -15 0 -15 -2 -2
-10z"/>
<path d="M3840 2365 c8 -2 32 -6 53 -10 23 -4 37 -11 37 -20 0 -8 5 -15 11
-15 7 0 6 8 -3 23 -12 17 -26 22 -64 24 -27 1 -42 0 -34 -2z"/>
<path d="M1910 2350 c8 -5 20 -10 25 -10 6 0 3 5 -5 10 -8 5 -19 10 -25 10 -5
0 -3 -5 5 -10z"/>
<path d="M2112 2339 c-10 -15 -9 -19 0 -21 7 0 18 -2 23 -2 6 -1 16 -6 24 -10
11 -7 13 -5 8 7 -3 10 -2 17 3 17 6 0 10 -7 10 -15 0 -8 7 -15 15 -15 32 0 13
29 -28 43 -41 14 -44 13 -55 -4z"/>
<path d="M2276 2350 c5 -5 25 -12 44 -15 l35 -6 -40 15 c-47 18 -52 19 -39 6z"/>
<path d="M671 2334 c0 -11 3 -14 6 -6 3 7 2 16 -1 19 -3 4 -6 -2 -5 -13z"/>
<path d="M3845 2339 c-16 -6 -14 -8 13 -8 33 -1 41 4 20 12 -7 2 -22 1 -33 -4z"/>
<path d="M4195 2340 c-3 -6 1 -7 9 -4 18 7 21 14 7 14 -6 0 -13 -4 -16 -10z"/>
<path d="M1505 2320 c19 -21 8 -29 -13 -8 -9 9 -12 9 -12 1 0 -7 10 -19 22
-27 33 -24 14 -34 -87 -45 l-90 -10 105 6 c58 3 117 6 133 7 15 2 51 4 80 6
32 2 41 5 25 7 -17 3 -25 9 -22 17 3 9 -5 13 -26 13 -36 0 -38 -4 -7 -18 20
-9 20 -9 -5 -4 -17 3 -28 1 -28 -5 0 -6 -5 -8 -10 -5 -6 4 -8 10 -5 15 6 9
-19 32 -28 24 -3 -3 -8 3 -11 14 -4 11 -14 23 -23 27 -14 5 -14 3 2 -15z"/>
<path d="M2460 2330 c8 -5 20 -10 25 -10 6 0 3 5 -5 10 -8 5 -19 10 -25 10 -5
0 -3 -5 5 -10z"/>
<path d="M3502 2323 c14 -17 74 -46 85 -41 5 1 -15 15 -44 29 -29 14 -48 19
-41 12z"/>
<path d="M2035 2315 c52 -19 68 -19 31 0 -15 8 -38 15 -50 15 -13 -1 -7 -6 19
-15z"/>
<path d="M2630 2320 c8 -5 20 -10 25 -10 6 0 3 5 -5 10 -8 5 -19 10 -25 10 -5
0 -3 -5 5 -10z"/>
<path d="M3060 2320 c0 -5 7 -7 15 -4 8 4 15 8 15 10 0 2 -7 4 -15 4 -8 0 -15
-4 -15 -10z"/>
<path d="M3368 2323 c6 -2 18 -2 25 0 6 3 1 5 -13 5 -14 0 -19 -2 -12 -5z"/>
<path d="M3905 2320 c3 -5 8 -10 11 -10 2 0 4 5 4 10 0 6 -5 10 -11 10 -5 0
-7 -4 -4 -10z"/>
<path d="M4123 2281 c-39 -37 -134 -180 -161 -242 -1 -3 8 -5 20 -3 13 1 66 8
118 15 52 6 104 15 115 20 22 11 -4 8 -110 -10 -77 -14 -115 -14 -115 0 0 25
87 159 138 212 69 70 65 76 -5 8z"/>
<path d="M1600 2316 c0 -2 7 -9 15 -16 9 -7 15 -8 15 -2 0 5 -7 12 -15 16 -8
3 -15 4 -15 2z"/>
<path d="M2400 2310 c8 -5 20 -10 25 -10 6 0 3 5 -5 10 -8 5 -19 10 -25 10 -5
0 -3 -5 5 -10z"/>
<path d="M2500 2316 c0 -2 7 -7 16 -10 8 -3 12 -2 9 4 -6 10 -25 14 -25 6z"/>
<path d="M1908 2293 c7 -3 16 -2 19 1 4 3 -2 6 -13 5 -11 0 -14 -3 -6 -6z"/>
<path d="M2455 2290 c27 -12 43 -12 25 0 -8 5 -22 9 -30 9 -10 0 -8 -3 5 -9z"/>
<path d="M3942 2280 c0 -14 2 -19 5 -12 2 6 2 18 0 25 -3 6 -5 1 -5 -13z"/>
<path d="M3464 2278 c2 -19 16 -38 26 -38 4 0 3 11 -3 25 -13 26 -27 34 -23
13z"/>
<path d="M3517 2279 c7 -7 15 -10 18 -7 3 3 -2 9 -12 12 -14 6 -15 5 -6 -5z"/>
<path d="M3620 2286 c0 -2 7 -9 15 -16 9 -7 15 -8 15 -2 0 5 -7 12 -15 16 -8
3 -15 4 -15 2z"/>
<path d="M3916 2277 c3 -10 9 -15 12 -12 3 3 0 11 -7 18 -10 9 -11 8 -5 -6z"/>
<path d="M4779 2273 c-12 -16 -12 -17 1 -7 8 6 22 14 30 17 13 5 12 6 -1 6 -9
1 -23 -7 -30 -16z"/>
<path d="M2344 2273 c13 -13 106 -41 106 -32 0 5 -12 11 -27 14 -16 4 -36 10
-45 16 -21 11 -44 12 -34 2z"/>
<path d="M1260 2263 c0 -6 -3 -18 -6 -27 -5 -13 1 -16 30 -16 20 0 36 4 36 8
0 5 -15 7 -32 5 -25 -3 -29 -2 -18 6 12 8 12 13 2 23 -8 8 -12 8 -12 1z"/>
<path d="M788 2243 c-5 -19 0 -22 56 -32 35 -6 113 -11 174 -11 111 0 112 0
112 24 0 13 -7 27 -16 30 -11 4 -15 2 -11 -7 3 -8 2 -20 -3 -27 -10 -16 -33
-2 -26 16 4 10 -2 14 -17 13 -12 0 -16 -3 -9 -6 14 -5 17 -33 3 -33 -6 0 -13
5 -16 10 -3 6 -11 10 -16 10 -6 0 -7 -4 -4 -10 10 -17 -4 -11 -25 10 -11 11
-28 20 -37 20 -15 -1 -15 -4 5 -20 l23 -19 -38 4 c-21 1 -42 3 -47 4 -4 1 -6
7 -3 15 6 15 -21 31 -32 20 -3 -4 0 -9 7 -11 20 -7 14 -23 -9 -23 -14 0 -19 5
-16 14 3 8 -1 17 -10 20 -21 9 -31 -3 -13 -14 13 -8 12 -10 -2 -10 -9 0 -18 8
-20 18 -3 14 -5 13 -10 -5z"/>
<path d="M1147 2232 c-3 -15 -5 -27 -4 -27 1 -1 18 2 37 5 l35 5 -31 22 -32
23 -5 -28z"/>
<path d="M1210 2246 c0 -8 7 -16 15 -20 13 -4 14 -2 5 14 -13 23 -20 26 -20 6z"/>
<path d="M4026 2245 c-9 -26 -7 -32 5 -12 6 10 9 21 6 23 -2 3 -7 -2 -11 -11z"/>
<path d="M750 2240 c0 -5 5 -10 11 -10 5 0 7 5 4 10 -3 6 -8 10 -11 10 -2 0
-4 -4 -4 -10z"/>
<path d="M2620 2246 c0 -2 7 -9 15 -16 9 -7 15 -8 15 -2 0 5 -7 12 -15 16 -8
3 -15 4 -15 2z"/>
<path d="M3390 2235 c7 -8 17 -15 22 -15 5 0 3 7 -6 15 -8 8 -18 15 -22 15 -3
0 -1 -7 6 -15z"/>
<path d="M3628 2243 c6 -2 10 -9 6 -14 -3 -5 -1 -9 4 -9 6 0 12 7 16 15 4 11
-1 15 -17 14 -12 0 -16 -3 -9 -6z"/>
<path d="M351 2224 c0 -11 3 -14 6 -6 3 7 2 16 -1 19 -3 4 -6 -2 -5 -13z"/>
<path d="M2465 2230 c3 -5 11 -10 16 -10 6 0 7 5 4 10 -3 6 -11 10 -16 10 -6
0 -7 -4 -4 -10z"/>
<path d="M3040 2214 c0 -8 32 -33 43 -34 4 0 2 9 -5 20 -12 19 -38 28 -38 14z"/>
<path d="M3851 2207 c2 -1 13 -9 24 -17 19 -14 19 -14 6 3 -7 9 -18 17 -24 17
-6 0 -8 -1 -6 -3z"/>
<path d="M3992 2190 c-18 -29 -15 -38 4 -12 9 13 14 25 12 27 -2 2 -9 -5 -16
-15z"/>
<path d="M335 2180 c-3 -10 -27 -47 -52 -81 -49 -67 -52 -96 -16 -144 10 -12
25 -33 33 -45 33 -48 96 -111 115 -114 11 -2 19 -8 18 -14 -1 -5 8 -18 20 -28
22 -19 22 -19 4 2 -25 29 -10 37 27 13 l31 -20 -30 23 c-60 46 -146 133 -167
167 -12 19 -30 43 -40 53 -27 27 -22 52 27 124 41 59 53 84 41 84 -3 0 -7 -9
-11 -20z m60 -351 c11 -17 -1 -21 -15 -4 -8 9 -8 15 -2 15 6 0 14 -5 17 -11z"/>
<path d="M3383 2172 c0 -9 6 -28 14 -42 12 -23 13 -24 13 -3 0 12 -6 24 -12
26 -7 3 -3 6 10 6 26 1 22 16 -6 23 -12 4 -19 0 -19 -10z"/>
<path d="M3946 2105 c-8 -19 -18 -35 -21 -35 -3 0 -1 9 5 19 14 26 13 31 -5
25 -8 -4 -15 -15 -15 -26 0 -11 -4 -16 -11 -12 -8 4 -9 -1 -4 -17 9 -30 9 -31
26 -24 8 3 21 28 31 55 19 58 15 66 -6 15z"/>
<path d="M2987 2103 c-4 -3 -7 -13 -7 -22 1 -13 3 -13 11 2 11 19 8 33 -4 20z"/>
<path d="M4270 2090 l-35 -7 35 -2 c19 0 42 4 50 9 13 9 13 10 0 9 -8 -1 -31
-5 -50 -9z"/>
<path d="M3020 2080 c0 -5 5 -10 11 -10 5 0 7 5 4 10 -3 6 -8 10 -11 10 -2 0
-4 -4 -4 -10z"/>
<path d="M4310 1764 c-58 -29 -116 -54 -130 -56 -18 -2 -24 -8 -23 -23 1 -11
0 -14 -3 -7 -8 16 -36 15 -60 -2 -17 -13 -18 -16 -3 -31 12 -13 21 -13 47 -4
18 6 32 15 32 20 0 4 6 6 13 4 18 -7 62 18 62 35 1 8 6 14 13 13 7 -2 12 2 12
7 0 5 7 10 15 10 8 0 15 5 15 10 0 6 5 10 10 10 6 0 10 -7 10 -15 0 -19 24
-20 39 -1 9 11 9 15 -1 19 -7 3 0 4 16 4 24 -2 31 4 43 31 7 17 10 31 6 31 -5
-1 -55 -25 -113 -55z m77 12 c0 -8 -6 -12 -15 -9 -11 5 -11 7 0 14 7 5 13 9
14 9 0 0 1 -6 1 -14z"/>
<path d="M490 1734 c0 -15 206 -131 216 -121 3 2 -37 26 -88 51 -51 26 -101
55 -110 63 -10 9 -18 12 -18 7z"/>
<path d="M555 1720 c27 -17 121 -60 203 -90 17 -7 32 -17 32 -22 0 -6 6 -8 14
-5 8 3 32 -3 53 -13 51 -26 18 -25 -63 1 -36 12 -68 19 -71 16 -5 -6 141 -52
192 -61 17 -3 57 -10 90 -16 95 -18 192 -28 303 -32 94 -3 105 -1 118 17 13
17 13 20 -3 27 -10 3 -92 7 -183 7 -122 1 -188 6 -255 20 -94 20 -348 113
-410 150 -45 26 -60 28 -20 1z m395 -160 c18 -12 2 -12 -25 0 -13 6 -15 9 -5
9 8 0 22 -4 30 -9z"/>
<path d="M2057 1662 c-12 -2 -16 -9 -13 -19 3 -8 6 -21 6 -29 0 -8 5 -14 11
-14 6 0 9 7 5 15 -11 28 23 15 39 -15 l16 -30 -43 -2 c-24 0 -67 -2 -95 -2
l-53 -1 0 43 0 42 -44 0 c-44 0 -44 0 -44 -36 0 -34 0 -35 20 -18 21 20 50 10
56 -19 3 -14 -7 -16 -67 -14 -39 2 -72 0 -73 -5 -2 -4 -43 -8 -93 -9 -59 0
-98 -5 -112 -15 -15 -9 -23 -10 -25 -2 -6 17 -36 18 -42 2 -10 -26 43 -35 215
-33 145 0 169 3 169 16 0 12 6 14 28 8 27 -7 74 -8 215 -6 64 1 81 5 98 22 11
11 19 22 17 24 -2 3 -28 6 -58 7 -43 2 -57 7 -65 23 -21 43 -50 72 -68 67z
m-155 -34 c-9 -9 -15 -9 -24 0 -9 9 -7 12 12 12 19 0 21 -3 12 -12z m115 -94
c-3 -3 -12 -4 -19 -1 -8 3 -5 6 6 6 11 1 17 -2 13 -5z"/>
<path d="M2133 1635 c0 -22 2 -30 4 -17 2 12 2 30 0 40 -3 9 -5 -1 -4 -23z"/>
<path d="M1947 1653 c-4 -3 -7 -17 -7 -30 0 -21 5 -23 45 -23 43 0 45 1 45 30
0 17 -4 30 -10 30 -5 0 -10 -12 -10 -26 0 -21 -4 -25 -22 -22 -17 2 -23 9 -22
26 1 22 -7 28 -19 15z"/>
<path d="M1738 1615 c5 -42 22 -47 22 -6 0 23 5 31 23 34 14 3 10 5 -13 6 -35
1 -36 0 -32 -34z"/>
<path d="M1648 1609 c-3 -19 -1 -37 5 -41 16 -10 31 2 18 15 -16 16 -13 47 4
47 10 0 15 -11 15 -35 0 -44 14 -45 29 -3 13 37 13 37 -31 45 -34 5 -36 4 -40
-28z"/>
<path d="M3855 1624 c-138 -28 -174 -37 -169 -45 2 -4 0 -10 -6 -14 -5 -3 -10
-1 -10 5 0 6 -10 8 -27 4 -41 -10 -45 -14 -31 -31 9 -11 24 -14 58 -10 70 8
74 10 87 37 16 30 69 35 84 8 5 -10 17 -14 29 -11 11 3 17 10 13 17 -4 8 -2 7
7 -1 14 -13 43 -6 34 8 -3 5 2 6 10 3 12 -5 36 21 36 40 0 9 -38 6 -115 -10z
m35 -8 c0 -3 -4 -8 -10 -11 -5 -3 -10 -1 -10 4 0 6 5 11 10 11 6 0 10 -2 10
-4z m-240 -66 c8 -5 11 -10 5 -10 -5 0 -17 5 -25 10 -8 5 -10 10 -5 10 6 0 17
-5 25 -10z"/>
<path d="M1787 1623 c-9 -8 -9 -43 -1 -43 8 0 33 32 34 43 0 9 -24 9 -33 0z"/>
<path d="M2270 1578 c0 -4 16 -8 35 -8 19 0 35 2 35 4 0 2 -16 6 -35 8 -19 2
-35 0 -35 -4z"/>
<path d="M2360 1555 c0 -8 10 -19 22 -24 31 -11 230 -13 248 -2 10 7 20 5 31
-5 23 -21 215 -26 211 -6 -1 8 2 11 7 8 5 -4 13 -1 17 5 5 8 -3 10 -25 7 -17
-2 -31 -1 -31 3 0 9 -120 19 -317 25 -145 5 -163 4 -163 -11z m408 -22 c-10
-2 -28 -2 -40 0 -13 2 -5 4 17 4 22 1 32 -1 23 -4z m49 1 c-3 -3 -12 -4 -19
-1 -8 3 -5 6 6 6 11 1 17 -2 13 -5z"/>
<path d="M3312 1549 c-57 -4 -149 -10 -205 -13 -56 -2 -104 -5 -106 -5 -2 -1
4 -10 14 -21 16 -18 31 -20 123 -20 80 0 107 3 116 14 18 24 61 30 79 12 23
-24 109 -21 131 3 10 11 15 25 11 30 -7 12 -11 12 -163 0z m58 -13 c0 -3 -4
-8 -10 -11 -5 -3 -10 -1 -10 4 0 6 5 11 10 11 6 0 10 -2 10 -4z m37 -2 c-3 -3
-12 -4 -19 -1 -8 3 -5 6 6 6 11 1 17 -2 13 -5z"/>
</g>
</svg>
